<svg width="50" height="28" viewBox="0 0 50 28" fill="none" xmlns="http://www.w3.org/2000/svg">
<path d="M11.3841 22.7372C10.7791 22.7336 10.1755 22.6799 9.57932 22.5769C8.34228 22.3438 7.16349 21.8686 6.11097 21.1786C5.05845 20.4885 4.15297 19.5972 3.44655 18.556C2.74012 17.5148 2.24677 16.3443 1.99487 15.1118C1.74297 13.8793 1.73743 12.6092 1.97872 11.3746C2.45474 8.88191 3.90219 6.68026 6.00265 5.25401C8.1031 3.82777 10.6845 3.29368 13.179 3.76937C15.6735 4.24505 17.8767 5.69148 19.304 7.79044C20.7312 9.8894 21.2656 12.469 20.7895 14.9617C20.3665 17.1462 19.1972 19.116 17.4817 20.5343C15.7661 21.9526 13.6107 22.7313 11.3841 22.7372ZM11.3841 5.44274C9.3842 5.44084 7.46037 6.20859 6.01183 7.58654C4.56328 8.96449 3.70132 10.8468 3.60481 12.843C3.5083 14.8392 4.18459 16.7959 5.49346 18.307C6.80232 19.8181 8.64325 20.7675 10.6341 20.9583C12.6249 21.149 14.6127 20.5665 16.1851 19.3315C17.7574 18.0965 18.7935 16.3039 19.0784 14.3258C19.3632 12.3477 18.875 10.3358 17.7149 8.70792C16.5548 7.08 14.812 5.96095 12.8482 5.58304C12.3596 5.48538 11.8622 5.43835 11.3641 5.44274H11.3841Z" fill="white"/>
<path d="M11.6651 22.7572C10.9516 22.7611 10.2395 22.6939 9.53937 22.5568C6.73154 22.0168 4.23938 20.4177 2.57965 18.091C0.919926 15.7643 0.219975 12.8885 0.624909 10.0599C1.02984 7.23141 2.50862 4.66717 4.75459 2.89882C7.00057 1.13047 9.84142 0.293767 12.6881 0.562134C15.5349 0.830502 18.169 2.18341 20.0444 4.34029C21.9198 6.49718 22.8926 9.29256 22.761 12.1469C22.6294 15.0012 21.4037 17.6953 19.3378 19.6708C17.2719 21.6462 14.5245 22.7515 11.6651 22.7572ZM11.6651 2.29642C9.81097 2.29107 7.99915 2.85027 6.47102 3.89959C5.20903 4.76029 4.17857 5.91829 3.47061 7.2713C2.76265 8.62432 2.39908 10.1307 2.41184 11.6575C2.4246 13.1842 2.81333 14.6844 3.5438 16.0254C4.27428 17.3665 5.32396 18.5071 6.60016 19.3466C7.87635 20.1862 9.33975 20.6988 10.8612 20.8391C12.3826 20.9795 13.9152 20.7432 15.3237 20.1513C16.7321 19.5595 17.973 18.6302 18.9368 17.4455C19.9006 16.2608 20.5577 14.8571 20.85 13.3585C21.3088 10.933 20.7879 8.42459 19.4012 6.38171C18.0145 4.33884 15.8749 2.92765 13.45 2.45678C12.8605 2.3537 12.2635 2.30003 11.6651 2.29642Z" fill="white"/>
<path d="M38.7172 27.9277H37.5741H37.0928H36.6316L36.1503 27.8074L35.649 27.6872C32.8605 26.9215 30.4788 25.1031 29.0065 22.6159C27.5342 20.1288 27.0864 17.1674 27.7578 14.3566C28.4291 11.5458 30.167 9.10555 32.6046 7.55089C35.0422 5.99623 37.9889 5.44868 40.8228 6.02392C40.9417 6.04292 41.0554 6.08611 41.157 6.15064C41.2586 6.21517 41.3458 6.2997 41.4134 6.39918C41.481 6.49867 41.5275 6.61094 41.5501 6.72906C41.5727 6.84719 41.571 6.9687 41.5449 7.0861C41.4963 7.32612 41.356 7.53772 41.1538 7.67614C40.9517 7.81456 40.7034 7.86891 40.4619 7.82757C38.1526 7.47851 35.7966 8.01001 33.8613 9.3165C31.926 10.623 30.5531 12.609 30.0152 14.8801C29.4773 17.1512 29.8137 19.5413 30.9577 21.576C32.1017 23.6108 33.9695 25.1412 36.1903 25.8635L36.5513 25.9637H36.9725H37.3736H37.7345C40.0398 26.1706 42.34 25.5172 44.1916 24.1295C46.0432 22.7418 47.3149 20.7181 47.7616 18.4487V18.3084C48.035 17.1121 48.055 15.8719 47.8201 14.6674C47.5853 13.4629 47.1008 12.3208 46.398 11.3145C46.3294 11.2145 46.2811 11.1021 46.2561 10.9835C46.2311 10.8649 46.2297 10.7425 46.2521 10.6234C46.2744 10.5043 46.3201 10.3907 46.3865 10.2893C46.4528 10.1878 46.5384 10.1003 46.6386 10.0319C46.7377 9.96068 46.8503 9.9103 46.9694 9.88379C47.0886 9.85728 47.2119 9.85519 47.3319 9.87767C47.4519 9.90015 47.5659 9.94682 47.6674 10.0147C47.7688 10.0825 47.8555 10.1702 47.9221 10.2725C48.7611 11.4868 49.3401 12.8611 49.6231 14.3094C49.9061 15.7576 49.8868 17.2487 49.5666 18.6892C49.111 21.2475 47.7796 23.568 45.8004 25.2534C43.8212 26.9388 41.3172 27.8842 38.7172 27.9277Z" fill="white"/>
<path d="M38.4367 27.9075C37.8251 27.903 37.2149 27.8494 36.6119 27.7472C35.3322 27.5584 34.1039 27.1127 33.0012 26.4371C31.8984 25.7614 30.9438 24.8697 30.195 23.8156C29.4462 22.7616 28.9187 21.5671 28.6442 20.3039C28.3696 19.0407 28.3538 17.735 28.5975 16.4655C28.8413 15.1961 29.3397 13.989 30.0627 12.9171C30.7856 11.8452 31.7183 10.9306 32.8043 10.2284C33.8904 9.52617 35.1074 9.05081 36.3821 8.83106C37.6569 8.61132 38.9629 8.6517 40.2216 8.94971C41.4566 9.18286 42.6334 9.65741 43.6844 10.3462C44.7354 11.0349 45.64 11.9244 46.3462 12.9633C47.0524 14.0023 47.5463 15.1704 47.7996 16.4006C48.0528 17.6308 48.0606 18.8989 47.8222 20.132C47.407 22.3166 46.2427 24.2881 44.5296 25.7073C42.8166 27.1265 40.6619 27.9046 38.4367 27.9075ZM38.4367 10.6131C36.6444 10.6292 34.9123 11.2616 33.5318 12.404C32.1512 13.5463 31.2064 15.1289 30.8563 16.8856C30.5666 18.3879 30.7293 19.9424 31.3237 21.3524C31.9181 22.7623 32.9175 23.9644 34.1957 24.8067C35.4738 25.6491 36.9731 26.0938 38.5042 26.0846C40.0352 26.0753 41.5292 25.6125 42.797 24.7548C44.0649 23.897 45.0497 22.6829 45.6269 21.2659C46.2042 19.8488 46.348 18.2926 46.0402 16.7938C45.7323 15.2951 44.9867 13.9212 43.8974 12.846C42.8082 11.7708 41.4243 11.0426 39.9209 10.7534C39.419 10.6544 38.9082 10.6073 38.3967 10.6131H38.4367Z" fill="white"/>
<path d="M29.834 12.2563H29.7136L21.5516 10.6931C21.4327 10.6741 21.3191 10.631 21.2175 10.5665C21.116 10.502 21.0287 10.4173 20.9611 10.3178C20.8935 10.2184 20.8469 10.1062 20.8243 9.98808C20.8017 9.86996 20.8035 9.74844 20.8297 9.63105C20.8489 9.51177 20.892 9.3975 20.9563 9.29517C21.0206 9.19285 21.1048 9.10454 21.204 9.03538C21.3031 8.96622 21.4152 8.91769 21.5335 8.89264C21.6517 8.86759 21.7738 8.86655 21.8925 8.88958L30.0545 10.4526C30.2936 10.501 30.5038 10.642 30.6391 10.8448C30.7744 11.0476 30.8238 11.2956 30.7766 11.5347C30.7334 11.7486 30.614 11.9395 30.4407 12.0722C30.2674 12.2048 30.0518 12.2703 29.834 12.2563Z" fill="white"/>
<path d="M29.9141 17.607H29.7136L19.6865 15.603C19.5663 15.5813 19.4517 15.5361 19.3491 15.4698C19.2466 15.4035 19.1582 15.3175 19.0892 15.2168C19.0201 15.1162 18.9719 15.0028 18.9471 14.8833C18.9222 14.7638 18.9213 14.6407 18.9445 14.5209C18.9929 14.282 19.134 14.0719 19.3369 13.9367C19.5398 13.8015 19.7881 13.7521 20.0274 13.7993L30.0544 15.8033C30.2935 15.8517 30.5037 15.9928 30.639 16.1956C30.7743 16.3984 30.8238 16.6465 30.7765 16.8856C30.7357 17.0856 30.6281 17.2659 30.4715 17.397C30.3148 17.528 30.1183 17.602 29.9141 17.607Z" fill="white"/>
<path d="M44.2728 8.96981C44.6937 8.96981 45.0349 8.62887 45.0349 8.2083C45.0349 7.78772 44.6937 7.44678 44.2728 7.44678C43.8519 7.44678 43.5107 7.78772 43.5107 8.2083C43.5107 8.62887 43.8519 8.96981 44.2728 8.96981Z" fill="white"/>
<path d="M43.5112 20.7534H43.3908C43.3168 20.7262 43.2564 20.6711 43.2227 20.5999C43.1889 20.5287 43.1844 20.4471 43.2103 20.3726C43.5591 19.6865 43.7409 18.9278 43.7409 18.1582C43.7409 17.3887 43.5591 16.6299 43.2103 15.9437C43.1879 15.9082 43.1728 15.8687 43.1657 15.8273C43.1587 15.7859 43.1597 15.7435 43.169 15.7025C43.1784 15.6616 43.1957 15.6229 43.22 15.5887C43.2442 15.5544 43.2751 15.5253 43.3107 15.5029C43.3462 15.4806 43.3858 15.4654 43.4272 15.4583C43.4686 15.4512 43.5109 15.4524 43.5519 15.4617C43.5929 15.471 43.6317 15.4883 43.666 15.5126C43.7003 15.5369 43.7294 15.5676 43.7518 15.6031C44.1493 16.3748 44.3567 17.2301 44.3567 18.0981C44.3567 18.966 44.1493 19.8214 43.7518 20.593C43.73 20.6391 43.6961 20.6783 43.6537 20.7065C43.6114 20.7348 43.562 20.751 43.5112 20.7534Z" fill="white"/>
<path d="M6.45082 10.7934H6.29035C6.25557 10.7729 6.22522 10.7455 6.20124 10.713C6.17726 10.6805 6.16017 10.6436 6.15081 10.6043C6.14145 10.565 6.14002 10.5242 6.14677 10.4844C6.15352 10.4446 6.16832 10.4066 6.1901 10.3726C6.53972 9.57967 7.07606 8.883 7.75353 8.34211C8.431 7.80122 9.22948 7.43219 10.0806 7.26648C10.221 7.26648 10.3814 7.26639 10.4014 7.54695C10.4042 7.58644 10.399 7.62612 10.3864 7.66363C10.3737 7.70115 10.3538 7.73585 10.3277 7.76564C10.3017 7.79544 10.2699 7.81969 10.2344 7.8372C10.1988 7.85471 10.1602 7.86511 10.1206 7.86765C9.37144 8.034 8.67216 8.37477 8.07973 8.86231C7.4873 9.34985 7.01857 9.97029 6.71153 10.6732C6.68041 10.7121 6.64062 10.7432 6.59537 10.764C6.55012 10.7849 6.50063 10.795 6.45082 10.7934Z" fill="white"/>
</svg>
