<svg width="28" height="32" viewBox="0 0 28 32" fill="none" xmlns="http://www.w3.org/2000/svg">
<path d="M8.33372 0.000167234C8.18442 0.00159196 8.02944 0.0376102 7.88825 0.115873C7.43987 0.364411 7.27543 0.940607 7.52377 1.38864L8.5362 3.21679C6.09703 4.72601 4.48071 7.3038 4.48071 10.2459C4.48071 10.2583 4.48068 10.2768 4.48071 10.2951C4.48072 10.3015 4.48065 10.3052 4.48071 10.3125C4.48071 10.3221 4.48071 10.3361 4.48071 10.3385V10.7926C4.01225 10.2536 3.32361 9.91327 2.55421 9.91327C1.14462 9.91327 0 11.0579 0 12.4675V20.3355C0 21.7451 1.14462 22.8897 2.55421 22.8897C3.32361 22.8897 4.01225 22.5493 4.48071 22.0103V23.1124C4.48071 24.5983 5.69657 25.8141 7.18244 25.8141H7.868V29.3142C7.868 30.7238 9.01262 31.8685 10.4222 31.8685C11.8318 31.8685 12.9764 30.7238 12.9764 29.3142V25.8141H14.1624V29.3142C14.1624 30.7238 15.307 31.8685 16.7166 31.8685C18.1262 31.8685 19.2708 30.7238 19.2708 29.3142V25.8141H19.9564C21.4422 25.8141 22.6581 24.5983 22.6581 23.1124V22.0103C23.1266 22.5493 23.8152 22.8897 24.5846 22.8897C25.9942 22.8897 27.1388 21.7451 27.1388 20.3355V12.4675C27.1388 11.0579 25.9942 9.91327 24.5846 9.91327C23.8152 9.91327 23.1266 10.2536 22.6581 10.7926V10.3472V10.3385C22.6582 10.3246 22.6581 10.3107 22.6581 10.3125C22.6583 10.2847 22.6581 10.2626 22.6581 10.2459C22.6581 7.30432 21.0382 4.72902 18.5997 3.21969L19.615 1.38864C19.8634 0.940604 19.6989 0.364409 19.2506 0.115871C19.1094 0.0376074 18.9544 0.00159105 18.8051 0.000164497C18.474 -0.00300461 18.149 0.171495 17.9778 0.480344L16.9162 2.39817C15.8782 2.01511 14.7487 1.80518 13.5694 1.80518C12.3913 1.80518 11.2598 2.01296 10.2226 2.39528L9.16101 0.480344C8.98982 0.171494 8.66482 -0.0029973 8.33372 0.000164497V0.000167234Z" fill="white"/>
<path d="M2.55427 10.5786C1.50237 10.5786 0.665367 11.4156 0.665367 12.4675V20.3355C0.665367 21.3874 1.50237 22.2244 2.55427 22.2244C3.60616 22.2244 4.44316 21.3874 4.44316 20.3355V12.4675C4.44316 11.4156 3.60616 10.5786 2.55427 10.5786ZM24.5847 10.5786C23.5328 10.5786 22.6958 11.4156 22.6958 12.4675V20.3355C22.6958 21.3874 23.5328 22.2244 24.5847 22.2244C25.6366 22.2244 26.4736 21.3874 26.4736 20.3355V12.4675C26.4736 11.4156 25.6366 10.5786 24.5847 10.5786Z" fill="#C3D2DF"/>
<path d="M10.4222 19.5573C9.37031 19.5573 8.53331 20.3943 8.53331 21.4462V29.3142C8.53331 30.3661 9.37031 31.2031 10.4222 31.2031C11.4741 31.2031 12.3111 30.3661 12.3111 29.3142V21.4462C12.3111 20.3943 11.4741 19.5573 10.4222 19.5573ZM16.7166 19.5573C15.6647 19.5573 14.8277 20.3943 14.8277 21.4462V29.3142C14.8277 30.3661 15.6647 31.2031 16.7166 31.2031C17.7685 31.2031 18.6055 30.3661 18.6055 29.3142V21.4462C18.6055 20.3943 17.7685 19.5573 16.7166 19.5573Z" fill="#C3D2DF"/>
<path d="M8.3395 0.665479C8.29485 0.665936 8.25324 0.677456 8.21223 0.700191C8.07753 0.774853 8.03324 0.929631 8.10809 1.06467L9.43871 3.46845C6.87866 4.80052 5.14948 7.33197 5.14602 10.2372H21.9928C21.9893 7.33197 20.2602 4.80052 17.7001 3.46845L19.0307 1.06467C19.1056 0.929631 19.0613 0.774853 18.9266 0.700191C18.8856 0.677456 18.844 0.665905 18.7993 0.665479C18.7037 0.664557 18.6131 0.712318 18.5621 0.804326L17.2141 3.23415C16.1114 2.74503 14.8746 2.47049 13.5694 2.47049C12.2642 2.47049 11.0274 2.74503 9.92467 3.23415L8.5767 0.804326C8.5257 0.712318 8.43509 0.664562 8.3395 0.665479ZM5.14602 10.9026V23.1124C5.14602 24.2406 6.05426 25.1488 7.18244 25.1488H19.9564C21.0846 25.1488 21.9928 24.2406 21.9928 23.1124V10.9026H5.14602Z" fill="#C3D2DF"/>
<path d="M9.68167 5.74786C9.29708 5.74786 8.97875 6.0662 8.97875 6.45078C8.97875 6.83536 9.29708 7.15369 9.68167 7.15369C10.0662 7.15369 10.3846 6.83536 10.3846 6.45078C10.3846 6.0662 10.0662 5.74786 9.68167 5.74786ZM17.4571 5.74786C17.0725 5.74786 16.7542 6.0662 16.7542 6.45078C16.7542 6.83536 17.0725 7.15369 17.4571 7.15369C17.8417 7.15369 18.16 6.83536 18.16 6.45078C18.16 6.0662 17.8417 5.74786 17.4571 5.74786Z" fill="white"/>
</svg>
