<svg width="32" height="32" viewBox="0 0 32 32" fill="none" xmlns="http://www.w3.org/2000/svg">
<g clip-path="url(#clip0_330_1517)">
<path d="M20.6763 4.86349C21.8804 3.57443 22.6949 1.78475 22.472 0.00012207C20.7373 0.0620282 18.6349 1.01839 17.3897 2.30733C16.2735 3.44843 15.2963 5.27213 15.5571 7.02175C17.4928 7.1527 19.4703 6.15046 20.6763 4.86349ZM24.3706 17.1882C24.3336 13.1872 27.5383 11.2656 27.6802 11.1728C25.8786 8.4558 23.0727 8.08404 22.0734 8.04211C19.6842 7.7913 17.4149 9.489 16.2019 9.489C14.9938 9.489 13.1252 8.07504 11.1437 8.11301C8.53866 8.15593 6.13837 9.67285 4.80047 12.077C2.09438 16.9135 4.10688 24.078 6.74382 28.001C8.03288 29.9215 9.56769 32.076 11.5832 31.998C13.5287 31.9201 14.2621 30.704 16.6094 30.704C18.9577 30.704 19.6152 31.998 21.6696 31.9591C23.76 31.9201 25.083 30.0016 26.3611 28.075C27.8399 25.8477 28.4495 23.6913 28.4844 23.5824C28.4395 23.5564 24.4135 21.9726 24.3706 17.1882Z" fill="#C3D2DF"/>
</g>
<defs>
<clipPath id="clip0_330_1517">
<rect width="32" height="32" fill="white"/>
</clipPath>
</defs>
</svg>
