<svg width="47" height="47" viewBox="0 0 47 47" fill="none" xmlns="http://www.w3.org/2000/svg">
<path d="M23.4766 46.0469C26.6484 46.0469 29.6172 45.4453 32.3828 44.2422C35.1484 43.0547 37.5859 41.4062 39.6953 39.2969C41.8047 37.1875 43.4609 34.75 44.6641 31.9844C45.8672 29.2031 46.4688 26.2344 46.4688 23.0781C46.4688 19.9219 45.8672 16.9609 44.6641 14.1953C43.4609 11.4141 41.8047 8.96875 39.6953 6.85938C37.5859 4.75 35.1406 3.10156 32.3594 1.91406C29.5938 0.710938 26.6328 0.109375 23.4766 0.109375C20.3203 0.109375 17.3516 0.710938 14.5703 1.91406C11.8047 3.10156 9.36719 4.75 7.25781 6.85938C5.14844 8.96875 3.49219 11.4141 2.28906 14.1953C1.10156 16.9609 0.507812 19.9219 0.507812 23.0781C0.507812 26.2344 1.10156 29.2031 2.28906 31.9844C3.49219 34.75 5.14844 37.1875 7.25781 39.2969C9.36719 41.4062 11.8047 43.0547 14.5703 44.2422C17.3516 45.4453 20.3203 46.0469 23.4766 46.0469ZM23.4766 44.2656C20.5547 44.2656 17.8125 43.7188 15.25 42.625C12.6875 41.5312 10.4297 40.0156 8.47656 38.0781C6.53906 36.125 5.02344 33.8672 3.92969 31.3047C2.83594 28.7422 2.28906 26 2.28906 23.0781C2.28906 20.1562 2.83594 17.4141 3.92969 14.8516C5.02344 12.2891 6.53906 10.0312 8.47656 8.07812C10.4297 6.125 12.6875 4.60156 15.25 3.50781C17.8125 2.41406 20.5547 1.86719 23.4766 1.86719C26.4141 1.86719 29.1562 2.41406 31.7031 3.50781C34.2656 4.60156 36.5234 6.125 38.4766 8.07812C40.4297 10.0312 41.9531 12.2891 43.0469 14.8516C44.1406 17.4141 44.6875 20.1562 44.6875 23.0781C44.6875 26 44.1406 28.7422 43.0469 31.3047C41.9531 33.8672 40.4297 36.125 38.4766 38.0781C36.5391 40.0156 34.2891 41.5312 31.7266 42.625C29.1641 43.7188 26.4141 44.2656 23.4766 44.2656ZM18.5078 34.4688C18.6641 34.6406 18.8594 34.7266 19.0938 34.7266C19.3281 34.7266 19.5391 34.6406 19.7266 34.4688L30.3672 24.0859C30.5703 23.8828 30.7109 23.6562 30.7891 23.4062C30.8672 23.1562 30.8672 22.9141 30.7891 22.6797C30.7266 22.4297 30.5859 22.2031 30.3672 22L19.7266 11.6172C19.5391 11.4297 19.3281 11.3438 19.0938 11.3594C18.875 11.3594 18.6797 11.4375 18.5078 11.5938C18.3359 11.75 18.25 11.9531 18.25 12.2031C18.25 12.4375 18.3438 12.6406 18.5312 12.8125L29.0078 23.0312L18.5312 33.2734C18.3438 33.4297 18.25 33.625 18.25 33.8594C18.2656 34.0938 18.3516 34.2969 18.5078 34.4688Z" fill="white"/>
</svg>
