<svg width="47" height="47" viewBox="0 0 47 47" fill="none" xmlns="http://www.w3.org/2000/svg">
<path d="M23.1641 46.0469C26.3359 46.0469 29.3047 45.4453 32.0703 44.2422C34.8359 43.0547 37.2734 41.4062 39.3828 39.2969C41.4922 37.1875 43.1484 34.75 44.3516 31.9844C45.5547 29.2031 46.1562 26.2344 46.1562 23.0781C46.1562 19.9219 45.5547 16.9609 44.3516 14.1953C43.1484 11.4141 41.4922 8.96875 39.3828 6.85938C37.2734 4.75 34.8281 3.10156 32.0469 1.91406C29.2812 0.710938 26.3203 0.109375 23.1641 0.109375C20.0078 0.109375 17.0391 0.710938 14.2578 1.91406C11.4922 3.10156 9.05469 4.75 6.94531 6.85938C4.83594 8.96875 3.17969 11.4141 1.97656 14.1953C0.789062 16.9609 0.195312 19.9219 0.195312 23.0781C0.195312 26.2344 0.789062 29.2031 1.97656 31.9844C3.17969 34.75 4.83594 37.1875 6.94531 39.2969C9.05469 41.4062 11.4922 43.0547 14.2578 44.2422C17.0391 45.4453 20.0078 46.0469 23.1641 46.0469ZM23.1641 44.2656C20.2422 44.2656 17.5 43.7188 14.9375 42.625C12.375 41.5312 10.1172 40.0156 8.16406 38.0781C6.22656 36.125 4.71094 33.8672 3.61719 31.3047C2.52344 28.7422 1.97656 26 1.97656 23.0781C1.97656 20.1562 2.52344 17.4141 3.61719 14.8516C4.71094 12.2891 6.22656 10.0312 8.16406 8.07812C10.1172 6.125 12.375 4.60156 14.9375 3.50781C17.5 2.41406 20.2422 1.86719 23.1641 1.86719C26.1016 1.86719 28.8438 2.41406 31.3906 3.50781C33.9531 4.60156 36.2109 6.125 38.1641 8.07812C40.1172 10.0312 41.6406 12.2891 42.7344 14.8516C43.8281 17.4141 44.375 20.1562 44.375 23.0781C44.375 26 43.8281 28.7422 42.7344 31.3047C41.6406 33.8672 40.1172 36.125 38.1641 38.0781C36.2266 40.0156 33.9766 41.5312 31.4141 42.625C28.8516 43.7188 26.1016 44.2656 23.1641 44.2656ZM18.1953 34.4688C18.3516 34.6406 18.5469 34.7266 18.7812 34.7266C19.0156 34.7266 19.2266 34.6406 19.4141 34.4688L30.0547 24.0859C30.2578 23.8828 30.3984 23.6562 30.4766 23.4062C30.5547 23.1562 30.5547 22.9141 30.4766 22.6797C30.4141 22.4297 30.2734 22.2031 30.0547 22L19.4141 11.6172C19.2266 11.4297 19.0156 11.3438 18.7812 11.3594C18.5625 11.3594 18.3672 11.4375 18.1953 11.5938C18.0234 11.75 17.9375 11.9531 17.9375 12.2031C17.9375 12.4375 18.0312 12.6406 18.2188 12.8125L28.6953 23.0312L18.2188 33.2734C18.0312 33.4297 17.9375 33.625 17.9375 33.8594C17.9531 34.0938 18.0391 34.2969 18.1953 34.4688Z" fill="black"/>
</svg>
