<svg width="24" height="24" viewBox="0 0 24 24" fill="none" xmlns="http://www.w3.org/2000/svg">
<path d="M11.9883 23.0234C13.5742 23.0234 15.0586 22.7227 16.4414 22.1211C17.8242 21.5273 19.043 20.7031 20.0977 19.6484C21.1523 18.5938 21.9805 17.375 22.582 15.9922C23.1836 14.6016 23.4844 13.1172 23.4844 11.5391C23.4844 9.96094 23.1836 8.48047 22.582 7.09766C21.9805 5.70703 21.1523 4.48438 20.0977 3.42969C19.043 2.375 17.8203 1.55078 16.4297 0.957031C15.0469 0.355469 13.5664 0.0546875 11.9883 0.0546875C10.4102 0.0546875 8.92578 0.355469 7.53516 0.957031C6.15234 1.55078 4.93359 2.375 3.87891 3.42969C2.82422 4.48438 1.99609 5.70703 1.39453 7.09766C0.800781 8.48047 0.503906 9.96094 0.503906 11.5391C0.503906 13.1172 0.800781 14.6016 1.39453 15.9922C1.99609 17.375 2.82422 18.5938 3.87891 19.6484C4.93359 20.7031 6.15234 21.5273 7.53516 22.1211C8.92578 22.7227 10.4102 23.0234 11.9883 23.0234ZM11.9883 22.1328C10.5273 22.1328 9.15625 21.8594 7.875 21.3125C6.59375 20.7656 5.46484 20.0078 4.48828 19.0391C3.51953 18.0625 2.76172 16.9336 2.21484 15.6523C1.66797 14.3711 1.39453 13 1.39453 11.5391C1.39453 10.0781 1.66797 8.70703 2.21484 7.42578C2.76172 6.14453 3.51953 5.01562 4.48828 4.03906C5.46484 3.0625 6.59375 2.30078 7.875 1.75391C9.15625 1.20703 10.5273 0.933594 11.9883 0.933594C13.457 0.933594 14.8281 1.20703 16.1016 1.75391C17.3828 2.30078 18.5117 3.0625 19.4883 4.03906C20.4648 5.01562 21.2266 6.14453 21.7734 7.42578C22.3203 8.70703 22.5938 10.0781 22.5938 11.5391C22.5938 13 22.3203 14.3711 21.7734 15.6523C21.2266 16.9336 20.4648 18.0625 19.4883 19.0391C18.5195 20.0078 17.3945 20.7656 16.1133 21.3125C14.832 21.8594 13.457 22.1328 11.9883 22.1328ZM9.50391 17.2344C9.58203 17.3203 9.67969 17.3633 9.79688 17.3633C9.91406 17.3633 10.0195 17.3203 10.1133 17.2344L15.4336 12.043C15.5352 11.9414 15.6055 11.8281 15.6445 11.7031C15.6836 11.5781 15.6836 11.457 15.6445 11.3398C15.6133 11.2148 15.543 11.1016 15.4336 11L10.1133 5.80859C10.0195 5.71484 9.91406 5.67188 9.79688 5.67969C9.6875 5.67969 9.58984 5.71875 9.50391 5.79688C9.41797 5.875 9.375 5.97656 9.375 6.10156C9.375 6.21875 9.42188 6.32031 9.51562 6.40625L14.7539 11.5156L9.51562 16.6367C9.42188 16.7148 9.375 16.8125 9.375 16.9297C9.38281 17.0469 9.42578 17.1484 9.50391 17.2344Z" fill="white"/>
</svg>
