<svg xmlns="http://www.w3.org/2000/svg" xmlns:xlink="http://www.w3.org/1999/xlink" viewBox="0 0 260.53 265.95"><defs><style>.cls-1{fill:url(#radial-gradient);}.cls-2{fill:url(#radial-gradient-2);}.cls-3{fill:url(#radial-gradient-3);}.cls-4{fill:url(#radial-gradient-4);}.cls-5{fill:url(#radial-gradient-5);}.cls-6{fill:url(#radial-gradient-6);}.cls-7{fill:url(#radial-gradient-7);}.cls-8{fill:url(#radial-gradient-8);}.cls-9{fill:url(#radial-gradient-9);}.cls-10{fill:url(#radial-gradient-10);}.cls-11{fill:url(#radial-gradient-11);}.cls-12{fill:url(#radial-gradient-12);}.cls-13{fill:url(#radial-gradient-13);}.cls-14{fill:url(#radial-gradient-15);}.cls-15{fill:url(#radial-gradient-16);}.cls-16{fill:url(#radial-gradient-17);}.cls-17{fill:url(#radial-gradient-18);}.cls-18{fill:url(#radial-gradient-19);}.cls-19{fill:url(#radial-gradient-21);}.cls-20{fill:url(#radial-gradient-23);}.cls-21{fill:url(#radial-gradient-24);}.cls-22{fill:url(#radial-gradient-25);}.cls-23{fill:url(#radial-gradient-26);}.cls-24{fill:url(#radial-gradient-28);}.cls-25{fill:url(#radial-gradient-29);}.cls-26{fill:url(#radial-gradient-30);}.cls-27{fill:url(#radial-gradient-31);}.cls-28{fill:url(#radial-gradient-32);}.cls-29{fill:url(#radial-gradient-33);}.cls-30{fill:url(#radial-gradient-34);}.cls-31{fill:url(#radial-gradient-35);}.cls-32{fill:url(#radial-gradient-36);}.cls-33{fill:url(#radial-gradient-37);}.cls-34{fill:url(#radial-gradient-38);}.cls-35{fill:url(#radial-gradient-39);}.cls-36{fill:url(#radial-gradient-41);}.cls-37{fill:url(#radial-gradient-42);}.cls-38{fill:url(#radial-gradient-43);}.cls-39{fill:url(#radial-gradient-44);}.cls-40{fill:url(#radial-gradient-45);}.cls-41{fill:url(#radial-gradient-47);}.cls-42{fill:url(#radial-gradient-48);}.cls-43{fill:url(#radial-gradient-49);}.cls-44{fill:url(#radial-gradient-50);}.cls-45{fill:url(#radial-gradient-51);}.cls-46{fill:url(#radial-gradient-52);}.cls-47{fill:url(#radial-gradient-53);}.cls-48{fill:url(#radial-gradient-55);}</style><radialGradient id="radial-gradient" cx="-41.1" cy="520.42" r="1" gradientTransform="matrix(133.3, 0, 0, -136.07, 5608.24, 70944.2)" gradientUnits="userSpaceOnUse"><stop offset="0.91" stop-color="#113"/><stop offset="0.95" stop-color="#939393"/><stop offset="1" stop-color="#c7c7c7"/></radialGradient><radialGradient id="radial-gradient-2" cx="-40.59" cy="520.82" r="1" gradientTransform="matrix(423.02, 0, 0, -431.81, 17325.78, 224950.26)" gradientUnits="userSpaceOnUse"><stop offset="0.07" stop-color="#b0b0b0"/><stop offset="1"/></radialGradient><radialGradient id="radial-gradient-3" cx="-40.59" cy="520.82" r="1" gradientTransform="matrix(423.01, 0, 0, -431.81, 17325.38, 224949.23)" xlink:href="#radial-gradient-2"/><radialGradient id="radial-gradient-4" cx="-40.59" cy="520.82" r="1" gradientTransform="matrix(423.02, 0, 0, -431.81, 17325.74, 224948.71)" xlink:href="#radial-gradient-2"/><radialGradient id="radial-gradient-5" cx="-40.59" cy="520.82" r="1" gradientTransform="matrix(423.01, 0, 0, -431.8, 17325.62, 224947.13)" xlink:href="#radial-gradient-2"/><radialGradient id="radial-gradient-6" cx="-40.59" cy="520.82" r="1" gradientTransform="matrix(423.01, 0, 0, -431.81, 17325.46, 224948.18)" xlink:href="#radial-gradient-2"/><radialGradient id="radial-gradient-7" cx="-40.59" cy="520.82" r="1" gradientTransform="matrix(423, 0, 0, -431.79, 17325.17, 224941.94)" xlink:href="#radial-gradient-2"/><radialGradient id="radial-gradient-8" cx="-40.59" cy="520.82" r="1" gradientTransform="matrix(423.01, 0, 0, -431.8, 17325.58, 224947.66)" xlink:href="#radial-gradient-2"/><radialGradient id="radial-gradient-9" cx="-40.59" cy="520.82" r="1" gradientTransform="matrix(423, 0, 0, -431.8, 17325.17, 224942.97)" xlink:href="#radial-gradient-2"/><radialGradient id="radial-gradient-10" cx="-40.59" cy="520.82" r="1" gradientTransform="matrix(423.01, 0, 0, -431.8, 17325.46, 224946.1)" xlink:href="#radial-gradient-2"/><radialGradient id="radial-gradient-11" cx="-40.59" cy="520.82" r="1" gradientTransform="matrix(423.02, 0, 0, -431.81, 17325.74, 224951.83)" xlink:href="#radial-gradient-2"/><radialGradient id="radial-gradient-12" cx="-40.59" cy="520.82" r="1" gradientTransform="matrix(423.01, 0, 0, -431.8, 17325.46, 224946.1)" xlink:href="#radial-gradient-2"/><radialGradient id="radial-gradient-13" cx="-40.59" cy="520.82" r="1" gradientTransform="matrix(423.01, 0, 0, -431.8, 17325.46, 224945.57)" xlink:href="#radial-gradient-2"/><radialGradient id="radial-gradient-15" cx="-40.59" cy="520.82" r="1" gradientTransform="matrix(423.01, 0, 0, -431.8, 17325.34, 224944.02)" xlink:href="#radial-gradient-2"/><radialGradient id="radial-gradient-16" cx="-40.59" cy="520.82" r="1" gradientTransform="matrix(423.01, 0, 0, -431.8, 17325.42, 224946.1)" xlink:href="#radial-gradient-2"/><radialGradient id="radial-gradient-17" cx="-40.59" cy="520.82" r="1" gradientTransform="matrix(422.98, 0, 0, -431.79, 17324.52, 224938.8)" xlink:href="#radial-gradient-2"/><radialGradient id="radial-gradient-18" cx="-40.59" cy="520.82" r="1" gradientTransform="matrix(422.99, 0, 0, -431.79, 17324.73, 224940.88)" xlink:href="#radial-gradient-2"/><radialGradient id="radial-gradient-19" cx="-40.59" cy="520.82" r="1" gradientTransform="matrix(423.01, 0, 0, -431.8, 17325.34, 224946.1)" xlink:href="#radial-gradient-2"/><radialGradient id="radial-gradient-21" cx="-40.59" cy="520.82" r="1" gradientTransform="matrix(423.01, 0, 0, -431.81, 17325.54, 224948.71)" xlink:href="#radial-gradient-2"/><radialGradient id="radial-gradient-23" cx="-40.59" cy="520.82" r="1" gradientTransform="matrix(423, 0, 0, -431.8, 17325.29, 224944.54)" xlink:href="#radial-gradient-2"/><radialGradient id="radial-gradient-24" cx="-40.59" cy="520.82" r="1" gradientTransform="matrix(423, 0, 0, -431.8, 17325.13, 224942.97)" xlink:href="#radial-gradient-2"/><radialGradient id="radial-gradient-25" cx="-40.59" cy="520.82" r="1" gradientTransform="matrix(423.01, 0, 0, -431.8, 17325.62, 224947.66)" xlink:href="#radial-gradient-2"/><radialGradient id="radial-gradient-26" cx="-40.59" cy="520.82" r="1" gradientTransform="matrix(423.01, 0, 0, -431.8, 17325.46, 224946.1)" xlink:href="#radial-gradient-2"/><radialGradient id="radial-gradient-28" cx="-40.59" cy="520.82" r="1" gradientTransform="matrix(423, 0, 0, -431.8, 17325.3, 224944.54)" xlink:href="#radial-gradient-2"/><radialGradient id="radial-gradient-29" cx="-40.59" cy="520.82" r="1" gradientTransform="matrix(423.02, 0, 0, -431.81, 17325.74, 224948.18)" xlink:href="#radial-gradient-2"/><radialGradient id="radial-gradient-30" cx="-40.59" cy="520.82" r="1" gradientTransform="matrix(423.02, 0, 0, -431.81, 17326.1, 224948.71)" xlink:href="#radial-gradient-2"/><radialGradient id="radial-gradient-31" cx="-40.59" cy="520.82" r="1" gradientTransform="matrix(423.01, 0, 0, -431.8, 17325.58, 224947.66)" xlink:href="#radial-gradient-2"/><radialGradient id="radial-gradient-32" cx="-40.59" cy="520.82" r="1" gradientTransform="matrix(423.02, 0, 0, -431.81, 17325.94, 224950.79)" xlink:href="#radial-gradient-2"/><radialGradient id="radial-gradient-33" cx="-40.59" cy="520.82" r="1" gradientTransform="matrix(423.01, 0, 0, -431.8, 17325.38, 224945.57)" xlink:href="#radial-gradient-2"/><radialGradient id="radial-gradient-34" cx="-40.59" cy="520.82" r="1" gradientTransform="matrix(423.01, 0, 0, -431.81, 17325.58, 224950.27)" xlink:href="#radial-gradient-2"/><radialGradient id="radial-gradient-35" cx="-40.59" cy="520.82" r="1" gradientTransform="matrix(423, 0, 0, -431.8, 17325.18, 224944.54)" xlink:href="#radial-gradient-2"/><radialGradient id="radial-gradient-36" cx="-40.59" cy="520.82" r="1" gradientTransform="matrix(423.02, 0, 0, -431.81, 17326.14, 224952.35)" xlink:href="#radial-gradient-2"/><radialGradient id="radial-gradient-37" cx="-40.59" cy="520.82" r="1" gradientTransform="matrix(422.99, 0, 0, -431.79, 17324.82, 224940.36)" xlink:href="#radial-gradient-2"/><radialGradient id="radial-gradient-38" cx="-40.59" cy="520.82" r="1" gradientTransform="matrix(423.01, 0, 0, -431.8, 17325.38, 224944.54)" xlink:href="#radial-gradient-2"/><radialGradient id="radial-gradient-39" cx="-40.59" cy="520.82" r="1" gradientTransform="matrix(423.01, 0, 0, -431.8, 17325.54, 224946.1)" xlink:href="#radial-gradient-2"/><radialGradient id="radial-gradient-41" cx="-40.59" cy="520.82" r="1" gradientTransform="matrix(423.01, 0, 0, -431.79, 17325.33, 224941.41)" xlink:href="#radial-gradient-2"/><radialGradient id="radial-gradient-42" cx="-40.59" cy="520.82" r="1" gradientTransform="matrix(423.01, 0, 0, -431.8, 17325.42, 224946.1)" xlink:href="#radial-gradient-2"/><radialGradient id="radial-gradient-43" cx="-40.59" cy="520.82" r="1" gradientTransform="matrix(423.01, 0, 0, -431.8, 17325.62, 224946.62)" xlink:href="#radial-gradient-2"/><radialGradient id="radial-gradient-44" cx="-40.59" cy="520.82" r="1" gradientTransform="matrix(423.01, 0, 0, -431.8, 17325.38, 224942.97)" xlink:href="#radial-gradient-2"/><radialGradient id="radial-gradient-45" cx="-40.59" cy="520.82" r="1" gradientTransform="matrix(423.05, 0, 0, -431.82, 17327.27, 224957.04)" xlink:href="#radial-gradient-2"/><radialGradient id="radial-gradient-47" cx="-40.59" cy="520.82" r="1" gradientTransform="matrix(423, 0, 0, -431.8, 17325.25, 224944.54)" xlink:href="#radial-gradient-2"/><radialGradient id="radial-gradient-48" cx="-40.59" cy="520.82" r="1" gradientTransform="matrix(422.99, 0, 0, -431.78, 17324.6, 224935.16)" xlink:href="#radial-gradient-2"/><radialGradient id="radial-gradient-49" cx="-40.59" cy="520.82" r="1" gradientTransform="matrix(423.01, 0, 0, -431.8, 17325.62, 224947.66)" xlink:href="#radial-gradient-2"/><radialGradient id="radial-gradient-50" cx="-40.59" cy="520.82" r="1" gradientTransform="matrix(423.01, 0, 0, -431.8, 17325.46, 224946.1)" xlink:href="#radial-gradient-2"/><radialGradient id="radial-gradient-51" cx="-40.59" cy="520.82" r="1" gradientTransform="matrix(423.01, 0, 0, -431.8, 17325.46, 224945.57)" xlink:href="#radial-gradient-2"/><radialGradient id="radial-gradient-52" cx="-40.59" cy="520.82" r="1" gradientTransform="matrix(423.01, 0, 0, -431.81, 17325.42, 224948.18)" xlink:href="#radial-gradient-2"/><radialGradient id="radial-gradient-53" cx="-40.59" cy="520.82" r="1" gradientTransform="matrix(423.01, 0, 0, -431.8, 17325.5, 224946.62)" xlink:href="#radial-gradient-2"/><radialGradient id="radial-gradient-55" cx="-40.59" cy="520.82" r="1" gradientTransform="matrix(423.02, 0, 0, -431.82, 17325.98, 224957.56)" xlink:href="#radial-gradient-2"/></defs><g id="Layer_2" data-name="Layer 2"><g id="Layer_1-2" data-name="Layer 1"><path class="cls-1" d="M260.53,133c0,73.44-58.32,133-130.26,133S0,206.4,0,133,58.32,0,130.27,0,260.53,59.53,260.53,133Z"/><path class="cls-2" d="M73.4,14.78a.65.65,0,0,0-.19,0,6.11,6.11,0,0,0-.77.38c-.06,0-.81.67-.81.68s-.09.08-.07.09.36.16,1.43-.6C73.58,15,73.52,14.8,73.4,14.78Z"/><path class="cls-3" d="M71.67,14.09s0,0-.08,0c-.18.07-.58.27-.65.31s-.15.13-.13.15a.81.81,0,0,0,.37-.12,2.47,2.47,0,0,0,.49-.36Z"/><path class="cls-4" d="M74.81,12.66a2.8,2.8,0,0,0,.62-.2,5.77,5.77,0,0,0,.75-.38s.52-.27.6-.34l-.12,0A29.61,29.61,0,0,0,73,13.4L74,13a6.07,6.07,0,0,1,.83-.35Z"/><path class="cls-5" d="M72.79,13.83h0s.06-.06.77-.36l.75-.34.1-.07-.15,0a13.89,13.89,0,0,0-4,2A18.88,18.88,0,0,0,72.77,14a.5.5,0,0,1,0-.12Z"/><path class="cls-6" d="M74.89,13.63a.54.54,0,0,0,.12-.09c.08-.06.13-.14.2-.2s.27-.22.38-.34.07-.09.08-.09H75.6a4.83,4.83,0,0,0-1.2.75h0c.07,0,.07,0-.11.3A5.39,5.39,0,0,0,74.89,13.63Z"/><path class="cls-7" d="M69.71,17.52l-.13,0a2.13,2.13,0,0,0-.35.14,5.73,5.73,0,0,0-1.1.74h0a6.21,6.21,0,0,0,1.4-.67C69.68,17.66,69.81,17.53,69.71,17.52Z"/><path class="cls-8" d="M70.65,19.69c-.05,0-.1-.07-.38,0l-.15,0L68.76,20a8.51,8.51,0,0,0-2.58,1.35v0c.14.05.3,0,.44.07s.16.25.11.33a12.27,12.27,0,0,1-1.59,1.2.3.3,0,0,1-.22.07c-.09-.35.33-.47.34-.78a3.62,3.62,0,0,0-1.45.95.16.16,0,0,0,0,.12c.06.26.2.49.27.76a1.77,1.77,0,0,1,.08.31c0,.2-.12.38-.1.59a.47.47,0,0,0,0,.1c.33.36,3.34-1.44,4.16-2.28.18-.19.71-1.26.36-1.24a5,5,0,0,0-1.08.27c.71-.48,1.5-.81,2.2-1.29A10,10,0,0,0,70.65,19.69Z"/><path class="cls-9" d="M62,19.56c1.3-.59,2.41-1.54,3.69-2.18a9.76,9.76,0,0,0-1.35.9l4.38-2.55a1.43,1.43,0,0,0,.35-.3.25.25,0,0,0-.17,0,80.47,80.47,0,0,0-8.47,5c.66-.09,1.08-.64,1.64-.91Z"/><path class="cls-10" d="M62,29A.06.06,0,0,0,62,29a1,1,0,0,0-.29.18,20.2,20.2,0,0,1-1.62,1.45c-1,.64-1.35.82-1.39,1l0,0a1.39,1.39,0,0,0,.4-.06c.39-.08.44-.08.51,0s.11.32.29.39a3.18,3.18,0,0,0,.62-.06A4.71,4.71,0,0,0,63,30.78c.2-.24-.29-1.18-.29-1.19A1.47,1.47,0,0,0,62,29Z"/><path class="cls-11" d="M64.52,21.34a1,1,0,0,0-.3.05,3.57,3.57,0,0,0-1.67,1h0c.1,0,.19-.05.27,0s0,.08-.06.28-.21.43,0,.37a7.86,7.86,0,0,0,1.37-1C64.6,21.54,64.71,21.36,64.52,21.34Z"/><path class="cls-12" d="M106.94,3.74c-.64.8-2.3,1.25-3.19,1.5A40.77,40.77,0,0,0,99,6.86c-1.24,1.71,1.9,2.27,1.93,2.26,7.79-.58,7.89-.5,8.43,0,0,0,3.66,4.14,2.49,6.37-.48.91-.48,1-.45,1.07.08.48.65.51.81.92.25.62,0,1.33.34,1.93,1-.25,1.85-1.34,3.07-.78a1.85,1.85,0,0,1,1.11,2.68c-.86,1-2.42,1-3.19,2.16A5.21,5.21,0,0,0,113,26.9c.15.49,6.23,11,9.14,12-1.45-21.86-2.53-31.8-4-36.53,1.33,4.15,2.4,12.31,4,36.52,7.3,1.43,7.45,1.25,7.91.72.77-.89,2.09-7.68,2.1-7.75.19-1-.33-2.06.23-3,.3-.51.33-.52,2.17-1.08,5.74-1.77,5.74-1.77,5.88-2.89s.25-1.77,1.28-2.31c2.5-1.3,5.39-1.48,7.89-2.79a26.21,26.21,0,0,0,3.08-1.57s.49-.37-.09-1.14c-.85-1.12-2.16-1.77-3-2.93a12.71,12.71,0,0,1-.87-2.47c-.42-.93-.23-1.18.27-1.71.71-.73.22-1-1.24-1.91C143,5.17,143,5.1,142.57,4.45a1.67,1.67,0,0,1,.08-.2l.24-.09c-1.38-1.4-4.22-.3-4.9-2.93L137.52,1a2.92,2.92,0,0,1,.1-.4l.19,0c-.62-.09-2.43-.21-2.43-.21a14.65,14.65,0,0,0-3,.25c-1,.19-1.92-.51-2.93-.55-1.43,0-4.53,0-5.75,0-2.28.13-2.28.13-2.54.32a18.57,18.57,0,0,0-3.66.36s-.06,0-.07,0,0,0,0,0h.08a8.75,8.75,0,0,1,1.89.22h-1.74A11.94,11.94,0,0,0,116,1a36.33,36.33,0,0,0-10,2.59C106.1,3.74,106.1,3.74,106.94,3.74Z"/><path class="cls-13" d="M85,28.81c.29-.81.16-1.17-.39-1.09,0,0-1.67.46-2,1.21-.17.43.52,1.56.8,1.74C84.06,31.11,85,28.83,85,28.81Z"/><path class="cls-12" d="M96.76,4.85c-.36.15-.74.29-1.12.43,1.19-.28,5-1.37,5.67-1.55a60.13,60.13,0,0,1-6.78,2,1.68,1.68,0,0,0-.87.39,2.45,2.45,0,0,1-.58,1.25C91.93,7.05,89,8.82,88.83,8.92c.27.12.58.06.83.22,0,0,0,.09,0,.14a6.56,6.56,0,0,0,1.8-.55c-2.19,1.21-2.45.93-2.62.73-1.66,0-1.76.69-1.8,1-.94.64-2.18.7-3,1.55l.08.12a9.56,9.56,0,0,0,2.19-.33c1.28-.25,2.41-1.18,3.82-.86-.11.25-.11.25-.4.48.94.19,3.93-1.3,3.66-2.05L93,9.28a11.47,11.47,0,0,1,2.65-1.71c2.68-.66,3.62-1.68,3.64-1.91l-.14,0a16.38,16.38,0,0,0,4.38-1.48,1.69,1.69,0,0,0-.63.06l5.9-1.87c-1.45.21-1.53.22-2.08.26,1.39-.37,2.81-.59,4.2-1-1.35,0-3.58.28-3.6.28s-5.44,1-6.6,1.4a.55.55,0,0,0,.22.18,1.82,1.82,0,0,1-1,.06c-.4,0-5,1.1-5.5,1.68C94.69,5.36,94.74,5.39,96.76,4.85Z"/><path class="cls-14" d="M75.11,14.36a5.55,5.55,0,0,1-.29.48,4.4,4.4,0,0,1-.76.67c0-.15.13-.34.19-.49a.79.79,0,0,0,.06-.22,1.41,1.41,0,0,0-1,.54h.16a0,0,0,0,1,0,.05,12.1,12.1,0,0,1-1.92.92c.1.05.2-.07.29,0-.08.16-.08.16-.07.19s.11,0,1.9-.57c-.55.32-2.07,1.18-2.17,1.55a0,0,0,0,1,0,0s2-.76,2.28-.9a8.48,8.48,0,0,0,1.32-1.11.21.21,0,0,1,0,.18l0,0A25.2,25.2,0,0,1,77,14c.3-.25.32-.28.36-.35a.34.34,0,0,0-.2,0s-1.8.55-2,.65l-.06,0Z"/><path class="cls-15" d="M94.63,28.94c.83-.07,2.67,2.28,2.69,2.31.43.58.89,1.18,1.3,1.1,1.14-.22,2.86-4.69,2.88-4.73a1.59,1.59,0,0,0,.07-.48l-8.38-1.93a11.48,11.48,0,0,1,2.47-1.27c.89-.4,1.33-.6,1.3-.83-.07-.62-3-3.46-4.45-3.7-.63-.11-1.3.09-1.92-.22s-.57-1.4-1.46-1.47a13.2,13.2,0,0,0-3.88,1.1c-1.29.5-1.32.5-1.53.48a7.52,7.52,0,0,1-.27-2.39,8,8,0,0,0-2.68.17c-2.52.61-10,7-8.62,8s6.22,0,6.88-.35c-.1-.41-.15-.68,2-.92,1.78-.2,2-.64,2.23-.93a15.76,15.76,0,0,1,1.58,1.25c.62.67.88,1.58,1.45,2.28.73.89,2.39.79,2.4,2.41,0,0-.35,3.67-5.32,5.18-1.48.46-3.09.37-4.5,1.14a1.34,1.34,0,0,0-.46,1.57c.27.24,1.15.35,3.75-.56,2-.69,2-.69,5.54.9-.29.31-.29.31-1.72.86.79.7,6.84,2,8.08,1.29C94,39,94,39,93.65,38.89a27,27,0,0,1-2.86-2.65,6.84,6.84,0,0,1,4,1.34c.23.16.4.27.51.24.68-.21,1.81-2.81,1.26-3.39-1.17-1.24-3.36-1.08-4-3C91.93,29.8,94.6,28.94,94.63,28.94Z"/><path class="cls-16" d="M67.24,16.75c.07.06.54-.17.92-.41a1.3,1.3,0,0,0,.23-.18h-.06A6.29,6.29,0,0,0,67.24,16.75Z"/><path class="cls-17" d="M113.62,21.57l1.28-.26a.86.86,0,0,0,.42-.4.37.37,0,0,0,0-.18.51.51,0,0,0-.07-.17c-.12-.19-.35-.25-.48-.43a.38.38,0,0,1-.1-.27v0l0,0a1,1,0,0,0-.61-.05c-.58.12-2.21,1.1-1.32,1.65a1.32,1.32,0,0,0,.89.17Z"/><path class="cls-18" d="M88.53,17.05l0,0a5.69,5.69,0,0,0-3.24-.55c-1.16.2-.8,1-.53,1.22C85.66,18.44,88.49,17.07,88.53,17.05Z"/><path class="cls-9" d="M79.52,10.93a8.73,8.73,0,0,0-1.08.49l.16,0a3.14,3.14,0,0,1,1.14-.14c-.06.21-.34.2-.38.41s1-.3,1.1-.34a5.34,5.34,0,0,0,1.47-1.38c-.14,0-.26.09-.41.08.13-.25.44-.24.6-.44H82a19.17,19.17,0,0,0-2.51,1.08c.23.07.42-.1.64-.08C80.17,10.66,80.05,10.72,79.52,10.93Z"/><path class="cls-19" d="M74.66,16.39c-.24.17-.32.23,0,.47a1.9,1.9,0,0,0,1.82-.58c.4-.35,1.21-1.2.84-1.24l-.16,0A18.37,18.37,0,0,0,74.66,16.39Z"/><path class="cls-12" d="M85.66,10.24v0h-.09l-.08,0c-.52.15-1,.36-1.54.52s-1.21.31-1.8.5a5.13,5.13,0,0,0-.78.27A17.08,17.08,0,0,0,84.2,11a3.54,3.54,0,0,0,1.32-.68.53.53,0,0,0,.14-.12Z"/><path class="cls-20" d="M81.35,11.17v0c.2,0,2-.79,2.49-1,.23-.1.27-.15.27-.24S84,9.84,84,9.73s0-.1,0-.15v0l-.08-.05a.4.4,0,0,0-.24,0,1.91,1.91,0,0,0-.27.16c-.39.27-.65.73-1.12.91S81.46,10.88,81.35,11.17Z"/><path class="cls-21" d="M85.49,8.43c1.26-.64,1.26-.65,1.28-.69l-.13,0s-1.27.42-1.63.6-.27.36-.27.36S85.11,8.62,85.49,8.43Z"/><path class="cls-22" d="M88.21,7.83c.54-.16.71-.21.89-.13a.14.14,0,0,1,0,.06,3.84,3.84,0,0,1-.87.34,12.61,12.61,0,0,0-1.92.7c-.33.21-.36.6-.22.67a4.35,4.35,0,0,0,1-.26c.37-.11.77,0,1.14-.16.9-.33,1.67-.93,2.54-1.32.54-.25,1.14-.32,1.67-.59l.12-.09a1.78,1.78,0,0,0-.43-.12v0a1.15,1.15,0,0,1,.27-.14c.74-.36.75-.39.76-.47s-.17,0-.24-.06c.11-.16.4-.21.34-.49.16-.19.41-.26.56-.46a.43.43,0,0,0-.16,0A39.92,39.92,0,0,0,89.1,7a1.5,1.5,0,0,0,.51-.07,3.58,3.58,0,0,1-1.21.43,3,3,0,0,0-1.5.83A8.38,8.38,0,0,0,88.21,7.83Z"/><path class="cls-23" d="M77.82,16.43c.08,0,9.21-1,11.62-3.41.66-.66-1-.76-1-.76A34,34,0,0,0,82.67,14c-.76.31-1.35-.41-1.19-.6s.19-.12.47-.21c1.48-.42.75-.9.59-.91-.38,0-.71.22-1.08.26s-.85-.11-1.28-.06a8.17,8.17,0,0,0-.84.14c-.22.1-.94.86-.93,1.05a1.4,1.4,0,0,0,.56-.14,3,3,0,0,1,1.08-.27c.23.15-.5,1.1-.54,1.14-.45.42-1.08.58-1.48,1.06C77.24,16.44,77.56,16.44,77.82,16.43Z"/><path class="cls-23" d="M260.53,131.55c-.2-3.7-.38-8.66-.75-12.35-.16-1.11-.31-2.13-.45-3.09-.87-2.93-.94-3.4-2.65-13.79l.07.13c-4.18-14.14-4.18-14.14-4.24-14.82l.05.06a87.41,87.41,0,0,0-4.14-10.34L244,68.43a17.88,17.88,0,0,0-4.76-4.5,16.73,16.73,0,0,1,4.76,4.5c-1.72-2.86-3.92-6.74-5.75-9.53-7.84-10.92-8-11.13-12.84-16.46l-5.2-5.36h0l-.59-.55a31.89,31.89,0,0,0,2.47,2.7,12.2,12.2,0,0,1-1.09-.8,12.82,12.82,0,0,0,2.56,2.64l-.2.14c-3.62-3-6.7-6.64-10.36-9.61,1.83,1.16,3.27,2.88,5.26,3.81-.47-.87-6-5.77-9.68-8a18.05,18.05,0,0,1-3.19-2.15,3.26,3.26,0,0,1,.48.2,8.08,8.08,0,0,0-1.18-.83,1.39,1.39,0,0,1-.19.15A12.32,12.32,0,0,1,202,23.26a4.6,4.6,0,0,0,.52.19c-.3-.72-3.51-2.21-3.75-2.29.15.38.15.38.69,1-1.12-.39-1.68-1.59-2.79-2,.21.52.76.76,1,1.27-.4.9-.4.9-.33,1.45.1.83,2.68,5.47,2.7,5.51,1.93,3,1.85,4.08,1.84,4.19-.38,2.81-.38,2.81-1.89,3.91-.54.41-.54.6-.25,1.34,0,.1,4.09,9.76,7.82,8,1.2-.56.6-2.59.31-3.56.31.22,7,7,8.24,9.15.59,1,1.15,2,2.18,2a7.77,7.77,0,0,0-.34-4.29c-1.49-2.82-1.14-3.14-.39-3.85,0-.67-.06-.93-2-2.24-1.36-.9-1.36-.9-3.17-3.9-.69-1.15.46-2.59-.57-3.68a29.64,29.64,0,0,1-2.76-3c0-.11-.1-.25-.15-.36l.13-.21c1,.34,4.33,2.59,4.57,3.29l-.27,0c2.59,5.89,2.59,5.89,5,8.21,2.13,2,5.37,1.72,7.52,3.73a4.7,4.7,0,0,1-1-.4l-.21.14c.13.26.31.49.46.74a27.48,27.48,0,0,0-3.73-1.11c1.41,2,3.43,3.47,4.53,5.72-1.38-.06-1.48-2.13-3-2l-.15.24s1.69,3.18,1.87,3.4S226,55.64,226,56.3c-.85-.08-.85-.08-1,0-.11.28-.15.57-.26.83l.14.2h0c-3.93-.27-3.93-.27-4,.11l-.54.34a9.86,9.86,0,0,0-2.94-1l1.9.34a3.91,3.91,0,0,0-2.71-.83c-.52,0-.64,0-2.1-1.68-1.08-1.26-2.35-3.09-2.28-4.66,0-.65-.94-3.39-1.65-3.46-.09,0-2.13,0-1.78,1a48.12,48.12,0,0,0,4.63,7.3c.76.88.79,1,.81,1.06s-.12.13-.67.24l-1.32.22-.39.55c-2.08-.07-2.08-.07-2.65.51a21.79,21.79,0,0,0,1,3.64l-.33.61a4.75,4.75,0,0,0-2.72.33,12.15,12.15,0,0,0,.75,2,6.3,6.3,0,0,1-1.47.73,4.11,4.11,0,0,1-.3,1.43c-2-.1-2.33-.35-3.21-1a13.54,13.54,0,0,0,.81,1.26c-.06.2-.14.47-.21.67a9,9,0,0,1-1.38.49c-1-.64-1-.64-2.54-.68l-.27.62,1.31,1.18L200,69c9.41,2.66,7.93,12.31,7.88,12.39-4.38-.32-8.6-1.65-13-2.11a7.17,7.17,0,0,0,.84,1.2c0,.11.48,12,2,12.48-.4,3.67-.4,3.67-.48,4,3.05-.24,3.68-.29,5,0a13.73,13.73,0,0,0,.54,2.15L210,96.67c2-.25,2.46-2.79,1.4-4.51,1.13-4.79,1.19-4.81,4.13-6,0-3.86,0-3.86.36-4.14,1.35-1.15,2.43.69,3.69.7,1.16-2.1,2.12-3.46,3.93-1.87.09.08,10,11.75,11,15,.74,2.47.4,2.52-3.81,3.11a21.55,21.55,0,0,0,3.39,3.68c.36-1.16-.35-2.28-.14-3.44l.63.09c.54-.8.74-1.76,1.23-2.57-.63-2.23-.63-2.23-.61-3l.63-.17c.26.36.59.83.86,1.18-.21-1-.21-1-3.58-5.18l.15-.66c-1.58-.72-2.83-1.29-7.05-10.09a2.21,2.21,0,0,1,1-.83l9.57,11.48s0,0,2.88,8.41l3,7.1a10.66,10.66,0,0,0,.09-1.38,25.12,25.12,0,0,0-.95-4.87c-1-5.26-1-5.26-.54-5.66A5,5,0,0,1,244.49,96,7.26,7.26,0,0,0,245,94.7l.68,0c.63-4.79-2.72-8.94-2.14-13.72a1.8,1.8,0,0,1,1.21.06l-.27.59A4.89,4.89,0,0,0,246,82.9a3.8,3.8,0,0,1,0,2.16c.61.7.89,1.62,1.43,2.37,2.26-1.33-1.12-3.69-.45-5.64,1-.22,1.18.12,1.47.91l-.33.62c.35.58.35.58.87,2.64l-.37.55c1.62,4.11,5.32,7.31,5.17,12.2l-.56.32c-2-1.33-1.85-5.75-5-4.9a2.17,2.17,0,0,1-.48,1.17c-.38-.12-.89-.27-1.27-.36a2.39,2.39,0,0,0,.6,1.09c-.72.63-1.7.25-2.49.65a10.06,10.06,0,0,0-.09,1.56l.6.17c.32,2.46.91,7,3.87,9.57l.46-.48c0-.2,0-.46,0-.66,1,.83,1.28,2.21,2.4,2.9a6.1,6.1,0,0,0,.3-1.33,3.64,3.64,0,0,0,1.08.74c.49,9.29.56,10.71-.43,13.22-1.31-.11-1.52-.4-1.94-1.71a1.81,1.81,0,0,0-1.11.48c-4.35-.32-3.95-6.78-8.49-6.85-.85,1.54-.18,3.31-.76,4.9l-.62.26c-.94-.7-10.92-10-11.63-11.17-.22-.38.08-1.06.31-1.43.54-.89.54-.89.13-6.37a20.62,20.62,0,0,0-2-1.21c-.88.68-.88.68-4.53-.17a5.88,5.88,0,0,0-.89,1.1c-4.74-1.88-8.57,3.42-13.28,1.75l-.7,0c-1.33.28-1.79.37-3.24-1.4l-.27-.18a4.37,4.37,0,0,0-.59.55c-.89,1.1-.22,2.67-1.08,3.78C201,106,199,106,198,107.52c-.3.44-.16,1.24-.19,1.78-.3,5.84-.3,5.84-1.84,6.6a17,17,0,0,0-4.05,3c-.86,1.4-7.18,12.59-7.18,12.6-.27,3,1.68,5.5,1.73,8.43,0,2.45-3.39,3.61-2.3,6.45,1.62,4.26,3.87,8.2,5.8,12.31.81,1.73,6.88,7.64,8,7.53,5.71-.55,11.23-2.76,17.08-2.1a1.24,1.24,0,0,1,.56.31c1.05.9.3,2.53,1.33,3.44s2.33.45,3.46.83c.75,2.32.75,2.32-.18,4.55,9.83,1.86,16,3.55,20.52,5.78-4.41-2.19-10.79-3.94-20.52-5.78-2.6,6.23-2.6,6.23-2.2,8,.63,2.8,1.49,6.64-2,15.07-1.62,3.88-4.71,6.73-6.84,10.25-2,3.28-2.22,7.25-4.06,10.58-7.14,13-7.34,13.2-8.49,14.4a8.33,8.33,0,0,0-2,3.15c3.66,1.15,8-1.84,9.38-2.82l5.67-4.08,7.17-5.84c1.62-1.72,2.59-4,4.33-5.6,2-1.87,4.62-2.76,6.58-4.69,4.67-4.57,9-13.62,9.46-14.75,1.81-4.51,8-11.41,9.82-13.39,2.89-3.27,6.76-11.84,7.72-15.18-.74-.24-.74-.24-2,0-.29-.41-.29-.41.31-5.77.23-2-.22-3.94-.25-5.92-.1-5.13.88-10.23.43-15.37l-1.33-16.19c.31.5.31.5.65,2.84a2.64,2.64,0,0,0,.71-1.3c3.25,12.22-.19,24.47.2,36.7,1.31-.62,1.31-.62,1.89-.49,3.47-7.64,3.47-7.64,3.64-8.63l-.11.73c.07-.4.17-.94.23-1.35l.07-.45.38-2.82c.16-1.29.35-2.91.65-7.3,0,.23,0,.45,0,.66C260.31,140,260.55,135.21,260.53,131.55Zm-.81,14.16c-.25-.55-.25-.55-.07-5.14-.13,1.45-.13,1.45-.21,2.09-.34-9.95-.19-10.87,0-12.14.57.88.82,8.25.72,12.48a12.64,12.64,0,0,1-.45,2.71Z"/><path class="cls-24" d="M256.89,102.2c0,.17.1.39.13.55l.65,3a.7.7,0,0,0,0-.14c.22,1.76.57,3.5.91,5.24a87,87,0,0,0-2.84-13.29q-.41-1.26-.75-2.37c1.53,5.33,1.58,5.55,2.22,8.36C257.09,103.08,257,102.65,256.89,102.2Z"/><path class="cls-25" d="M254.56,93.79c.06.17.13.34.19.5-.19-.63-.44-1.25-.58-1.91.07.21.15.42.21.63l-1.55-4.68,0,.07a3.65,3.65,0,0,0-.29-.71c.61,1.85,1.35,4.19,2.4,7.48C254.84,94.74,254.71,94.29,254.56,93.79Z"/><path class="cls-26" d="M259.45,116.54c-.19-1.94-.54-3.82-.9-5.71.22,1.46.47,3.19.78,5.28Z"/><path class="cls-27" d="M185.2,54.06a.61.61,0,0,1,0,.12A14.59,14.59,0,0,0,184.3,57c-.12.75-.08,1.1.17,1.41.42.51,2.36.3,3.77-.63.36-.23.69-.5,1.06-.7s1-.06,1.38-.55c.2-.28.12-.92-.23-1.9a4.47,4.47,0,0,0-.61-1.14,1.08,1.08,0,0,1-.14-1.33,1.78,1.78,0,0,0,.14-1.18,2,2,0,0,0-.81-1.07,4.68,4.68,0,0,0-.54-.3c-.45-.22-.94-.33-1.39-.54a1.41,1.41,0,0,1-.5-.33s0-.05-.09-.05-3,.78-1.21,1.83a.89.89,0,0,0,.45.12,1.34,1.34,0,0,1-.27.17A5.28,5.28,0,0,0,183.69,52a1.19,1.19,0,0,0-.29.51,1.22,1.22,0,0,0,0,.6,1.12,1.12,0,0,0,.25.42,1.14,1.14,0,0,0,.4.29A6.09,6.09,0,0,0,185.2,54.06Z"/><path class="cls-28" d="M63.4,18.91c-.28.15-2.62,1.53-2.73,1.69C60.79,20.59,60.91,20.59,63.4,18.91Z"/><path class="cls-29" d="M247,110.43l.06,0v-.05s-1.11-1.47-1.11-1.48a1.06,1.06,0,0,0-.49-.31,10,10,0,0,1-1.09-.21c-.63-.25-.63-.25-.69-.24-.29,0-.37.25-.2.56C243.89,109.32,246.38,110.65,247,110.43Z"/><path class="cls-30" d="M223.43,92.57c.23.25.72.13.81.58s-.07.83,0,1.24a.61.61,0,0,0,.15.27.72.72,0,0,0,.27.15c.27.06,1.62-.38,1.66-1.49a3,3,0,0,0,0-.42c-.07-.46-.24-.9-.31-1.38s0-1-.1-1.49c-.12-.79-.39-.88-.66-.91a2.62,2.62,0,0,0-1.88,1.14A3.27,3.27,0,0,0,223.43,92.57Z"/><path class="cls-31" d="M216.66,92.35s.54-.63.54-.66c.05-.23-.34-.42-1-.49s-1.89.08-1.45.62a3,3,0,0,0,1.62.69.37.37,0,0,0,.17-.05.45.45,0,0,0,.13-.11Z"/><path class="cls-32" d="M223.42,86.07a.45.45,0,0,0-.16.2.42.42,0,0,0,0,.25.93.93,0,0,0,.19.37s1.06,1.28,1.13,1.31c.24-.11,0-2-.19-3a6.24,6.24,0,0,0-.54-1.66h0a.39.39,0,0,0-.06.15s0,.07,0,.1a8.46,8.46,0,0,0,.08,1.42,1.18,1.18,0,0,1-.08.49A1,1,0,0,1,223.42,86.07Z"/><path class="cls-33" d="M251.4,113.83a2.61,2.61,0,0,0,.68.06,9.34,9.34,0,0,0,.22-1.54v-.09c0-.15,0-.16-.07-.18s-.34.13-.52.13a.91.91,0,0,1-.38-.13c-.16-.1-.27-.28-.45-.36a.15.15,0,0,0-.13,0,.16.16,0,0,0-.1.08,2.31,2.31,0,0,0,.43,1.83.71.71,0,0,0,.32.22Z"/><path class="cls-34" d="M50.25,28.92l0,0a.39.39,0,0,0,.15-.06c.75-.53,1.4-1.18,2.14-1.71,1.35-.95,2.78-1.74,4.11-2.73.3-.23.3-.23.7-1l0-.08a4.71,4.71,0,0,0-1.21.65c.34-.3.34-.3.39-.55l0,0-.16.05c-1.65.71-1.65.71-8.92,6.82a5.18,5.18,0,0,0-1.66,2.07l.06,0C47.54,31.62,48.76,30.09,50.25,28.92Z"/><path class="cls-35" d="M60.47,21.87a5.16,5.16,0,0,0,1.32-.64c2.25-1.29,3.41-1.8,3.41-1.8a21.21,21.21,0,0,0,2.17-.85c.53-.3,2.63-1.78,2.65-1.79.4-.28.43-.34.48-.42a1.4,1.4,0,0,0-.63.19c-.63.36-1.19.87-1.82,1.25.79-.8,1.71-1.44,2.47-2.26h-.08s-2.63,1.38-2.7,1.75-.42,1-2.41,1.43l0-.05a1.22,1.22,0,0,1,.15-.17l0-.06c.27-.3,1.2-.48.81-.91-.05,0-5.38,2.64-5.42,3.39a23.69,23.69,0,0,0,2.58-1.43c-.27.44-.74.59-1.1.88.06,0,.08,0,.7-.35a7.84,7.84,0,0,1,1.15-.5,33,33,0,0,1-3.56,1.91C60.26,21.61,60.26,21.84,60.47,21.87Z"/><path class="cls-10" d="M45.64,35.35c.39.09.68-.26,1-.24l.05.07c-.16.47-.6.74-.83,1.16A21.37,21.37,0,0,0,52,33.06a5,5,0,0,1,1.29-.9l.08.05a1.76,1.76,0,0,0-.19.39,7.41,7.41,0,0,0,1.54.47c1.28-.43,1.28-.43,2.52-1.86l.06-.07c-.13,0-.13,0-1.32.62a3.07,3.07,0,0,1,2.24-1.35c.3,0,.36,0,.47-.08s.66-.61.55-1.15c-.68-.39-1-1.15-.6-1.6a37.2,37.2,0,0,0,3-4.14,2.91,2.91,0,0,0-.39-.12l0-.14,0,0c-1.28,1.11-2.15,2.64-3.64,3.51-.15-.63.49-.82.67-1.28l-.11-.08a14,14,0,0,1-1.7.83c.17-.27.47-.46.62-.77l-.06-.06c-.83.25-1.46.92-2.26,1.23.5-.7,1.31-1,1.88-1.63-.51.05-7.06,4.37-6.9,5.18a1.23,1.23,0,0,1,.25.14c-.12.21-.13.22-.9.7-1.31.8-1.36,1-1.36,1.16a.5.5,0,0,0,.24,0c.73-.15,1.32-.64,2-.81.51-.11,1,.12,1.54,0a8.26,8.26,0,0,1-2.66,1.26C45.36,33.65,45,35.19,45.64,35.35Z"/><path class="cls-36" d="M75.6,41.68c.11-.29-.19-.27-.42-.24,0,0-1,.19-1.24.5a1.08,1.08,0,0,0-.12,1.21C74.2,43.47,75.44,42.09,75.6,41.68Z"/><path class="cls-37" d="M73.93,39.23a.53.53,0,0,0,.23-.19.86.86,0,0,0,0-.39A.8.8,0,0,0,74,38.3c-.21-.2-.5-.32-.71-.55-.35-.38-.53-.9-1-1.24a1.43,1.43,0,0,0-.22-.15c-.41-.26-.93-.22-1.34-.47s-.27-.56-.54-.7a.13.13,0,0,0-.12,0,13.45,13.45,0,0,0-1.7,2.08c-.17.24-.37.56-.52.81l-1.4,2.3c.83.07.83.07.89.5s.09.55.16.53a4.45,4.45,0,0,0,.79-.6,6.17,6.17,0,0,1,3-1.65C72.2,39.07,73.06,39.55,73.93,39.23Z"/><path class="cls-38" d="M71.64,40.81a8.74,8.74,0,0,0-2.45.88c-.36.28-.41,1.08-.21,1.22.38.28,2.7-1.1,3.1-1.76C72.22,40.94,72.25,40.71,71.64,40.81Z"/><path class="cls-39" d="M66.92,146.17c-.7.27-.3,1.41.12,1.56s2.11.46,2.08-.31A2.28,2.28,0,0,0,66.92,146.17Z"/><path class="cls-40" d="M193.64,53.57c-.13,0-.11.09-.07.22l.87.07A2.08,2.08,0,0,0,193.64,53.57Z"/><path class="cls-15" d="M108.51,63.06c.84-1.11,1.21-1.86,1.1-2.21a.4.4,0,0,0-.15,0,9.13,9.13,0,0,0-2.62,2.4c-1.14,1.43-1.92,3.12-3,4.57-.6.76-1.43,1.31-2,2.11-.21.32,0,.4,0,.45s.15.08,3.54.36a25,25,0,0,1,4.86.75,2.91,2.91,0,0,0,.58.15c.54,0,1.12-.53,1.66,0a2,2,0,0,1,.31,1.16c0,.35.19.41.29.4.54-.07,1.22-1.13,1.28-2a8,8,0,0,0-2.06-4.9c-.56-.62-.56-.62-2.55-.18-.61.13-.74,0-.88-.51-.27-1-.5-1.15-.87-1.34-.19-.11-.19-.17-.1-.37a6,6,0,0,1,.59-.81Z"/><path class="cls-41" d="M187.67,45c.11.71-.42,1.37-.15,2.08.22.09.66,0,1.61-.69.34-.28.64-.5.87-.37,1,.55-.15,1.61.18,2.38a3,3,0,0,0,2.46,2.05c1.56.42,1.76.47,2.05.68.05.25-.1.51,0,.76.42.76,1.16,1.28,1.53,2.09.2.82-.78.34-1.51,0-.31-.15-.31-.15-1.19-.22.36,1,1.51,1.55,1.74,2.67.12.61-.43.93-1.23,1.32-.21.1-.54.26-.41.5s.41.55,2.31.49c.81,0,2.48-.07,2.53.49s-.34.5-.92.49a1.15,1.15,0,0,0-.52.06,1.13,1.13,0,0,0-.43.29c-.41.38-.47,1-.83,1.38s-1,.83-1.5,1.32c0,0,0,.11,0,.16.26.06.26.06,3.89-.41,1.83-.23,3.68-.08,5.52-.35h.07L207,61.12a.45.45,0,0,0,0-.11c-.65-.66-1.49-.08-2.2-.34-.34-1,.54-1.85.18-2.82-.64-1.73-1.31-1.7-1.85-1.67-1.22.07-2.05-1.68-2.05-1.7a.25.25,0,0,1,0-.07c.07,0,.07,0,1,.19.43.15,1,.36,1,.14v0a2.07,2.07,0,0,0-.5-.52c-1.49-1.18-3.35-1.76-4.7-3.12a13,13,0,0,0-1.91-2,6.51,6.51,0,0,0-3.24-1.1c.81-.73,1.85-4.34-.3-4.42a7.08,7.08,0,0,0-1.13.09c-1.35.18-1.62.21-1.62-.15,0-.73,1.19-2.09.2-2.15,0,0-2.68.05-3.07,1a.69.69,0,0,0,0,.32C187,43.49,187.54,44.19,187.67,45Z"/><path class="cls-42" d="M11.93,80.5c.35-.83.55-1.69.85-2.51.19-.49.42-1,.59-1.47l.06-.19s.15-.46-.07-.41l-.11,0c-.71.6-1.53,4.42-1.39,4.64A.26.26,0,0,0,11.93,80.5Z"/><path class="cls-43" d="M170.28,27a.43.43,0,0,0,0-.16,2.57,2.57,0,0,0-1.1-1l-.28-.1a16.84,16.84,0,0,1-2.35-.34c-.54-.22-.94-.76-1.58-.73-.74.19-1.44.5-2.16.68a19.84,19.84,0,0,0-2.18.37c-.45.15-.13.72-.48.93s-.77-.19-1.16,0l-.18.12c-.15.65.42,1.4-.27,2a9.87,9.87,0,0,1-2.1-2c-.61-1.17-3.18-1.9-3.9-1.32.2.6.91.47,1.23.91-.2.86-1.2.72-1.62,1.33.23.17,1,.05,1.5,0,.81-.15,3.31.74,1.91,1.93.6.76,1.4.12,2.08.31s.72.47.72,1.11c.16.14.31.2,1.72.05a8.86,8.86,0,0,1,1.54-.1c.68,0,1.31.35,2,.39h.28a9.78,9.78,0,0,0,2.43-.48c1.7-.42,4.28-2.33,4.15-2.89-.08-.37-.39-.61-.49-1C170.07,26.94,170.07,26.94,170.28,27Z"/><path class="cls-44" d="M69.21,143.07c.74,1,5.39,1.34,5.47.79,0-.3-5.91-7.31-6-7.35a7,7,0,0,0-5.9-1,8.51,8.51,0,0,0-3.27,2c.25.23,1.72,0,2.92-.69,1.72-1,2.87-.44,3-.13-.09.18-.32.42-.87.1l-.07.05c.07.85,1.45,1.2,2.37,1.44,1.68.44,1.79.8,2.14,1.88a3.57,3.57,0,0,0,.64,1.33,1.76,1.76,0,0,1,.43.73C70.12,142.79,69.48,142.76,69.21,143.07Z"/><path class="cls-45" d="M76.61,148.89c.48.27.1,1.18.79,1.25,1.18.12,1-1.52,2.07-1.62a1.85,1.85,0,0,1,.57.06,43.62,43.62,0,0,0,5,.41c.15,0,.25-.06.27-.2,0-.55-.41-1-.27-1.55.43-1.73-8.22-2.48-8.77-2.4A.39.39,0,0,0,76,145c0,.13,0,.13.13.25a2.58,2.58,0,0,1,.81,2.67,4.07,4.07,0,0,1-1.81-.13c-1.74-.28-1.92-.23-2-.2a.21.21,0,0,0,.06.1C74.24,148.29,75.55,148.27,76.61,148.89Z"/><path class="cls-46" d="M94,66.83c-.74.28.95,1.13,1.3,1.29,2.23,1.07,3-.08,3-.09C98.63,67.4,94.86,66.7,94,66.83Z"/><path class="cls-47" d="M233.83,208.89c-2.45,3.23-2.51,3.25-4.12,3.83-1.31.48-1.72,1.09-3.7,4a8.85,8.85,0,0,1-2.32,2.54,42.39,42.39,0,0,0-7.1,8c1.08,0,1.08,0,5.17-4,3.33-3.26,6.26-6.9,9.46-10.29,0,.09,0,.09-.29.56.12-.09.12-.09.43-.48a32.14,32.14,0,0,0,3.42-5.28l-.08,0A8.26,8.26,0,0,0,233.83,208.89Z"/><path class="cls-10" d="M151,185.23c-.18-.93,1-2.21-.11-2.8-.81-.42-1.62.2-2.43,0-2.65-.59-4.38-2.93-6.9-3.72-3.77-1.19-7.66-1.87-11.48-2.85-2.22-.82-2.42-3.44-3.79-5-2.33-1.55-4.07-4.07-6.51-5.49-3.18-1.85-7.1-1.22-10.27-3.17-2.5-1.55-4.17-4.17-6.85-5.49a5.19,5.19,0,0,0-1.37-.43c-13-2-23.2-3.57-24.36,6.92-3.84-2.79-13.72,1.62-12.81-4.89A11.53,11.53,0,0,0,63,151.51c-3-1.55-6.05.06-9.08-.15,1-3.38,1-3.38.27-5a18.26,18.26,0,0,0,1.79-6c-.57-.51-5.61-4.67-6.69,7-1.74-.12-2.86,2.37-4.85,1.21-4.67-2.73-6.26-6.2-6.8-8-.65-2.25,1.21-4,1.16-6.15,0-1.36-1.83-2-1.35-3.59.61-2,4.26-5.81,5.11-6.48,1.53-1.2,7.45.16,7.49.18l.55-.45A13.8,13.8,0,0,0,49,123c0-.2.1-.46.14-.67,1.19-.69,10.59-1.53,10.64-1.5,4,2.2,1.57,8,5.44,10.26,4.56-4.91-2.77-9.28-2-14.23.84-5.12,5.86-6.31,8.65-9.59h-.07l-.41-.47c0-.19.05-.43.07-.62L72,106c0-.23,0-.52.07-.75l-.58-.22.93-9.38c.07,1.38.07,5.62.07,5.63.43-.28.43-.28.81-6.47a7.78,7.78,0,0,1,1.07,1.93c.83-1.45.54-3.35,1.82-4.61a64.77,64.77,0,0,1,5.85-3c.5-4.85.5-4.85,3.17-7.39.45,0,.45,0,8.18-4.55l-.27.56a4.09,4.09,0,0,0,1.39.27v.69c-4.48,3.24-4.48,3.24-4.54,4.19,3,0,12.36-5.49,10.7-9.77-1.29.87-1.34,2.48-2.11,3.67-1-.28-1.81-.51-2.48-.72a2.36,2.36,0,0,0,1.19-.89v0h0c-.05,0-.07,0-.25,0a3.52,3.52,0,0,1-2.13-.2,1,1,0,0,1-.54-.46,1.08,1.08,0,0,1-.1-.71c0-.2,0-.21,0-.23l0,0a2.34,2.34,0,0,0-.1,1.78c-1.16-.55-1.35-1.16-1.81-2.6-1.08-.4-1.17-.5-1.62-1.08,1.62-.46,2.81-.78,3.16-2.46-.84-.84-.84-.84-12.49,6.6,8-8.47,8-8.47,16.28-11,1.88,1.31,10.3-3,11.59-5.34-.41-1-.41-1,.19-2.57l-.37-.6-2-.44h-.59a8.36,8.36,0,0,0-3.86,1.64c-.07-.17-.17-.4-.25-.57.68-1,1-1.1,3.49-2.09-4.84.42-9.56.83-14.75,1.38,4.77-.51,8.92-.89,14.78-1.38a.91.91,0,0,0,.39-.28c.12-.3-1.83-2-4.28-1.35-.54.14-.54.14-.84,0-.17-.49.22-1-.13-1.49-.46-.62-1.37-.46-1.83-1.1-.2-.28-.06-.5.3-1,.55-.77.55-.77-.64-2.92-3-5.41-3-5.41-4.42-2.57-.22.43.35.89,0,1.33s-1.2,0-1.61.6c-.92,1.29-.92,1.29-1.18,1.38-1.62.5-2.74-.83-4.15-1.15-.24-.45.31-3.39,1.17-4.1-.82-.27-1.69.13-2.52-.18-.19-.07-.31-.2-.56-.64-.09-.16-.29-.51-2.32-1.19a1.63,1.63,0,0,0-.9-.11c-1.85.51-3.84.09-5.65.86.32,1.75-1.79,3.33-.36,5.17-.27.86-1.37,1.15-1.43,2.16-.07,1.17,1.08,1.85,1.13,3,0,0,.08,4.57-2.47,5.17-.56.14-1.83.56-1.56,1.51a3.23,3.23,0,0,1-.71.62c-.67,2.63,1,5.91-1.92,8-.91-1.43-2.54-1.84-3.81-2.76a4.42,4.42,0,0,0,0-3.76l.72-.6c0-.11,0-.34,0-.45a4.53,4.53,0,0,0-.74,0c-1.21-1.2-2.66-.12-4-.48s-2-1.73-3.26-2.18a4.76,4.76,0,0,0-.74-.2c-1.16-.2-2,.67-3,1-.34-.3-.34-.3-.78-3-.16-.94-.16-.94-2.33-1.1-.49-2.87,6.35-8.06,9.28-10.27-.34-.92-1.32-.51-1.88-1,5.68-1,5.68-1,8.92-4.56-2.2.39-2.66.48-4.45-.55,2.12-.78,4.85.58,6.46-2a1.4,1.4,0,0,0-.63-.22s1.07-1.31,2.17-.59C75,32.46,75,32.46,75.94,31.6a3.76,3.76,0,0,0,.6-.72c.39-.69-.26-1.42.1-2.1s1.1-.58,1.54-1a7,7,0,0,0,.45-1.06S75.49,23.41,74.45,28c-1.92,1.12-3.29,5.7-5.61,3.59.2-1.41,3-2.32,1.69-3.72-1.48.57-2.08,2.09-3.17,3.08-.27-.76,1.24-2.76,1.26-2.79a7.26,7.26,0,0,0-1.4-.08c2.29-3.77,2.29-3.77,2.29-4.22l-.34-.26c1.3-2.07,1.3-2.07,7.41-5.74a2.63,2.63,0,0,0-1.11.07C70.59,19,64,28.4,63.93,28.49l.16.35c.52,0,1-.12,1.56-.15l.07.32A5.32,5.32,0,0,0,64,30.15v.27l.31.07c-1,1.83-3.31,2.45-4.17,4.47-.79-.85-.79-.85.7-2.48-.85-.23-.85-.23-3.64,2-.15.12-1.08.73-4.52.55-.22-.33-.18-.77-.42-1.1-2.78.73-3.6,2.37-5.25,5.66-.31-.83.41-1.52.31-2.31-1.5.24-2.72,1.49-4.36,1.25.68-.69,1.79-.95,2-2.07l-.29-.16c-.37.21-.43.24-1.49.12a3.89,3.89,0,0,0-.46-.53c-.76.16-1.19.83-1.78,1.23a4.69,4.69,0,0,1,.42-.67,8.23,8.23,0,0,0-1.08,1,7.47,7.47,0,0,1,1.4-2.06c-1.82,1.7-1.82,1.7-5.13,4.57,1-1,2.17-2,3.25-3a55.43,55.43,0,0,0-5.33,4.83,3.68,3.68,0,0,1,.39-.58l-6.12,7c-7.9,10.51-8,10.71-11.54,16.63l0,0,.17-.28c-2.34,6-2.34,6-2.62,7.66-.15.47-.35,1.1-.51,1.58l.36.6a41.72,41.72,0,0,0-1.55,6.49,5.26,5.26,0,0,0,.32,2.76,2.29,2.29,0,0,0-.58-.11.35.35,0,0,1-.26-.08s-.06-.06-.14-.36c0-.15-.18-.64-.3-.66a6.14,6.14,0,0,0,0,2.56c.27,1,.94.83.95.83a.83.83,0,0,0,.27-.19.75.75,0,0,0,.16-.29,1.71,1.71,0,0,0,.11-.59,3.55,3.55,0,0,0,0-.46v0a7.34,7.34,0,0,1,.59,2.85c-.32-.19-.75-.42-1.08-.59-3.94,5-5.32,30.14-2.71,34.83.34.06.34.06,6.05,12-.4,0-.94,0-1.35.05.69,1.47,5.73,8.12,5.78,8.17.46-.68.93-1.38-1.38-4.75-1.06-1.52-2.25-3.25-4.27-11.6,2.53,1.88,2.8,3.11,3.13,4.67a10.9,10.9,0,0,0,1,3.15c1,1.68,2.29,3.19,3.39,4.82,1.42,2.11,3.84,3.31,5,5.63,1,1.87.5,4.38,2.48,5.79a5.36,5.36,0,0,0,1,.47,18.6,18.6,0,0,0,1.85.78c2,.54,4.12.87,6.17,1.38s4.32-.71,6.36.48c4.7,2.72,4.7,2.72,6.36,2.91l.81.1c7.38,1.06,10.43,10.38,18.51,10.09,3.6-6.13,5.81,1.22,6.6,4.66.25,1.08.25,1.08-1.77,5.61,0,.07-2,8.24-1.14,9.76.13.25.3.59.46.83,2.65,4,13.52,15,13.61,15.07,2.66,2.34,6.26,2.87,9.06,4.93,2.13,1.56,3.73,4.63,4.5,8.65,0,.18,4.2,19.27,11.45,29.68,9.2,13.22,18.12,11.76,18.19,11.74-8.57-4.51-8.57-4.51-7.76-8.21-1.19-1.3-1.19-1.3-3.44-7.62.35-.12.35-.12,2-.06,0-.17,0-.17-2-2.94,1.5-1.36,1.5-1.36,1.39-2.46l.38-.23c2.66.83,3.54-1.42,2.86-2.44L125,231.3c6-.16,8.62-15.11,8.65-15.26.87-1.91,3.15-3,4.09-3.44,2.15-.91,2.16-3.48,3.69-4.89a2,2,0,0,1,.84-.51,2,2,0,0,1,1-.07c.89.12,1,.13,1.08-.73.25-1.87.08-3.75.17-5.63.05-1.05-.56-2.13.13-3.16.79-1.18,1.08-1.62.54-2.41a1.74,1.74,0,0,1-.26-.53c5.07-1.88,6.87-7.48,6.87-7.54a.67.67,0,0,0,0-.2C151.59,186.3,151.1,185.85,151,185.23ZM24,68.43c1.79-.6,3.68-1.17,5.63-1.72C27.7,67.25,25.81,67.83,24,68.43ZM81.44,175c2.28-.29,4.61-.58,7.06-.86Zm51.31,32.74c-.1-.9-.4-3.88-.86-9.14.27,3.07.56,6.12.88,9.34A1.68,1.68,0,0,1,132.75,207.78Zm-2.44-28.6c0,.17,0,.34,0,.5,0-.17,0-.35,0-.51Z"/><path class="cls-48" d="M88.05,149.56c-.69.48.21,1.4,1.06,1.54a6.11,6.11,0,0,0,2.62-.37c0-.1-.1-.35-1.54-.8S88.37,149.48,88.05,149.56Z"/></g></g></svg>