<svg width="48" height="48" viewBox="0 0 48 48" fill="none" xmlns="http://www.w3.org/2000/svg">
<path d="M45 28.728V30.6375C45 34.098 41.1825 37.677 36.528 37.677H11.472C6.759 37.677 3 34.1565 3 30.636V28.728H45Z" fill="white"/>
<path d="M19.167 10.173C21.2355 10.1656 23.2616 10.7597 24.9985 11.8831C26.7354 13.0064 28.1083 14.6105 28.95 16.5C29.8633 15.8748 30.9452 15.5421 32.052 15.546C33.4654 15.5314 34.8277 16.0742 35.8437 17.0569C36.8598 18.0395 37.4478 19.3829 37.4805 20.796C39.4264 21.0208 41.2358 21.908 42.605 23.3089C43.9742 24.7098 44.8198 26.539 45 28.4895V29.205C45 32.7255 41.1825 36.2445 36.468 36.2445H11.472C6.759 36.2445 3 32.724 3 29.205V28.4895C3.09864 26.8796 3.66475 25.3334 4.62897 24.0404C5.59318 22.7474 6.91362 21.7638 8.4285 21.21V20.91C8.42274 19.4983 8.69659 18.0994 9.23423 16.794C9.77187 15.4886 10.5627 14.3026 11.561 13.3044C12.5593 12.3062 13.7454 11.5156 15.0509 10.9782C16.3563 10.4407 17.7553 10.1671 19.167 10.173Z" fill="#C3D2DF"/>
<path d="M13.5 22.6425L10.6965 32.427H12.366L13.023 30.0405H15.8865L16.4865 32.427H18.15L15.525 22.6425H13.5ZM13.2615 28.7925L14.4615 23.9595L15.5955 28.7925H13.2615Z" fill="white"/>
<path d="M25.1925 30.339H25.134L23.8215 22.6425H22.1505L20.898 30.279H20.838L19.5255 22.6425H17.9745L19.884 32.4855H21.6735L22.926 25.089H22.986L24.2385 32.4855H26.088L28.0575 22.6425H26.4465L25.1925 30.339Z" fill="white"/>
<path d="M33.1275 27.117L32.0535 26.7585C30.9795 26.3415 30.5625 25.8585 30.5625 25.029C30.5426 24.8408 30.5625 24.6505 30.6209 24.4704C30.6792 24.2904 30.7748 24.1246 30.9014 23.9839C31.028 23.8432 31.1828 23.7307 31.3557 23.6537C31.5286 23.5767 31.7157 23.5369 31.905 23.5369C32.0943 23.5369 32.2814 23.5767 32.4543 23.6537C32.6272 23.7307 32.782 23.8432 32.9086 23.9839C33.0352 24.1246 33.1308 24.2904 33.1892 24.4704C33.2476 24.6505 33.2674 24.8408 33.2475 25.029V25.2075H34.8V24.969C34.8 23.955 34.5615 22.404 31.9965 22.404C31.6051 22.3529 31.2073 22.3883 30.831 22.5076C30.4547 22.6269 30.1092 22.8272 29.8188 23.0945C29.5283 23.3618 29.3 23.6895 29.1499 24.0546C28.9998 24.4197 28.9316 24.8132 28.95 25.2075C28.9162 25.8315 29.1088 26.4468 29.4924 26.9401C29.876 27.4334 30.4249 27.7716 31.038 27.8925L32.112 28.251C32.525 28.3052 32.9022 28.5137 33.1679 28.8344C33.4336 29.1552 33.5681 29.5646 33.5445 29.9805C33.5507 30.1753 33.5159 30.3692 33.4423 30.5498C33.3688 30.7303 33.2582 30.8933 33.1176 31.0284C32.9771 31.1634 32.8097 31.2674 32.6264 31.3337C32.4431 31.3999 32.2479 31.427 32.0535 31.413C30.9795 31.413 30.4425 30.8165 30.4425 29.6235V29.385H28.8915V29.6235C28.8423 30.0271 28.8856 30.4366 29.0182 30.821C29.1507 31.2054 29.369 31.5545 29.6565 31.842C29.944 32.1295 30.2932 32.3478 30.6775 32.4803C31.0619 32.6129 31.4714 32.6562 31.875 32.607C33.843 32.607 35.1555 31.7715 35.1555 29.6835C35.1639 29.0878 34.9669 28.5074 34.5975 28.0399C34.2281 27.5725 33.709 27.2466 33.1275 27.117V27.117Z" fill="white"/>
</svg>
