<svg width="1440" height="623" viewBox="0 0 1440 623" fill="none" xmlns="http://www.w3.org/2000/svg">
<path d="M-1 25H719.5H1440V623H-1V25Z" fill="#111133"/>
<g opacity="0.3">
<path opacity="0.3" d="M138 303.633C316.876 393.615 569.854 12.9111 676.165 124.924C785.94 240.516 922.944 544.205 1061.43 504.141C1199.91 464.076 1294.7 236.518 1577.89 616.897" stroke="#007BFC" stroke-width="0.25" stroke-miterlimit="10"/>
<path opacity="0.3" d="M144.573 306.654C326.914 407.512 579.292 26.8082 687.794 128.689C799.536 234.009 933.637 523.522 1070.47 491.22C1207.31 458.917 1305.96 238.192 1575.68 600.397" stroke="#007BFC" stroke-width="0.25" stroke-miterlimit="10"/>
<path opacity="0.3" d="M151.109 309.675C336.951 421.224 588.749 40.7053 699.404 132.454C813.15 227.502 944.33 502.7 1079.55 477.927C1214.78 453.154 1317.25 239.447 1573.49 583.572" stroke="#007BFC" stroke-width="0.25" stroke-miterlimit="10"/>
<path opacity="0.3" d="M157.644 312.743C347.007 435.353 598.187 54.5557 711.015 136.125C826.764 220.902 955.022 481.785 1088.58 464.681C1222.14 447.577 1328.51 240.794 1571.26 566.933" stroke="#007BFC" stroke-width="0.25" stroke-miterlimit="10"/>
<path opacity="0.3" d="M164.217 315.764C357.101 449.25 607.644 68.4529 722.625 139.844C840.378 214.209 965.734 460.87 1097.63 451.481C1229.52 442.092 1339.78 242.328 1569.03 550.061" stroke="#007BFC" stroke-width="0.25" stroke-miterlimit="10"/>
<path opacity="0.3" d="M170.697 318.785C367.101 463.193 617.139 81.7457 734.236 143.794C854.086 207.33 976.427 440.233 1106.69 438.56C1236.95 436.887 1351.05 243.816 1566.84 533.608" stroke="#007BFC" stroke-width="0.25" stroke-miterlimit="10"/>
<path opacity="0.3" d="M177.326 321.806C377.232 477.09 626.764 95.4566 745.94 147.559C867.663 200.73 987.12 419.364 1115.73 425.453C1244.35 431.542 1362.33 245.256 1564.61 516.969" stroke="#007BFC" stroke-width="0.25" stroke-miterlimit="10"/>
<path opacity="0.3" d="M183.768 324.827C387.195 491.034 636.127 109.307 757.457 151.324C881.277 194.177 997.813 398.542 1124.89 412.346C1251.97 426.15 1373.6 246.744 1562.4 500.283" stroke="#007BFC" stroke-width="0.25" stroke-miterlimit="10"/>
<path opacity="0.3" d="M190.285 327.895C397.232 504.931 645.491 123.111 769.086 155.088C894.891 187.623 1008.51 377.72 1133.84 399.239C1259.18 420.759 1384.78 248.185 1560.17 483.644" stroke="#007BFC" stroke-width="0.25" stroke-miterlimit="10"/>
<path opacity="0.3" d="M196.82 330.916C407.288 518.874 654.854 136.962 780.697 158.853C908.487 181.116 1019.22 356.897 1142.91 386.179C1266.6 415.46 1396.13 249.718 1557.96 467.051" stroke="#007BFC" stroke-width="0.25" stroke-miterlimit="10"/>
<path opacity="0.3" d="M203.356 333.937C417.326 532.771 664.33 150.859 792.307 162.664C922.101 174.609 1029.91 336.075 1151.95 372.979C1273.99 409.883 1407.4 251.113 1555.75 450.319" stroke="#007BFC" stroke-width="0.25" stroke-miterlimit="10"/>
<path opacity="0.3" d="M209.873 336.958C427.382 546.668 673.768 164.988 803.918 166.429C935.697 168.102 1040.6 315.16 1161 359.872C1281.39 404.584 1418.67 252.553 1553.52 433.68" stroke="#007BFC" stroke-width="0.25" stroke-miterlimit="10"/>
<path opacity="0.3" d="M216.408 339.979C437.382 560.612 683.206 178.653 815.528 170.194C949.311 161.642 1051.3 294.43 1170.06 346.812C1288.82 399.193 1429.95 254.041 1551.31 417.04" stroke="#007BFC" stroke-width="0.25" stroke-miterlimit="10"/>
<path opacity="0.3" d="M222.944 343C447.476 574.509 692.644 192.55 827.139 173.959C962.925 155.367 1062.01 273.562 1179.2 333.658C1296.39 393.755 1441.37 255.482 1549.2 400.355" stroke="#007BFC" stroke-width="0.25" stroke-miterlimit="10"/>
<path opacity="0.3" d="M229.479 346.068C457.513 588.453 702.082 206.633 838.768 177.723C976.521 148.721 1072.7 252.74 1188.17 320.551C1303.64 388.363 1452.49 256.923 1546.9 383.715" stroke="#007BFC" stroke-width="0.25" stroke-miterlimit="10"/>
<path opacity="0.3" d="M235.996 348.996C467.588 602.35 711.558 221.088 850.378 181.674C990.172 143.144 1083.39 232.103 1197.21 307.63C1311.03 383.158 1463.84 258.41 1544.67 367.076" stroke="#007BFC" stroke-width="0.25" stroke-miterlimit="10"/>
<path opacity="0.3" d="M242.532 352.11C477.607 616.293 720.996 234.985 861.989 185.299C1003.79 136.451 1094.09 211.095 1206.28 294.337C1318.47 377.58 1475.08 259.851 1542.49 350.39" stroke="#007BFC" stroke-width="0.25" stroke-miterlimit="10"/>
<path opacity="0.3" d="M249.067 355.131C487.663 630.19 730.453 248.835 873.599 189.064C1017.4 129.944 1104.78 190.273 1215.32 281.231C1325.87 372.189 1486.31 261.291 1540.25 333.751" stroke="#007BFC" stroke-width="0.25" stroke-miterlimit="10"/>
<path opacity="0.3" d="M255.584 358.292C497.7 644.134 739.891 262.732 885.191 192.829C1031 123.437 1115.53 169.59 1224.35 268.077C1333.17 366.565 1497.55 262.779 1538.04 317.112" stroke="#007BFC" stroke-width="0.25" stroke-miterlimit="10"/>
<path opacity="0.3" d="M262.12 361.22C507.757 658.031 749.348 276.629 896.82 196.594C1044.63 116.93 1126.18 148.628 1233.51 254.97C1340.83 361.313 1508.92 264.266 1535.88 300.426" stroke="#007BFC" stroke-width="0.25" stroke-miterlimit="10"/>
<path opacity="0.3" d="M268.655 364.241C517.719 671.928 758.787 290.48 908.449 200.358C1058.11 110.237 1136.88 127.759 1242.48 242.096C1348.07 356.433 1520.12 265.893 1533.6 283.926" stroke="#007BFC" stroke-width="0.25" stroke-miterlimit="10"/>
<path opacity="0.3" d="M275.191 367.262C527.85 685.871 768.243 304.377 920.06 204.123C1071.88 103.869 1147.57 106.937 1251.52 228.757C1355.47 350.576 1531.37 267.148 1531.37 267.148" stroke="#007BFC" stroke-width="0.25" stroke-miterlimit="10"/>
<path opacity="0.3" d="M274.536 359.779C328.487 423.64 381.558 462.031 433.262 478.299C499.105 498.842 563.206 484.062 624.049 451.713C659.239 432.652 693.919 408.189 727.888 378.463C761.951 348.857 793.861 315.996 823.599 285.507C857.101 251.717 887.906 220.902 916.258 200.265C948.861 177.026 978.805 156.994 1006.15 146.583C1046.14 130.109 1086.93 129.404 1127.01 144.491C1163.56 157.645 1199.12 183.812 1237.7 222.947C1241.45 226.758 1245.36 230.755 1249.24 234.845C1285.98 273.283 1330.45 285.414 1373.64 287.924C1453.79 292.571 1528.82 258.131 1532.01 258.921" stroke="#007BFC" stroke-width="0.25" stroke-miterlimit="10"/>
<path opacity="0.3" d="M273.88 352.25C328.037 412.207 380.959 452.689 432.457 471.606C497.738 494.845 561.67 484.062 622.775 454.641C658.069 437.381 692.815 413.833 726.745 384.18C760.79 354.341 792.288 319.436 821.427 287.412C854.124 251.531 884.236 218.578 912.476 196.268C944.685 170.752 975.228 148.581 1002.94 139.332C1049.76 123.762 1086.41 134.22 1123.17 150.812C1159.61 167.266 1196.03 193.805 1235.21 229.826C1239.09 233.358 1243.01 236.983 1246.95 240.702C1284.4 275.839 1328.92 280.208 1372.42 282.207C1451.52 285.925 1526.31 248.928 1532.68 250.462" stroke="#007BFC" stroke-width="0.25" stroke-miterlimit="10"/>
<path opacity="0.3" d="M273.225 344.766C327.532 400.54 380.36 443.765 431.652 464.867C496.352 491.499 560.172 484.387 621.483 457.569C656.895 442.252 691.729 419.616 725.622 389.897C759.667 359.779 790.64 323.061 819.255 289.178C851.09 251.484 880.528 216.44 908.637 192.318C940.472 164.942 971.595 140.076 999.76 132.221C1046.86 119.021 1082.51 137.52 1119.29 157.319C1157.62 178.737 1195.46 205.19 1232.66 236.565L1244.74 246.465C1283.04 278.07 1327.44 279 1371.2 276.397C1449.24 271.749 1523.79 239.586 1533.34 241.956" stroke="#007BFC" stroke-width="0.25" stroke-miterlimit="10"/>
<path opacity="0.3" d="M272.588 337.237C327.12 389.339 379.76 434.842 430.846 458.081C495.004 487.641 558.655 484.387 620.191 460.405C655.709 446.924 690.638 425.185 724.517 395.474C758.543 365.078 789.049 326.547 817.157 290.805C848.3 251.392 876.895 214.209 904.891 188.367C936.352 159.179 968.037 131.617 996.652 125.063C1044.05 114.234 1078.67 140.773 1115.51 163.873C1151.71 186.554 1189.95 213.884 1230.21 243.49L1242.34 252.368C1281.45 280.255 1325.77 275.886 1369.85 270.727C1446.82 261.756 1521.13 230.43 1533.86 233.544" stroke="#007BFC" stroke-width="0.25" stroke-miterlimit="10"/>
<path opacity="0.3" d="M271.933 329.754C326.652 377.906 379.142 425.453 430.135 451.481C493.805 484.016 557.232 484.527 618.993 463.426C654.603 451.849 689.626 431.037 723.487 401.331C757.419 370.701 787.457 330.405 815.041 292.757C845.397 251.392 873.243 212.164 901.09 184.416C932.176 153.415 964.461 123.111 993.506 117.952C1041.2 109.447 1074.82 143.98 1111.67 170.38C1147.74 196.175 1186.9 223.923 1227.78 250.415C1231.88 253.065 1236 255.714 1240.12 258.224C1280 282.811 1324.25 272.865 1368.66 265.056C1444.52 251.717 1518.62 221.227 1534.54 225.131" stroke="#007BFC" stroke-width="0.25" stroke-miterlimit="10"/>
<path opacity="0.3" d="M271.277 322.271C326.202 366.472 378.543 416.297 429.236 444.741C492.27 480.158 555.603 484.573 617.607 466.307C653.468 455.896 689.255 437.305 722.27 407.047C756.277 376.139 785.94 333.937 812.888 294.523C842.476 251.392 869.573 210.026 897.307 180.466C928.019 147.931 960.865 114.559 990.378 110.748C1038.36 104.613 1070.9 147.187 1107.83 176.84C1143.79 205.75 1183.86 233.916 1225.21 257.294C1229.4 259.68 1233.59 261.942 1237.76 264.08C1278.47 285.088 1322.61 269.843 1367.34 259.432C1442.12 242.096 1516 212.024 1535 216.719" stroke="#007BFC" stroke-width="0.25" stroke-miterlimit="10"/>
<path opacity="0.3" d="M270.64 314.742C325.734 355.038 377.944 407.094 428.431 438.049C489.876 475.094 553.429 485.643 616.315 469.236C652.176 460.405 688.131 443.022 721.183 412.764C755.191 381.578 784.311 337.609 810.79 296.29C839.592 251.392 865.921 207.981 893.524 176.515C923.88 141.982 957.288 106.054 987.251 103.637C1035.53 99.7793 1067.08 150.441 1104.03 183.394C1142.73 217.687 1182.41 244.72 1222.74 264.266C1226.99 266.311 1231.24 268.263 1235.49 270.029C1277.01 287.459 1321.03 266.962 1366.09 253.716C1439.78 232.057 1513.45 202.868 1535.72 208.353" stroke="#007BFC" stroke-width="0.25" stroke-miterlimit="10"/>
<path opacity="0.3" d="M269.985 307.166C325.285 343.512 377.345 397.798 427.626 431.263C488.692 471.442 552.089 485.246 615.041 472.071C650.865 464.913 687.026 448.832 720.06 418.388C754.049 386.969 782.719 341.188 808.637 298.009C836.727 251.531 862.251 205.75 889.704 172.518C919.667 136.218 953.674 97.4553 984.086 96.4793C1032.66 94.899 1063.21 153.555 1100.19 189.854C1138.95 227.309 1179.19 254.555 1220.25 271.145C1224.57 272.865 1228.88 274.491 1233.19 275.793C1275.53 289.736 1319.46 263.941 1364.84 247.906C1437.42 222.25 1510.9 193.526 1536.33 199.801" stroke="#007BFC" stroke-width="0.25" stroke-miterlimit="10"/>
<path opacity="0.3" d="M269.33 299.729C324.816 332.264 376.745 388.689 426.839 424.663C487.509 468.038 550.741 485.098 613.749 475.092C649.554 469.607 685.921 455.013 718.936 424.198C752.925 392.5 781.146 344.952 806.502 299.868C833.768 251.392 858.599 203.751 885.921 168.614C915.528 130.548 950.079 90.2047 980.94 89.6005C1029.8 88.2991 1059.35 157.041 1096.33 196.501C1135.14 237.049 1175.97 264.498 1217.72 278.117C1222.11 279.604 1226.48 280.859 1230.83 281.881C1273.9 292.06 1317.79 261.338 1363.51 242.421C1435.04 212.815 1508.3 184.509 1536.88 191.527" stroke="#007BFC" stroke-width="0.25" stroke-miterlimit="10"/>
<path opacity="0.3" d="M268.674 292.246C324.367 320.737 376.146 379.486 425.978 417.737C486.256 464.318 549.328 484.65 612.401 477.834C648.206 474.023 684.742 460.823 717.775 429.729C751.745 397.752 779.573 348.438 804.33 301.495C830.884 251.391 854.929 201.66 882.12 164.663C911.371 124.877 946.483 80.3977 977.794 82.2568C1026.95 85.1385 1055.47 159.969 1092.49 203.1C1127.98 244.28 1171.73 273.98 1215.23 285.135C1219.71 286.312 1224.16 287.226 1228.58 287.877C1272.55 294.43 1316.26 258.642 1362.31 236.751C1432.7 203.379 1505.73 175.353 1537.55 183.208" stroke="#007BFC" stroke-width="0.25" stroke-miterlimit="10"/>
<path opacity="0.3" d="M268.037 284.716C323.899 309.303 375.547 370.237 425.228 411.231C485.118 460.97 548.028 484.558 611.165 480.948C646.951 478.81 683.693 467.005 716.708 435.632C750.678 403.422 777.981 352.342 802.251 303.447C827.981 251.391 851.277 199.615 878.337 160.712C907.213 119.207 942.888 71.7991 974.648 75.0991C1024.1 80.2117 1051.61 163.083 1088.67 209.561C1124.03 253.808 1168.69 283.926 1212.74 292.014C1217.29 292.85 1221.8 293.454 1226.3 293.733C1271.09 296.615 1314.69 255.9 1361.13 231.127C1430.42 193.944 1503.24 166.057 1538.24 174.842" stroke="#007BFC" stroke-width="0.25" stroke-miterlimit="10"/>
<path opacity="0.3" d="M267.382 277.233C323.393 297.87 374.948 360.987 424.517 404.77C484.004 457.558 546.735 484.293 609.91 483.783C645.678 483.272 682.607 472.861 715.622 441.256C749.592 408.721 776.464 355.968 800.154 305.12C825.135 251.531 847.663 197.477 874.573 156.669C903.112 113.444 939.348 63.1078 971.539 67.8486C1021.3 75.1921 1047.79 166.197 1084.87 215.882C1120.13 263.151 1165.7 293.64 1210.34 298.753C1214.97 299.264 1219.55 299.682 1224.1 299.45C1269.7 296.847 1313.22 252.972 1359.89 225.085C1428.11 184.416 1500.72 156.715 1538.9 166.104" stroke="#007BFC" stroke-width="0.25" stroke-miterlimit="10"/>
<path opacity="0.3" d="M266.727 269.983C323 286.715 374.367 351.971 423.618 398.031C482.717 454.173 545.31 484.294 608.58 487.037C644.329 488.199 681.464 479.182 714.479 447.298C748.431 414.763 774.854 360.011 797.981 307.258C822.213 251.949 843.992 195.71 870.753 153.043C898.843 108.099 935.715 54.8346 968.356 61.0627C1018.39 70.3583 1043.9 169.683 1081 222.714C1116.15 273.004 1162.63 303.866 1207.74 306.004C1212.44 306.004 1217.1 306.004 1221.71 305.678C1268.13 301.03 1311.6 250.834 1358.52 219.879C1425.68 175.632 1498.04 147.977 1539.4 158.156" stroke="#007BFC" stroke-width="0.25" stroke-miterlimit="10"/>
<path opacity="0.3" d="M266.071 262.221C322.532 275.049 373.768 342.489 422.813 391.105C481.389 449.203 543.374 484.666 607.307 489.686C643.037 492.521 680.341 485.038 713.356 452.782C747.307 419.783 773.281 363.544 795.865 308.699C819.329 251.717 840.341 193.387 867.026 148.767C894.854 102.289 932.195 45.9108 965.285 53.5797C1015.55 65.4782 1040.06 172.378 1077.16 228.989C1112.21 282.3 1159.55 313.533 1205.23 312.65C1210.02 312.65 1214.75 312.201 1219.4 311.302C1266.65 303.122 1309.98 248.138 1357.27 214.209C1423.37 166.522 1495.47 138.821 1540.02 149.79" stroke="#007BFC" stroke-width="0.25" stroke-miterlimit="10"/>
<path opacity="0.3" d="M265.434 254.738C322.082 263.615 373.169 333.193 422.007 384.413C480.06 445.253 541.858 484.62 606.015 492.614C641.727 497.262 679.236 490.894 712.251 458.499C746.184 425.22 771.745 367.262 793.73 310.558C816.464 251.949 836.708 191.481 863.169 144.91C890.64 96.6186 928.524 37.5911 962.064 46.5614C1012.63 60.5049 1036.2 175.678 1073.34 235.542C1108.28 291.828 1156.56 323.433 1202.74 319.575C1207.58 319.203 1212.38 318.413 1217.12 317.205C1265.17 305.306 1308.41 245.675 1356.01 208.306C1421.07 157.18 1492.91 129.293 1540.64 141.145" stroke="#007BFC" stroke-width="0.25" stroke-miterlimit="10"/>
<path opacity="0.3" d="M264.779 247.209C321.614 252.182 372.588 323.898 421.202 377.72C478.693 441.349 540.322 484.62 604.723 495.542C640.416 501.631 678.131 496.89 711.127 464.216C745.06 430.705 770.191 371.027 791.652 312.371C813.637 251.949 833.112 189.482 859.423 141.006C886.558 90.9949 924.966 28.7604 958.974 39.4039C1009.91 55.3925 1032.42 178.839 1069.55 242.049C1104.29 301.356 1153.52 333.333 1200.25 326.501C1205.17 325.803 1210.02 324.641 1214.82 323.108C1263.67 307.445 1306.91 243.304 1354.76 202.636C1418.79 148.21 1490.34 120.23 1541.26 132.918" stroke="#007BFC" stroke-width="0.25" stroke-miterlimit="10"/>
<path opacity="0.3" d="M264.124 239.726C321.165 240.748 372.082 314.602 420.397 370.98C477.345 437.305 538.749 484.481 603.431 498.471C639.124 506.186 677.007 502.839 710.022 469.933C743.936 436.143 768.655 374.792 789.461 314.137C810.734 252.135 829.423 187.484 855.584 137.055C882.363 85.371 921.352 20.1154 955.771 32.2463C1007.03 50.3728 1028.51 181.953 1065.66 248.556C1100.42 310.884 1150.47 343.186 1197.74 333.426C1202.73 332.403 1207.66 330.854 1212.51 328.778C1262.19 309.35 1305.4 240.748 1353.49 196.733C1416.54 139.054 1487.78 110.795 1541.88 124.087" stroke="#007BFC" stroke-width="0.25" stroke-miterlimit="10"/>
<path opacity="0.3" d="M263.468 232.243C320.678 229.314 371.408 305.26 419.573 364.288C475.977 433.401 537.27 484.388 602.12 501.399C637.7 510.694 675.884 508.835 708.861 475.65C742.869 441.581 767.213 378.556 787.326 315.904C807.925 252.275 825.809 185.485 851.783 133.104C878.243 79.7471 917.756 11.4704 952.607 25.135C1004.16 45.3531 1024.65 185.021 1061.8 255.063C1096.48 320.412 1147.36 353.086 1195.25 340.351C1200.32 339.003 1205.3 337.144 1210.23 334.913C1260.7 311.674 1303.86 238.703 1352.23 191.295C1414.29 130.408 1485.19 101.871 1542.49 115.954" stroke="#007BFC" stroke-width="0.25" stroke-miterlimit="10"/>
<path opacity="0.3" d="M262.831 224.713C320.247 217.881 370.903 295.732 418.787 357.595C474.723 429.171 535.772 484.062 600.846 504.327C636.427 515.156 674.798 514.831 707.794 481.413C741.689 447.065 765.584 382.321 785.21 317.716C804.835 253.111 822.176 183.487 848 129.154C874.105 74.1697 914.18 2.77894 949.479 17.9774C1001.33 40.287 1020.88 187.995 1058 261.57C1092.61 329.754 1144.39 362.707 1192.83 347.276C1197.96 345.557 1203.04 343.419 1208 340.816C1259.27 313.858 1302.49 236.519 1351.05 185.625C1412.14 121.624 1482.72 92.6681 1543.19 107.541" stroke="#007BFC" stroke-width="0.25" stroke-miterlimit="10"/>
<path opacity="0.3" d="M262.176 217.23C319.779 206.447 370.303 286.483 417.981 350.855C473.356 425.22 534.255 484.062 599.629 507.255C635.21 519.757 673.73 520.78 706.727 487.13C740.622 452.503 764.161 386.179 783.131 319.482C802.101 252.786 818.712 181.581 844.255 125.203C869.798 68.8246 910.659 -5.95908 946.39 10.8661C998.562 35.0813 1017.08 191.202 1054.22 268.124C1088.71 339.328 1141.41 372.653 1190.3 354.155C1195.53 352.157 1200.66 349.507 1205.7 346.719C1257.76 315.81 1301.02 234.38 1349.78 179.954C1409.93 112.84 1480.13 83.4652 1543.79 99.1284" stroke="#007BFC" stroke-width="0.25" stroke-miterlimit="10"/>
<path opacity="0.3" d="M261.596 209.561C319.33 195.013 369.704 277.28 417.176 344.348C472.008 421.595 532.719 484.248 598.281 510.322C633.861 524.545 672.569 526.962 705.547 493.032C739.442 458.127 762.551 390.083 780.94 321.434C799.33 252.786 814.948 179.722 840.416 121.578C865.884 63.4331 907.008 -14.5575 943.244 3.70847C995.678 30.2011 1013.22 194.27 1050.38 274.631C1084.78 348.996 1138.39 382.646 1187.81 361.08C1247.96 334.913 1294.85 237.866 1348.52 174.284C1407.66 104.055 1477.51 74.3091 1544.37 90.7159" stroke="#007BFC" stroke-width="0.25" stroke-miterlimit="10"/>
</g>
<g opacity="0.3">
<path opacity="0.3" d="M138 303.633C316.876 393.615 569.854 12.9111 676.165 124.924C785.94 240.516 922.944 544.205 1061.43 504.141C1199.91 464.076 1294.7 236.518 1577.89 616.897" stroke="#007BFC" stroke-width="0.25" stroke-miterlimit="10"/>
<path opacity="0.3" d="M144.573 306.654C326.914 407.512 579.292 26.8082 687.794 128.689C799.536 234.009 933.637 523.522 1070.47 491.22C1207.31 458.917 1305.96 238.192 1575.68 600.397" stroke="#007BFC" stroke-width="0.25" stroke-miterlimit="10"/>
<path opacity="0.3" d="M151.109 309.675C336.951 421.224 588.749 40.7053 699.404 132.454C813.15 227.502 944.33 502.7 1079.55 477.927C1214.78 453.154 1317.25 239.447 1573.49 583.572" stroke="#007BFC" stroke-width="0.25" stroke-miterlimit="10"/>
<path opacity="0.3" d="M157.644 312.743C347.007 435.353 598.187 54.5557 711.015 136.125C826.764 220.902 955.022 481.785 1088.58 464.681C1222.14 447.577 1328.51 240.794 1571.26 566.933" stroke="#007BFC" stroke-width="0.25" stroke-miterlimit="10"/>
<path opacity="0.3" d="M164.217 315.764C357.101 449.25 607.644 68.4529 722.625 139.844C840.378 214.209 965.734 460.87 1097.63 451.481C1229.52 442.092 1339.78 242.328 1569.03 550.061" stroke="#007BFC" stroke-width="0.25" stroke-miterlimit="10"/>
<path opacity="0.3" d="M170.697 318.785C367.101 463.193 617.139 81.7457 734.236 143.794C854.086 207.33 976.427 440.233 1106.69 438.56C1236.95 436.887 1351.05 243.816 1566.84 533.608" stroke="#007BFC" stroke-width="0.25" stroke-miterlimit="10"/>
<path opacity="0.3" d="M177.326 321.806C377.232 477.09 626.764 95.4566 745.94 147.559C867.663 200.73 987.12 419.364 1115.73 425.453C1244.35 431.542 1362.33 245.256 1564.61 516.969" stroke="#007BFC" stroke-width="0.25" stroke-miterlimit="10"/>
<path opacity="0.3" d="M183.768 324.827C387.195 491.034 636.127 109.307 757.457 151.324C881.277 194.177 997.813 398.542 1124.89 412.346C1251.97 426.15 1373.6 246.744 1562.4 500.283" stroke="#007BFC" stroke-width="0.25" stroke-miterlimit="10"/>
<path opacity="0.3" d="M190.285 327.895C397.232 504.931 645.491 123.111 769.086 155.088C894.891 187.623 1008.51 377.72 1133.84 399.239C1259.18 420.759 1384.78 248.185 1560.17 483.644" stroke="#007BFC" stroke-width="0.25" stroke-miterlimit="10"/>
<path opacity="0.3" d="M196.82 330.916C407.288 518.874 654.854 136.962 780.697 158.853C908.487 181.116 1019.22 356.897 1142.91 386.179C1266.6 415.46 1396.13 249.718 1557.96 467.051" stroke="#007BFC" stroke-width="0.25" stroke-miterlimit="10"/>
<path opacity="0.3" d="M203.356 333.937C417.326 532.771 664.33 150.859 792.307 162.664C922.101 174.609 1029.91 336.075 1151.95 372.979C1273.99 409.883 1407.4 251.113 1555.75 450.319" stroke="#007BFC" stroke-width="0.25" stroke-miterlimit="10"/>
<path opacity="0.3" d="M209.873 336.958C427.382 546.668 673.768 164.988 803.918 166.429C935.697 168.102 1040.6 315.16 1161 359.872C1281.39 404.584 1418.67 252.553 1553.52 433.68" stroke="#007BFC" stroke-width="0.25" stroke-miterlimit="10"/>
<path opacity="0.3" d="M216.408 339.979C437.382 560.612 683.206 178.653 815.528 170.194C949.311 161.642 1051.3 294.43 1170.06 346.812C1288.82 399.193 1429.95 254.041 1551.31 417.04" stroke="#007BFC" stroke-width="0.25" stroke-miterlimit="10"/>
<path opacity="0.3" d="M222.944 343C447.476 574.509 692.644 192.55 827.139 173.959C962.925 155.367 1062.01 273.562 1179.2 333.658C1296.39 393.755 1441.37 255.482 1549.2 400.355" stroke="#007BFC" stroke-width="0.25" stroke-miterlimit="10"/>
<path opacity="0.3" d="M229.479 346.068C457.513 588.453 702.082 206.633 838.768 177.723C976.521 148.721 1072.7 252.74 1188.17 320.551C1303.64 388.363 1452.49 256.923 1546.9 383.715" stroke="#007BFC" stroke-width="0.25" stroke-miterlimit="10"/>
<path opacity="0.3" d="M235.996 348.996C467.588 602.35 711.558 221.088 850.378 181.674C990.172 143.144 1083.39 232.103 1197.21 307.63C1311.03 383.158 1463.84 258.41 1544.67 367.076" stroke="#007BFC" stroke-width="0.25" stroke-miterlimit="10"/>
<path opacity="0.3" d="M242.532 352.11C477.607 616.293 720.996 234.985 861.989 185.299C1003.79 136.451 1094.09 211.095 1206.28 294.337C1318.47 377.58 1475.08 259.851 1542.49 350.39" stroke="#007BFC" stroke-width="0.25" stroke-miterlimit="10"/>
<path opacity="0.3" d="M249.067 355.131C487.663 630.19 730.453 248.835 873.599 189.064C1017.4 129.944 1104.78 190.273 1215.32 281.231C1325.87 372.189 1486.31 261.291 1540.25 333.751" stroke="#007BFC" stroke-width="0.25" stroke-miterlimit="10"/>
<path opacity="0.3" d="M255.584 358.292C497.7 644.134 739.891 262.732 885.191 192.829C1031 123.437 1115.53 169.59 1224.35 268.077C1333.17 366.565 1497.55 262.779 1538.04 317.112" stroke="#007BFC" stroke-width="0.25" stroke-miterlimit="10"/>
<path opacity="0.3" d="M262.12 361.22C507.757 658.031 749.348 276.629 896.82 196.594C1044.63 116.93 1126.18 148.628 1233.51 254.97C1340.83 361.313 1508.92 264.266 1535.88 300.426" stroke="#007BFC" stroke-width="0.25" stroke-miterlimit="10"/>
<path opacity="0.3" d="M268.655 364.241C517.719 671.928 758.787 290.48 908.449 200.358C1058.11 110.237 1136.88 127.759 1242.48 242.096C1348.07 356.433 1520.12 265.893 1533.6 283.926" stroke="#007BFC" stroke-width="0.25" stroke-miterlimit="10"/>
<path opacity="0.3" d="M275.191 367.262C527.85 685.871 768.243 304.377 920.06 204.123C1071.88 103.869 1147.57 106.937 1251.52 228.757C1355.47 350.576 1531.37 267.148 1531.37 267.148" stroke="#007BFC" stroke-width="0.25" stroke-miterlimit="10"/>
<path opacity="0.3" d="M274.536 359.779C328.487 423.64 381.558 462.031 433.262 478.299C499.105 498.842 563.206 484.062 624.049 451.713C659.239 432.652 693.919 408.189 727.888 378.463C761.951 348.857 793.861 315.996 823.599 285.507C857.101 251.717 887.906 220.902 916.258 200.265C948.861 177.026 978.805 156.994 1006.15 146.583C1046.14 130.109 1086.93 129.404 1127.01 144.491C1163.56 157.645 1199.12 183.812 1237.7 222.947C1241.45 226.758 1245.36 230.755 1249.24 234.845C1285.98 273.283 1330.45 285.414 1373.64 287.924C1453.79 292.571 1528.82 258.131 1532.01 258.921" stroke="#007BFC" stroke-width="0.25" stroke-miterlimit="10"/>
<path opacity="0.3" d="M273.88 352.25C328.037 412.207 380.959 452.689 432.457 471.606C497.738 494.845 561.67 484.062 622.775 454.641C658.069 437.381 692.815 413.833 726.745 384.18C760.79 354.341 792.288 319.436 821.427 287.412C854.124 251.531 884.236 218.578 912.476 196.268C944.685 170.752 975.228 148.581 1002.94 139.332C1049.76 123.762 1086.41 134.22 1123.17 150.812C1159.61 167.266 1196.03 193.805 1235.21 229.826C1239.09 233.358 1243.01 236.983 1246.95 240.702C1284.4 275.839 1328.92 280.208 1372.42 282.207C1451.52 285.925 1526.31 248.928 1532.68 250.462" stroke="#007BFC" stroke-width="0.25" stroke-miterlimit="10"/>
<path opacity="0.3" d="M273.225 344.766C327.532 400.54 380.36 443.765 431.652 464.867C496.352 491.499 560.172 484.387 621.483 457.569C656.895 442.252 691.729 419.616 725.622 389.897C759.667 359.779 790.64 323.061 819.255 289.178C851.09 251.484 880.528 216.44 908.637 192.318C940.472 164.942 971.595 140.076 999.76 132.221C1046.86 119.021 1082.51 137.52 1119.29 157.319C1157.62 178.737 1195.46 205.19 1232.66 236.565L1244.74 246.465C1283.04 278.07 1327.44 279 1371.2 276.397C1449.24 271.749 1523.79 239.586 1533.34 241.956" stroke="#007BFC" stroke-width="0.25" stroke-miterlimit="10"/>
<path opacity="0.3" d="M272.588 337.237C327.12 389.339 379.76 434.842 430.846 458.081C495.004 487.641 558.655 484.387 620.191 460.405C655.709 446.924 690.638 425.185 724.517 395.474C758.543 365.078 789.049 326.547 817.157 290.805C848.3 251.392 876.895 214.209 904.891 188.367C936.352 159.179 968.037 131.617 996.652 125.063C1044.05 114.234 1078.67 140.773 1115.51 163.873C1151.71 186.554 1189.95 213.884 1230.21 243.49L1242.34 252.368C1281.45 280.255 1325.77 275.886 1369.85 270.727C1446.82 261.756 1521.13 230.43 1533.86 233.544" stroke="#007BFC" stroke-width="0.25" stroke-miterlimit="10"/>
<path opacity="0.3" d="M271.933 329.754C326.652 377.906 379.142 425.453 430.135 451.481C493.805 484.016 557.232 484.527 618.993 463.426C654.603 451.849 689.626 431.037 723.487 401.331C757.419 370.701 787.457 330.405 815.041 292.757C845.397 251.392 873.243 212.164 901.09 184.416C932.176 153.415 964.461 123.111 993.506 117.952C1041.2 109.447 1074.82 143.98 1111.67 170.38C1147.74 196.175 1186.9 223.923 1227.78 250.415C1231.88 253.065 1236 255.714 1240.12 258.224C1280 282.811 1324.25 272.865 1368.66 265.056C1444.52 251.717 1518.62 221.227 1534.54 225.131" stroke="#007BFC" stroke-width="0.25" stroke-miterlimit="10"/>
<path opacity="0.3" d="M271.277 322.271C326.202 366.472 378.543 416.297 429.236 444.741C492.27 480.158 555.603 484.573 617.607 466.307C653.468 455.896 689.255 437.305 722.27 407.047C756.277 376.139 785.94 333.937 812.888 294.523C842.476 251.392 869.573 210.026 897.307 180.466C928.019 147.931 960.865 114.559 990.378 110.748C1038.36 104.613 1070.9 147.187 1107.83 176.84C1143.79 205.75 1183.86 233.916 1225.21 257.294C1229.4 259.68 1233.59 261.942 1237.76 264.08C1278.47 285.088 1322.61 269.843 1367.34 259.432C1442.12 242.096 1516 212.024 1535 216.719" stroke="#007BFC" stroke-width="0.25" stroke-miterlimit="10"/>
<path opacity="0.3" d="M270.64 314.742C325.734 355.038 377.944 407.094 428.431 438.049C489.876 475.094 553.429 485.643 616.315 469.236C652.176 460.405 688.131 443.022 721.183 412.764C755.191 381.578 784.311 337.609 810.79 296.29C839.592 251.392 865.921 207.981 893.524 176.515C923.88 141.982 957.288 106.054 987.251 103.637C1035.53 99.7793 1067.08 150.441 1104.03 183.394C1142.73 217.687 1182.41 244.72 1222.74 264.266C1226.99 266.311 1231.24 268.263 1235.49 270.029C1277.01 287.459 1321.03 266.962 1366.09 253.716C1439.78 232.057 1513.45 202.868 1535.72 208.353" stroke="#007BFC" stroke-width="0.25" stroke-miterlimit="10"/>
<path opacity="0.3" d="M269.985 307.166C325.285 343.512 377.345 397.798 427.626 431.263C488.692 471.442 552.089 485.246 615.041 472.071C650.865 464.913 687.026 448.832 720.06 418.388C754.049 386.969 782.719 341.188 808.637 298.009C836.727 251.531 862.251 205.75 889.704 172.518C919.667 136.218 953.674 97.4553 984.086 96.4793C1032.66 94.899 1063.21 153.555 1100.19 189.854C1138.95 227.309 1179.19 254.555 1220.25 271.145C1224.57 272.865 1228.88 274.491 1233.19 275.793C1275.53 289.736 1319.46 263.941 1364.84 247.906C1437.42 222.25 1510.9 193.526 1536.33 199.801" stroke="#007BFC" stroke-width="0.25" stroke-miterlimit="10"/>
<path opacity="0.3" d="M269.33 299.729C324.816 332.264 376.745 388.689 426.839 424.663C487.509 468.038 550.741 485.098 613.749 475.092C649.554 469.607 685.921 455.013 718.936 424.198C752.925 392.5 781.146 344.952 806.502 299.868C833.768 251.392 858.599 203.751 885.921 168.614C915.528 130.548 950.079 90.2047 980.94 89.6005C1029.8 88.2991 1059.35 157.041 1096.33 196.501C1135.14 237.049 1175.97 264.498 1217.72 278.117C1222.11 279.604 1226.48 280.859 1230.83 281.881C1273.9 292.06 1317.79 261.338 1363.51 242.421C1435.04 212.815 1508.3 184.509 1536.88 191.527" stroke="#007BFC" stroke-width="0.25" stroke-miterlimit="10"/>
<path opacity="0.3" d="M268.674 292.246C324.367 320.737 376.146 379.486 425.978 417.737C486.256 464.318 549.328 484.65 612.401 477.834C648.206 474.023 684.742 460.823 717.775 429.729C751.745 397.752 779.573 348.438 804.33 301.495C830.884 251.391 854.929 201.66 882.12 164.663C911.371 124.877 946.483 80.3977 977.794 82.2568C1026.95 85.1385 1055.47 159.969 1092.49 203.1C1127.98 244.28 1171.73 273.98 1215.23 285.135C1219.71 286.312 1224.16 287.226 1228.58 287.877C1272.55 294.43 1316.26 258.642 1362.31 236.751C1432.7 203.379 1505.73 175.353 1537.55 183.208" stroke="#007BFC" stroke-width="0.25" stroke-miterlimit="10"/>
<path opacity="0.3" d="M268.037 284.716C323.899 309.303 375.547 370.237 425.228 411.231C485.118 460.97 548.028 484.558 611.165 480.948C646.951 478.81 683.693 467.005 716.708 435.632C750.678 403.422 777.981 352.342 802.251 303.447C827.981 251.391 851.277 199.615 878.337 160.712C907.213 119.207 942.888 71.7991 974.648 75.0991C1024.1 80.2117 1051.61 163.083 1088.67 209.561C1124.03 253.808 1168.69 283.926 1212.74 292.014C1217.29 292.85 1221.8 293.454 1226.3 293.733C1271.09 296.615 1314.69 255.9 1361.13 231.127C1430.42 193.944 1503.24 166.057 1538.24 174.842" stroke="#007BFC" stroke-width="0.25" stroke-miterlimit="10"/>
<path opacity="0.3" d="M267.382 277.233C323.393 297.87 374.948 360.987 424.517 404.77C484.004 457.558 546.735 484.293 609.91 483.783C645.678 483.272 682.607 472.861 715.622 441.256C749.592 408.721 776.464 355.968 800.154 305.12C825.135 251.531 847.663 197.477 874.573 156.669C903.112 113.444 939.348 63.1078 971.539 67.8486C1021.3 75.1921 1047.79 166.197 1084.87 215.882C1120.13 263.151 1165.7 293.64 1210.34 298.753C1214.97 299.264 1219.55 299.682 1224.1 299.45C1269.7 296.847 1313.22 252.972 1359.89 225.085C1428.11 184.416 1500.72 156.715 1538.9 166.104" stroke="#007BFC" stroke-width="0.25" stroke-miterlimit="10"/>
<path opacity="0.3" d="M266.727 269.983C323 286.715 374.367 351.971 423.618 398.031C482.717 454.173 545.31 484.294 608.58 487.037C644.329 488.199 681.464 479.182 714.479 447.298C748.431 414.763 774.854 360.011 797.981 307.258C822.213 251.949 843.992 195.71 870.753 153.043C898.843 108.099 935.715 54.8346 968.356 61.0627C1018.39 70.3583 1043.9 169.683 1081 222.714C1116.15 273.004 1162.63 303.866 1207.74 306.004C1212.44 306.004 1217.1 306.004 1221.71 305.678C1268.13 301.03 1311.6 250.834 1358.52 219.879C1425.68 175.632 1498.04 147.977 1539.4 158.156" stroke="#007BFC" stroke-width="0.25" stroke-miterlimit="10"/>
<path opacity="0.3" d="M266.071 262.221C322.532 275.049 373.768 342.489 422.813 391.105C481.389 449.203 543.374 484.666 607.307 489.686C643.037 492.521 680.341 485.038 713.356 452.782C747.307 419.783 773.281 363.544 795.865 308.699C819.329 251.717 840.341 193.387 867.026 148.767C894.854 102.289 932.195 45.9108 965.285 53.5797C1015.55 65.4782 1040.06 172.378 1077.16 228.989C1112.21 282.3 1159.55 313.533 1205.23 312.65C1210.02 312.65 1214.75 312.201 1219.4 311.302C1266.65 303.122 1309.98 248.138 1357.27 214.209C1423.37 166.522 1495.47 138.821 1540.02 149.79" stroke="#007BFC" stroke-width="0.25" stroke-miterlimit="10"/>
<path opacity="0.3" d="M265.434 254.738C322.082 263.615 373.169 333.193 422.007 384.413C480.06 445.253 541.858 484.62 606.015 492.614C641.727 497.262 679.236 490.894 712.251 458.499C746.184 425.22 771.745 367.262 793.73 310.558C816.464 251.949 836.708 191.481 863.169 144.91C890.64 96.6186 928.524 37.5911 962.064 46.5614C1012.63 60.5049 1036.2 175.678 1073.34 235.542C1108.28 291.828 1156.56 323.433 1202.74 319.575C1207.58 319.203 1212.38 318.413 1217.12 317.205C1265.17 305.306 1308.41 245.675 1356.01 208.306C1421.07 157.18 1492.91 129.293 1540.64 141.145" stroke="#007BFC" stroke-width="0.25" stroke-miterlimit="10"/>
<path opacity="0.3" d="M264.779 247.209C321.614 252.182 372.588 323.898 421.202 377.72C478.693 441.349 540.322 484.62 604.723 495.542C640.416 501.631 678.131 496.89 711.127 464.216C745.06 430.705 770.191 371.027 791.652 312.371C813.637 251.949 833.112 189.482 859.423 141.006C886.558 90.9949 924.966 28.7604 958.974 39.4039C1009.91 55.3925 1032.42 178.839 1069.55 242.049C1104.29 301.356 1153.52 333.333 1200.25 326.501C1205.17 325.803 1210.02 324.641 1214.82 323.108C1263.67 307.445 1306.91 243.304 1354.76 202.636C1418.79 148.21 1490.34 120.23 1541.26 132.918" stroke="#007BFC" stroke-width="0.25" stroke-miterlimit="10"/>
<path opacity="0.3" d="M264.124 239.726C321.165 240.748 372.082 314.602 420.397 370.98C477.345 437.305 538.749 484.481 603.431 498.471C639.124 506.186 677.007 502.839 710.022 469.933C743.936 436.143 768.655 374.792 789.461 314.137C810.734 252.135 829.423 187.484 855.584 137.055C882.363 85.371 921.352 20.1154 955.771 32.2463C1007.03 50.3728 1028.51 181.953 1065.66 248.556C1100.42 310.884 1150.47 343.186 1197.74 333.426C1202.73 332.403 1207.66 330.854 1212.51 328.778C1262.19 309.35 1305.4 240.748 1353.49 196.733C1416.54 139.054 1487.78 110.795 1541.88 124.087" stroke="#007BFC" stroke-width="0.25" stroke-miterlimit="10"/>
<path opacity="0.3" d="M263.468 232.243C320.678 229.314 371.408 305.26 419.573 364.288C475.977 433.401 537.27 484.388 602.12 501.399C637.7 510.694 675.884 508.835 708.861 475.65C742.869 441.581 767.213 378.556 787.326 315.904C807.925 252.275 825.809 185.485 851.783 133.104C878.243 79.7471 917.756 11.4704 952.607 25.135C1004.16 45.3531 1024.65 185.021 1061.8 255.063C1096.48 320.412 1147.36 353.086 1195.25 340.351C1200.32 339.003 1205.3 337.144 1210.23 334.913C1260.7 311.674 1303.86 238.703 1352.23 191.295C1414.29 130.408 1485.19 101.871 1542.49 115.954" stroke="#007BFC" stroke-width="0.25" stroke-miterlimit="10"/>
<path opacity="0.3" d="M262.831 224.713C320.247 217.881 370.903 295.732 418.787 357.595C474.723 429.171 535.772 484.062 600.846 504.327C636.427 515.156 674.798 514.831 707.794 481.413C741.689 447.065 765.584 382.321 785.21 317.716C804.835 253.111 822.176 183.487 848 129.154C874.105 74.1697 914.18 2.77894 949.479 17.9774C1001.33 40.287 1020.88 187.995 1058 261.57C1092.61 329.754 1144.39 362.707 1192.83 347.276C1197.96 345.557 1203.04 343.419 1208 340.816C1259.27 313.858 1302.49 236.519 1351.05 185.625C1412.14 121.624 1482.72 92.6681 1543.19 107.541" stroke="#007BFC" stroke-width="0.25" stroke-miterlimit="10"/>
<path opacity="0.3" d="M262.176 217.23C319.779 206.447 370.303 286.483 417.981 350.855C473.356 425.22 534.255 484.062 599.629 507.255C635.21 519.757 673.73 520.78 706.727 487.13C740.622 452.503 764.161 386.179 783.131 319.482C802.101 252.786 818.712 181.581 844.255 125.203C869.798 68.8246 910.659 -5.95908 946.39 10.8661C998.562 35.0813 1017.08 191.202 1054.22 268.124C1088.71 339.328 1141.41 372.653 1190.3 354.155C1195.53 352.157 1200.66 349.507 1205.7 346.719C1257.76 315.81 1301.02 234.38 1349.78 179.954C1409.93 112.84 1480.13 83.4652 1543.79 99.1284" stroke="#007BFC" stroke-width="0.25" stroke-miterlimit="10"/>
<path opacity="0.3" d="M261.596 209.561C319.33 195.013 369.704 277.28 417.176 344.348C472.008 421.595 532.719 484.248 598.281 510.322C633.861 524.545 672.569 526.962 705.547 493.032C739.442 458.127 762.551 390.083 780.94 321.434C799.33 252.786 814.948 179.722 840.416 121.578C865.884 63.4331 907.008 -14.5575 943.244 3.70847C995.678 30.2011 1013.22 194.27 1050.38 274.631C1084.78 348.996 1138.39 382.646 1187.81 361.08C1247.96 334.913 1294.85 237.866 1348.52 174.284C1407.66 104.055 1477.51 74.3091 1544.37 90.7159" stroke="#007BFC" stroke-width="0.25" stroke-miterlimit="10"/>
</g>
<g opacity="0.3">
<path opacity="0.3" d="M138 303.633C316.876 393.615 569.854 12.9111 676.165 124.924C785.94 240.516 922.944 544.205 1061.43 504.141C1199.91 464.076 1294.7 236.518 1577.89 616.897" stroke="#007BFC" stroke-width="0.25" stroke-miterlimit="10"/>
<path opacity="0.3" d="M144.573 306.654C326.914 407.512 579.292 26.8082 687.794 128.689C799.536 234.009 933.637 523.522 1070.47 491.22C1207.31 458.917 1305.96 238.192 1575.68 600.397" stroke="#007BFC" stroke-width="0.25" stroke-miterlimit="10"/>
<path opacity="0.3" d="M151.109 309.675C336.951 421.224 588.749 40.7053 699.404 132.454C813.15 227.502 944.33 502.7 1079.55 477.927C1214.78 453.154 1317.25 239.447 1573.49 583.572" stroke="#007BFC" stroke-width="0.25" stroke-miterlimit="10"/>
<path opacity="0.3" d="M157.644 312.743C347.007 435.353 598.187 54.5557 711.015 136.125C826.764 220.902 955.022 481.785 1088.58 464.681C1222.14 447.577 1328.51 240.794 1571.26 566.933" stroke="#007BFC" stroke-width="0.25" stroke-miterlimit="10"/>
<path opacity="0.3" d="M164.217 315.764C357.101 449.25 607.644 68.4529 722.625 139.844C840.378 214.209 965.734 460.87 1097.63 451.481C1229.52 442.092 1339.78 242.328 1569.03 550.061" stroke="#007BFC" stroke-width="0.25" stroke-miterlimit="10"/>
<path opacity="0.3" d="M170.697 318.785C367.101 463.193 617.139 81.7457 734.236 143.794C854.086 207.33 976.427 440.233 1106.69 438.56C1236.95 436.887 1351.05 243.816 1566.84 533.608" stroke="#007BFC" stroke-width="0.25" stroke-miterlimit="10"/>
<path opacity="0.3" d="M177.326 321.806C377.232 477.09 626.764 95.4566 745.94 147.559C867.663 200.73 987.12 419.364 1115.73 425.453C1244.35 431.542 1362.33 245.256 1564.61 516.969" stroke="#007BFC" stroke-width="0.25" stroke-miterlimit="10"/>
<path opacity="0.3" d="M183.768 324.827C387.195 491.034 636.127 109.307 757.457 151.324C881.277 194.177 997.813 398.542 1124.89 412.346C1251.97 426.15 1373.6 246.744 1562.4 500.283" stroke="#007BFC" stroke-width="0.25" stroke-miterlimit="10"/>
<path opacity="0.3" d="M190.285 327.895C397.232 504.931 645.491 123.111 769.086 155.088C894.891 187.623 1008.51 377.72 1133.84 399.239C1259.18 420.759 1384.78 248.185 1560.17 483.644" stroke="#007BFC" stroke-width="0.25" stroke-miterlimit="10"/>
<path opacity="0.3" d="M196.82 330.916C407.288 518.874 654.854 136.962 780.697 158.853C908.487 181.116 1019.22 356.897 1142.91 386.179C1266.6 415.46 1396.13 249.718 1557.96 467.051" stroke="#007BFC" stroke-width="0.25" stroke-miterlimit="10"/>
<path opacity="0.3" d="M203.356 333.937C417.326 532.771 664.33 150.859 792.307 162.664C922.101 174.609 1029.91 336.075 1151.95 372.979C1273.99 409.883 1407.4 251.113 1555.75 450.319" stroke="#007BFC" stroke-width="0.25" stroke-miterlimit="10"/>
<path opacity="0.3" d="M209.873 336.958C427.382 546.668 673.768 164.988 803.918 166.429C935.697 168.102 1040.6 315.16 1161 359.872C1281.39 404.584 1418.67 252.553 1553.52 433.68" stroke="#007BFC" stroke-width="0.25" stroke-miterlimit="10"/>
<path opacity="0.3" d="M216.408 339.979C437.382 560.612 683.206 178.653 815.528 170.194C949.311 161.642 1051.3 294.43 1170.06 346.812C1288.82 399.193 1429.95 254.041 1551.31 417.04" stroke="#007BFC" stroke-width="0.25" stroke-miterlimit="10"/>
<path opacity="0.3" d="M222.944 343C447.476 574.509 692.644 192.55 827.139 173.959C962.925 155.367 1062.01 273.562 1179.2 333.658C1296.39 393.755 1441.37 255.482 1549.2 400.355" stroke="#007BFC" stroke-width="0.25" stroke-miterlimit="10"/>
<path opacity="0.3" d="M229.479 346.068C457.513 588.453 702.082 206.633 838.768 177.723C976.521 148.721 1072.7 252.74 1188.17 320.551C1303.64 388.363 1452.49 256.923 1546.9 383.715" stroke="#007BFC" stroke-width="0.25" stroke-miterlimit="10"/>
<path opacity="0.3" d="M235.996 348.996C467.588 602.35 711.558 221.088 850.378 181.674C990.172 143.144 1083.39 232.103 1197.21 307.63C1311.03 383.158 1463.84 258.41 1544.67 367.076" stroke="#007BFC" stroke-width="0.25" stroke-miterlimit="10"/>
<path opacity="0.3" d="M242.532 352.11C477.607 616.293 720.996 234.985 861.989 185.299C1003.79 136.451 1094.09 211.095 1206.28 294.337C1318.47 377.58 1475.08 259.851 1542.49 350.39" stroke="#007BFC" stroke-width="0.25" stroke-miterlimit="10"/>
<path opacity="0.3" d="M249.067 355.131C487.663 630.19 730.453 248.835 873.599 189.064C1017.4 129.944 1104.78 190.273 1215.32 281.231C1325.87 372.189 1486.31 261.291 1540.25 333.751" stroke="#007BFC" stroke-width="0.25" stroke-miterlimit="10"/>
<path opacity="0.3" d="M255.584 358.292C497.7 644.134 739.891 262.732 885.191 192.829C1031 123.437 1115.53 169.59 1224.35 268.077C1333.17 366.565 1497.55 262.779 1538.04 317.112" stroke="#007BFC" stroke-width="0.25" stroke-miterlimit="10"/>
<path opacity="0.3" d="M262.12 361.22C507.757 658.031 749.348 276.629 896.82 196.594C1044.63 116.93 1126.18 148.628 1233.51 254.97C1340.83 361.313 1508.92 264.266 1535.88 300.426" stroke="#007BFC" stroke-width="0.25" stroke-miterlimit="10"/>
<path opacity="0.3" d="M268.655 364.241C517.719 671.928 758.787 290.48 908.449 200.358C1058.11 110.237 1136.88 127.759 1242.48 242.096C1348.07 356.433 1520.12 265.893 1533.6 283.926" stroke="#007BFC" stroke-width="0.25" stroke-miterlimit="10"/>
<path opacity="0.3" d="M275.191 367.262C527.85 685.871 768.243 304.377 920.06 204.123C1071.88 103.869 1147.57 106.937 1251.52 228.757C1355.47 350.576 1531.37 267.148 1531.37 267.148" stroke="#007BFC" stroke-width="0.25" stroke-miterlimit="10"/>
<path opacity="0.3" d="M274.536 359.779C328.487 423.64 381.558 462.031 433.262 478.299C499.105 498.842 563.206 484.062 624.049 451.713C659.239 432.652 693.919 408.189 727.888 378.463C761.951 348.857 793.861 315.996 823.599 285.507C857.101 251.717 887.906 220.902 916.258 200.265C948.861 177.026 978.805 156.994 1006.15 146.583C1046.14 130.109 1086.93 129.404 1127.01 144.491C1163.56 157.645 1199.12 183.812 1237.7 222.947C1241.45 226.758 1245.36 230.755 1249.24 234.845C1285.98 273.283 1330.45 285.414 1373.64 287.924C1453.79 292.571 1528.82 258.131 1532.01 258.921" stroke="#007BFC" stroke-width="0.25" stroke-miterlimit="10"/>
<path opacity="0.3" d="M273.88 352.25C328.037 412.207 380.959 452.689 432.457 471.606C497.738 494.845 561.67 484.062 622.775 454.641C658.069 437.381 692.815 413.833 726.745 384.18C760.79 354.341 792.288 319.436 821.427 287.412C854.124 251.531 884.236 218.578 912.476 196.268C944.685 170.752 975.228 148.581 1002.94 139.332C1049.76 123.762 1086.41 134.22 1123.17 150.812C1159.61 167.266 1196.03 193.805 1235.21 229.826C1239.09 233.358 1243.01 236.983 1246.95 240.702C1284.4 275.839 1328.92 280.208 1372.42 282.207C1451.52 285.925 1526.31 248.928 1532.68 250.462" stroke="#007BFC" stroke-width="0.25" stroke-miterlimit="10"/>
<path opacity="0.3" d="M273.225 344.766C327.532 400.54 380.36 443.765 431.652 464.867C496.352 491.499 560.172 484.387 621.483 457.569C656.895 442.252 691.729 419.616 725.622 389.897C759.667 359.779 790.64 323.061 819.255 289.178C851.09 251.484 880.528 216.44 908.637 192.318C940.472 164.942 971.595 140.076 999.76 132.221C1046.86 119.021 1082.51 137.52 1119.29 157.319C1157.62 178.737 1195.46 205.19 1232.66 236.565L1244.74 246.465C1283.04 278.07 1327.44 279 1371.2 276.397C1449.24 271.749 1523.79 239.586 1533.34 241.956" stroke="#007BFC" stroke-width="0.25" stroke-miterlimit="10"/>
<path opacity="0.3" d="M272.588 337.237C327.12 389.339 379.76 434.842 430.846 458.081C495.004 487.641 558.655 484.387 620.191 460.405C655.709 446.924 690.638 425.185 724.517 395.474C758.543 365.078 789.049 326.547 817.157 290.805C848.3 251.392 876.895 214.209 904.891 188.367C936.352 159.179 968.037 131.617 996.652 125.063C1044.05 114.234 1078.67 140.773 1115.51 163.873C1151.71 186.554 1189.95 213.884 1230.21 243.49L1242.34 252.368C1281.45 280.255 1325.77 275.886 1369.85 270.727C1446.82 261.756 1521.13 230.43 1533.86 233.544" stroke="#007BFC" stroke-width="0.25" stroke-miterlimit="10"/>
<path opacity="0.3" d="M271.933 329.754C326.652 377.906 379.142 425.453 430.135 451.481C493.805 484.016 557.232 484.527 618.993 463.426C654.603 451.849 689.626 431.037 723.487 401.331C757.419 370.701 787.457 330.405 815.041 292.757C845.397 251.392 873.243 212.164 901.09 184.416C932.176 153.415 964.461 123.111 993.506 117.952C1041.2 109.447 1074.82 143.98 1111.67 170.38C1147.74 196.175 1186.9 223.923 1227.78 250.415C1231.88 253.065 1236 255.714 1240.12 258.224C1280 282.811 1324.25 272.865 1368.66 265.056C1444.52 251.717 1518.62 221.227 1534.54 225.131" stroke="#007BFC" stroke-width="0.25" stroke-miterlimit="10"/>
<path opacity="0.3" d="M271.277 322.271C326.202 366.472 378.543 416.297 429.236 444.741C492.27 480.158 555.603 484.573 617.607 466.307C653.468 455.896 689.255 437.305 722.27 407.047C756.277 376.139 785.94 333.937 812.888 294.523C842.476 251.392 869.573 210.026 897.307 180.466C928.019 147.931 960.865 114.559 990.378 110.748C1038.36 104.613 1070.9 147.187 1107.83 176.84C1143.79 205.75 1183.86 233.916 1225.21 257.294C1229.4 259.68 1233.59 261.942 1237.76 264.08C1278.47 285.088 1322.61 269.843 1367.34 259.432C1442.12 242.096 1516 212.024 1535 216.719" stroke="#007BFC" stroke-width="0.25" stroke-miterlimit="10"/>
<path opacity="0.3" d="M270.64 314.742C325.734 355.038 377.944 407.094 428.431 438.049C489.876 475.094 553.429 485.643 616.315 469.236C652.176 460.405 688.131 443.022 721.183 412.764C755.191 381.578 784.311 337.609 810.79 296.29C839.592 251.392 865.921 207.981 893.524 176.515C923.88 141.982 957.288 106.054 987.251 103.637C1035.53 99.7793 1067.08 150.441 1104.03 183.394C1142.73 217.687 1182.41 244.72 1222.74 264.266C1226.99 266.311 1231.24 268.263 1235.49 270.029C1277.01 287.459 1321.03 266.962 1366.09 253.716C1439.78 232.057 1513.45 202.868 1535.72 208.353" stroke="#007BFC" stroke-width="0.25" stroke-miterlimit="10"/>
<path opacity="0.3" d="M269.985 307.166C325.285 343.512 377.345 397.798 427.626 431.263C488.692 471.442 552.089 485.246 615.041 472.071C650.865 464.913 687.026 448.832 720.06 418.388C754.049 386.969 782.719 341.188 808.637 298.009C836.727 251.531 862.251 205.75 889.704 172.518C919.667 136.218 953.674 97.4553 984.086 96.4793C1032.66 94.899 1063.21 153.555 1100.19 189.854C1138.95 227.309 1179.19 254.555 1220.25 271.145C1224.57 272.865 1228.88 274.491 1233.19 275.793C1275.53 289.736 1319.46 263.941 1364.84 247.906C1437.42 222.25 1510.9 193.526 1536.33 199.801" stroke="#007BFC" stroke-width="0.25" stroke-miterlimit="10"/>
<path opacity="0.3" d="M269.33 299.729C324.816 332.264 376.745 388.689 426.839 424.663C487.509 468.038 550.741 485.098 613.749 475.092C649.554 469.607 685.921 455.013 718.936 424.198C752.925 392.5 781.146 344.952 806.502 299.868C833.768 251.392 858.599 203.751 885.921 168.614C915.528 130.548 950.079 90.2047 980.94 89.6005C1029.8 88.2991 1059.35 157.041 1096.33 196.501C1135.14 237.049 1175.97 264.498 1217.72 278.117C1222.11 279.604 1226.48 280.859 1230.83 281.881C1273.9 292.06 1317.79 261.338 1363.51 242.421C1435.04 212.815 1508.3 184.509 1536.88 191.527" stroke="#007BFC" stroke-width="0.25" stroke-miterlimit="10"/>
<path opacity="0.3" d="M268.674 292.246C324.367 320.737 376.146 379.486 425.978 417.737C486.256 464.318 549.328 484.65 612.401 477.834C648.206 474.023 684.742 460.823 717.775 429.729C751.745 397.752 779.573 348.438 804.33 301.495C830.884 251.391 854.929 201.66 882.12 164.663C911.371 124.877 946.483 80.3977 977.794 82.2568C1026.95 85.1385 1055.47 159.969 1092.49 203.1C1127.98 244.28 1171.73 273.98 1215.23 285.135C1219.71 286.312 1224.16 287.226 1228.58 287.877C1272.55 294.43 1316.26 258.642 1362.31 236.751C1432.7 203.379 1505.73 175.353 1537.55 183.208" stroke="#007BFC" stroke-width="0.25" stroke-miterlimit="10"/>
<path opacity="0.3" d="M268.037 284.716C323.899 309.303 375.547 370.237 425.228 411.231C485.118 460.97 548.028 484.558 611.165 480.948C646.951 478.81 683.693 467.005 716.708 435.632C750.678 403.422 777.981 352.342 802.251 303.447C827.981 251.391 851.277 199.615 878.337 160.712C907.213 119.207 942.888 71.7991 974.648 75.0991C1024.1 80.2117 1051.61 163.083 1088.67 209.561C1124.03 253.808 1168.69 283.926 1212.74 292.014C1217.29 292.85 1221.8 293.454 1226.3 293.733C1271.09 296.615 1314.69 255.9 1361.13 231.127C1430.42 193.944 1503.24 166.057 1538.24 174.842" stroke="#007BFC" stroke-width="0.25" stroke-miterlimit="10"/>
<path opacity="0.3" d="M267.382 277.233C323.393 297.87 374.948 360.987 424.517 404.77C484.004 457.558 546.735 484.293 609.91 483.783C645.678 483.272 682.607 472.861 715.622 441.256C749.592 408.721 776.464 355.968 800.154 305.12C825.135 251.531 847.663 197.477 874.573 156.669C903.112 113.444 939.348 63.1078 971.539 67.8486C1021.3 75.1921 1047.79 166.197 1084.87 215.882C1120.13 263.151 1165.7 293.64 1210.34 298.753C1214.97 299.264 1219.55 299.682 1224.1 299.45C1269.7 296.847 1313.22 252.972 1359.89 225.085C1428.11 184.416 1500.72 156.715 1538.9 166.104" stroke="#007BFC" stroke-width="0.25" stroke-miterlimit="10"/>
<path opacity="0.3" d="M266.727 269.983C323 286.715 374.367 351.971 423.618 398.031C482.717 454.173 545.31 484.294 608.58 487.037C644.329 488.199 681.464 479.182 714.479 447.298C748.431 414.763 774.854 360.011 797.981 307.258C822.213 251.949 843.992 195.71 870.753 153.043C898.843 108.099 935.715 54.8346 968.356 61.0627C1018.39 70.3583 1043.9 169.683 1081 222.714C1116.15 273.004 1162.63 303.866 1207.74 306.004C1212.44 306.004 1217.1 306.004 1221.71 305.678C1268.13 301.03 1311.6 250.834 1358.52 219.879C1425.68 175.632 1498.04 147.977 1539.4 158.156" stroke="#007BFC" stroke-width="0.25" stroke-miterlimit="10"/>
<path opacity="0.3" d="M266.071 262.221C322.532 275.049 373.768 342.489 422.813 391.105C481.389 449.203 543.374 484.666 607.307 489.686C643.037 492.521 680.341 485.038 713.356 452.782C747.307 419.783 773.281 363.544 795.865 308.699C819.329 251.717 840.341 193.387 867.026 148.767C894.854 102.289 932.195 45.9108 965.285 53.5797C1015.55 65.4782 1040.06 172.378 1077.16 228.989C1112.21 282.3 1159.55 313.533 1205.23 312.65C1210.02 312.65 1214.75 312.201 1219.4 311.302C1266.65 303.122 1309.98 248.138 1357.27 214.209C1423.37 166.522 1495.47 138.821 1540.02 149.79" stroke="#007BFC" stroke-width="0.25" stroke-miterlimit="10"/>
<path opacity="0.3" d="M265.434 254.738C322.082 263.615 373.169 333.193 422.007 384.413C480.06 445.253 541.858 484.62 606.015 492.614C641.727 497.262 679.236 490.894 712.251 458.499C746.184 425.22 771.745 367.262 793.73 310.558C816.464 251.949 836.708 191.481 863.169 144.91C890.64 96.6186 928.524 37.5911 962.064 46.5614C1012.63 60.5049 1036.2 175.678 1073.34 235.542C1108.28 291.828 1156.56 323.433 1202.74 319.575C1207.58 319.203 1212.38 318.413 1217.12 317.205C1265.17 305.306 1308.41 245.675 1356.01 208.306C1421.07 157.18 1492.91 129.293 1540.64 141.145" stroke="#007BFC" stroke-width="0.25" stroke-miterlimit="10"/>
<path opacity="0.3" d="M264.779 247.209C321.614 252.182 372.588 323.898 421.202 377.72C478.693 441.349 540.322 484.62 604.723 495.542C640.416 501.631 678.131 496.89 711.127 464.216C745.06 430.705 770.191 371.027 791.652 312.371C813.637 251.949 833.112 189.482 859.423 141.006C886.558 90.9949 924.966 28.7604 958.974 39.4039C1009.91 55.3925 1032.42 178.839 1069.55 242.049C1104.29 301.356 1153.52 333.333 1200.25 326.501C1205.17 325.803 1210.02 324.641 1214.82 323.108C1263.67 307.445 1306.91 243.304 1354.76 202.636C1418.79 148.21 1490.34 120.23 1541.26 132.918" stroke="#007BFC" stroke-width="0.25" stroke-miterlimit="10"/>
<path opacity="0.3" d="M264.124 239.726C321.165 240.748 372.082 314.602 420.397 370.98C477.345 437.305 538.749 484.481 603.431 498.471C639.124 506.186 677.007 502.839 710.022 469.933C743.936 436.143 768.655 374.792 789.461 314.137C810.734 252.135 829.423 187.484 855.584 137.055C882.363 85.371 921.352 20.1154 955.771 32.2463C1007.03 50.3728 1028.51 181.953 1065.66 248.556C1100.42 310.884 1150.47 343.186 1197.74 333.426C1202.73 332.403 1207.66 330.854 1212.51 328.778C1262.19 309.35 1305.4 240.748 1353.49 196.733C1416.54 139.054 1487.78 110.795 1541.88 124.087" stroke="#007BFC" stroke-width="0.25" stroke-miterlimit="10"/>
<path opacity="0.3" d="M263.468 232.243C320.678 229.314 371.408 305.26 419.573 364.288C475.977 433.401 537.27 484.388 602.12 501.399C637.7 510.694 675.884 508.835 708.861 475.65C742.869 441.581 767.213 378.556 787.326 315.904C807.925 252.275 825.809 185.485 851.783 133.104C878.243 79.7471 917.756 11.4704 952.607 25.135C1004.16 45.3531 1024.65 185.021 1061.8 255.063C1096.48 320.412 1147.36 353.086 1195.25 340.351C1200.32 339.003 1205.3 337.144 1210.23 334.913C1260.7 311.674 1303.86 238.703 1352.23 191.295C1414.29 130.408 1485.19 101.871 1542.49 115.954" stroke="#007BFC" stroke-width="0.25" stroke-miterlimit="10"/>
<path opacity="0.3" d="M262.831 224.713C320.247 217.881 370.903 295.732 418.787 357.595C474.723 429.171 535.772 484.062 600.846 504.327C636.427 515.156 674.798 514.831 707.794 481.413C741.689 447.065 765.584 382.321 785.21 317.716C804.835 253.111 822.176 183.487 848 129.154C874.105 74.1697 914.18 2.77894 949.479 17.9774C1001.33 40.287 1020.88 187.995 1058 261.57C1092.61 329.754 1144.39 362.707 1192.83 347.276C1197.96 345.557 1203.04 343.419 1208 340.816C1259.27 313.858 1302.49 236.519 1351.05 185.625C1412.14 121.624 1482.72 92.6681 1543.19 107.541" stroke="#007BFC" stroke-width="0.25" stroke-miterlimit="10"/>
<path opacity="0.3" d="M262.176 217.23C319.779 206.447 370.303 286.483 417.981 350.855C473.356 425.22 534.255 484.062 599.629 507.255C635.21 519.757 673.73 520.78 706.727 487.13C740.622 452.503 764.161 386.179 783.131 319.482C802.101 252.786 818.712 181.581 844.255 125.203C869.798 68.8246 910.659 -5.95908 946.39 10.8661C998.562 35.0813 1017.08 191.202 1054.22 268.124C1088.71 339.328 1141.41 372.653 1190.3 354.155C1195.53 352.157 1200.66 349.507 1205.7 346.719C1257.76 315.81 1301.02 234.38 1349.78 179.954C1409.93 112.84 1480.13 83.4652 1543.79 99.1284" stroke="#007BFC" stroke-width="0.25" stroke-miterlimit="10"/>
<path opacity="0.3" d="M261.596 209.561C319.33 195.013 369.704 277.28 417.176 344.348C472.008 421.595 532.719 484.248 598.281 510.322C633.861 524.545 672.569 526.962 705.547 493.032C739.442 458.127 762.551 390.083 780.94 321.434C799.33 252.786 814.948 179.722 840.416 121.578C865.884 63.4331 907.008 -14.5575 943.244 3.70847C995.678 30.2011 1013.22 194.27 1050.38 274.631C1084.78 348.996 1138.39 382.646 1187.81 361.08C1247.96 334.913 1294.85 237.866 1348.52 174.284C1407.66 104.055 1477.51 74.3091 1544.37 90.7159" stroke="#007BFC" stroke-width="0.25" stroke-miterlimit="10"/>
</g>
<g opacity="0.3">
<path opacity="0.3" d="M138 303.633C316.876 393.615 569.854 12.9111 676.165 124.924C785.94 240.516 922.944 544.205 1061.43 504.141C1199.91 464.076 1294.7 236.518 1577.89 616.897" stroke="#007BFC" stroke-width="0.25" stroke-miterlimit="10"/>
<path opacity="0.3" d="M144.573 306.654C326.914 407.512 579.292 26.8082 687.794 128.689C799.536 234.009 933.637 523.522 1070.47 491.22C1207.31 458.917 1305.96 238.192 1575.68 600.397" stroke="#007BFC" stroke-width="0.25" stroke-miterlimit="10"/>
<path opacity="0.3" d="M151.109 309.675C336.951 421.224 588.749 40.7053 699.404 132.454C813.15 227.502 944.33 502.7 1079.55 477.927C1214.78 453.154 1317.25 239.447 1573.49 583.572" stroke="#007BFC" stroke-width="0.25" stroke-miterlimit="10"/>
<path opacity="0.3" d="M157.644 312.743C347.007 435.353 598.187 54.5557 711.015 136.125C826.764 220.902 955.022 481.785 1088.58 464.681C1222.14 447.577 1328.51 240.794 1571.26 566.933" stroke="#007BFC" stroke-width="0.25" stroke-miterlimit="10"/>
<path opacity="0.3" d="M164.217 315.764C357.101 449.25 607.644 68.4529 722.625 139.844C840.378 214.209 965.734 460.87 1097.63 451.481C1229.52 442.092 1339.78 242.328 1569.03 550.061" stroke="#007BFC" stroke-width="0.25" stroke-miterlimit="10"/>
<path opacity="0.3" d="M170.697 318.785C367.101 463.193 617.139 81.7457 734.236 143.794C854.086 207.33 976.427 440.233 1106.69 438.56C1236.95 436.887 1351.05 243.816 1566.84 533.608" stroke="#007BFC" stroke-width="0.25" stroke-miterlimit="10"/>
<path opacity="0.3" d="M177.326 321.806C377.232 477.09 626.764 95.4566 745.94 147.559C867.663 200.73 987.12 419.364 1115.73 425.453C1244.35 431.542 1362.33 245.256 1564.61 516.969" stroke="#007BFC" stroke-width="0.25" stroke-miterlimit="10"/>
<path opacity="0.3" d="M183.768 324.827C387.195 491.034 636.127 109.307 757.457 151.324C881.277 194.177 997.813 398.542 1124.89 412.346C1251.97 426.15 1373.6 246.744 1562.4 500.283" stroke="#007BFC" stroke-width="0.25" stroke-miterlimit="10"/>
<path opacity="0.3" d="M190.285 327.895C397.232 504.931 645.491 123.111 769.086 155.088C894.891 187.623 1008.51 377.72 1133.84 399.239C1259.18 420.759 1384.78 248.185 1560.17 483.644" stroke="#007BFC" stroke-width="0.25" stroke-miterlimit="10"/>
<path opacity="0.3" d="M196.82 330.916C407.288 518.874 654.854 136.962 780.697 158.853C908.487 181.116 1019.22 356.897 1142.91 386.179C1266.6 415.46 1396.13 249.718 1557.96 467.051" stroke="#007BFC" stroke-width="0.25" stroke-miterlimit="10"/>
<path opacity="0.3" d="M203.356 333.937C417.326 532.771 664.33 150.859 792.307 162.664C922.101 174.609 1029.91 336.075 1151.95 372.979C1273.99 409.883 1407.4 251.113 1555.75 450.319" stroke="#007BFC" stroke-width="0.25" stroke-miterlimit="10"/>
<path opacity="0.3" d="M209.873 336.958C427.382 546.668 673.768 164.988 803.918 166.429C935.697 168.102 1040.6 315.16 1161 359.872C1281.39 404.584 1418.67 252.553 1553.52 433.68" stroke="#007BFC" stroke-width="0.25" stroke-miterlimit="10"/>
<path opacity="0.3" d="M216.408 339.979C437.382 560.612 683.206 178.653 815.528 170.194C949.311 161.642 1051.3 294.43 1170.06 346.812C1288.82 399.193 1429.95 254.041 1551.31 417.04" stroke="#007BFC" stroke-width="0.25" stroke-miterlimit="10"/>
<path opacity="0.3" d="M222.944 343C447.476 574.509 692.644 192.55 827.139 173.959C962.925 155.367 1062.01 273.562 1179.2 333.658C1296.39 393.755 1441.37 255.482 1549.2 400.355" stroke="#007BFC" stroke-width="0.25" stroke-miterlimit="10"/>
<path opacity="0.3" d="M229.479 346.068C457.513 588.453 702.082 206.633 838.768 177.723C976.521 148.721 1072.7 252.74 1188.17 320.551C1303.64 388.363 1452.49 256.923 1546.9 383.715" stroke="#007BFC" stroke-width="0.25" stroke-miterlimit="10"/>
<path opacity="0.3" d="M235.996 348.996C467.588 602.35 711.558 221.088 850.378 181.674C990.172 143.144 1083.39 232.103 1197.21 307.63C1311.03 383.158 1463.84 258.41 1544.67 367.076" stroke="#007BFC" stroke-width="0.25" stroke-miterlimit="10"/>
<path opacity="0.3" d="M242.532 352.11C477.607 616.293 720.996 234.985 861.989 185.299C1003.79 136.451 1094.09 211.095 1206.28 294.337C1318.47 377.58 1475.08 259.851 1542.49 350.39" stroke="#007BFC" stroke-width="0.25" stroke-miterlimit="10"/>
<path opacity="0.3" d="M249.067 355.131C487.663 630.19 730.453 248.835 873.599 189.064C1017.4 129.944 1104.78 190.273 1215.32 281.231C1325.87 372.189 1486.31 261.291 1540.25 333.751" stroke="#007BFC" stroke-width="0.25" stroke-miterlimit="10"/>
<path opacity="0.3" d="M255.584 358.292C497.7 644.134 739.891 262.732 885.191 192.829C1031 123.437 1115.53 169.59 1224.35 268.077C1333.17 366.565 1497.55 262.779 1538.04 317.112" stroke="#007BFC" stroke-width="0.25" stroke-miterlimit="10"/>
<path opacity="0.3" d="M262.12 361.22C507.757 658.031 749.348 276.629 896.82 196.594C1044.63 116.93 1126.18 148.628 1233.51 254.97C1340.83 361.313 1508.92 264.266 1535.88 300.426" stroke="#007BFC" stroke-width="0.25" stroke-miterlimit="10"/>
<path opacity="0.3" d="M268.655 364.241C517.719 671.928 758.787 290.48 908.449 200.358C1058.11 110.237 1136.88 127.759 1242.48 242.096C1348.07 356.433 1520.12 265.893 1533.6 283.926" stroke="#007BFC" stroke-width="0.25" stroke-miterlimit="10"/>
<path opacity="0.3" d="M275.191 367.262C527.85 685.871 768.243 304.377 920.06 204.123C1071.88 103.869 1147.57 106.937 1251.52 228.757C1355.47 350.576 1531.37 267.148 1531.37 267.148" stroke="#007BFC" stroke-width="0.25" stroke-miterlimit="10"/>
<path opacity="0.3" d="M274.536 359.779C328.487 423.64 381.558 462.031 433.262 478.299C499.105 498.842 563.206 484.062 624.049 451.713C659.239 432.652 693.919 408.189 727.888 378.463C761.951 348.857 793.861 315.996 823.599 285.507C857.101 251.717 887.906 220.902 916.258 200.265C948.861 177.026 978.805 156.994 1006.15 146.583C1046.14 130.109 1086.93 129.404 1127.01 144.491C1163.56 157.645 1199.12 183.812 1237.7 222.947C1241.45 226.758 1245.36 230.755 1249.24 234.845C1285.98 273.283 1330.45 285.414 1373.64 287.924C1453.79 292.571 1528.82 258.131 1532.01 258.921" stroke="#007BFC" stroke-width="0.25" stroke-miterlimit="10"/>
<path opacity="0.3" d="M273.88 352.25C328.037 412.207 380.959 452.689 432.457 471.606C497.738 494.845 561.67 484.062 622.775 454.641C658.069 437.381 692.815 413.833 726.745 384.18C760.79 354.341 792.288 319.436 821.427 287.412C854.124 251.531 884.236 218.578 912.476 196.268C944.685 170.752 975.228 148.581 1002.94 139.332C1049.76 123.762 1086.41 134.22 1123.17 150.812C1159.61 167.266 1196.03 193.805 1235.21 229.826C1239.09 233.358 1243.01 236.983 1246.95 240.702C1284.4 275.839 1328.92 280.208 1372.42 282.207C1451.52 285.925 1526.31 248.928 1532.68 250.462" stroke="#007BFC" stroke-width="0.25" stroke-miterlimit="10"/>
<path opacity="0.3" d="M273.225 344.766C327.532 400.54 380.36 443.765 431.652 464.867C496.352 491.499 560.172 484.387 621.483 457.569C656.895 442.252 691.729 419.616 725.622 389.897C759.667 359.779 790.64 323.061 819.255 289.178C851.09 251.484 880.528 216.44 908.637 192.318C940.472 164.942 971.595 140.076 999.76 132.221C1046.86 119.021 1082.51 137.52 1119.29 157.319C1157.62 178.737 1195.46 205.19 1232.66 236.565L1244.74 246.465C1283.04 278.07 1327.44 279 1371.2 276.397C1449.24 271.749 1523.79 239.586 1533.34 241.956" stroke="#007BFC" stroke-width="0.25" stroke-miterlimit="10"/>
<path opacity="0.3" d="M272.588 337.237C327.12 389.339 379.76 434.842 430.846 458.081C495.004 487.641 558.655 484.387 620.191 460.405C655.709 446.924 690.638 425.185 724.517 395.474C758.543 365.078 789.049 326.547 817.157 290.805C848.3 251.392 876.895 214.209 904.891 188.367C936.352 159.179 968.037 131.617 996.652 125.063C1044.05 114.234 1078.67 140.773 1115.51 163.873C1151.71 186.554 1189.95 213.884 1230.21 243.49L1242.34 252.368C1281.45 280.255 1325.77 275.886 1369.85 270.727C1446.82 261.756 1521.13 230.43 1533.86 233.544" stroke="#007BFC" stroke-width="0.25" stroke-miterlimit="10"/>
<path opacity="0.3" d="M271.933 329.754C326.652 377.906 379.142 425.453 430.135 451.481C493.805 484.016 557.232 484.527 618.993 463.426C654.603 451.849 689.626 431.037 723.487 401.331C757.419 370.701 787.457 330.405 815.041 292.757C845.397 251.392 873.243 212.164 901.09 184.416C932.176 153.415 964.461 123.111 993.506 117.952C1041.2 109.447 1074.82 143.98 1111.67 170.38C1147.74 196.175 1186.9 223.923 1227.78 250.415C1231.88 253.065 1236 255.714 1240.12 258.224C1280 282.811 1324.25 272.865 1368.66 265.056C1444.52 251.717 1518.62 221.227 1534.54 225.131" stroke="#007BFC" stroke-width="0.25" stroke-miterlimit="10"/>
<path opacity="0.3" d="M271.277 322.271C326.202 366.472 378.543 416.297 429.236 444.741C492.27 480.158 555.603 484.573 617.607 466.307C653.468 455.896 689.255 437.305 722.27 407.047C756.277 376.139 785.94 333.937 812.888 294.523C842.476 251.392 869.573 210.026 897.307 180.466C928.019 147.931 960.865 114.559 990.378 110.748C1038.36 104.613 1070.9 147.187 1107.83 176.84C1143.79 205.75 1183.86 233.916 1225.21 257.294C1229.4 259.68 1233.59 261.942 1237.76 264.08C1278.47 285.088 1322.61 269.843 1367.34 259.432C1442.12 242.096 1516 212.024 1535 216.719" stroke="#007BFC" stroke-width="0.25" stroke-miterlimit="10"/>
<path opacity="0.3" d="M270.64 314.742C325.734 355.038 377.944 407.094 428.431 438.049C489.876 475.094 553.429 485.643 616.315 469.236C652.176 460.405 688.131 443.022 721.183 412.764C755.191 381.578 784.311 337.609 810.79 296.29C839.592 251.392 865.921 207.981 893.524 176.515C923.88 141.982 957.288 106.054 987.251 103.637C1035.53 99.7793 1067.08 150.441 1104.03 183.394C1142.73 217.687 1182.41 244.72 1222.74 264.266C1226.99 266.311 1231.24 268.263 1235.49 270.029C1277.01 287.459 1321.03 266.962 1366.09 253.716C1439.78 232.057 1513.45 202.868 1535.72 208.353" stroke="#007BFC" stroke-width="0.25" stroke-miterlimit="10"/>
<path opacity="0.3" d="M269.985 307.166C325.285 343.512 377.345 397.798 427.626 431.263C488.692 471.442 552.089 485.246 615.041 472.071C650.865 464.913 687.026 448.832 720.06 418.388C754.049 386.969 782.719 341.188 808.637 298.009C836.727 251.531 862.251 205.75 889.704 172.518C919.667 136.218 953.674 97.4553 984.086 96.4793C1032.66 94.899 1063.21 153.555 1100.19 189.854C1138.95 227.309 1179.19 254.555 1220.25 271.145C1224.57 272.865 1228.88 274.491 1233.19 275.793C1275.53 289.736 1319.46 263.941 1364.84 247.906C1437.42 222.25 1510.9 193.526 1536.33 199.801" stroke="#007BFC" stroke-width="0.25" stroke-miterlimit="10"/>
<path opacity="0.3" d="M269.33 299.729C324.816 332.264 376.745 388.689 426.839 424.663C487.509 468.038 550.741 485.098 613.749 475.092C649.554 469.607 685.921 455.013 718.936 424.198C752.925 392.5 781.146 344.952 806.502 299.868C833.768 251.392 858.599 203.751 885.921 168.614C915.528 130.548 950.079 90.2047 980.94 89.6005C1029.8 88.2991 1059.35 157.041 1096.33 196.501C1135.14 237.049 1175.97 264.498 1217.72 278.117C1222.11 279.604 1226.48 280.859 1230.83 281.881C1273.9 292.06 1317.79 261.338 1363.51 242.421C1435.04 212.815 1508.3 184.509 1536.88 191.527" stroke="#007BFC" stroke-width="0.25" stroke-miterlimit="10"/>
<path opacity="0.3" d="M268.674 292.246C324.367 320.737 376.146 379.486 425.978 417.737C486.256 464.318 549.328 484.65 612.401 477.834C648.206 474.023 684.742 460.823 717.775 429.729C751.745 397.752 779.573 348.438 804.33 301.495C830.884 251.391 854.929 201.66 882.12 164.663C911.371 124.877 946.483 80.3977 977.794 82.2568C1026.95 85.1385 1055.47 159.969 1092.49 203.1C1127.98 244.28 1171.73 273.98 1215.23 285.135C1219.71 286.312 1224.16 287.226 1228.58 287.877C1272.55 294.43 1316.26 258.642 1362.31 236.751C1432.7 203.379 1505.73 175.353 1537.55 183.208" stroke="#007BFC" stroke-width="0.25" stroke-miterlimit="10"/>
<path opacity="0.3" d="M268.037 284.716C323.899 309.303 375.547 370.237 425.228 411.231C485.118 460.97 548.028 484.558 611.165 480.948C646.951 478.81 683.693 467.005 716.708 435.632C750.678 403.422 777.981 352.342 802.251 303.447C827.981 251.391 851.277 199.615 878.337 160.712C907.213 119.207 942.888 71.7991 974.648 75.0991C1024.1 80.2117 1051.61 163.083 1088.67 209.561C1124.03 253.808 1168.69 283.926 1212.74 292.014C1217.29 292.85 1221.8 293.454 1226.3 293.733C1271.09 296.615 1314.69 255.9 1361.13 231.127C1430.42 193.944 1503.24 166.057 1538.24 174.842" stroke="#007BFC" stroke-width="0.25" stroke-miterlimit="10"/>
<path opacity="0.3" d="M267.382 277.233C323.393 297.87 374.948 360.987 424.517 404.77C484.004 457.558 546.735 484.293 609.91 483.783C645.678 483.272 682.607 472.861 715.622 441.256C749.592 408.721 776.464 355.968 800.154 305.12C825.135 251.531 847.663 197.477 874.573 156.669C903.112 113.444 939.348 63.1078 971.539 67.8486C1021.3 75.1921 1047.79 166.197 1084.87 215.882C1120.13 263.151 1165.7 293.64 1210.34 298.753C1214.97 299.264 1219.55 299.682 1224.1 299.45C1269.7 296.847 1313.22 252.972 1359.89 225.085C1428.11 184.416 1500.72 156.715 1538.9 166.104" stroke="#007BFC" stroke-width="0.25" stroke-miterlimit="10"/>
<path opacity="0.3" d="M266.727 269.983C323 286.715 374.367 351.971 423.618 398.031C482.717 454.173 545.31 484.294 608.58 487.037C644.329 488.199 681.464 479.182 714.479 447.298C748.431 414.763 774.854 360.011 797.981 307.258C822.213 251.949 843.992 195.71 870.753 153.043C898.843 108.099 935.715 54.8346 968.356 61.0627C1018.39 70.3583 1043.9 169.683 1081 222.714C1116.15 273.004 1162.63 303.866 1207.74 306.004C1212.44 306.004 1217.1 306.004 1221.71 305.678C1268.13 301.03 1311.6 250.834 1358.52 219.879C1425.68 175.632 1498.04 147.977 1539.4 158.156" stroke="#007BFC" stroke-width="0.25" stroke-miterlimit="10"/>
<path opacity="0.3" d="M266.071 262.221C322.532 275.049 373.768 342.489 422.813 391.105C481.389 449.203 543.374 484.666 607.307 489.686C643.037 492.521 680.341 485.038 713.356 452.782C747.307 419.783 773.281 363.544 795.865 308.699C819.329 251.717 840.341 193.387 867.026 148.767C894.854 102.289 932.195 45.9108 965.285 53.5797C1015.55 65.4782 1040.06 172.378 1077.16 228.989C1112.21 282.3 1159.55 313.533 1205.23 312.65C1210.02 312.65 1214.75 312.201 1219.4 311.302C1266.65 303.122 1309.98 248.138 1357.27 214.209C1423.37 166.522 1495.47 138.821 1540.02 149.79" stroke="#007BFC" stroke-width="0.25" stroke-miterlimit="10"/>
<path opacity="0.3" d="M265.434 254.738C322.082 263.615 373.169 333.193 422.007 384.413C480.06 445.253 541.858 484.62 606.015 492.614C641.727 497.262 679.236 490.894 712.251 458.499C746.184 425.22 771.745 367.262 793.73 310.558C816.464 251.949 836.708 191.481 863.169 144.91C890.64 96.6186 928.524 37.5911 962.064 46.5614C1012.63 60.5049 1036.2 175.678 1073.34 235.542C1108.28 291.828 1156.56 323.433 1202.74 319.575C1207.58 319.203 1212.38 318.413 1217.12 317.205C1265.17 305.306 1308.41 245.675 1356.01 208.306C1421.07 157.18 1492.91 129.293 1540.64 141.145" stroke="#007BFC" stroke-width="0.25" stroke-miterlimit="10"/>
<path opacity="0.3" d="M264.779 247.209C321.614 252.182 372.588 323.898 421.202 377.72C478.693 441.349 540.322 484.62 604.723 495.542C640.416 501.631 678.131 496.89 711.127 464.216C745.06 430.705 770.191 371.027 791.652 312.371C813.637 251.949 833.112 189.482 859.423 141.006C886.558 90.9949 924.966 28.7604 958.974 39.4039C1009.91 55.3925 1032.42 178.839 1069.55 242.049C1104.29 301.356 1153.52 333.333 1200.25 326.501C1205.17 325.803 1210.02 324.641 1214.82 323.108C1263.67 307.445 1306.91 243.304 1354.76 202.636C1418.79 148.21 1490.34 120.23 1541.26 132.918" stroke="#007BFC" stroke-width="0.25" stroke-miterlimit="10"/>
<path opacity="0.3" d="M264.124 239.726C321.165 240.748 372.082 314.602 420.397 370.98C477.345 437.305 538.749 484.481 603.431 498.471C639.124 506.186 677.007 502.839 710.022 469.933C743.936 436.143 768.655 374.792 789.461 314.137C810.734 252.135 829.423 187.484 855.584 137.055C882.363 85.371 921.352 20.1154 955.771 32.2463C1007.03 50.3728 1028.51 181.953 1065.66 248.556C1100.42 310.884 1150.47 343.186 1197.74 333.426C1202.73 332.403 1207.66 330.854 1212.51 328.778C1262.19 309.35 1305.4 240.748 1353.49 196.733C1416.54 139.054 1487.78 110.795 1541.88 124.087" stroke="#007BFC" stroke-width="0.25" stroke-miterlimit="10"/>
<path opacity="0.3" d="M263.468 232.243C320.678 229.314 371.408 305.26 419.573 364.288C475.977 433.401 537.27 484.388 602.12 501.399C637.7 510.694 675.884 508.835 708.861 475.65C742.869 441.581 767.213 378.556 787.326 315.904C807.925 252.275 825.809 185.485 851.783 133.104C878.243 79.7471 917.756 11.4704 952.607 25.135C1004.16 45.3531 1024.65 185.021 1061.8 255.063C1096.48 320.412 1147.36 353.086 1195.25 340.351C1200.32 339.003 1205.3 337.144 1210.23 334.913C1260.7 311.674 1303.86 238.703 1352.23 191.295C1414.29 130.408 1485.19 101.871 1542.49 115.954" stroke="#007BFC" stroke-width="0.25" stroke-miterlimit="10"/>
<path opacity="0.3" d="M262.831 224.713C320.247 217.881 370.903 295.732 418.787 357.595C474.723 429.171 535.772 484.062 600.846 504.327C636.427 515.156 674.798 514.831 707.794 481.413C741.689 447.065 765.584 382.321 785.21 317.716C804.835 253.111 822.176 183.487 848 129.154C874.105 74.1697 914.18 2.77894 949.479 17.9774C1001.33 40.287 1020.88 187.995 1058 261.57C1092.61 329.754 1144.39 362.707 1192.83 347.276C1197.96 345.557 1203.04 343.419 1208 340.816C1259.27 313.858 1302.49 236.519 1351.05 185.625C1412.14 121.624 1482.72 92.6681 1543.19 107.541" stroke="#007BFC" stroke-width="0.25" stroke-miterlimit="10"/>
<path opacity="0.3" d="M262.176 217.23C319.779 206.447 370.303 286.483 417.981 350.855C473.356 425.22 534.255 484.062 599.629 507.255C635.21 519.757 673.73 520.78 706.727 487.13C740.622 452.503 764.161 386.179 783.131 319.482C802.101 252.786 818.712 181.581 844.255 125.203C869.798 68.8246 910.659 -5.95908 946.39 10.8661C998.562 35.0813 1017.08 191.202 1054.22 268.124C1088.71 339.328 1141.41 372.653 1190.3 354.155C1195.53 352.157 1200.66 349.507 1205.7 346.719C1257.76 315.81 1301.02 234.38 1349.78 179.954C1409.93 112.84 1480.13 83.4652 1543.79 99.1284" stroke="#007BFC" stroke-width="0.25" stroke-miterlimit="10"/>
<path opacity="0.3" d="M261.596 209.561C319.33 195.013 369.704 277.28 417.176 344.348C472.008 421.595 532.719 484.248 598.281 510.322C633.861 524.545 672.569 526.962 705.547 493.032C739.442 458.127 762.551 390.083 780.94 321.434C799.33 252.786 814.948 179.722 840.416 121.578C865.884 63.4331 907.008 -14.5575 943.244 3.70847C995.678 30.2011 1013.22 194.27 1050.38 274.631C1084.78 348.996 1138.39 382.646 1187.81 361.08C1247.96 334.913 1294.85 237.866 1348.52 174.284C1407.66 104.055 1477.51 74.3091 1544.37 90.7159" stroke="#007BFC" stroke-width="0.25" stroke-miterlimit="10"/>
</g>
</svg>
