<svg width="1440" height="1174" viewBox="0 0 1440 1174" fill="none" xmlns="http://www.w3.org/2000/svg">
<rect width="1440" height="1174" fill="#2C3437" fill-opacity="0.9"/>
<rect x="1024.32" y="627.774" width="32.1335" height="32.1335" rx="5" transform="rotate(-37.4668 1024.32 627.774)" fill="#5F90D0" fill-opacity="0.3"/>
<rect x="467.674" y="678.766" width="45.6558" height="45.6558" rx="5" transform="rotate(-37.4668 467.674 678.766)" fill="#5F90D0" fill-opacity="0.3"/>
<rect x="1097.05" y="518.274" width="37.5119" height="37.5119" rx="5" transform="rotate(-37.4668 1097.05 518.274)" fill="#5F90D0" fill-opacity="0.3"/>
<rect x="442.108" y="342.79" width="21.7475" height="21.7475" rx="5" transform="rotate(-37.4668 442.108 342.79)" fill="#5F90D0" fill-opacity="0.3"/>
<rect x="453.024" y="341.449" width="21.7475" height="21.7475" rx="5" transform="rotate(-37.4668 453.024 341.449)" fill="#5F90D0" fill-opacity="0.3"/>
<rect x="573.938" y="475.789" width="25.8758" height="25.8758" rx="5" transform="rotate(-37.4668 573.938 475.789)" fill="#5F90D0" fill-opacity="0.3"/>
<rect x="986.649" y="376.596" width="55.4536" height="55.4536" rx="5" transform="rotate(-37.4668 986.649 376.596)" fill="#5F90D0" fill-opacity="0.3"/>
<rect x="1014.48" y="373.178" width="55.4536" height="55.4536" rx="5" transform="rotate(-37.4668 1014.48 373.178)" fill="#5F90D0" fill-opacity="0.3"/>
<rect x="667.866" y="308.138" width="17.5717" height="17.5717" rx="5" transform="rotate(-37.4668 667.866 308.138)" fill="#40484B"/>
<rect x="705.767" y="310.071" width="12.4118" height="12.4118" rx="5" transform="rotate(-37.4668 705.767 310.071)" fill="#5F90D0" fill-opacity="0.3"/>
<path d="M1286 662.982L1290.33 670.287H1281.67L1286 662.982Z" fill="#B3E6FF" fill-opacity="0.2"/>
<rect x="39" y="963.934" width="10" height="9.73952" fill="#B3E6FF" fill-opacity="0.2"/>
<rect x="1226" y="961.986" width="10" height="9.73952" fill="#B3E6FF" fill-opacity="0.2"/>
<rect x="924" y="429.233" width="10" height="9.73952" fill="#B3E6FF" fill-opacity="0.2"/>
<ellipse cx="113" cy="336.708" rx="5" ry="4.86976" fill="#B3E6FF" fill-opacity="0.2"/>
<path d="M250 351.317L254.33 358.622H245.67L250 351.317Z" fill="#B3E6FF" fill-opacity="0.2"/>
<rect x="1211" y="117" width="5" height="5" rx="2.5" fill="white" fill-opacity="0.1"/>
<rect x="1211" y="137" width="5" height="5" rx="2.5" fill="white" fill-opacity="0.1"/>
<rect x="1211" y="157" width="5" height="5" rx="2.5" fill="white" fill-opacity="0.1"/>
<rect x="1211" y="177" width="5" height="5" rx="2.5" fill="white" fill-opacity="0.1"/>
<rect x="1211" y="197" width="5" height="5" rx="2.5" fill="white" fill-opacity="0.1"/>
<rect x="1211" y="217" width="5" height="5" rx="2.5" fill="white" fill-opacity="0.1"/>
<rect x="1239.04" y="117" width="5" height="5" rx="2.5" fill="white" fill-opacity="0.1"/>
<rect x="1239.04" y="137" width="5" height="5" rx="2.5" fill="white" fill-opacity="0.1"/>
<rect x="1239.04" y="157" width="5" height="5" rx="2.5" fill="white" fill-opacity="0.1"/>
<rect x="1239.04" y="177" width="5" height="5" rx="2.5" fill="white" fill-opacity="0.1"/>
<rect x="1239.04" y="197" width="5" height="5" rx="2.5" fill="white" fill-opacity="0.1"/>
<rect x="1239.04" y="217" width="5" height="5" rx="2.5" fill="white" fill-opacity="0.1"/>
<rect x="1267.08" y="117" width="5" height="5" rx="2.5" fill="white" fill-opacity="0.1"/>
<rect x="1267.08" y="137" width="5" height="5" rx="2.5" fill="white" fill-opacity="0.1"/>
<rect x="1267.08" y="157" width="5" height="5" rx="2.5" fill="white" fill-opacity="0.1"/>
<rect x="1267.08" y="177" width="5" height="5" rx="2.5" fill="white" fill-opacity="0.1"/>
<rect x="1267.08" y="197" width="5" height="5" rx="2.5" fill="white" fill-opacity="0.1"/>
<rect x="1267.08" y="217" width="5" height="5" rx="2.5" fill="white" fill-opacity="0.1"/>
<rect x="1295.12" y="117" width="5" height="5" rx="2.5" fill="white" fill-opacity="0.1"/>
<rect x="1295.12" y="137" width="5" height="5" rx="2.5" fill="white" fill-opacity="0.1"/>
<rect x="1295.12" y="157" width="5" height="5" rx="2.5" fill="white" fill-opacity="0.1"/>
<rect x="1295.12" y="177" width="5" height="5" rx="2.5" fill="white" fill-opacity="0.1"/>
<rect x="1295.12" y="197" width="5" height="5" rx="2.5" fill="white" fill-opacity="0.1"/>
<rect x="1295.12" y="217" width="5" height="5" rx="2.5" fill="white" fill-opacity="0.1"/>
<rect x="1323.16" y="117" width="5" height="5" rx="2.5" fill="white" fill-opacity="0.1"/>
<rect x="1323.16" y="137" width="5" height="5" rx="2.5" fill="white" fill-opacity="0.1"/>
<rect x="1323.16" y="157" width="5" height="5" rx="2.5" fill="white" fill-opacity="0.1"/>
<rect x="1323.16" y="177" width="5" height="5" rx="2.5" fill="white" fill-opacity="0.1"/>
<rect x="1323.16" y="197" width="5" height="5" rx="2.5" fill="white" fill-opacity="0.1"/>
<rect x="1323.16" y="217" width="5" height="5" rx="2.5" fill="white" fill-opacity="0.1"/>
<rect x="87" y="929" width="5" height="5" rx="2.5" fill="white" fill-opacity="0.1"/>
<rect x="87" y="949" width="5" height="5" rx="2.5" fill="white" fill-opacity="0.1"/>
<rect x="87" y="969" width="5" height="5" rx="2.5" fill="white" fill-opacity="0.1"/>
<rect x="87" y="989" width="5" height="5" rx="2.5" fill="white" fill-opacity="0.1"/>
<rect x="87" y="1009" width="5" height="5" rx="2.5" fill="white" fill-opacity="0.1"/>
<rect x="87" y="1029" width="5" height="5" rx="2.5" fill="white" fill-opacity="0.1"/>
<rect x="115.039" y="929" width="5" height="5" rx="2.5" fill="white" fill-opacity="0.1"/>
<rect x="115.039" y="949" width="5" height="5" rx="2.5" fill="white" fill-opacity="0.1"/>
<rect x="115.039" y="969" width="5" height="5" rx="2.5" fill="white" fill-opacity="0.1"/>
<rect x="115.039" y="989" width="5" height="5" rx="2.5" fill="white" fill-opacity="0.1"/>
<rect x="115.039" y="1009" width="5" height="5" rx="2.5" fill="white" fill-opacity="0.1"/>
<rect x="115.039" y="1029" width="5" height="5" rx="2.5" fill="white" fill-opacity="0.1"/>
<rect x="143.079" y="929" width="5" height="5" rx="2.5" fill="white" fill-opacity="0.1"/>
<rect x="143.079" y="949" width="5" height="5" rx="2.5" fill="white" fill-opacity="0.1"/>
<rect x="143.079" y="969" width="5" height="5" rx="2.5" fill="white" fill-opacity="0.1"/>
<rect x="143.079" y="989" width="5" height="5" rx="2.5" fill="white" fill-opacity="0.1"/>
<rect x="143.079" y="1009" width="5" height="5" rx="2.5" fill="white" fill-opacity="0.1"/>
<rect x="143.079" y="1029" width="5" height="5" rx="2.5" fill="white" fill-opacity="0.1"/>
<rect x="171.119" y="929" width="5" height="5" rx="2.5" fill="white" fill-opacity="0.1"/>
<rect x="171.119" y="949" width="5" height="5" rx="2.5" fill="white" fill-opacity="0.1"/>
<rect x="171.119" y="969" width="5" height="5" rx="2.5" fill="white" fill-opacity="0.1"/>
<rect x="171.119" y="989" width="5" height="5" rx="2.5" fill="white" fill-opacity="0.1"/>
<rect x="171.119" y="1009" width="5" height="5" rx="2.5" fill="white" fill-opacity="0.1"/>
<rect x="171.119" y="1029" width="5" height="5" rx="2.5" fill="white" fill-opacity="0.1"/>
<rect x="199.158" y="929" width="5" height="5" rx="2.5" fill="white" fill-opacity="0.1"/>
<rect x="199.158" y="949" width="5" height="5" rx="2.5" fill="white" fill-opacity="0.1"/>
<rect x="199.158" y="969" width="5" height="5" rx="2.5" fill="white" fill-opacity="0.1"/>
<rect x="199.158" y="989" width="5" height="5" rx="2.5" fill="white" fill-opacity="0.1"/>
<rect x="199.158" y="1009" width="5" height="5" rx="2.5" fill="white" fill-opacity="0.1"/>
<rect x="199.158" y="1029" width="5" height="5" rx="2.5" fill="white" fill-opacity="0.1"/>
</svg>
