<svg width="1440" height="1174" viewBox="0 0 1440 1174" fill="none" xmlns="http://www.w3.org/2000/svg">
<rect width="1440" height="1174" fill="#2C3437" fill-opacity="0.9"/>
<rect x="1211" y="117" width="5" height="5" rx="2.5" fill="white" fill-opacity="0.1"/>
<rect x="1211" y="137" width="5" height="5" rx="2.5" fill="white" fill-opacity="0.1"/>
<rect x="1211" y="157" width="5" height="5" rx="2.5" fill="white" fill-opacity="0.1"/>
<rect x="1211" y="177" width="5" height="5" rx="2.5" fill="white" fill-opacity="0.1"/>
<rect x="1211" y="197" width="5" height="5" rx="2.5" fill="white" fill-opacity="0.1"/>
<rect x="1211" y="217" width="5" height="5" rx="2.5" fill="white" fill-opacity="0.1"/>
<rect x="1239.04" y="117" width="5" height="5" rx="2.5" fill="white" fill-opacity="0.1"/>
<rect x="1239.04" y="137" width="5" height="5" rx="2.5" fill="white" fill-opacity="0.1"/>
<rect x="1239.04" y="157" width="5" height="5" rx="2.5" fill="white" fill-opacity="0.1"/>
<rect x="1239.04" y="177" width="5" height="5" rx="2.5" fill="white" fill-opacity="0.1"/>
<rect x="1239.04" y="197" width="5" height="5" rx="2.5" fill="white" fill-opacity="0.1"/>
<rect x="1239.04" y="217" width="5" height="5" rx="2.5" fill="white" fill-opacity="0.1"/>
<rect x="1267.08" y="117" width="5" height="5" rx="2.5" fill="white" fill-opacity="0.1"/>
<rect x="1267.08" y="137" width="5" height="5" rx="2.5" fill="white" fill-opacity="0.1"/>
<rect x="1267.08" y="157" width="5" height="5" rx="2.5" fill="white" fill-opacity="0.1"/>
<rect x="1267.08" y="177" width="5" height="5" rx="2.5" fill="white" fill-opacity="0.1"/>
<rect x="1267.08" y="197" width="5" height="5" rx="2.5" fill="white" fill-opacity="0.1"/>
<rect x="1267.08" y="217" width="5" height="5" rx="2.5" fill="white" fill-opacity="0.1"/>
<rect x="1295.12" y="117" width="5" height="5" rx="2.5" fill="white" fill-opacity="0.1"/>
<rect x="1295.12" y="137" width="5" height="5" rx="2.5" fill="white" fill-opacity="0.1"/>
<rect x="1295.12" y="157" width="5" height="5" rx="2.5" fill="white" fill-opacity="0.1"/>
<rect x="1295.12" y="177" width="5" height="5" rx="2.5" fill="white" fill-opacity="0.1"/>
<rect x="1295.12" y="197" width="5" height="5" rx="2.5" fill="white" fill-opacity="0.1"/>
<rect x="1295.12" y="217" width="5" height="5" rx="2.5" fill="white" fill-opacity="0.1"/>
<rect x="1323.16" y="117" width="5" height="5" rx="2.5" fill="white" fill-opacity="0.1"/>
<rect x="1323.16" y="137" width="5" height="5" rx="2.5" fill="white" fill-opacity="0.1"/>
<rect x="1323.16" y="157" width="5" height="5" rx="2.5" fill="white" fill-opacity="0.1"/>
<rect x="1323.16" y="177" width="5" height="5" rx="2.5" fill="white" fill-opacity="0.1"/>
<rect x="1323.16" y="197" width="5" height="5" rx="2.5" fill="white" fill-opacity="0.1"/>
<rect x="1323.16" y="217" width="5" height="5" rx="2.5" fill="white" fill-opacity="0.1"/>
<rect x="87" y="929" width="5" height="5" rx="2.5" fill="white" fill-opacity="0.1"/>
<rect x="87" y="949" width="5" height="5" rx="2.5" fill="white" fill-opacity="0.1"/>
<rect x="87" y="969" width="5" height="5" rx="2.5" fill="white" fill-opacity="0.1"/>
<rect x="87" y="989" width="5" height="5" rx="2.5" fill="white" fill-opacity="0.1"/>
<rect x="87" y="1009" width="5" height="5" rx="2.5" fill="white" fill-opacity="0.1"/>
<rect x="87" y="1029" width="5" height="5" rx="2.5" fill="white" fill-opacity="0.1"/>
<rect x="115.039" y="929" width="5" height="5" rx="2.5" fill="white" fill-opacity="0.1"/>
<rect x="115.039" y="949" width="5" height="5" rx="2.5" fill="white" fill-opacity="0.1"/>
<rect x="115.039" y="969" width="5" height="5" rx="2.5" fill="white" fill-opacity="0.1"/>
<rect x="115.039" y="989" width="5" height="5" rx="2.5" fill="white" fill-opacity="0.1"/>
<rect x="115.039" y="1009" width="5" height="5" rx="2.5" fill="white" fill-opacity="0.1"/>
<rect x="115.039" y="1029" width="5" height="5" rx="2.5" fill="white" fill-opacity="0.1"/>
<rect x="143.079" y="929" width="5" height="5" rx="2.5" fill="white" fill-opacity="0.1"/>
<rect x="143.079" y="949" width="5" height="5" rx="2.5" fill="white" fill-opacity="0.1"/>
<rect x="143.079" y="969" width="5" height="5" rx="2.5" fill="white" fill-opacity="0.1"/>
<rect x="143.079" y="989" width="5" height="5" rx="2.5" fill="white" fill-opacity="0.1"/>
<rect x="143.079" y="1009" width="5" height="5" rx="2.5" fill="white" fill-opacity="0.1"/>
<rect x="143.079" y="1029" width="5" height="5" rx="2.5" fill="white" fill-opacity="0.1"/>
<rect x="171.119" y="929" width="5" height="5" rx="2.5" fill="white" fill-opacity="0.1"/>
<rect x="171.119" y="949" width="5" height="5" rx="2.5" fill="white" fill-opacity="0.1"/>
<rect x="171.119" y="969" width="5" height="5" rx="2.5" fill="white" fill-opacity="0.1"/>
<rect x="171.119" y="989" width="5" height="5" rx="2.5" fill="white" fill-opacity="0.1"/>
<rect x="171.119" y="1009" width="5" height="5" rx="2.5" fill="white" fill-opacity="0.1"/>
<rect x="171.119" y="1029" width="5" height="5" rx="2.5" fill="white" fill-opacity="0.1"/>
<rect x="199.158" y="929" width="5" height="5" rx="2.5" fill="white" fill-opacity="0.1"/>
<rect x="199.158" y="949" width="5" height="5" rx="2.5" fill="white" fill-opacity="0.1"/>
<rect x="199.158" y="969" width="5" height="5" rx="2.5" fill="white" fill-opacity="0.1"/>
<rect x="199.158" y="989" width="5" height="5" rx="2.5" fill="white" fill-opacity="0.1"/>
<rect x="199.158" y="1009" width="5" height="5" rx="2.5" fill="white" fill-opacity="0.1"/>
<rect x="199.158" y="1029" width="5" height="5" rx="2.5" fill="white" fill-opacity="0.1"/>
</svg>
