<svg width="136" height="38" viewBox="0 0 136 38" fill="none" xmlns="http://www.w3.org/2000/svg">
<path d="M83.0503 0.919189C73.0511 0.919189 64.9495 9.02272 64.9495 19.0243C64.9495 29.0259 73.0511 37.1295 83.0503 37.1295C93.0496 37.1295 101.151 29.0259 101.151 19.0243C101.151 9.02272 93.0445 0.919189 83.0503 0.919189ZM96.8348 20.0316H69.1496C68.5625 20.0316 68.0869 19.5558 68.0869 18.9687C68.0869 18.3815 68.5625 17.9057 69.1496 17.9057H96.8348C97.4218 17.9057 97.8974 18.3815 97.8974 18.9687C97.8974 19.5507 97.4218 20.0316 96.8348 20.0316Z" fill="#091A54"/>
<path d="M127.693 18.9634H120.255C119.668 18.9634 119.192 18.4876 119.192 17.9005C119.192 17.3133 119.668 16.8375 120.255 16.8375H134.155V1.86548H109.668C104.962 1.86548 101.152 5.68188 101.152 10.3841C101.152 15.0913 104.967 18.9026 109.668 18.9026L115.999 18.9634C116.586 18.9634 117.062 19.4392 117.062 20.0263C117.062 20.6134 116.586 21.0892 115.999 21.0892H102.215V35.9449H126.702C131.408 35.9449 135.218 32.1285 135.218 27.4263C135.223 23.0531 131.934 19.4543 127.693 18.9634Z" fill="#091A54"/>
<path d="M47.7947 25.3465C47.7947 24.7594 48.2704 24.2836 48.8574 24.2836C49.4444 24.2836 49.9201 24.7594 49.9201 25.3465V35.9454H69.2051L63.0416 23.6155C61.5994 20.7304 58.6492 18.9083 55.4207 18.9083H56.4277C61.1338 18.9083 64.9443 15.0918 64.9443 10.3897C64.9443 5.68244 61.1288 1.87109 56.4277 1.87109H35.1388V18.9133V35.9454H47.7998V25.3465H47.7947ZM38.2712 12.5763C38.2712 11.9891 38.7468 11.5133 39.3338 11.5133H59.5651C60.1521 11.5133 60.6278 11.9891 60.6278 12.5763C60.6278 13.1634 60.1521 13.6392 59.5651 13.6392H39.3338C38.7468 13.6392 38.2712 13.1634 38.2712 12.5763Z" fill="#091A54"/>
<path d="M25.5548 18.9077H22.4781C27.1842 18.9077 30.9947 15.0913 30.9947 10.3891C30.9947 5.68694 27.1842 1.86548 22.4781 1.86548H0V18.9077V35.9449H25.5548C30.2609 35.9449 34.0714 32.1285 34.0714 27.4263C34.0714 22.719 30.2559 18.9077 25.5548 18.9077ZM25.6155 11.5077C26.2025 11.5077 26.6782 11.9835 26.6782 12.5706C26.6782 13.1578 26.2025 13.6336 25.6155 13.6336H4.31648C3.72948 13.6336 3.25381 13.1578 3.25381 12.5706C3.25381 11.9835 3.72948 11.5077 4.31648 11.5077H25.6155ZM12.2005 5.6009H15.8136V6.19816H12.8584V6.71444H15.7073V7.25602H12.8634V7.7723H15.8187V8.36956H12.2056V5.6009H12.2005ZM7.49944 5.6009H8.15729V6.69419H10.7988V5.6009H11.4566V8.36956H10.7988V7.27627H8.15729V8.36956H7.49944V5.6009ZM3.14248 5.6009H6.70497V6.18298H5.24253V8.37462H4.58468V6.18298H3.14248V5.6009ZM28.8086 26.419H4.31648C3.72948 26.419 3.25381 25.9432 3.25381 25.3561C3.25381 24.769 3.72948 24.2932 4.31648 24.2932H28.8035C29.3905 24.2932 29.8662 24.769 29.8662 25.3561C29.8713 25.9432 29.3956 26.419 28.8086 26.419Z" fill="#091A54"/>
</svg>
