<svg width="40" height="40" viewBox="0 0 40 40" fill="none" xmlns="http://www.w3.org/2000/svg">
<path d="M25.086 22.8633C24.0793 24.6486 22.1664 25.8551 19.971 25.8551C17.789 25.8551 15.8869 24.6637 14.8751 22.8974C14.3668 22.011 14.0999 21.0069 14.101 19.9851C14.101 16.7433 16.7292 14.1153 19.971 14.1153C22.1389 14.1153 24.031 15.2918 25.0478 17.0401L30.1785 14.0857C28.1392 10.5654 24.3318 8.19708 19.971 8.19708C13.4604 8.19708 8.18277 13.4749 8.18277 19.9851C8.18277 22.121 8.75096 24.1239 9.74402 25.8515C11.7782 29.3904 15.5964 31.7733 19.971 31.7733C24.3536 31.7733 28.1778 29.3808 30.209 25.8315L25.086 22.8633Z" fill="#C3D2DF"/>
<path d="M32.264 19.336L31.968 20.72H33.024V21.52H31.8L31.48 23H30.608L30.928 21.52H29.36L29.04 23H28.168L28.488 21.52H27.248V20.72H28.656L28.952 19.336H27.72V18.536H29.12L29.432 17.08H30.304L29.992 18.536H31.56L31.872 17.08H32.744L32.432 18.536H33.496V19.336H32.264ZM31.392 19.336H29.824L29.528 20.72H31.096L31.392 19.336Z" fill="#C3D2DF"/>
</svg>
