<svg width="28" height="28" viewBox="0 0 28 28" fill="none" xmlns="http://www.w3.org/2000/svg">
<path d="M24.9376 18.0375C24.8751 17.8125 25.0126 17.5 25.1438 17.275C25.1839 17.208 25.2278 17.1433 25.2751 17.0812C26.3977 15.413 26.9982 13.4483 27.0001 11.4375C27.0188 5.675 22.1563 1 16.1438 1C10.9001 1 6.52505 4.56875 5.50005 9.30625C5.34671 10.0084 5.26918 10.725 5.2688 11.4438C5.2688 17.2125 9.9438 22.0125 15.9563 22.0125C16.9126 22.0125 18.2001 21.725 18.9063 21.5312C19.6126 21.3375 20.3126 21.0813 20.4938 21.0125C20.6796 20.9425 20.8765 20.9065 21.0751 20.9062C21.2917 20.9054 21.5063 20.9479 21.7063 21.0312L25.2501 22.2875C25.3277 22.3204 25.4099 22.3414 25.4938 22.35C25.6264 22.35 25.7536 22.2973 25.8474 22.2036C25.9411 22.1098 25.9938 21.9826 25.9938 21.85C25.9895 21.7928 25.979 21.7362 25.9626 21.6812L24.9376 18.0375Z" stroke="white" stroke-miterlimit="10" stroke-linecap="round"/>
<path d="M2.15379 12.5C1.33406 13.9727 0.937515 15.6433 1.008 17.3273C1.07848 19.0112 1.61324 20.6429 2.55316 22.0419C2.69754 22.26 2.77879 22.4288 2.75379 22.5419C2.72879 22.655 2.00816 26.4088 2.00816 26.4088C1.99083 26.4966 1.99741 26.5875 2.0272 26.6719C2.05699 26.7564 2.10891 26.8312 2.17754 26.8888C2.2691 26.9617 2.38296 27.001 2.50004 27C2.5626 27.0002 2.62452 26.9874 2.68191 26.9625L6.19504 25.5875C6.43683 25.4922 6.70656 25.4967 6.94504 25.6C8.12879 26.0613 9.43754 26.35 10.7469 26.35C12.504 26.3519 14.2302 25.8884 15.75 25.0069" stroke="white" stroke-miterlimit="10" stroke-linecap="round"/>
</svg>
