<svg width="330" height="330" viewBox="0 0 330 330" fill="none" xmlns="http://www.w3.org/2000/svg">
<path d="M165 0C74.019 0 0 74.019 0 165C0 255.981 74.019 330 165 330C255.981 330 330 255.981 330 165C330 74.019 255.981 0 165 0ZM165 300C90.56 300 30 239.439 30 165C30 90.561 90.56 30 165 30C239.44 30 300 90.561 300 165C300 239.439 239.439 300 165 300Z" fill="#007BFC"/>
<path d="M226.872 106.664L142.018 191.517L103.128 152.626C97.271 146.769 87.773 146.768 81.915 152.625C76.057 158.483 76.057 167.98 81.915 173.838L131.411 223.336C134.224 226.149 138.039 227.73 142.017 227.73C142.018 227.73 142.017 227.73 142.018 227.73C145.996 227.73 149.811 226.149 152.624 223.337L248.085 127.878C253.943 122.02 253.943 112.523 248.085 106.665C242.227 100.807 232.73 100.806 226.872 106.664Z" fill="#007BFC"/>
</svg>
