<svg width="60" height="60" viewBox="0 0 60 60" fill="none" xmlns="http://www.w3.org/2000/svg">
<path d="M18.75 15C17.695 15.0387 16.8162 15.41 16.1137 16.1137C15.4113 16.8175 15.04 17.6962 15 18.75V41.25C15.0387 42.305 15.41 43.1838 16.1137 43.8862C16.8175 44.5887 17.6962 44.96 18.75 45H41.25C42.305 44.9613 43.1838 44.59 43.8862 43.8862C44.5887 43.1825 44.96 42.3037 45 41.25V18.75C44.9613 17.695 44.59 16.8162 43.8862 16.1137C43.1825 15.4113 42.3037 15.04 41.25 15H18.75ZM18.75 11.25H41.25C43.36 11.2888 45.1275 12.0212 46.5525 13.4475C47.9775 14.8737 48.71 16.6412 48.75 18.75V41.25C48.7113 43.36 47.9787 45.1275 46.5525 46.5525C45.1262 47.9775 43.3587 48.71 41.25 48.75H18.75C16.64 48.7113 14.8725 47.9787 13.4475 46.5525C12.0225 45.1262 11.29 43.3587 11.25 41.25V18.75C11.2888 16.64 12.0212 14.8725 13.4475 13.4475C14.8737 12.0225 16.6412 11.29 18.75 11.25ZM30 3.75C30.5475 3.75 30.9969 3.92562 31.3481 4.27687C31.6994 4.62812 31.875 5.0775 31.875 5.625V13.125H28.125V5.625C28.125 5.0775 28.3006 4.62812 28.6519 4.27687C29.0031 3.92562 29.4525 3.75 30 3.75ZM39.375 3.75C39.9225 3.75 40.3719 3.92562 40.7231 4.27687C41.0744 4.62812 41.25 5.0775 41.25 5.625V13.125H37.5V5.625C37.5 5.0775 37.6756 4.62812 38.0269 4.27687C38.3781 3.92562 38.8275 3.75 39.375 3.75ZM20.625 3.75C21.1725 3.75 21.6219 3.92562 21.9731 4.27687C22.3244 4.62812 22.5 5.0775 22.5 5.625V13.125H18.75V5.625C18.75 5.0775 18.9256 4.62812 19.2769 4.27687C19.6281 3.92562 20.0775 3.75 20.625 3.75ZM30 56.25C29.4525 56.25 29.0031 56.0744 28.6519 55.7231C28.3006 55.3719 28.125 54.9225 28.125 54.375V46.875H31.875V54.375C31.875 54.9225 31.6994 55.3719 31.3481 55.7231C30.9969 56.0744 30.5475 56.25 30 56.25ZM39.375 56.25C38.8275 56.25 38.3781 56.0744 38.0269 55.7231C37.6756 55.3719 37.5 54.9225 37.5 54.375V46.875H41.25V54.375C41.25 54.9225 41.0744 55.3719 40.7231 55.7231C40.3719 56.0744 39.9225 56.25 39.375 56.25ZM20.625 56.25C20.0775 56.25 19.6281 56.0744 19.2769 55.7231C18.9256 55.3719 18.75 54.9225 18.75 54.375V46.875H22.5V54.375C22.5 54.9225 22.3244 55.3719 21.9731 55.7231C21.6219 56.0744 21.1725 56.25 20.625 56.25ZM3.75 30C3.75 29.4525 3.92562 29.0031 4.27687 28.6519C4.62812 28.3006 5.0775 28.125 5.625 28.125H13.125V31.875H5.625C5.0775 31.875 4.62812 31.6994 4.27687 31.3481C3.92562 30.9969 3.75 30.5475 3.75 30ZM3.75 20.625C3.75 20.0775 3.92562 19.6281 4.27687 19.2769C4.62812 18.9256 5.0775 18.75 5.625 18.75H13.125V22.5H5.625C5.0775 22.5 4.62812 22.3244 4.27687 21.9731C3.92562 21.6219 3.75 21.1725 3.75 20.625ZM3.75 39.375C3.75 38.8275 3.92562 38.3781 4.27687 38.0269C4.62812 37.6756 5.0775 37.5 5.625 37.5H13.125V41.25H5.625C5.0775 41.25 4.62812 41.0744 4.27687 40.7231C3.92562 40.3719 3.75 39.9225 3.75 39.375ZM56.25 30C56.25 30.5475 56.0744 30.9969 55.7231 31.3481C55.3719 31.6994 54.9225 31.875 54.375 31.875H46.875V28.125H54.375C54.9225 28.125 55.3719 28.3006 55.7231 28.6519C56.0744 29.0031 56.25 29.4525 56.25 30ZM56.25 20.625C56.25 21.1725 56.0744 21.6219 55.7231 21.9731C55.3719 22.3244 54.9225 22.5 54.375 22.5H46.875V18.75H54.375C54.9225 18.75 55.3719 18.9256 55.7231 19.2769C56.0744 19.6281 56.25 20.0775 56.25 20.625ZM56.25 39.375C56.25 39.9225 56.0744 40.3719 55.7231 40.7231C55.3719 41.0744 54.9225 41.25 54.375 41.25H46.875V37.5H54.375C54.9225 37.5 55.3719 37.6756 55.7231 38.0269C56.0744 38.3781 56.25 38.8275 56.25 39.375Z" fill="white" fill-opacity="0.96"/>
</svg>
