<svg width="60" height="60" viewBox="0 0 60 60" fill="none" xmlns="http://www.w3.org/2000/svg">
<path d="M21.0356 45H9.375C8.8275 45 8.37813 44.8244 8.02688 44.4731C7.67563 44.1219 7.5 43.6725 7.5 43.125V11.25H3.75C3.2025 11.25 2.75313 11.0744 2.40188 10.7231C2.05063 10.3719 1.875 9.9225 1.875 9.375C1.875 8.8275 2.05063 8.37813 2.40188 8.02688C2.75313 7.67563 3.2025 7.5 3.75 7.5H56.25C56.7975 7.5 57.2469 7.67563 57.5981 8.02688C57.9494 8.37813 58.125 8.8275 58.125 9.375C58.125 9.9225 57.9494 10.3719 57.5981 10.7231C57.2469 11.0744 56.7975 11.25 56.25 11.25H52.5V43.125C52.5 43.6725 52.3244 44.1219 51.9731 44.4731C51.6219 44.8244 51.1725 45 50.625 45H38.9644L45.4688 56.25H41.1319L34.6275 45H25.3687L18.8644 56.25H14.5275L21.0356 45ZM48.75 11.25H11.25V41.25H48.75V11.25ZM20.0981 31.3481C19.7069 31.6994 19.2575 31.875 18.75 31.875C18.2425 31.875 17.8031 31.6894 17.4319 31.3181C17.0606 30.9469 16.875 30.5075 16.875 30C16.875 29.4925 17.0506 29.0431 17.4019 28.6519L26.0737 20.0381L33.3975 25.5469L39.7838 17.5781C40.2525 16.9919 40.8481 16.7475 41.5706 16.845C42.2931 16.9425 42.7812 17.3331 43.035 18.0169C43.2887 18.7006 43.1813 19.3356 42.7125 19.9219L34.0988 30.7031L26.4225 24.96L20.0981 31.3481Z" fill="white" fill-opacity="0.96"/>
</svg>
