<svg width="16" height="16" viewBox="0 0 16 16" fill="none" xmlns="http://www.w3.org/2000/svg">
<path d="M2 6V14H14V3H12V3.5C12 3.646 11.9532 3.76583 11.8595 3.8595C11.7658 3.95317 11.646 4 11.5 4C11.354 4 11.2342 3.95317 11.1405 3.8595C11.0468 3.76583 11 3.646 11 3.5V3H5V3.5C5 3.646 4.95317 3.76583 4.8595 3.8595C4.76583 3.95317 4.646 4 4.5 4C4.354 4 4.23417 3.95317 4.1405 3.8595C4.04683 3.76583 4 3.646 4 3.5V3H2V5H14V6H2ZM5 2H11V1.5C11 1.354 11.0468 1.23417 11.1405 1.1405C11.2342 1.04683 11.354 1 11.5 1C11.646 1 11.7658 1.04683 11.8595 1.1405C11.9532 1.23417 12 1.354 12 1.5V2H14.5C14.646 2 14.7658 2.04683 14.8595 2.1405C14.9532 2.23417 15 2.354 15 2.5V14.5C15 14.646 14.9532 14.7658 14.8595 14.8595C14.7658 14.9532 14.646 15 14.5 15H1.5C1.354 15 1.23417 14.9532 1.1405 14.8595C1.04683 14.7658 1 14.646 1 14.5V2.5C1 2.354 1.04683 2.23417 1.1405 2.1405C1.23417 2.04683 1.354 2 1.5 2H4V1.5C4 1.354 4.04683 1.23417 4.1405 1.1405C4.23417 1.04683 4.354 1 4.5 1C4.646 1 4.76583 1.04683 4.8595 1.1405C4.95317 1.23417 5 1.354 5 1.5V2ZM4.5 8H5.5C5.646 8 5.76583 8.04683 5.8595 8.1405C5.95317 8.23417 6 8.354 6 8.5C6 8.646 5.95317 8.76583 5.8595 8.8595C5.76583 8.95317 5.646 9 5.5 9H4.5C4.354 9 4.23417 8.95317 4.1405 8.8595C4.04683 8.76583 4 8.646 4 8.5C4 8.354 4.04683 8.23417 4.1405 8.1405C4.23417 8.04683 4.354 8 4.5 8ZM4.5 11H5.5C5.646 11 5.76583 11.0468 5.8595 11.1405C5.95317 11.2342 6 11.354 6 11.5C6 11.646 5.95317 11.7658 5.8595 11.8595C5.76583 11.9532 5.646 12 5.5 12H4.5C4.354 12 4.23417 11.9532 4.1405 11.8595C4.04683 11.7658 4 11.646 4 11.5C4 11.354 4.04683 11.2342 4.1405 11.1405C4.23417 11.0468 4.354 11 4.5 11ZM7.5 8H8.5C8.646 8 8.76583 8.04683 8.8595 8.1405C8.95317 8.23417 9 8.354 9 8.5C9 8.646 8.95317 8.76583 8.8595 8.8595C8.76583 8.95317 8.646 9 8.5 9H7.5C7.354 9 7.23417 8.95317 7.1405 8.8595C7.04683 8.76583 7 8.646 7 8.5C7 8.354 7.04683 8.23417 7.1405 8.1405C7.23417 8.04683 7.354 8 7.5 8ZM7.5 11H8.5C8.646 11 8.76583 11.0468 8.8595 11.1405C8.95317 11.2342 9 11.354 9 11.5C9 11.646 8.95317 11.7658 8.8595 11.8595C8.76583 11.9532 8.646 12 8.5 12H7.5C7.354 12 7.23417 11.9532 7.1405 11.8595C7.04683 11.7658 7 11.646 7 11.5C7 11.354 7.04683 11.2342 7.1405 11.1405C7.23417 11.0468 7.354 11 7.5 11ZM10.5 8H11.5C11.646 8 11.7658 8.04683 11.8595 8.1405C11.9532 8.23417 12 8.354 12 8.5C12 8.646 11.9532 8.76583 11.8595 8.8595C11.7658 8.95317 11.646 9 11.5 9H10.5C10.354 9 10.2342 8.95317 10.1405 8.8595C10.0468 8.76583 10 8.646 10 8.5C10 8.354 10.0468 8.23417 10.1405 8.1405C10.2342 8.04683 10.354 8 10.5 8ZM10.5 11H11.5C11.646 11 11.7658 11.0468 11.8595 11.1405C11.9532 11.2342 12 11.354 12 11.5C12 11.646 11.9532 11.7658 11.8595 11.8595C11.7658 11.9532 11.646 12 11.5 12H10.5C10.354 12 10.2342 11.9532 10.1405 11.8595C10.0468 11.7658 10 11.646 10 11.5C10 11.354 10.0468 11.2342 10.1405 11.1405C10.2342 11.0468 10.354 11 10.5 11Z" fill="white" fill-opacity="0.96"/>
</svg>
