<?xml version="1.0" encoding="iso-8859-1"?>
<!-- Generator: Adobe Illustrator 19.1.0, SVG Export Plug-In . SVG Version: 6.00 Build 0)  -->
<svg version="1.1" id="Capa_1" xmlns="http://www.w3.org/2000/svg" xmlns:xlink="http://www.w3.org/1999/xlink" x="0px" y="0px"
	 viewBox="0 0 488.58 488.58" style="enable-background:new 0 0 488.58 488.58;" xml:space="preserve">
<g>
	<g>
		<circle cx="91.6" cy="248.24" r="22.1"/>
		<circle cx="323.4" cy="248.24" r="22.1"/>
		<path d="M388.8,260.04c1.2-0.3,2.5-0.4,3.8-0.4h19.2c-3.7-1.5-6.8-4.2-8.8-7.8c-3.2-5.7-3-12.6,0.5-18.1l16.3-26.2v-56.9
			c0-20.1-16.3-36.4-36.4-36.4h-347c-20.1,0-36.4,16.3-36.4,36.4v187.2c0,20.1,16.3,36.4,36.4,36.4h290.4c-0.4-1.6-0.7-3.3-0.7-5.1
			v-9.7v-16.3H76.7c0.2-1.5,0.3-3,0.3-4.6c0-20.3-16.5-36.8-36.8-36.8c-3.1,0-6.2,0.4-9.1,1.1v-112.9c2.9,0.7,6,1.1,9.1,1.1
			c20.3,0,36.8-16.5,36.8-36.8c0-3.1-0.4-6.1-1.1-9h270.3c-0.4,2.2-0.6,4.5-0.6,6.8c0,20.3,16.5,36.8,36.8,36.8
			c2.2,0,4.4-0.2,6.5-0.6v71.8H388.8z"/>
		<path d="M368.7,301.84h-23.4c-2.8,0-5.1,2.3-5.1,5.1v9.7v42.8v9.7c0,2.8,2.3,5.1,5.1,5.1h23.4c2.8,0,5.1-2.3,5.1-5.1v-9.7v-42.8
			v-9.7C373.8,304.04,371.5,301.84,368.7,301.84z"/>
		<path d="M416.1,273.74h-23.4c-2.8,0-5.1,2.3-5.1,5.1v37.8v14.8v37.8c0,2.8,2.3,5.1,5.1,5.1h23.4c2.8,0,5.1-2.3,5.1-5.1v-37.8
			v-14.8v-37.8C421.2,276.04,418.9,273.74,416.1,273.74z"/>
		<path d="M488,241.14l-33-53c-1.5-2.4-5-2.4-6.5,0l-33,53c-1.6,2.5,0.2,5.8,3.2,5.8h16.2v122.2c0,2.8,2.3,5.1,5.1,5.1h23.4
			c2.7,0,4.8-2.1,5-4.7l0,0v-80.8v-2.3v-39.5h16.2C487.7,246.94,489.6,243.74,488,241.14z"/>
		<path d="M127.6,244.14c0,44.1,35.8,79.9,79.9,79.9s79.9-35.8,79.9-79.9s-35.9-79.9-80-79.9S127.6,200.04,127.6,244.14z
			 M233.8,202.84c0.6,0.2,1.2,0.5,1.7,0.8c2.2,1.3,2.7,2.9,1.8,5.2c-1,2.4-2,4.9-3.1,7.3c-1,2.1-2.3,2.7-4.5,2.2
			c-3.1-0.7-6.1-1.6-9.1-2.3c-6.5-1.3-12.9-1.4-19.1,1.1c-5.4,2.1-8.7,6.2-10.9,11.4c0,0.1,0,0.1,0,0.2h18.8c1.5,0,2.8,1.2,2.8,2.8
			v6.2c0,1.5-1.2,2.8-2.8,2.8h-21.5c0,1.6,0,3.3,0,5h21.5c1.5,0,2.8,1.2,2.8,2.8v6.2c0,1.5-1.2,2.8-2.8,2.8h-19.6
			c2.4,6.8,6.2,12,13.4,14.3c5.8,1.8,11.6,1.7,17.5,0.5c3-0.6,6-1.5,9-2.2c2.4-0.5,3.6,0.1,4.6,2.3c1.1,2.4,2.2,4.9,3.2,7.4
			c0.9,2.2,0.3,4-2,5.1c-2.4,1.1-4.9,2-7.4,2.7c-9.7,2.7-19.5,2.8-29.1-0.4c-11.7-3.8-19.5-11.8-24.1-22.9c-0.9-2.2-1.5-4.5-2.2-6.7
			h-9.4c-1.5,0-2.8-1.2-2.8-2.8v-6.2c0-1.5,1.2-2.8,2.8-2.8h7.6c0-1.7,0-3.3,0-5h-7.6c-1.5,0-2.8-1.2-2.8-2.8v-6.2
			c0-1.5,1.2-2.8,2.8-2.8h9.7l0.3-1c2.6-8.3,7.1-15.3,13.9-20.6c5.5-4.2,11.8-6.6,18.5-7.6C215.4,198.04,224.7,199.34,233.8,202.84z
			"/>
	</g>
</g>
<g>
</g>
<g>
</g>
<g>
</g>
<g>
</g>
<g>
</g>
<g>
</g>
<g>
</g>
<g>
</g>
<g>
</g>
<g>
</g>
<g>
</g>
<g>
</g>
<g>
</g>
<g>
</g>
<g>
</g>
</svg>
