<svg width="489" height="489" viewBox="0 0 489 489" fill="none" xmlns="http://www.w3.org/2000/svg">
<g clip-path="url(#clip0_2_3)">
<path d="M91.6 270.34C103.805 270.34 113.7 260.445 113.7 248.24C113.7 236.035 103.805 226.14 91.6 226.14C79.3945 226.14 69.5 236.035 69.5 248.24C69.5 260.445 79.3945 270.34 91.6 270.34Z" fill="white"/>
<path d="M323.4 270.34C335.605 270.34 345.5 260.445 345.5 248.24C345.5 236.035 335.605 226.14 323.4 226.14C311.195 226.14 301.3 236.035 301.3 248.24C301.3 260.445 311.195 270.34 323.4 270.34Z" fill="white"/>
<path d="M388.8 260.04C390 259.74 391.3 259.64 392.6 259.64H411.8C408.1 258.14 405 255.44 403 251.84C399.8 246.14 400 239.24 403.5 233.74L419.8 207.54V150.64C419.8 130.54 403.5 114.24 383.4 114.24H36.4C16.3 114.24 0 130.54 0 150.64V337.84C0 357.94 16.3 374.24 36.4 374.24H326.8C326.4 372.64 326.1 370.94 326.1 369.14V359.44V343.14H76.7C76.9 341.64 77 340.14 77 338.54C77 318.24 60.5 301.74 40.2 301.74C37.1 301.74 34 302.14 31.1 302.84V189.94C34 190.64 37.1 191.04 40.2 191.04C60.5 191.04 77 174.54 77 154.24C77 151.14 76.6 148.14 75.9 145.24H346.2C345.8 147.44 345.6 149.74 345.6 152.04C345.6 172.34 362.1 188.84 382.4 188.84C384.6 188.84 386.8 188.64 388.9 188.24V260.04H388.8V260.04Z" fill="white"/>
<path d="M368.7 301.84H345.3C342.5 301.84 340.2 304.14 340.2 306.94V316.64V359.44V369.14C340.2 371.94 342.5 374.24 345.3 374.24H368.7C371.5 374.24 373.8 371.94 373.8 369.14V359.44V316.64V306.94C373.8 304.04 371.5 301.84 368.7 301.84Z" fill="white"/>
<path d="M416.1 273.74H392.7C389.9 273.74 387.6 276.04 387.6 278.84V316.64V331.44V369.24C387.6 372.04 389.9 374.34 392.7 374.34H416.1C418.9 374.34 421.2 372.04 421.2 369.24V331.44V316.64V278.84C421.2 276.04 418.9 273.74 416.1 273.74Z" fill="white"/>
<path d="M488 241.14L455 188.14C453.5 185.74 450 185.74 448.5 188.14L415.5 241.14C413.9 243.64 415.7 246.94 418.7 246.94H434.9V369.14C434.9 371.94 437.2 374.24 440 374.24H463.4C466.1 374.24 468.2 372.14 468.4 369.54V288.74V286.44V246.94H484.6C487.7 246.94 489.6 243.74 488 241.14Z" fill="white"/>
<path d="M127.6 244.14C127.6 288.24 163.4 324.04 207.5 324.04C251.6 324.04 287.4 288.24 287.4 244.14C287.4 200.04 251.5 164.24 207.4 164.24C163.3 164.24 127.6 200.04 127.6 244.14ZM233.8 202.84C234.4 203.04 235 203.34 235.5 203.64C237.7 204.94 238.2 206.54 237.3 208.84C236.3 211.24 235.3 213.74 234.2 216.14C233.2 218.24 231.9 218.84 229.7 218.34C226.6 217.64 223.6 216.74 220.6 216.04C214.1 214.74 207.7 214.64 201.5 217.14C196.1 219.24 192.8 223.34 190.6 228.54C190.6 228.64 190.6 228.64 190.6 228.74H209.4C210.9 228.74 212.2 229.94 212.2 231.54V237.74C212.2 239.24 211 240.54 209.4 240.54H187.9C187.9 242.14 187.9 243.84 187.9 245.54H209.4C210.9 245.54 212.2 246.74 212.2 248.34V254.54C212.2 256.04 211 257.34 209.4 257.34H189.8C192.2 264.14 196 269.34 203.2 271.64C209 273.44 214.8 273.34 220.7 272.14C223.7 271.54 226.7 270.64 229.7 269.94C232.1 269.44 233.3 270.04 234.3 272.24C235.4 274.64 236.5 277.14 237.5 279.64C238.4 281.84 237.8 283.64 235.5 284.74C233.1 285.84 230.6 286.74 228.1 287.44C218.4 290.14 208.6 290.24 199 287.04C187.3 283.24 179.5 275.24 174.9 264.14C174 261.94 173.4 259.64 172.7 257.44H163.3C161.8 257.44 160.5 256.24 160.5 254.64V248.44C160.5 246.94 161.7 245.64 163.3 245.64H170.9C170.9 243.94 170.9 242.34 170.9 240.64H163.3C161.8 240.64 160.5 239.44 160.5 237.84V231.64C160.5 230.14 161.7 228.84 163.3 228.84H173L173.3 227.84C175.9 219.54 180.4 212.54 187.2 207.24C192.7 203.04 199 200.64 205.7 199.64C215.4 198.04 224.7 199.34 233.8 202.84Z" fill="white"/>
</g>
<defs>
<clipPath id="clip0_2_3">
<rect width="488.58" height="488.58" fill="white"/>
</clipPath>
</defs>
</svg>
