<svg width="21" height="20" viewBox="0 0 21 20" fill="none" xmlns="http://www.w3.org/2000/svg">
<path d="M10.875 1.875C6.38789 1.875 2.75 5.51289 2.75 10C2.75 14.4871 6.38789 18.125 10.875 18.125C15.3621 18.125 19 14.4871 19 10C19 5.51289 15.3621 1.875 10.875 1.875Z" stroke="#007BFC" stroke-miterlimit="10"/>
<path d="M10.875 1.875C8.60663 1.875 6.47382 5.51289 6.47382 10C6.47382 14.4871 8.60663 18.125 10.875 18.125C13.1433 18.125 15.2762 14.4871 15.2762 10C15.2762 5.51289 13.1433 1.875 10.875 1.875Z" stroke="#007BFC" stroke-miterlimit="10"/>
<path d="M16.2918 15.4168C14.798 14.3563 12.9176 13.7239 10.875 13.7239C8.83241 13.7239 6.95194 14.3563 5.45819 15.4168M5.45819 4.58325C6.95194 5.6438 8.83241 6.27622 10.875 6.27622C12.9176 6.27622 14.798 5.6438 16.2918 4.58325H5.45819Z" stroke="#007BFC" stroke-linecap="round" stroke-linejoin="round"/>
<path d="M19 10H2.75M10.875 1.875V18.125V1.875Z" stroke="#007BFC" stroke-miterlimit="10"/>
</svg>
