<svg width="112" height="112" viewBox="0 0 112 112" fill="none" xmlns="http://www.w3.org/2000/svg">
<path d="M55.7272 111.692C25.0145 111.692 0.00231934 86.6803 0.00231934 55.9675C0.00231934 25.2547 25.0145 0.286743 55.7272 0.286743C68.4101 0.286743 80.8278 4.66166 90.6824 12.6161C92.2732 13.8976 92.4942 16.1955 91.2568 17.7864C89.9753 19.3773 87.6332 19.5982 86.0865 18.3609C77.425 11.3787 66.9076 7.66665 55.7714 7.66665C29.1242 7.66665 7.42642 29.3645 7.42642 56.0117C7.42642 82.6589 29.1242 104.357 55.7714 104.357C82.4186 104.357 104.116 82.6589 104.116 56.0117C104.116 45.0081 101.73 36.7444 96.383 29.2319C95.1898 27.5526 95.5876 25.2547 97.2668 24.1057C98.9461 22.9126 101.244 23.3103 102.393 24.9895C108.624 33.7394 111.496 43.594 111.496 56.0559C111.408 86.6803 86.44 111.692 55.7272 111.692Z" fill="#5B5A5A"/>
<path d="M102 24.5C99.0001 20.5 94.0001 15.5 90.0001 12L85.0001 17.5C89.5001 21 93.6668 25.8333 95.5001 28L99.0001 29C100.5 28.3333 103.5 26.5 102 24.5Z" fill="#5B5A5A"/>
<path d="M99.4323 24.15H11.9781V31.5299H99.4323V24.15Z" fill="#5B5A5A"/>
<path d="M107.74 52.2998H3.67017V59.6797H107.74V52.2998Z" fill="#5B5A5A"/>
<path d="M100.36 79.0349H11.05V86.4148H100.36V79.0349Z" fill="#5B5A5A"/>
<path d="M59.4392 3.95447H52.0593V107.98H59.4392V3.95447Z" fill="#5B5A5A"/>
<path d="M58.2462 110.676L53.1642 105.329C69.5591 89.6851 77.6902 73.0251 77.2925 55.7464C76.6738 27.5083 53.5177 6.91525 53.2526 6.73848L58.1136 1.17041C59.1742 2.09842 83.9654 24.1498 84.6724 55.5696C85.1143 75.0137 76.2319 93.5297 58.2462 110.676Z" fill="#5B5A5A"/>
<path d="M53.1642 110.676C35.2226 93.5739 26.296 75.0137 26.7379 55.6138C27.4008 24.1498 52.2362 2.09842 53.2968 1.2146L58.1578 6.78267C57.9368 7.00363 34.6923 27.6851 34.1178 55.879C33.7643 73.1135 41.8955 89.7735 58.2462 105.373L53.1642 110.676Z" fill="#5B5A5A"/>
</svg>
