<svg width="261" height="266" viewBox="0 0 261 266" fill="none" xmlns="http://www.w3.org/2000/svg">
<path style="mix-blend-mode:color-dodge" d="M260.887 132.974C260.887 206.413 202.565 265.947 130.622 265.947C58.6784 265.947 0.356445 206.404 0.356445 132.974C0.356445 59.5427 58.6784 0 130.622 0C202.565 0 260.887 59.5344 260.887 132.974Z" fill="url(#paint0_radial_511_30)"/>
<g style="mix-blend-mode:color-dodge">
<path style="mix-blend-mode:color-dodge" d="M73.7569 14.7822C73.6928 14.782 73.6293 14.7951 73.5704 14.8209C73.3038 14.9259 73.0454 15.0514 72.7973 15.1961C72.7324 15.2403 71.9863 15.8722 71.9863 15.8777C71.9863 15.8832 71.8998 15.9577 71.9187 15.9743C71.9376 15.9909 72.2756 16.1343 73.346 15.3727C73.938 14.9561 73.8731 14.8043 73.7569 14.7822Z" fill="url(#paint1_radial_511_30)"/>
<path style="mix-blend-mode:color-dodge" d="M72.0298 14.0924C72.0001 14.073 71.9757 14.0924 71.9487 14.1089C71.7649 14.1779 71.3648 14.3849 71.2946 14.4152C71.2243 14.4456 71.1432 14.5532 71.1675 14.5725C71.3007 14.5647 71.4294 14.5209 71.5405 14.4456C71.7158 14.3465 71.8799 14.228 72.0298 14.0924Z" fill="url(#paint2_radial_511_30)"/>
<path style="mix-blend-mode:color-dodge" d="M75.1625 12.6602C75.3766 12.6195 75.5847 12.5509 75.7816 12.456C75.8113 12.456 76.0898 12.3263 76.5385 12.0835C76.5385 12.0835 77.0548 11.8076 77.1359 11.7413C77.1008 11.7413 77.1008 11.7413 77.0197 11.7551C75.7735 12.2241 74.5573 12.7725 73.3784 13.397L74.3408 13.0134C74.6051 12.8737 74.8799 12.7556 75.1625 12.6602Z" fill="url(#paint3_radial_511_30)"/>
<path style="mix-blend-mode:color-dodge" d="M73.1459 13.833C73.1351 13.8314 73.1242 13.8314 73.1134 13.833C73.154 13.7916 73.1756 13.775 73.8812 13.4715C74.1217 13.3666 74.4542 13.2232 74.6326 13.1293C74.6682 13.1109 74.7017 13.0887 74.7327 13.0631C74.6817 13.0703 74.6311 13.0804 74.5813 13.0935C73.1673 13.552 71.8328 14.2345 70.6265 15.1161C70.7914 15.152 73.0026 14.051 73.1243 13.9516C73.1236 13.911 73.131 13.8707 73.1459 13.833Z" fill="url(#paint4_radial_511_30)"/>
<path style="mix-blend-mode:color-dodge" d="M75.2464 13.6316C75.2907 13.6057 75.3315 13.5742 75.368 13.5377C75.441 13.477 75.4978 13.3998 75.5653 13.3363C75.6897 13.2204 75.8357 13.1156 75.9465 12.9997C76.0195 12.9307 76.0195 12.9141 76.0222 12.9058C76.0249 12.8976 76.006 12.9058 75.9519 12.9058C75.5206 13.0961 75.119 13.35 74.7598 13.6592C74.8301 13.695 74.8301 13.695 74.6436 13.9599C74.703 13.9627 75.2437 13.6343 75.2464 13.6316Z" fill="url(#paint5_radial_511_30)"/>
<path style="mix-blend-mode:color-dodge" d="M70.0697 17.5196C70.0246 17.5188 69.9798 17.5263 69.9372 17.5417C69.8168 17.5783 69.6993 17.6244 69.5858 17.6796C69.1931 17.8847 68.8233 18.1326 68.4829 18.4192C68.4829 18.4192 68.4829 18.4192 68.4829 18.4192C68.9765 18.2573 69.4486 18.034 69.8886 17.7541C70.0373 17.6603 70.1697 17.5334 70.0697 17.5196Z" fill="url(#paint6_radial_511_30)"/>
<path style="mix-blend-mode:color-dodge" d="M71.0024 19.694C70.951 19.6608 70.9024 19.6222 70.6266 19.6636L70.4726 19.6884C70.0265 19.7823 69.5751 19.8706 69.121 19.9644C68.5803 20.0886 66.78 20.9578 66.534 21.3055C66.534 21.3055 66.534 21.333 66.534 21.3441C66.6773 21.391 66.8394 21.3137 66.98 21.4131C67.1963 21.5676 67.1314 21.6642 67.0854 21.7387C66.5895 22.1832 66.0588 22.5856 65.4986 22.9418C65.3662 23.0163 65.35 23.0135 65.2743 23.008C65.1851 22.6576 65.6068 22.5362 65.6149 22.2299C65.3932 22.2657 64.2903 22.8673 64.1605 23.1763C64.1426 23.213 64.136 23.2544 64.1416 23.295C64.2092 23.5571 64.3498 23.7944 64.4119 24.0649C64.4518 24.1641 64.4799 24.2679 64.4957 24.3739C64.4957 24.5726 64.3741 24.752 64.4011 24.9562C64.407 24.9933 64.4219 25.0284 64.4444 25.0583C64.7796 25.417 67.7883 23.6178 68.6073 22.7762C68.7885 22.5886 69.3129 21.5234 68.9669 21.5372C68.5983 21.5922 68.2361 21.6847 67.8856 21.8132C68.5911 21.333 69.3805 21.0019 70.0833 20.5163C70.1076 20.5218 70.9943 19.7547 71.0024 19.694Z" fill="url(#paint7_radial_511_30)"/>
<path style="mix-blend-mode:color-dodge" d="M62.3737 19.5643C63.6794 18.9655 64.785 18.0217 66.0663 17.3816C64.7715 18.2094 64.7715 18.2094 64.7147 18.2839L69.0939 15.7287C69.2291 15.655 69.3478 15.5535 69.4426 15.4306C69.386 15.4243 69.3287 15.4348 69.2777 15.461C68.337 15.8942 62.1332 19.2993 60.8086 20.4197C61.4682 20.3341 61.8899 19.785 62.444 19.5091L62.3737 19.5643Z" fill="url(#paint8_radial_511_30)"/>
<path style="mix-blend-mode:color-dodge" d="M62.3902 29.007C62.3704 29.0042 62.3504 29.0042 62.3307 29.007C62.2226 29.0481 62.1228 29.1089 62.036 29.1864C61.4657 29.6362 61.0412 30.246 60.4141 30.6351C59.3842 31.278 59.0625 31.4629 59.0273 31.6285C59.0273 31.6285 59.0436 31.6478 59.0517 31.6478C59.1891 31.6516 59.3261 31.632 59.4572 31.5898C59.8491 31.5071 59.8978 31.5098 59.9708 31.5623C60.1086 31.6561 60.0762 31.8823 60.2546 31.9486C60.4645 31.9536 60.6742 31.9323 60.879 31.8851C62.6578 31.5457 63.3985 30.8007 63.4012 30.7813C63.6012 30.5385 63.1065 29.6031 63.1038 29.5948C62.9342 29.3254 62.6839 29.1193 62.3902 29.007Z" fill="url(#paint9_radial_511_30)"/>
<path style="mix-blend-mode:color-dodge" d="M64.8798 21.3414C64.7771 21.3432 64.6752 21.3599 64.5771 21.391C63.945 21.5521 63.3671 21.8838 62.9038 22.3513C62.9083 22.3523 62.9129 22.3523 62.9173 22.3513C63.0119 22.3513 63.1065 22.3016 63.1876 22.3513C63.2093 22.4203 63.2147 22.4313 63.1228 22.6273C63.0633 22.7432 62.9173 23.0605 63.1228 23.0025C63.4444 22.9032 64.3933 22.0533 64.4987 21.9567C64.9582 21.54 65.0718 21.3579 64.8798 21.3414Z" fill="url(#paint10_radial_511_30)"/>
<path style="mix-blend-mode:color-dodge" d="M107.296 3.73909C106.658 4.53656 104.993 4.99462 104.101 5.24297C104.057 5.24297 99.5348 6.59232 99.3402 6.85999C98.0913 8.57359 101.232 9.12547 101.268 9.11995C109.053 8.53771 109.153 8.62325 109.699 9.11995C109.739 9.15582 113.359 13.2591 112.183 15.4942C111.707 16.3993 111.71 16.4352 111.734 16.5593C111.818 17.0367 112.383 17.0726 112.545 17.4782C112.794 18.0991 112.545 18.811 112.883 19.4098C113.908 19.1642 114.732 18.0743 115.957 18.6317C118.044 19.5809 117.079 21.2945 117.065 21.3111C116.208 22.3458 114.649 22.2989 113.878 23.4662C113.451 24.1063 113.037 25.8696 113.356 26.9044C113.505 27.3901 119.587 37.9034 122.501 38.9106C121.05 17.045 119.968 7.10558 118.49 2.38145C119.817 6.53438 120.89 14.6857 122.501 38.9023C129.8 40.329 129.943 40.1496 130.408 39.617C131.179 38.734 132.495 31.9376 132.506 31.8713C132.695 30.8697 132.179 29.8128 132.738 28.836C133.036 28.3338 133.068 28.3227 134.901 27.7598C140.643 25.9855 140.643 25.9855 140.791 24.8735C140.94 23.7614 141.032 23.0964 142.065 22.5611C144.57 21.2641 147.452 21.082 149.953 19.7685C150.974 19.2167 152.091 18.8828 153.04 18.1984C153.061 18.1984 153.529 17.8314 152.948 17.0616C152.093 15.9385 150.785 15.2872 149.974 14.1311C149.45 13.3915 149.469 12.4588 149.106 11.6614C148.685 10.7314 148.874 10.4776 149.377 9.95053C150.085 9.21653 149.596 8.91575 148.136 8.04102C143.37 5.16847 143.33 5.09948 142.921 4.45378C142.949 4.39307 142.978 4.31305 143.005 4.24958C143.078 4.22199 143.178 4.18611 143.249 4.15576C141.865 2.75949 139.029 3.86326 138.35 1.23078C138.207 1.15627 138.015 1.05969 137.875 0.993467C137.899 0.856191 137.933 0.720695 137.975 0.587833L138.167 0.535404C137.542 0.449862 135.734 0.333967 135.734 0.331207C134.72 0.308724 133.706 0.39287 132.709 0.582314C131.665 0.772714 130.781 0.0745816 129.776 0.0304309C128.348 7.72953e-05 125.251 -0.0164792 124.023 0.044228C121.747 0.173921 121.747 0.173921 121.482 0.356042C119.006 0.494013 119.006 0.494013 117.822 0.723045C117.798 0.723045 117.765 0.723045 117.752 0.739601C117.738 0.756158 117.752 0.739601 117.773 0.739601H117.852C119.301 0.847218 119.301 0.847218 119.744 0.960354C119.622 0.960354 119.622 0.960354 118.009 0.946557C117.442 0.929528 116.875 0.951654 116.311 1.01278C112.868 1.3904 109.494 2.26272 106.29 3.60388C106.452 3.73909 106.452 3.73909 107.296 3.73909Z" fill="url(#paint11_radial_511_30)"/>
<path style="mix-blend-mode:color-dodge" d="M85.3158 28.8056C85.6105 27.9998 85.4807 27.6356 84.9266 27.7239C84.9103 27.7239 83.2533 28.1764 82.9478 28.9297C82.7748 29.363 83.4668 30.4916 83.7426 30.6682C84.4184 31.1097 85.3077 28.8304 85.3158 28.8056Z" fill="url(#paint12_radial_511_30)"/>
<path style="mix-blend-mode:color-dodge" d="M97.1155 4.84834C96.7505 5.00287 96.3721 5.13808 95.9936 5.27881C97.1885 5.00287 101.038 3.9129 101.67 3.73353C99.0942 4.60827 97.056 5.29812 94.8826 5.76722C94.5644 5.81201 94.2647 5.94678 94.0176 6.1563C93.947 6.62125 93.7461 7.0554 93.4391 7.40632C92.2902 7.05035 89.3059 8.81638 89.1896 8.91848C89.46 9.03713 89.7627 8.9847 90.0168 9.14475C90.0009 9.18808 89.9873 9.2323 89.9763 9.2772C90.3601 9.22753 90.5169 9.21098 91.7793 8.72532C89.5843 9.94498 89.3302 9.65524 89.1599 9.46208C87.4947 9.50347 87.4001 10.1492 87.3569 10.461C86.4107 11.0957 85.1808 11.1646 84.3428 12.0063C84.3673 12.0484 84.3944 12.089 84.4239 12.1277C84.6942 12.1277 84.878 12.1498 86.6135 11.8048C87.8921 11.5454 89.0274 10.6183 90.4358 10.9356C90.3304 11.1867 90.3304 11.1867 90.0358 11.4157C90.9738 11.6061 93.9689 10.1216 93.6959 9.36826C93.5959 9.33791 93.4607 9.3048 93.358 9.28272C93.5824 8.95987 95.5638 7.6795 96.0099 7.57188C98.686 6.91238 99.6241 5.88864 99.6484 5.65685L99.5105 5.60718C101.989 4.94768 103.119 4.64414 103.89 4.12537C103.678 4.10985 103.465 4.13132 103.26 4.18884L109.156 2.32071C107.709 2.53319 107.623 2.54423 107.077 2.58286C108.464 2.20758 109.888 1.99234 111.278 1.63086C109.926 1.63086 107.693 1.9068 107.677 1.9068C107.661 1.9068 102.235 2.86708 101.076 3.31134C101.131 3.38939 101.206 3.45123 101.292 3.49071C100.975 3.59677 100.637 3.61674 100.311 3.54865C99.916 3.49898 95.2881 4.65242 94.8123 5.23466C95.0502 5.35883 95.0989 5.38642 97.1155 4.84834Z" fill="url(#paint13_radial_511_30)"/>
<path style="mix-blend-mode:color-dodge" d="M75.4653 14.3628C75.3598 14.5173 75.2923 14.6967 75.176 14.8374C74.9484 15.0916 74.6916 15.3167 74.411 15.5079C74.4678 15.3617 74.5435 15.1713 74.6029 15.025C74.6368 14.9536 74.6596 14.8773 74.6705 14.7988C74.6246 14.7739 74.1542 14.8264 73.6676 15.3369H73.8298C73.8312 15.3543 73.8312 15.3718 73.8298 15.3893C73.2703 15.8694 72.5269 15.9412 71.9105 16.3054C72.0051 16.3551 72.1025 16.2447 72.1998 16.3054C72.1214 16.4682 72.1214 16.4682 72.1295 16.5013C72.2376 16.5344 72.2376 16.5344 74.0218 15.9329C73.473 16.2475 71.9565 17.1084 71.8511 17.4754C71.8577 17.4828 71.8632 17.4912 71.8673 17.5002C71.8673 17.5002 73.8947 16.7386 74.1515 16.5952C74.3245 16.4958 74.3245 16.4958 75.4626 15.4914C75.4755 15.519 75.4822 15.5491 75.4822 15.5797C75.4822 15.6103 75.4755 15.6404 75.4626 15.668C75.4588 15.6789 75.4533 15.6892 75.4463 15.6983C75.9681 15.1906 75.9681 15.1906 77.3386 14.0261C77.6332 13.7806 77.6549 13.7502 77.7008 13.6812C77.6341 13.6591 77.5622 13.6591 77.4954 13.6812C77.4819 13.6812 75.7005 14.2331 75.522 14.3324C75.5012 14.3382 75.4818 14.3486 75.4653 14.3628Z" fill="url(#paint14_radial_511_30)"/>
<path style="mix-blend-mode:color-dodge" d="M94.9883 28.9408C95.8209 28.869 97.6537 31.2228 97.6726 31.2504C98.1078 31.8299 98.5619 32.4314 98.9755 32.3542C100.122 32.1334 101.836 27.6632 101.852 27.6163C101.903 27.4645 101.927 27.3048 101.925 27.1444L93.5448 25.2128C93.7799 25.0252 94.0043 24.8486 96.0182 23.9352C96.9022 23.5351 97.3428 23.3364 97.3131 23.1074C97.2455 22.4948 94.3017 19.6471 92.8717 19.4098C92.2364 19.3049 91.5633 19.5036 90.9497 19.1945C90.3361 18.8855 90.3793 17.7872 89.4845 17.7182C88.6736 17.6492 86.9003 18.3281 85.6108 18.822C84.3214 19.3159 84.2862 19.3159 84.0781 19.2966C83.9943 19.0814 83.8997 18.8579 83.8078 16.9125C83.2671 16.7 81.6209 16.987 81.1289 17.078C78.6095 17.6851 71.0973 24.1201 72.511 25.1107C73.9248 26.1013 78.7284 25.0804 79.388 24.7603C79.2907 24.3491 79.2312 24.0759 81.3343 23.8414C83.1185 23.6427 83.3834 23.2012 83.5618 22.9059C84.1189 23.2881 84.65 23.7085 85.1513 24.1642C85.7649 24.8348 86.0244 25.7426 86.5975 26.4435C87.322 27.3265 88.9844 27.2327 89.0007 28.8497C89.0007 28.8856 88.6411 32.5197 83.6807 34.0347C82.1967 34.49 80.5855 34.4017 79.1799 35.1688C78.5554 35.5027 78.5365 36.5761 78.7149 36.7361C78.9852 36.9845 79.8638 37.0949 82.4697 36.1842C84.462 35.4944 84.462 35.4944 88.0059 37.0838C87.7193 37.3929 87.7193 37.3929 86.2893 37.9392C87.0733 38.6429 93.1285 39.9315 94.3665 39.2306C94.3179 39.0402 94.3179 39.0402 94.0016 38.8857C93.8421 38.8057 93.8421 38.8057 91.147 36.2422C93.2501 36.474 93.9124 36.7499 95.1072 37.575C95.3397 37.7378 95.5073 37.8509 95.6208 37.8206C96.2966 37.6053 97.4239 35.0115 96.8805 34.4348C95.7046 33.1875 93.515 33.3503 92.8446 31.3994C92.2905 29.8017 94.9613 28.9408 94.9883 28.9408Z" fill="url(#paint15_radial_511_30)"/>
<path style="mix-blend-mode:color-dodge" d="M67.5938 16.7497C67.6667 16.8076 68.1344 16.5759 68.5182 16.3358C68.601 16.2867 68.6789 16.2294 68.7507 16.1647C68.7309 16.1625 68.711 16.1625 68.6912 16.1647C68.5101 16.242 67.6046 16.6724 67.5938 16.7497Z" fill="url(#paint16_radial_511_30)"/>
<path style="mix-blend-mode:color-dodge" d="M113.975 21.5676L115.254 21.3082C115.434 21.2283 115.582 21.0881 115.673 20.9109C115.692 20.8525 115.697 20.79 115.687 20.7293C115.676 20.6686 115.651 20.6115 115.614 20.5632C115.5 20.3673 115.268 20.3066 115.132 20.1327C115.069 20.0559 115.036 19.9573 115.04 19.8568C115.041 19.8465 115.039 19.8363 115.036 19.8268C115.032 19.8173 115.026 19.8087 115.019 19.8016C114.825 19.7168 114.61 19.6975 114.405 19.7464C113.829 19.8706 112.194 20.8502 113.086 21.4021C113.354 21.5629 113.669 21.6216 113.975 21.5676Z" fill="url(#paint17_radial_511_30)"/>
<path style="mix-blend-mode:color-dodge" d="M88.8818 17.0532L88.9088 17.0311C88.7763 16.8242 86.9922 16.2833 85.665 16.4792C84.5107 16.6752 84.8702 17.4699 85.1405 17.6961C86.0164 18.4384 88.8412 17.0698 88.8818 17.0532Z" fill="url(#paint18_radial_511_30)"/>
<path style="mix-blend-mode:color-dodge" d="M79.8743 10.9273C79.5027 11.0654 79.1414 11.2304 78.793 11.4213C78.8501 11.4134 78.9062 11.3995 78.9606 11.3799C79.3259 11.2642 79.7088 11.2175 80.0905 11.2419C80.0391 11.4461 79.7607 11.4406 79.7121 11.6503C79.7851 11.7496 80.7501 11.3523 80.8204 11.3137C81.1664 11.126 82.2909 10.1299 82.2909 9.93394C82.1422 9.88428 82.0206 10.0167 81.88 10.014C82.0071 9.7601 82.318 9.7739 82.4774 9.5697C82.4531 9.5697 82.4531 9.5697 82.3774 9.5835C81.5151 9.87979 80.6749 10.2395 79.8634 10.6597C80.0905 10.7259 80.2879 10.5576 80.5095 10.5769C80.5257 10.6569 80.4095 10.7231 79.8743 10.9273Z" fill="url(#paint19_radial_511_30)"/>
<path style="mix-blend-mode:color-dodge" d="M75.0165 16.3855C74.7732 16.5621 74.6921 16.6228 75.0652 16.8573C75.3869 17.0615 76.1924 16.8766 76.8871 16.2751C77.2818 15.9274 78.0955 15.0775 77.7224 15.0416C77.6703 15.0422 77.6186 15.0496 77.5684 15.0637C76.925 15.2458 75.1247 16.311 75.0165 16.3855Z" fill="url(#paint20_radial_511_30)"/>
<path style="mix-blend-mode:color-dodge" d="M86.0189 10.2402C86.0141 10.2315 86.0087 10.2232 86.0026 10.2154C85.9735 10.2188 85.9446 10.2243 85.9162 10.2319L85.835 10.2568C85.316 10.4141 84.8132 10.6238 84.2996 10.7838C83.7022 10.966 83.0886 11.0874 82.4912 11.2778C82.2258 11.3487 81.9664 11.441 81.7153 11.5537C82.675 11.4646 83.6255 11.292 84.5564 11.0377C85.0369 10.9092 85.4854 10.6788 85.8729 10.3616C85.9253 10.3261 85.9742 10.2854 86.0189 10.2402Z" fill="url(#paint21_radial_511_30)"/>
<path style="mix-blend-mode:color-dodge" d="M81.7046 11.1674C81.7046 11.1674 81.7046 11.1812 81.7208 11.1867C81.9127 11.1619 83.6969 10.4003 84.2105 10.1547C84.4375 10.0471 84.4808 10.0029 84.4808 9.90634C84.4808 9.80976 84.3132 9.84288 84.3051 9.7325C84.3051 9.68283 84.3375 9.62764 84.3051 9.57521C84.3074 9.56804 84.3074 9.56031 84.3051 9.55314C84.2851 9.52951 84.2588 9.51227 84.2294 9.50347C84.1497 9.47892 84.0638 9.48582 83.9888 9.52278C83.8934 9.56397 83.8027 9.61579 83.7185 9.67731C83.3265 9.95325 83.0697 10.4141 82.5994 10.5907C82.0128 10.8087 81.8154 10.8832 81.7046 11.1674Z" fill="url(#paint22_radial_511_30)"/>
<path style="mix-blend-mode:color-dodge" d="M85.8434 8.43003C87.1058 7.78984 87.1112 7.77605 87.1301 7.74017C87.0859 7.74032 87.0421 7.74778 87.0003 7.76225C87.0003 7.76225 85.7298 8.17892 85.3622 8.36104C84.9405 8.57352 85.0919 8.71976 85.0919 8.71976C85.1703 8.76667 85.4649 8.62319 85.8434 8.43003Z" fill="url(#paint23_radial_511_30)"/>
<path style="mix-blend-mode:color-dodge" d="M88.565 7.83403C89.1057 7.66847 89.2733 7.62432 89.4544 7.69882C89.4525 7.72076 89.447 7.74221 89.4382 7.76229C89.161 7.90608 88.8691 8.01806 88.5677 8.09618C87.1107 8.56804 86.7403 8.73912 86.6484 8.79983C86.3213 9.00679 86.2889 9.40138 86.4295 9.46761C86.47 9.48417 86.47 9.48417 87.3999 9.21098C87.7703 9.10061 88.1676 9.19167 88.538 9.0537C89.4381 8.72257 90.2086 8.12101 91.079 7.72642C91.6197 7.48083 92.2171 7.40909 92.7469 7.1359C92.7889 7.11476 92.8272 7.0868 92.8604 7.05312C92.8334 7.02553 92.8334 7.02553 92.4387 6.93446C92.4345 6.92111 92.429 6.90818 92.4225 6.89583C92.5096 6.84311 92.5999 6.79611 92.6928 6.7551C93.4362 6.39914 93.4416 6.36879 93.4551 6.28876C93.374 6.26945 93.2849 6.28876 93.2146 6.23081C93.3281 6.06801 93.6119 6.01834 93.5525 5.73964C93.712 5.54924 93.9661 5.48025 94.1147 5.27606C94.0616 5.27191 94.0083 5.27191 93.9552 5.27606C92.4229 5.7515 90.9191 6.31815 89.4517 6.9731C89.6249 6.97863 89.7978 6.95342 89.9626 6.89859C89.7193 7.10831 89.0462 7.26559 88.7569 7.32906C88.1869 7.44991 87.6637 7.73756 87.2512 8.15689C87.3513 8.2038 88.4407 7.87267 88.565 7.83403Z" fill="url(#paint24_radial_511_30)"/>
<path style="mix-blend-mode:color-dodge" d="M78.1741 16.4324C78.2552 16.4324 87.384 15.4721 89.798 13.0245C90.4549 12.3595 88.8356 12.2629 88.8194 12.2629C87.9787 12.2408 83.8779 13.684 83.0264 14.0372C82.2695 14.349 81.6748 13.6288 81.837 13.4412C81.9073 13.3584 82.0289 13.317 82.31 13.2342C83.7887 12.8092 83.0561 12.3319 82.8966 12.3236C82.5128 12.3015 82.183 12.5361 81.8154 12.5802C81.3828 12.6354 80.9638 12.4698 80.534 12.5168C80.2531 12.5483 79.9743 12.5962 79.6987 12.6602C79.4717 12.7568 78.7553 13.5184 78.7634 13.7061C78.9579 13.7026 79.1494 13.6574 79.3257 13.5736C79.7312 13.4301 80.2962 13.2314 80.407 13.2977C80.6341 13.4494 79.9069 14.4014 79.8663 14.4373C79.4203 14.8623 78.785 15.0223 78.385 15.4969C77.5983 16.4434 77.92 16.4379 78.1741 16.4324Z" fill="url(#paint25_radial_511_30)"/>
<path style="mix-blend-mode:color-dodge" d="M260.885 131.555C260.682 127.847 260.506 122.891 260.133 119.196C259.974 118.092 259.825 117.065 259.687 116.113C258.817 113.177 258.741 112.706 257.035 102.316C257.054 102.355 257.081 102.41 257.103 102.449C252.929 88.3124 252.929 88.3124 252.862 87.6308L252.918 87.6915C251.451 83.2764 250.756 81.7587 248.774 77.3547L244.317 68.4335C243.016 66.6467 241.403 65.1208 239.559 63.9329C241.422 65.096 243.039 66.6259 244.317 68.4335C242.597 65.5665 240.397 61.6895 238.567 58.8997C230.728 47.9807 230.582 47.771 225.724 42.4371L220.528 37.0838V37.0672C220.331 36.8851 220.139 36.703 219.936 36.5154C220.161 36.8244 220.245 36.9403 222.402 39.2223C222.028 38.9749 221.667 38.7078 221.32 38.4221C221.926 39.548 223.018 40.1826 223.872 41.0601L223.675 41.1981C220.053 38.182 216.974 34.5589 213.316 31.5898C215.144 32.7487 216.584 34.4706 218.574 35.4033C218.106 34.5341 212.548 29.6306 208.891 27.3734C206.261 25.7536 205.977 25.4832 205.701 25.2211C205.868 25.2748 206.03 25.3403 206.188 25.417C205.82 25.1058 205.425 24.8287 205.009 24.5892C204.952 24.6361 204.877 24.6995 204.817 24.7437C204.585 24.6526 204.136 24.4677 202.384 23.2646C202.541 23.3253 202.747 23.4026 202.906 23.4468C202.609 22.7321 199.392 21.2392 199.159 21.162C199.308 21.5372 199.308 21.5372 199.843 22.1747C198.727 21.7773 198.165 20.577 197.056 20.1713C197.265 20.6901 197.816 20.9329 198.03 21.4434C197.627 22.343 197.627 22.343 197.694 22.8921C197.8 23.7199 200.381 28.3585 200.398 28.3971C202.325 31.4325 202.249 32.4756 202.236 32.5859C201.86 35.395 201.86 35.395 200.343 36.4988C199.803 36.9072 199.803 37.1031 200.1 37.8426C200.141 37.9447 204.182 47.6027 207.915 45.8449C209.115 45.2765 208.518 43.2511 208.226 42.277C208.537 42.5033 215.217 49.2859 216.465 51.4272C217.057 52.4455 217.62 53.4057 218.644 53.4113C218.852 53.0305 218.955 50.3483 218.309 49.1204C216.82 46.3002 217.163 45.9829 217.914 45.2737C217.939 44.5977 217.86 44.3438 215.922 43.0331C214.571 42.128 214.571 42.128 212.759 39.1258C212.065 37.9806 213.214 36.5402 212.186 35.453C209.507 32.608 209.507 32.608 209.426 32.4452C209.38 32.3404 209.324 32.1969 209.275 32.092L209.41 31.8795C210.405 32.2162 213.735 34.4651 213.979 35.166C213.897 35.166 213.787 35.1853 213.708 35.1936C216.292 41.0794 216.292 41.0794 218.736 43.4001C220.866 45.4283 224.11 45.122 226.257 47.1281C225.902 47.0375 225.559 46.9051 225.235 46.7335L225.027 46.8659C225.156 47.1281 225.332 47.3571 225.483 47.6054C224.24 47.2384 223.051 46.6866 221.753 46.5017C223.169 48.4885 225.189 49.973 226.292 52.2192C224.902 52.164 224.805 50.0944 223.302 50.2131L223.153 50.4532C223.169 50.478 224.851 53.6293 225.024 53.8528C225.251 54.1453 226.389 55.6381 226.311 56.3004C225.456 56.2231 225.456 56.2231 225.291 56.2645C225.173 56.5404 225.132 56.8329 225.021 57.0923C225.062 57.153 225.121 57.2303 225.164 57.291H225.137C221.202 57.0151 221.202 57.0151 221.174 57.3959L220.634 57.738C219.714 57.2471 218.724 56.9072 217.701 56.7308L219.593 57.0702C218.824 56.4605 217.86 56.1654 216.89 56.2424C216.368 56.2673 216.249 56.2755 214.784 54.5619C213.703 53.3036 212.44 51.4714 212.505 49.9013C212.53 49.2528 211.57 46.5127 210.856 46.4355C210.77 46.4355 208.729 46.4189 209.08 47.4371C209.229 47.8731 211.848 52.542 213.705 54.7358C214.462 55.6216 214.498 55.7402 214.516 55.7982C214.422 55.903 214.4 55.9251 213.843 56.0355C213.449 56.1045 212.922 56.1927 212.527 56.2562C212.408 56.4218 212.257 56.6425 212.138 56.8081C210.053 56.7446 210.053 56.7446 209.486 57.3158C209.714 58.5587 210.05 59.7786 210.489 60.961L210.153 61.5653C208.413 61.5239 208.413 61.5239 207.431 61.8965C207.431 61.993 207.431 61.993 208.186 63.8667C207.731 64.1773 207.237 64.4242 206.718 64.6007C206.702 65.0922 206.598 65.5766 206.412 66.0301C204.406 65.928 204.085 65.6824 203.209 65.0312C203.457 65.4651 203.728 65.8852 204.02 66.2895C203.958 66.4881 203.871 66.7586 203.809 66.96C203.362 67.1563 202.901 67.3186 202.43 67.4457C201.457 66.8082 201.457 66.8082 199.889 66.7668C199.806 66.9545 199.692 67.2056 199.619 67.3932L200.93 68.5715L200.389 68.9661C209.794 71.6317 208.315 81.2758 208.264 81.3614C203.882 81.0413 199.662 79.7057 195.305 79.2532C195.546 79.6785 195.828 80.0778 196.148 80.4453C196.148 80.5612 196.629 92.4791 198.13 92.9289C197.724 96.6044 197.724 96.6044 197.648 96.9438C200.692 96.701 201.325 96.6513 202.633 96.9438C203.133 99.0465 203.133 99.0465 203.174 99.0879L210.305 96.6734C212.275 96.4223 212.77 93.8753 211.705 92.1617C212.84 87.3742 212.897 87.3493 215.836 86.1711C215.876 82.3079 215.876 82.3079 216.195 82.0319C217.547 80.8785 218.628 82.7245 219.885 82.7301C221.045 80.6301 222.007 79.267 223.821 80.8619C223.91 80.942 233.863 92.6088 234.845 95.8787C235.585 98.3484 235.242 98.398 231.041 98.9885C231.852 100.412 234.409 102.664 234.428 102.672C234.788 101.511 234.077 100.39 234.291 99.2341C234.48 99.2562 234.728 99.2921 234.912 99.3169C235.453 98.5167 235.653 97.5619 236.142 96.7451C235.515 94.5183 235.515 94.5183 235.534 93.7098L236.169 93.5415C236.423 93.8974 236.761 94.3693 237.023 94.7197C236.813 93.6739 236.813 93.6739 233.444 89.5431L233.598 88.8808C232.014 88.1606 230.763 87.5922 226.543 78.7896C226.781 78.4243 227.117 78.1368 227.511 77.9618L237.078 89.4382C237.113 89.4934 237.113 89.4934 239.959 97.8544L242.989 104.946C243.046 104.488 243.076 104.028 243.079 103.566C243.079 101.88 242.446 100.321 242.124 98.6988C241.089 93.4366 241.089 93.4366 241.584 93.042C242.508 93.2462 244.444 94.4217 244.849 95.9532C245.062 95.5518 245.242 95.1338 245.39 94.7032L246.068 94.6618C246.698 89.8659 243.344 85.7213 243.927 80.9364C244.327 80.8176 244.753 80.84 245.139 80.9999C245.057 81.1738 244.949 81.4138 244.868 81.5904C245.281 82.1302 245.799 82.5766 246.39 82.9011C246.59 83.7455 246.59 83.7455 246.371 85.0562C246.985 85.7627 247.269 86.6788 247.801 87.4349C250.064 86.0993 246.685 83.74 247.355 81.7891C248.363 81.5711 248.536 81.9105 248.828 82.7025L248.496 83.3233C248.85 83.8973 248.85 83.8973 249.369 85.9613L248.993 86.5132C250.615 90.6192 254.319 93.8174 254.17 98.7126L253.602 99.0327C251.651 97.6971 251.753 93.2793 248.585 94.1264C248.545 94.5592 248.378 94.9697 248.107 95.3047C247.728 95.1778 247.22 95.0288 246.836 94.9405C246.941 95.3509 247.15 95.7259 247.442 96.0277C246.715 96.6596 245.733 96.276 244.949 96.6762C244.872 97.1919 244.841 97.7138 244.857 98.2352L245.46 98.4146C245.774 100.868 246.363 105.432 249.323 107.976L249.783 107.501C249.783 107.303 249.766 107.041 249.758 106.842C250.723 107.67 251.04 109.049 252.159 109.736C252.308 109.308 252.407 108.864 252.453 108.412C252.766 108.724 253.133 108.974 253.535 109.149C254.024 118.437 254.1 119.864 253.105 122.369C251.799 122.259 251.586 121.972 251.164 120.664C250.751 120.69 250.36 120.858 250.053 121.141C245.706 120.816 246.104 114.364 241.562 114.29C240.719 115.829 241.384 117.601 240.803 119.193L240.184 119.45C239.243 118.746 229.268 109.485 228.56 108.277C228.341 107.899 228.638 107.217 228.868 106.847C229.408 105.964 229.408 105.964 228.995 100.481C228.366 100.04 227.713 99.6364 227.038 99.2728C226.159 99.9543 226.159 99.9543 222.507 99.0989C222.168 99.4299 221.869 99.8004 221.615 100.203C216.876 98.318 213.046 103.616 208.337 101.952C207.818 101.908 207.729 101.902 207.637 101.902C206.301 102.178 205.85 102.272 204.393 100.501C204.31 100.429 204.219 100.367 204.123 100.316C203.913 100.484 203.716 100.669 203.533 100.868C202.647 101.971 203.317 103.542 202.452 104.654C201.371 106.033 199.349 106.014 198.354 107.518C198.054 107.962 198.194 108.76 198.17 109.298C197.87 115.139 197.87 115.139 196.329 115.901C194.945 116.583 192.564 118.465 192.274 118.936C191.415 120.344 185.1 131.53 185.1 131.539C184.83 134.527 186.779 137.044 186.827 139.966C186.868 142.419 183.44 143.581 184.527 146.42C186.149 150.675 188.401 154.621 190.325 158.73C191.136 160.455 197.205 166.374 198.357 166.263C204.069 165.711 209.586 163.504 215.436 164.16C215.645 164.21 215.838 164.316 215.995 164.467C217.049 165.369 216.295 166.997 217.325 167.908C218.355 168.818 219.653 168.363 220.788 168.736C221.539 171.059 221.539 171.059 220.604 173.294C230.441 175.151 236.648 176.84 241.13 179.067C236.715 176.876 230.338 175.129 220.604 173.294C218.012 179.517 218.012 179.517 218.409 181.296C219.036 184.1 219.893 187.941 216.379 196.371C214.757 200.251 211.667 203.101 209.534 206.62C207.548 209.895 207.32 213.869 205.48 217.202C198.338 230.171 198.132 230.397 196.986 231.603C196.208 232.431 195.78 232.87 194.972 234.746C198.632 235.903 202.936 232.911 204.352 231.929L210.029 227.851L217.198 222.014C218.82 220.293 219.782 218.044 221.523 216.41C223.505 214.539 226.148 213.651 228.103 211.719C232.774 207.155 237.113 198.099 237.564 196.97C239.373 192.461 245.558 185.562 247.39 183.576C250.272 180.309 254.148 171.743 255.105 168.399C254.37 168.156 254.37 168.156 253.083 168.435C252.794 168.024 252.794 168.024 253.397 162.659C253.621 160.673 253.181 158.716 253.145 156.74C253.045 151.608 254.024 146.506 253.575 141.365L252.243 125.178C252.559 125.68 252.559 125.68 252.894 128.02C253.25 127.667 253.499 127.217 253.61 126.723C256.854 138.939 253.416 151.188 253.802 163.424C255.113 162.797 255.113 162.797 255.695 162.93C259.165 155.289 259.166 155.289 259.333 154.304L259.225 155.027C259.301 154.627 259.398 154.089 259.46 153.683L259.528 153.233L259.909 150.41C260.063 149.119 260.26 147.502 260.555 143.109C260.555 143.341 260.555 143.561 260.536 143.771C260.663 139.955 260.909 135.211 260.885 131.555ZM260.074 145.714C259.822 145.162 259.822 145.162 260.006 140.565C259.882 142.022 259.882 142.022 259.801 142.665C259.46 132.706 259.603 131.795 259.801 130.523C260.368 131.401 260.612 138.766 260.517 143.004C260.331 144.751 260.266 145.024 260.071 145.714H260.074Z" fill="url(#paint26_radial_511_30)"/>
<path style="mix-blend-mode:color-dodge" d="M257.249 102.203C257.289 102.369 257.343 102.59 257.378 102.755L258.03 105.724C258.03 105.677 258.006 105.622 257.992 105.578C258.222 107.341 258.562 109.085 258.903 110.821C257.906 104.303 257.551 102.965 256.065 97.5344C255.794 96.6927 255.548 95.9035 255.316 95.1613C256.843 100.49 256.892 100.71 257.538 103.517C257.443 103.081 257.346 102.65 257.249 102.203Z" fill="url(#paint27_radial_511_30)"/>
<path style="mix-blend-mode:color-dodge" d="M254.919 93.7926C254.981 93.9609 255.043 94.132 255.111 94.2948C254.919 93.6574 254.662 93.0365 254.527 92.3798C254.6 92.5867 254.673 92.7964 254.738 93.0089L253.191 88.3317L253.21 88.3952C253.139 88.1513 253.041 87.9162 252.918 87.6943C253.527 89.5403 254.27 91.8775 255.316 95.1668C255.195 94.7418 255.062 94.2893 254.919 93.7926Z" fill="url(#paint28_radial_511_30)"/>
<path style="mix-blend-mode:color-dodge" d="M259.806 116.536C259.614 114.604 259.266 112.719 258.903 110.826C259.122 112.292 259.379 114.022 259.687 116.113C259.725 116.251 259.768 116.387 259.806 116.536Z" fill="url(#paint29_radial_511_30)"/>
<path style="mix-blend-mode:color-dodge" d="M185.557 54.0625C185.545 54.1019 185.528 54.1398 185.508 54.1756C185.019 55.1497 184.665 57.0123 184.662 57.0289C184.541 57.7767 184.581 58.1326 184.827 58.4389C185.246 58.9522 187.184 58.737 188.595 57.8125C188.955 57.578 189.282 57.3076 189.66 57.1117C190.104 56.8854 190.696 57.051 191.039 56.5598C191.234 56.2838 191.153 55.6436 190.807 54.6585C190.658 54.2506 190.452 53.8667 190.196 53.5189C189.828 52.967 189.806 52.7628 190.052 52.1861C190.234 51.8235 190.284 51.4074 190.196 51.0106C190.06 50.5666 189.772 50.1874 189.385 49.9427C189.213 49.8269 189.032 49.7254 188.844 49.6392C188.395 49.4212 187.906 49.3135 187.457 49.1038C187.27 49.0288 187.101 48.914 186.96 48.7672C186.919 48.7258 186.914 48.7175 186.871 48.7203C186.749 48.7506 183.816 49.4984 185.66 50.547C185.793 50.6297 185.947 50.6736 186.103 50.6739C186.021 50.7413 185.93 50.7962 185.833 50.8367C184.616 51.4438 184.33 51.7446 184.051 52.0343C183.912 52.1768 183.81 52.352 183.753 52.5445C183.696 52.737 183.686 52.9408 183.724 53.1381C183.777 53.2971 183.863 53.4426 183.976 53.5649C184.089 53.6872 184.226 53.7835 184.378 53.8473C184.757 54.0349 185.173 53.9604 185.557 54.0625Z" fill="url(#paint30_radial_511_30)"/>
<path style="mix-blend-mode:color-dodge" d="M63.7604 18.9103C63.4765 19.062 61.1409 20.4445 61.022 20.6018C61.1463 20.5935 61.2707 20.5935 63.7604 18.9103Z" fill="url(#paint31_radial_511_30)"/>
<path style="mix-blend-mode:color-dodge" d="M247.398 110.426L247.46 110.396C247.46 110.382 247.46 110.36 247.46 110.346C247.46 110.333 246.341 108.876 246.341 108.873C246.212 108.724 246.044 108.616 245.857 108.561C245.489 108.511 245.123 108.439 244.763 108.346C244.133 108.1 244.133 108.1 244.079 108.106C243.789 108.122 243.708 108.365 243.881 108.671C244.243 109.325 246.733 110.653 247.398 110.426Z" fill="url(#paint32_radial_511_30)"/>
<path style="mix-blend-mode:color-dodge" d="M223.788 92.5674C224.016 92.824 224.505 92.6999 224.599 93.1524C224.686 93.5608 224.526 93.9802 224.637 94.3859C224.66 94.4899 224.712 94.5849 224.787 94.6593C224.862 94.7337 224.956 94.7845 225.059 94.8053C225.329 94.8743 226.681 94.4273 226.716 93.3152C226.714 93.1768 226.704 93.0385 226.686 92.9013C226.619 92.4377 226.448 91.9962 226.381 91.5216C226.313 91.047 226.343 90.5227 226.273 90.026C226.162 89.2423 225.886 89.1513 225.616 89.1237C225.178 89.1237 224.116 89.5458 223.74 90.2578C223.502 90.691 223.459 92.2059 223.788 92.5674Z" fill="url(#paint33_radial_511_30)"/>
<path style="mix-blend-mode:color-dodge" d="M217.014 92.3494C217.014 92.3494 217.555 91.7175 217.555 91.6872C217.603 91.4609 217.217 91.2732 216.544 91.196C215.811 91.1215 214.651 91.2815 215.095 91.8224C215.556 92.2121 216.121 92.4531 216.717 92.515C216.775 92.5094 216.831 92.4918 216.882 92.4634C216.933 92.4349 216.978 92.3961 217.014 92.3494Z" fill="url(#paint34_radial_511_30)"/>
<path style="mix-blend-mode:color-dodge" d="M223.772 86.0717C223.701 86.1184 223.646 86.1858 223.614 86.2651C223.582 86.3445 223.574 86.4319 223.591 86.516C223.629 86.6542 223.694 86.7829 223.783 86.894C223.783 86.894 224.845 88.1716 224.918 88.202C225.159 88.0861 224.937 86.1738 224.729 85.1859C224.729 85.1694 224.391 83.6682 224.188 83.5303H224.161C224.128 83.5743 224.106 83.6267 224.099 83.682C224.089 83.7136 224.082 83.7459 224.078 83.7786C223.996 84.2588 224.156 84.7223 224.156 85.1997C224.168 85.3662 224.139 85.533 224.072 85.6852C224.005 85.8374 223.902 85.9702 223.772 86.0717Z" fill="url(#paint35_radial_511_30)"/>
<path style="mix-blend-mode:color-dodge" d="M251.761 113.831C251.983 113.884 252.21 113.905 252.437 113.892C252.532 113.793 252.659 112.363 252.659 112.35C252.662 112.32 252.662 112.291 252.659 112.261C252.659 112.107 252.624 112.099 252.586 112.085C252.405 112.085 252.251 112.209 252.07 112.206C251.934 112.198 251.803 112.155 251.688 112.079C251.526 111.977 251.418 111.803 251.24 111.718C251.201 111.695 251.155 111.688 251.111 111.699C251.067 111.71 251.029 111.737 251.005 111.776C250.834 111.999 251.005 113.106 251.44 113.605C251.521 113.713 251.634 113.792 251.761 113.831Z" fill="url(#paint36_radial_511_30)"/>
<path style="mix-blend-mode:color-dodge" d="M50.6093 28.9214L50.6553 28.9711C50.7107 28.9623 50.7634 28.9406 50.8093 28.9076C51.5554 28.3834 52.2015 27.7321 52.9422 27.2023C54.2938 26.2476 55.7292 25.4556 57.0538 24.4705C57.3592 24.2387 57.3593 24.2387 57.7512 23.4937L57.7161 23.4109C57.2511 23.5102 56.9051 23.8441 56.505 24.0621C56.8429 23.7613 56.8429 23.7613 56.897 23.5102L56.8429 23.4799C56.7943 23.4937 56.7321 23.5102 56.6834 23.5295C55.0318 24.236 55.0318 24.236 47.7628 30.3481C47.0444 30.8808 46.4728 31.5936 46.103 32.4176L46.1652 32.448C47.898 31.6201 49.1198 30.0942 50.6093 28.9214Z" fill="url(#paint37_radial_511_30)"/>
<path style="mix-blend-mode:color-dodge" d="M60.8223 21.8656C61.0034 21.8849 61.5846 21.5538 62.1496 21.2309C64.4014 19.9395 65.5529 19.4346 65.5583 19.4318C66.2945 19.1887 67.0165 18.9031 67.7209 18.5764C68.2616 18.2839 70.3566 16.8021 70.3755 16.7855C70.7783 16.5096 70.8053 16.4516 70.8513 16.3716C70.6326 16.3819 70.4194 16.4452 70.2295 16.5565C69.5916 16.9235 69.0401 17.434 68.4049 17.8093C69.1915 17.0118 70.1133 16.3716 70.8783 15.5521H70.7945C70.7675 15.5521 68.1643 16.9318 68.0913 17.3015C68.0318 17.5775 67.6804 18.2563 65.6908 18.7282L65.634 18.6812C65.6812 18.6195 65.7327 18.5614 65.7881 18.5074C65.8057 18.4913 65.822 18.4738 65.8368 18.455C66.1071 18.1514 67.0316 17.9693 66.6478 17.5388C66.5964 17.5388 61.2683 20.1796 61.2251 20.9329C61.2494 20.9495 61.2494 20.9495 63.8012 19.5035C63.5309 19.9395 63.066 20.0858 62.7037 20.3783C62.7686 20.3783 62.7848 20.3783 63.4093 20.0334C63.776 19.8343 64.1585 19.6672 64.5528 19.5339C63.4064 20.2409 62.2203 20.8785 61.0007 21.4434C60.6195 21.6145 60.6142 21.8408 60.8223 21.8656Z" fill="url(#paint38_radial_511_30)"/>
<path style="mix-blend-mode:color-dodge" d="M45.9951 35.3454C46.3816 35.442 46.6763 35.0943 47.0439 35.1136C47.0628 35.1357 47.0818 35.1605 47.1007 35.1798C46.9331 35.6489 46.4979 35.9194 46.2681 36.3443C46.7114 36.3443 50.2905 34.7245 52.3206 33.0578C52.9748 32.5225 53.2451 32.299 53.6073 32.1583L53.6857 32.2079C53.609 32.3326 53.5447 32.4648 53.4938 32.6025C53.6668 32.7736 55.0265 33.0744 55.0346 33.0744C56.3133 32.6357 56.3133 32.6357 57.5595 31.2118C57.5808 31.1883 57.6007 31.1634 57.6189 31.1373C57.4838 31.1125 57.4838 31.1125 56.2997 31.7637C56.4295 31.3332 57.6784 30.384 58.5326 30.4116C58.8381 30.4281 58.9002 30.4116 59.0111 30.326C59.0111 30.326 59.6653 29.719 59.5517 29.1754C58.8813 28.7863 58.6002 28.0274 58.9597 27.5804C59.2706 27.1858 62.0279 23.7172 61.9657 23.4413C61.8409 23.3878 61.7115 23.3462 61.5791 23.3171L61.5251 23.1791C61.5154 23.1889 61.5045 23.1973 61.4926 23.204C60.2194 24.3077 59.3463 25.8447 57.8541 26.7139C57.7108 26.0848 58.3434 25.8861 58.5272 25.4336L58.4137 25.3536C57.8271 25.5771 57.3324 26.0296 56.7133 26.1814C56.8863 25.9054 57.1864 25.7233 57.3351 25.4143L57.2729 25.348C56.443 25.6047 55.8213 26.2669 55.0184 26.5787C55.5131 25.8806 56.3295 25.5688 56.8917 24.9479C56.3889 25.0004 49.8391 29.3216 49.9958 30.1273C50.0846 30.1651 50.1697 30.2113 50.2499 30.2653C50.1229 30.4833 50.1175 30.4916 49.3417 30.9717C48.0387 31.7747 47.99 31.9348 47.99 32.1252C48.0644 32.16 48.1475 32.1706 48.2279 32.1555C48.9524 32.0093 49.5444 31.5153 50.2689 31.3525C50.7798 31.2366 51.2934 31.4657 51.807 31.3525C50.8906 32.0727 49.6688 32.4563 49.1497 32.6081C45.7139 33.6456 45.3841 35.1936 45.9951 35.3454Z" fill="url(#paint39_radial_511_30)"/>
<path style="mix-blend-mode:color-dodge" d="M75.9523 41.6838C76.0631 41.3885 75.7712 41.4078 75.5414 41.4354C75.5414 41.4354 74.5439 41.6258 74.2925 41.9376C73.9357 42.3874 74.0221 43.0193 74.1789 43.149C74.5547 43.4663 75.8009 42.0949 75.9523 41.6838Z" fill="url(#paint40_radial_511_30)"/>
<path style="mix-blend-mode:color-dodge" d="M74.2841 39.2334C74.3778 39.1937 74.4577 39.1265 74.5139 39.0402C74.5477 38.9115 74.5483 38.7759 74.5156 38.6468C74.4829 38.5177 74.4181 38.3994 74.3273 38.3035C74.1111 38.0965 73.8245 37.9779 73.6218 37.7516C73.265 37.368 73.0812 36.8465 72.6649 36.5099C72.5942 36.4546 72.5201 36.4039 72.4432 36.3581C72.0323 36.0987 71.5187 36.1429 71.1078 35.8862C70.8375 35.7207 70.8375 35.3344 70.5672 35.1853C70.5287 35.1715 70.4867 35.1715 70.4482 35.1853C70.0725 35.3675 68.7993 37.1997 68.7452 37.2742C68.5803 37.5115 68.3749 37.8261 68.2235 38.0827L66.8286 40.3841C67.6558 40.4531 67.6558 40.4531 67.7207 40.8808C67.8018 41.4327 67.8018 41.4327 67.8802 41.4078C67.9586 41.383 68.2154 41.2036 68.6695 40.8146C69.3183 40.2627 70.4131 39.3134 71.6917 39.1589C72.5567 39.0678 73.4109 39.548 74.2841 39.2334Z" fill="url(#paint41_radial_511_30)"/>
<path style="mix-blend-mode:color-dodge" d="M71.9916 40.809C71.9727 40.809 70.1399 41.2174 69.5425 41.692C69.1856 41.968 69.1316 42.7654 69.3316 42.9117C69.7155 43.1876 72.0348 41.8079 72.4403 41.1484C72.5728 40.9359 72.6052 40.7069 71.9916 40.809Z" fill="url(#paint42_radial_511_30)"/>
<path style="mix-blend-mode:color-dodge" d="M67.2718 146.166C66.5744 146.442 66.9744 147.576 67.4015 147.734C67.6935 147.841 69.5101 148.189 69.4722 147.416C69.4479 146.956 68.1855 145.973 67.2718 146.166Z" fill="url(#paint43_radial_511_30)"/>
<path style="mix-blend-mode:color-dodge" d="M193.993 53.5685C193.864 53.5851 193.885 53.6568 193.92 53.7921L194.799 53.861C194.551 53.7125 194.278 53.6133 193.993 53.5685Z" fill="url(#paint44_radial_511_30)"/>
<path style="mix-blend-mode:color-dodge" d="M108.869 63.0554C109.707 61.9517 110.077 61.1956 109.966 60.8479C109.918 60.8272 109.865 60.8169 109.812 60.8175C109.353 60.9748 108.136 62.0344 107.193 63.2182C106.052 64.6504 105.274 66.3364 104.155 67.7851C103.554 68.5549 102.727 69.0985 102.168 69.9043C101.951 70.2161 102.124 70.3016 102.216 70.3513C102.362 70.4286 102.362 70.4286 105.752 70.71C107.394 70.7998 109.024 71.0521 110.618 71.4634C110.807 71.5271 111 71.5751 111.196 71.6069C111.737 71.64 112.316 71.0798 112.851 71.6538C113.121 71.9297 113.143 72.4623 113.162 72.81C113.181 73.1576 113.356 73.2183 113.459 73.2073C114 73.1411 114.673 72.076 114.74 71.1709C114.846 69.7167 113.764 67.4622 112.678 66.2674C112.116 65.6465 112.116 65.6465 110.123 66.0908C109.518 66.2232 109.385 66.0908 109.247 65.5775C108.977 64.6007 108.747 64.4324 108.38 64.2365C108.185 64.1344 108.185 64.0681 108.28 63.8722C108.454 63.5842 108.651 63.3111 108.869 63.0554Z" fill="url(#paint45_radial_511_30)"/>
<path style="mix-blend-mode:color-dodge" d="M188.03 45.0392C188.139 45.7457 187.609 46.4052 187.882 47.1226C188.095 47.2054 188.541 47.153 189.485 46.4272C189.828 46.1513 190.125 45.9278 190.358 46.0602C191.323 46.6121 190.204 47.669 190.534 48.4416C191.207 50.009 191.993 50.2214 192.994 50.4919C194.556 50.9085 194.756 50.9637 195.045 51.1651C195.094 51.419 194.951 51.6812 195.086 51.9295C195.508 52.6911 196.248 53.2126 196.621 54.0156C196.819 54.8435 195.832 54.3606 195.107 54.0156C194.799 53.8666 194.799 53.8666 193.921 53.7976C194.275 54.8379 195.424 55.3457 195.653 56.4687C195.778 57.0758 195.224 57.3959 194.426 57.7877C194.218 57.8898 193.886 58.0471 194.013 58.2927C194.075 58.4197 194.426 58.8446 196.327 58.7784C197.138 58.7563 198.811 58.7094 198.857 59.2668C198.895 59.78 198.513 59.7745 197.935 59.7607C197.761 59.7389 197.585 59.7595 197.42 59.8209C197.256 59.8824 197.108 59.9828 196.989 60.1139C196.581 60.4947 196.516 61.0825 196.159 61.4936C195.718 62.0041 195.113 62.3215 194.659 62.8071C194.659 62.8568 194.675 62.9203 194.68 62.9672C194.934 63.0306 194.934 63.0306 198.562 62.5643C200.398 62.3297 202.252 62.476 204.088 62.2056C204.11 62.2078 204.133 62.2078 204.155 62.2056L207.304 61.1184C207.321 61.0835 207.333 61.0463 207.339 61.008C206.685 60.3457 205.85 60.9335 205.136 60.6741C204.798 59.7028 205.677 58.817 205.32 57.8512C204.674 56.1211 204.006 56.1542 203.468 56.1818C202.247 56.248 201.414 54.504 201.414 54.4847C201.425 54.4582 201.438 54.4324 201.452 54.4075C201.528 54.3826 201.528 54.3826 202.484 54.5979C202.917 54.7524 203.509 54.9649 203.466 54.7414C203.467 54.7294 203.467 54.7174 203.466 54.7055C203.328 54.5046 203.158 54.3291 202.963 54.1867C201.479 53.014 199.619 52.4317 198.268 51.0658C197.616 50.4091 197.151 49.5785 196.359 49.0625C195.389 48.4144 194.272 48.0341 193.115 47.9587C193.926 47.2302 194.972 43.6237 192.815 43.5436C192.438 43.5413 192.061 43.569 191.688 43.6264C190.336 43.8086 190.066 43.8417 190.066 43.4802C190.047 42.7517 191.261 41.3885 190.266 41.3251C190.239 41.3251 187.584 41.3775 187.192 42.3433C187.176 42.4507 187.185 42.5605 187.219 42.6634C187.314 43.494 187.898 44.1866 188.03 45.0392Z" fill="url(#paint46_radial_511_30)"/>
<path style="mix-blend-mode:color-dodge" d="M12.2911 80.5005C12.6344 79.6727 12.8317 78.8145 13.1372 77.9894C13.3264 77.4982 13.5508 77.0181 13.7292 76.5214L13.7887 76.331C13.7887 76.3117 13.9347 75.8674 13.7157 75.9171C13.678 75.9299 13.6425 75.9485 13.6103 75.9723C12.8912 76.5683 12.0776 80.3873 12.2181 80.6136C12.2497 80.5813 12.2745 80.5429 12.2911 80.5005Z" fill="url(#paint47_radial_511_30)"/>
<path style="mix-blend-mode:color-dodge" d="M170.638 26.9485C170.644 26.8972 170.644 26.8453 170.638 26.794C170.375 26.3606 169.994 26.016 169.54 25.8033C169.454 25.7702 169.34 25.7261 169.254 25.7012C168.486 25.486 167.661 25.6764 166.904 25.3646C166.364 25.1411 165.972 24.6002 165.326 24.6334C164.588 24.8182 163.89 25.13 163.163 25.3067C162.436 25.4833 161.693 25.4336 160.984 25.6792C160.533 25.8337 160.86 26.4049 160.506 26.6146C160.152 26.8243 159.733 26.4159 159.352 26.6422L159.162 26.7636C159.019 27.4121 159.59 28.1571 158.892 28.7283C158.679 28.64 157.062 27.2824 156.794 26.7636C156.186 25.5881 153.615 24.8596 152.899 25.4446C153.102 26.0407 153.81 25.911 154.126 26.347C153.926 27.2079 152.923 27.0699 152.504 27.6825C152.74 27.8508 153.548 27.7349 154.002 27.6494C154.813 27.5031 157.322 28.3917 155.916 29.581C156.516 30.3371 157.319 29.6969 157.997 29.8928C158.676 30.0887 158.711 30.3619 158.716 30.9966C158.881 31.1401 159.025 31.2008 160.438 31.049C160.948 30.9712 161.464 30.937 161.979 30.9469C162.655 30.9938 163.285 31.2973 163.961 31.3415C164.042 31.3415 164.153 31.3415 164.231 31.3415C164.472 31.3415 164.804 31.3415 166.664 30.8641C168.362 30.4419 170.949 28.5269 170.819 27.9667C170.738 27.6025 170.43 27.3597 170.324 27.0065C170.427 26.9375 170.427 26.9375 170.638 26.9485Z" fill="url(#paint48_radial_511_30)"/>
<path style="mix-blend-mode:color-dodge" d="M69.5671 143.068C70.3078 144.058 74.9546 144.411 75.0357 143.859C75.079 143.559 69.1265 136.555 69.0616 136.511C68.4534 136.081 66.599 134.773 63.1686 135.476C61.9457 135.893 60.8292 136.583 59.9004 137.496C60.1464 137.734 61.6142 137.513 62.8172 136.809C64.5391 135.805 65.688 136.368 65.7907 136.679C65.6961 136.856 65.4636 137.102 64.9122 136.784L64.85 136.831C64.9203 137.678 66.2989 138.034 67.2126 138.272C68.894 138.705 69.0075 139.069 69.3563 140.154C69.4753 140.637 69.6927 141.089 69.9942 141.481C70.2402 141.795 70.4213 142.033 70.4321 142.209C70.4808 142.792 69.8401 142.764 69.5671 143.068Z" fill="url(#paint49_radial_511_30)"/>
<path style="mix-blend-mode:color-dodge" d="M76.9685 148.887C77.447 149.163 77.0686 150.068 77.7525 150.14C78.9365 150.261 78.804 148.625 79.8231 148.523C80.015 148.513 80.2073 148.533 80.3935 148.581C82.043 148.809 83.7034 148.945 85.3674 148.989C85.5188 148.964 85.6215 148.934 85.6378 148.788C85.6675 148.236 85.2269 147.8 85.3674 147.24C85.7973 145.51 77.1415 144.756 76.5955 144.836C76.5139 144.849 76.4382 144.888 76.3792 144.947C76.3792 145.079 76.3792 145.079 76.5036 145.2C77.7768 146.401 77.3632 147.805 77.3145 147.866C77.1497 148.01 76.4603 147.896 75.5115 147.739C73.7625 147.463 73.5895 147.505 73.4922 147.538C73.5111 147.568 73.5219 147.621 73.5517 147.637C74.5951 148.286 75.9062 148.266 76.9685 148.887Z" fill="url(#paint50_radial_511_30)"/>
<path style="mix-blend-mode:color-dodge" d="M94.3963 66.8331C93.6529 67.109 95.3505 67.9589 95.6965 68.1245C97.9321 69.1924 98.7079 68.0362 98.716 68.0252C98.989 67.4043 95.2127 66.6979 94.3963 66.8331Z" fill="url(#paint51_radial_511_30)"/>
<path style="mix-blend-mode:color-dodge" d="M234.188 208.888C231.739 212.116 231.677 212.138 230.071 212.723C228.76 213.198 228.346 213.811 226.367 216.749C225.386 218.209 225.016 218.504 224.043 219.285C221.069 221.664 217.063 226.888 216.947 227.318C218.028 227.318 218.028 227.318 222.113 223.333C225.448 220.075 228.379 216.435 231.574 213.035C231.574 213.126 231.574 213.126 231.282 213.604C231.409 213.51 231.409 213.51 231.712 213.118C232.463 212.149 234.764 208.979 235.134 207.842L235.053 207.806C234.791 208.093 234.791 208.093 234.188 208.888Z" fill="url(#paint52_radial_511_30)"/>
<path style="mix-blend-mode:color-dodge" d="M151.342 185.231C151.169 184.301 152.386 183.024 151.234 182.431C150.423 182.008 149.612 182.629 148.801 182.45C146.16 181.862 144.43 179.522 141.902 178.725C138.134 177.541 134.242 176.857 130.425 175.885C128.208 175.057 128.008 172.436 126.64 170.918C124.307 169.367 122.566 166.854 120.131 165.435C116.946 163.581 113.024 164.213 109.858 162.259C107.361 160.711 105.685 158.087 103.006 156.771C102.569 156.564 102.107 156.418 101.633 156.338C88.6734 154.345 78.4363 152.775 77.2793 163.258C73.4353 160.471 63.5523 164.883 64.466 158.368C64.8101 156.02 64.4194 153.62 63.3496 151.511C60.3463 149.958 57.2944 151.572 54.2668 151.362C55.2643 147.982 55.2643 147.982 54.5371 146.395C55.8482 143.269 55.8482 143.269 56.3294 140.429C55.759 139.916 50.7121 135.761 49.6335 147.397C47.8953 147.281 46.7789 149.773 44.7839 148.606C40.1181 145.877 38.5259 142.408 37.9907 140.584C37.3311 138.327 39.1937 136.564 39.145 134.428C39.118 133.067 37.3203 132.405 37.7934 130.841C38.4043 128.823 42.0509 125.029 42.9052 124.356C44.4325 123.156 50.3579 124.519 50.4012 124.541L50.9418 124.094C50.4877 123.586 49.82 123.412 49.3064 122.99C49.3496 122.791 49.4037 122.526 49.447 122.325C50.631 121.627 60.0409 120.793 60.0814 120.816C64.1146 123.023 61.6547 128.793 65.5257 131.083C70.0887 126.166 62.7576 121.803 63.5659 116.848C64.4093 111.726 69.4237 110.537 72.2162 107.264C72.154 107.264 72.1513 107.264 72.1459 107.264C72.0242 107.121 71.8593 106.93 71.735 106.789C71.7593 106.602 71.7864 106.356 71.808 106.171L72.3946 105.995C72.4162 105.771 72.4459 105.479 72.4676 105.255L71.8891 105.034L72.819 95.6525C72.8893 97.0322 72.8893 101.271 72.8866 101.276C73.3218 101 73.3218 101 73.6975 94.8081C74.0354 95.4676 74.6112 95.9863 74.7653 96.7397C75.5925 95.2882 75.306 93.3925 76.59 92.1287C76.6197 92.0956 82.037 89.0933 82.437 89.1209C82.9398 84.2726 82.9398 84.2726 85.6025 81.7312C86.0512 81.7533 86.0512 81.7533 93.7825 77.1837L93.5121 77.7356C93.9569 77.9095 94.428 78.0029 94.9043 78.0115V78.6958C90.4278 81.9381 90.4278 81.9381 90.371 82.8874C93.4013 82.9398 102.727 77.4044 101.062 73.1163C99.7809 73.9938 99.7268 75.5998 98.9591 76.7891C97.9616 76.5131 97.1507 76.2758 96.4776 76.0689C97.1479 75.9254 97.6589 75.1914 97.6616 75.1831C97.664 75.1703 97.664 75.1572 97.6616 75.1445L97.6481 75.1251C97.5913 75.1086 97.5724 75.1113 97.394 75.1389C96.1937 75.3321 95.5017 75.0644 95.2665 74.9403C95.0391 74.858 94.8487 74.6944 94.7304 74.4798C94.6121 74.2652 94.574 74.0141 94.6232 73.773C94.6232 73.5744 94.6096 73.5578 94.5853 73.544L94.5529 73.5633C94.4907 73.6654 94.115 74.6312 94.461 75.3431C93.2986 74.7913 93.1093 74.1814 92.6444 72.7438C91.5631 72.3354 91.4793 72.2443 91.0225 71.6593C92.6444 71.204 93.8392 70.8784 94.1879 69.2034C93.3472 68.3591 93.3472 68.3591 81.691 75.804C89.7384 67.3298 89.7384 67.3298 97.9805 64.7773C99.8539 66.0881 108.28 61.822 109.567 59.4351C109.153 58.4003 109.153 58.4003 109.758 56.8661L109.385 56.2728C108.71 56.1266 108.034 55.9748 107.358 55.8341C106.782 55.8341 106.774 55.8341 106.769 55.8341C106.358 55.8755 105.114 55.9996 102.909 57.4704C102.833 57.3021 102.733 57.0731 102.66 56.902C103.333 55.9224 103.652 55.7982 106.15 54.8103C101.308 55.2325 96.5884 55.6382 91.3955 56.19C96.1667 55.6768 100.316 55.296 106.179 54.8103C106.33 54.7521 106.465 54.6574 106.571 54.5344C106.685 54.2336 104.739 52.5228 102.289 53.1795C101.749 53.323 101.749 53.323 101.449 53.2264C101.278 52.7435 101.665 52.2082 101.322 51.7419C100.857 51.1155 99.9431 51.2755 99.4835 50.6381C99.2916 50.3621 99.4241 50.1359 99.7917 49.6171C100.332 48.8527 100.332 48.8528 99.1483 46.7032C96.1748 41.2947 96.1748 41.2947 94.7286 44.1259C94.5015 44.5646 95.0746 45.0227 94.7016 45.4587C94.2771 45.9609 93.504 45.5001 93.0985 46.0602C92.174 47.3544 92.174 47.3544 91.9145 47.4399C90.2926 47.9421 89.1735 46.6121 87.7705 46.2865C87.5245 45.8395 88.0787 42.8952 88.9329 42.1943C88.1219 41.9183 87.2434 42.3212 86.4189 42.0149C86.227 41.9432 86.108 41.808 85.8539 41.3665C85.7647 41.2147 85.5647 40.8615 83.5345 40.1771C83.2513 40.0557 82.9405 40.0175 82.6371 40.0668C80.7854 40.5773 78.7958 40.1578 76.9846 40.9277C77.309 42.6827 75.1951 44.2638 76.6251 46.0989C76.3548 46.957 75.2546 47.2468 75.1951 48.2567C75.1248 49.4267 76.2764 50.1083 76.3251 51.2369C76.3251 51.2838 76.4089 55.812 73.8516 56.4135C73.2948 56.546 72.0215 56.9654 72.2946 57.9174C72.0907 58.1604 71.853 58.3714 71.589 58.5438C70.9132 61.1708 72.6054 64.449 69.6697 66.524C68.7533 65.0892 67.1233 64.678 65.8528 63.7646C66.5421 61.7006 66.2448 60.95 65.869 59.998C66.0636 59.8407 66.4096 59.5538 66.5908 59.3965C66.5583 59.2889 66.5908 59.0626 66.5583 58.9495C66.3129 58.9154 66.0653 58.9007 65.8176 58.9053C64.6093 57.7132 63.1523 58.7922 61.8547 58.4334C60.5572 58.0747 59.8598 56.7005 58.5947 56.248C58.353 56.1637 58.1053 56.0982 57.854 56.0521C56.6997 55.8534 55.8725 56.7226 54.8804 57.0151C54.5317 56.7226 54.5317 56.7226 54.0911 54.0294C53.9343 53.0912 53.9343 53.0912 51.7636 52.9256C51.2716 50.0614 58.1189 44.8737 61.0438 42.6551C60.7059 41.7445 59.7273 42.1474 59.1677 41.6976C64.8445 40.6628 64.8445 40.6628 68.0884 37.1418C65.8852 37.5336 65.4284 37.6164 63.6389 36.5899C65.7555 35.809 68.4857 37.1721 70.0914 34.6445C69.9048 34.5201 69.6915 34.4434 69.4697 34.421C69.4697 34.4072 70.5321 33.1075 71.6323 33.825C75.3222 32.4646 75.3222 32.4646 76.2926 31.5954C76.5238 31.3853 76.7258 31.1439 76.8927 30.8779C77.2874 30.1936 76.6359 29.4596 76.9928 28.7752C77.3226 28.1433 78.0984 28.204 78.5336 27.7377C78.7742 27.4231 78.8039 27.023 78.9877 26.6808C78.9553 26.6477 75.8466 23.4109 74.8031 27.9998C72.8893 29.1229 71.516 33.6953 69.1913 31.5871C69.3967 30.177 72.1891 29.2692 70.8835 27.8729C69.4021 28.4413 68.8074 29.9645 67.7126 30.9497C67.4423 30.1908 68.9588 28.1902 68.975 28.1626C68.8966 28.1323 68.8966 28.1323 67.5747 28.0799C69.8644 24.3105 69.8644 24.3105 69.8671 23.8552C69.7643 23.7752 69.6238 23.6703 69.5211 23.5958C70.8294 21.5318 70.8294 21.5318 76.936 17.859C76.5116 17.8066 76.5116 17.8066 75.8277 17.9335C70.943 19.04 64.3336 28.3972 64.2822 28.4883L64.4471 28.8359C64.9688 28.8359 65.4797 28.7173 66.0015 28.6869C66.0231 28.7835 66.0528 28.9132 66.0799 29.0125C64.9986 29.5644 64.8229 29.661 64.3255 30.1467V30.4226L64.639 30.4944C63.5956 32.3211 61.3222 32.9447 60.4707 34.9591C59.6732 34.1147 59.6732 34.1147 61.1654 32.4756C60.3112 32.2493 60.3112 32.2493 57.5242 34.49C57.3728 34.6114 56.4429 35.2157 53.0071 35.0419C52.7854 34.7107 52.826 34.272 52.5881 33.9381C49.8092 34.6666 48.982 36.314 47.333 39.5977C47.0276 38.7698 47.7412 38.0827 47.6493 37.2853C46.149 37.5309 44.9218 38.7836 43.2836 38.5353C43.9675 37.8454 45.0732 37.5943 45.3327 36.4685L45.0461 36.3112C44.6758 36.5154 44.619 36.5485 43.5566 36.4299C43.4209 36.2366 43.266 36.0582 43.0944 35.8973C42.3348 36.0601 41.905 36.7251 41.313 37.1308C41.436 36.8971 41.577 36.6738 41.7347 36.463C41.3443 36.7461 40.9821 37.0677 40.6534 37.4232C40.9994 36.6865 40.9994 36.6865 42.051 35.362C40.2398 37.0618 40.2398 37.0618 36.9311 39.9316C37.9772 38.9106 39.0936 37.9834 40.1749 36.9817C38.2986 38.4723 36.5189 40.0853 34.8469 41.8107C34.9597 41.606 35.089 41.4113 35.2334 41.2285L29.1215 48.2346C21.2172 58.7397 21.0686 58.9412 17.576 64.8629L17.603 64.816C17.6571 64.7359 17.7247 64.6256 17.7787 64.54C15.4405 70.5583 15.4405 70.5583 15.1539 72.1974C15.0025 72.672 14.8025 73.3012 14.6457 73.7841L15.0025 74.3829C14.2619 76.778 14.2619 76.778 13.459 80.873C13.2617 81.8526 13.486 82.7522 13.7807 83.6324C13.5907 83.5699 13.3935 83.5328 13.1941 83.522C13.1017 83.5283 13.0106 83.4976 12.94 83.4365C12.8967 83.3924 12.8778 83.3758 12.7994 83.0833C12.7616 82.9343 12.6129 82.4431 12.494 82.4155C12.3273 83.2647 12.3393 84.1404 12.5291 84.9845C12.7994 85.9365 13.4644 85.8124 13.4725 85.8124C13.5752 85.7688 13.6676 85.7031 13.7431 85.6197C13.8187 85.5364 13.8758 85.4374 13.9104 85.3295C13.9799 85.1415 14.0165 84.9426 14.0186 84.7417C14.0149 84.5857 14.0032 84.4301 13.9834 84.2754C13.9821 84.2588 13.9821 84.2422 13.9834 84.2257C14.3078 85.1529 14.6322 86.08 14.5754 87.0762C14.2565 86.8913 13.8266 86.6595 13.4941 86.4939C9.55285 91.5023 8.17962 116.632 10.7909 121.323C11.1288 121.381 11.1288 121.381 16.8407 133.324C16.4325 133.324 15.8946 133.346 15.4891 133.368C16.1811 134.842 21.2172 141.486 21.2632 141.542C21.7227 140.86 22.1958 140.162 19.8819 136.793C18.8276 135.267 17.6382 133.539 15.6189 125.189C18.1464 127.074 18.414 128.305 18.7492 129.861C18.9898 130.965 19.2601 132.226 19.744 133.009C20.7739 134.69 22.039 136.197 23.1338 137.83C24.5557 139.944 26.9778 141.141 28.1672 143.457C29.1323 145.327 28.67 147.836 30.6488 149.251C30.9651 149.443 31.3004 149.6 31.649 149.72C32.2085 149.941 32.9168 150.347 33.5007 150.501C35.5335 151.037 37.6177 151.365 39.6613 151.881C41.7536 152.4 43.9864 151.172 46.0274 152.364C50.7283 155.079 50.7283 155.079 52.3881 155.272C52.6368 155.297 52.9692 155.339 53.199 155.374C60.5761 156.426 63.6307 165.75 71.708 165.455C75.3032 159.334 77.5172 166.677 78.3065 170.115C78.5552 171.202 78.5552 171.203 76.5332 175.731C76.5089 175.805 74.5544 183.968 75.3924 185.491C75.5276 185.742 75.7006 186.081 75.8574 186.319C78.5066 190.334 89.3735 201.311 89.4708 201.391C92.1254 203.728 95.7261 204.263 98.5266 206.316C100.659 207.878 102.257 210.952 103.025 214.97C103.06 215.149 107.228 234.236 114.481 244.655C123.672 257.873 132.593 256.413 132.666 256.386C124.094 251.88 124.094 251.88 124.902 248.176C123.712 246.879 123.712 246.88 121.463 240.558C121.812 240.442 121.812 240.442 123.429 240.497C123.412 240.326 123.412 240.326 121.463 237.561C122.966 236.195 122.966 236.195 122.856 235.105L123.231 234.868C125.891 235.696 126.781 233.452 126.094 232.426L125.313 231.305C131.363 231.137 133.936 216.192 133.963 216.04C134.834 214.133 137.112 213.005 138.056 212.602C140.202 211.694 140.218 209.12 141.748 207.71C141.982 207.473 142.269 207.296 142.584 207.196C142.898 207.096 143.232 207.074 143.557 207.133C144.443 207.246 144.514 207.257 144.638 206.402C144.887 204.528 144.719 202.646 144.808 200.767C144.857 199.716 144.249 198.637 144.933 197.61C145.725 196.429 146.014 195.985 145.473 195.204C145.359 195.043 145.273 194.863 145.219 194.671C150.282 192.787 152.083 187.188 152.088 187.135C152.098 187.066 152.098 186.995 152.088 186.926C151.95 186.302 151.456 185.849 151.342 185.231ZM24.3638 68.4336C26.156 67.8348 28.0456 67.2608 29.9919 66.7145C28.0591 67.2525 26.1668 67.8265 24.3638 68.4336ZM81.7937 175.044C84.0779 174.751 86.4081 174.464 88.8518 174.18C86.5973 174.448 84.2671 174.729 81.7937 175.044ZM133.103 207.784C133.009 206.876 132.709 203.902 132.244 198.642C132.514 201.711 132.809 204.765 133.128 207.983C133.117 207.905 133.109 207.837 133.103 207.784ZM130.671 179.177C130.671 179.348 130.698 179.517 130.708 179.682C130.692 179.506 130.676 179.332 130.665 179.166L130.671 179.177Z" fill="url(#paint53_radial_511_30)"/>
<path style="mix-blend-mode:color-dodge" d="M88.4112 149.56C87.7165 150.041 88.614 150.957 89.4628 151.1C90.0683 151.205 92.0038 150.929 92.0822 150.728C92.1281 150.626 91.9848 150.383 90.5495 149.925C88.9627 149.425 88.7302 149.483 88.4112 149.56Z" fill="url(#paint54_radial_511_30)"/>
</g>
<defs>
<radialGradient id="paint0_radial_511_30" cx="0" cy="0" r="1" gradientUnits="userSpaceOnUse" gradientTransform="translate(130.622 130.73) scale(133.298 136.07)">
<stop offset="0.69"/>
<stop offset="0.73" stop-color="#040404"/>
<stop offset="0.77" stop-color="#101010"/>
<stop offset="0.81" stop-color="#252525"/>
<stop offset="0.85" stop-color="#414141"/>
<stop offset="0.89" stop-color="#666666"/>
<stop offset="0.92" stop-color="#939393"/>
<stop offset="0.96" stop-color="#C7C7C7"/>
<stop offset="1" stop-color="white"/>
</radialGradient>
<radialGradient id="paint1_radial_511_30" cx="0" cy="0" r="1" gradientUnits="userSpaceOnUse" gradientTransform="translate(157.175 56.2562) scale(423.016 431.81)">
<stop offset="0.07" stop-color="#B0B0B0"/>
<stop offset="1"/>
</radialGradient>
<radialGradient id="paint2_radial_511_30" cx="0" cy="0" r="1" gradientUnits="userSpaceOnUse" gradientTransform="translate(157.174 56.2533) scale(423.006 431.808)">
<stop offset="0.07" stop-color="#B0B0B0"/>
<stop offset="1"/>
</radialGradient>
<radialGradient id="paint3_radial_511_30" cx="0" cy="0" r="1" gradientUnits="userSpaceOnUse" gradientTransform="translate(157.173 56.259) scale(423.015 431.807)">
<stop offset="0.07" stop-color="#B0B0B0"/>
<stop offset="1"/>
</radialGradient>
<radialGradient id="paint4_radial_511_30" cx="0" cy="0" r="1" gradientUnits="userSpaceOnUse" gradientTransform="translate(157.173 56.2562) scale(423.012 431.804)">
<stop offset="0.07" stop-color="#B0B0B0"/>
<stop offset="1"/>
</radialGradient>
<radialGradient id="paint5_radial_511_30" cx="0" cy="0" r="1" gradientUnits="userSpaceOnUse" gradientTransform="translate(157.172 56.2561) scale(423.008 431.806)">
<stop offset="0.07" stop-color="#B0B0B0"/>
<stop offset="1"/>
</radialGradient>
<radialGradient id="paint6_radial_511_30" cx="0" cy="0" r="1" gradientUnits="userSpaceOnUse" gradientTransform="translate(157.17 56.259) scale(423.001 431.794)">
<stop offset="0.07" stop-color="#B0B0B0"/>
<stop offset="1"/>
</radialGradient>
<radialGradient id="paint7_radial_511_30" cx="0" cy="0" r="1" gradientUnits="userSpaceOnUse" gradientTransform="translate(157.173 56.2562) scale(423.011 431.805)">
<stop offset="0.07" stop-color="#B0B0B0"/>
<stop offset="1"/>
</radialGradient>
<radialGradient id="paint8_radial_511_30" cx="0" cy="0" r="1" gradientUnits="userSpaceOnUse" gradientTransform="translate(157.17 56.2562) scale(423.001 431.796)">
<stop offset="0.07" stop-color="#B0B0B0"/>
<stop offset="1"/>
</radialGradient>
<radialGradient id="paint9_radial_511_30" cx="0" cy="0" r="1" gradientUnits="userSpaceOnUse" gradientTransform="translate(157.173 56.2563) scale(423.008 431.802)">
<stop offset="0.07" stop-color="#B0B0B0"/>
<stop offset="1"/>
</radialGradient>
<radialGradient id="paint10_radial_511_30" cx="0" cy="0" r="1" gradientUnits="userSpaceOnUse" gradientTransform="translate(157.175 56.259) scale(423.015 431.813)">
<stop offset="0.07" stop-color="#B0B0B0"/>
<stop offset="1"/>
</radialGradient>
<radialGradient id="paint11_radial_511_30" cx="0" cy="0" r="1" gradientUnits="userSpaceOnUse" gradientTransform="translate(157.173 56.2563) scale(423.008 431.802)">
<stop offset="0.07" stop-color="#B0B0B0"/>
<stop offset="1"/>
</radialGradient>
<radialGradient id="paint12_radial_511_30" cx="0" cy="0" r="1" gradientUnits="userSpaceOnUse" gradientTransform="translate(157.173 56.2562) scale(423.008 431.801)">
<stop offset="0.07" stop-color="#B0B0B0"/>
<stop offset="1"/>
</radialGradient>
<radialGradient id="paint13_radial_511_30" cx="0" cy="0" r="1" gradientUnits="userSpaceOnUse" gradientTransform="translate(157.173 56.2563) scale(423.008 431.802)">
<stop offset="0.07" stop-color="#B0B0B0"/>
<stop offset="1"/>
</radialGradient>
<radialGradient id="paint14_radial_511_30" cx="0" cy="0" r="1" gradientUnits="userSpaceOnUse" gradientTransform="translate(157.173 56.2562) scale(423.005 431.798)">
<stop offset="0.07" stop-color="#B0B0B0"/>
<stop offset="1"/>
</radialGradient>
<radialGradient id="paint15_radial_511_30" cx="0" cy="0" r="1" gradientUnits="userSpaceOnUse" gradientTransform="translate(157.173 56.2562) scale(423.007 431.802)">
<stop offset="0.07" stop-color="#B0B0B0"/>
<stop offset="1"/>
</radialGradient>
<radialGradient id="paint16_radial_511_30" cx="0" cy="0" r="1" gradientUnits="userSpaceOnUse" gradientTransform="translate(157.166 56.259) scale(422.985 431.788)">
<stop offset="0.07" stop-color="#B0B0B0"/>
<stop offset="1"/>
</radialGradient>
<radialGradient id="paint17_radial_511_30" cx="0" cy="0" r="1" gradientUnits="userSpaceOnUse" gradientTransform="translate(157.169 56.2563) scale(422.99 431.792)">
<stop offset="0.07" stop-color="#B0B0B0"/>
<stop offset="1"/>
</radialGradient>
<radialGradient id="paint18_radial_511_30" cx="0" cy="0" r="1" gradientUnits="userSpaceOnUse" gradientTransform="translate(157.173 56.2563) scale(423.005 431.802)">
<stop offset="0.07" stop-color="#B0B0B0"/>
<stop offset="1"/>
</radialGradient>
<radialGradient id="paint19_radial_511_30" cx="0" cy="0" r="1" gradientUnits="userSpaceOnUse" gradientTransform="translate(157.17 56.2562) scale(423.001 431.796)">
<stop offset="0.07" stop-color="#B0B0B0"/>
<stop offset="1"/>
</radialGradient>
<radialGradient id="paint20_radial_511_30" cx="0" cy="0" r="1" gradientUnits="userSpaceOnUse" gradientTransform="translate(157.172 56.259) scale(423.01 431.807)">
<stop offset="0.07" stop-color="#B0B0B0"/>
<stop offset="1"/>
</radialGradient>
<radialGradient id="paint21_radial_511_30" cx="0" cy="0" r="1" gradientUnits="userSpaceOnUse" gradientTransform="translate(157.173 56.2563) scale(423.008 431.802)">
<stop offset="0.07" stop-color="#B0B0B0"/>
<stop offset="1"/>
</radialGradient>
<radialGradient id="paint22_radial_511_30" cx="0" cy="0" r="1" gradientUnits="userSpaceOnUse" gradientTransform="translate(157.173 56.2563) scale(423.004 431.799)">
<stop offset="0.07" stop-color="#B0B0B0"/>
<stop offset="1"/>
</radialGradient>
<radialGradient id="paint23_radial_511_30" cx="0" cy="0" r="1" gradientUnits="userSpaceOnUse" gradientTransform="translate(157.17 56.2562) scale(423 431.796)">
<stop offset="0.07" stop-color="#B0B0B0"/>
<stop offset="1"/>
</radialGradient>
<radialGradient id="paint24_radial_511_30" cx="0" cy="0" r="1" gradientUnits="userSpaceOnUse" gradientTransform="translate(157.173 56.2563) scale(423.012 431.805)">
<stop offset="0.07" stop-color="#B0B0B0"/>
<stop offset="1"/>
</radialGradient>
<radialGradient id="paint25_radial_511_30" cx="0" cy="0" r="1" gradientUnits="userSpaceOnUse" gradientTransform="translate(157.173 56.2562) scale(423.008 431.802)">
<stop offset="0.07" stop-color="#B0B0B0"/>
<stop offset="1"/>
</radialGradient>
<radialGradient id="paint26_radial_511_30" cx="0" cy="0" r="1" gradientUnits="userSpaceOnUse" gradientTransform="translate(157.173 56.2562) scale(423.008 431.802)">
<stop offset="0.07" stop-color="#B0B0B0"/>
<stop offset="1"/>
</radialGradient>
<radialGradient id="paint27_radial_511_30" cx="0" cy="0" r="1" gradientUnits="userSpaceOnUse" gradientTransform="translate(157.173 56.2563) scale(423.004 431.799)">
<stop offset="0.07" stop-color="#B0B0B0"/>
<stop offset="1"/>
</radialGradient>
<radialGradient id="paint28_radial_511_30" cx="0" cy="0" r="1" gradientUnits="userSpaceOnUse" gradientTransform="translate(157.17 56.2563) scale(423.015 431.806)">
<stop offset="0.07" stop-color="#B0B0B0"/>
<stop offset="1"/>
</radialGradient>
<radialGradient id="paint29_radial_511_30" cx="0" cy="0" r="1" gradientUnits="userSpaceOnUse" gradientTransform="translate(157.168 56.2566) scale(423.024 431.807)">
<stop offset="0.07" stop-color="#B0B0B0"/>
<stop offset="1"/>
</radialGradient>
<radialGradient id="paint30_radial_511_30" cx="0" cy="0" r="1" gradientUnits="userSpaceOnUse" gradientTransform="translate(157.173 56.2562) scale(423.011 431.805)">
<stop offset="0.07" stop-color="#B0B0B0"/>
<stop offset="1"/>
</radialGradient>
<radialGradient id="paint31_radial_511_30" cx="0" cy="0" r="1" gradientUnits="userSpaceOnUse" gradientTransform="translate(157.176 56.2563) scale(423.02 431.811)">
<stop offset="0.07" stop-color="#B0B0B0"/>
<stop offset="1"/>
</radialGradient>
<radialGradient id="paint32_radial_511_30" cx="0" cy="0" r="1" gradientUnits="userSpaceOnUse" gradientTransform="translate(157.173 56.2559) scale(423.006 431.801)">
<stop offset="0.07" stop-color="#B0B0B0"/>
<stop offset="1"/>
</radialGradient>
<radialGradient id="paint33_radial_511_30" cx="0" cy="0" r="1" gradientUnits="userSpaceOnUse" gradientTransform="translate(157.171 56.2563) scale(423.011 431.81)">
<stop offset="0.07" stop-color="#B0B0B0"/>
<stop offset="1"/>
</radialGradient>
<radialGradient id="paint34_radial_511_30" cx="0" cy="0" r="1" gradientUnits="userSpaceOnUse" gradientTransform="translate(157.173 56.2562) scale(423.001 431.799)">
<stop offset="0.07" stop-color="#B0B0B0"/>
<stop offset="1"/>
</radialGradient>
<radialGradient id="paint35_radial_511_30" cx="0" cy="0" r="1" gradientUnits="userSpaceOnUse" gradientTransform="translate(157.169 56.2561) scale(423.025 431.814)">
<stop offset="0.07" stop-color="#B0B0B0"/>
<stop offset="1"/>
</radialGradient>
<radialGradient id="paint36_radial_511_30" cx="0" cy="0" r="1" gradientUnits="userSpaceOnUse" gradientTransform="translate(157.177 56.2562) scale(422.992 431.791)">
<stop offset="0.07" stop-color="#B0B0B0"/>
<stop offset="1"/>
</radialGradient>
<radialGradient id="paint37_radial_511_30" cx="0" cy="0" r="1" gradientUnits="userSpaceOnUse" gradientTransform="translate(157.173 56.2562) scale(423.006 431.799)">
<stop offset="0.07" stop-color="#B0B0B0"/>
<stop offset="1"/>
</radialGradient>
<radialGradient id="paint38_radial_511_30" cx="0" cy="0" r="1" gradientUnits="userSpaceOnUse" gradientTransform="translate(157.174 56.2562) scale(423.01 431.802)">
<stop offset="0.07" stop-color="#B0B0B0"/>
<stop offset="1"/>
</radialGradient>
<radialGradient id="paint39_radial_511_30" cx="0" cy="0" r="1" gradientUnits="userSpaceOnUse" gradientTransform="translate(157.173 56.2563) scale(423.008 431.802)">
<stop offset="0.07" stop-color="#B0B0B0"/>
<stop offset="1"/>
</radialGradient>
<radialGradient id="paint40_radial_511_30" cx="0" cy="0" r="1" gradientUnits="userSpaceOnUse" gradientTransform="translate(157.171 56.2562) scale(423.005 431.793)">
<stop offset="0.07" stop-color="#B0B0B0"/>
<stop offset="1"/>
</radialGradient>
<radialGradient id="paint41_radial_511_30" cx="0" cy="0" r="1" gradientUnits="userSpaceOnUse" gradientTransform="translate(157.173 56.2562) scale(423.007 431.802)">
<stop offset="0.07" stop-color="#B0B0B0"/>
<stop offset="1"/>
</radialGradient>
<radialGradient id="paint42_radial_511_30" cx="0" cy="0" r="1" gradientUnits="userSpaceOnUse" gradientTransform="translate(157.174 56.2563) scale(423.012 431.803)">
<stop offset="0.07" stop-color="#B0B0B0"/>
<stop offset="1"/>
</radialGradient>
<radialGradient id="paint43_radial_511_30" cx="0" cy="0" r="1" gradientUnits="userSpaceOnUse" gradientTransform="translate(157.173 56.2597) scale(423.006 431.796)">
<stop offset="0.07" stop-color="#B0B0B0"/>
<stop offset="1"/>
</radialGradient>
<radialGradient id="paint44_radial_511_30" cx="0" cy="0" r="1" gradientUnits="userSpaceOnUse" gradientTransform="translate(157.168 56.2562) scale(423.053 431.823)">
<stop offset="0.07" stop-color="#B0B0B0"/>
<stop offset="1"/>
</radialGradient>
<radialGradient id="paint45_radial_511_30" cx="0" cy="0" r="1" gradientUnits="userSpaceOnUse" gradientTransform="translate(157.173 56.2562) scale(423.007 431.802)">
<stop offset="0.07" stop-color="#B0B0B0"/>
<stop offset="1"/>
</radialGradient>
<radialGradient id="paint46_radial_511_30" cx="0" cy="0" r="1" gradientUnits="userSpaceOnUse" gradientTransform="translate(157.173 56.2563) scale(423.003 431.799)">
<stop offset="0.07" stop-color="#B0B0B0"/>
<stop offset="1"/>
</radialGradient>
<radialGradient id="paint47_radial_511_30" cx="0" cy="0" r="1" gradientUnits="userSpaceOnUse" gradientTransform="translate(157.165 56.2562) scale(422.987 431.781)">
<stop offset="0.07" stop-color="#B0B0B0"/>
<stop offset="1"/>
</radialGradient>
<radialGradient id="paint48_radial_511_30" cx="0" cy="0" r="1" gradientUnits="userSpaceOnUse" gradientTransform="translate(157.173 56.2563) scale(423.012 431.805)">
<stop offset="0.07" stop-color="#B0B0B0"/>
<stop offset="1"/>
</radialGradient>
<radialGradient id="paint49_radial_511_30" cx="0" cy="0" r="1" gradientUnits="userSpaceOnUse" gradientTransform="translate(157.173 56.2562) scale(423.008 431.802)">
<stop offset="0.07" stop-color="#B0B0B0"/>
<stop offset="1"/>
</radialGradient>
<radialGradient id="paint50_radial_511_30" cx="0" cy="0" r="1" gradientUnits="userSpaceOnUse" gradientTransform="translate(157.173 56.2564) scale(423.008 431.801)">
<stop offset="0.07" stop-color="#B0B0B0"/>
<stop offset="1"/>
</radialGradient>
<radialGradient id="paint51_radial_511_30" cx="0" cy="0" r="1" gradientUnits="userSpaceOnUse" gradientTransform="translate(157.173 56.2562) scale(423.007 431.806)">
<stop offset="0.07" stop-color="#B0B0B0"/>
<stop offset="1"/>
</radialGradient>
<radialGradient id="paint52_radial_511_30" cx="0" cy="0" r="1" gradientUnits="userSpaceOnUse" gradientTransform="translate(157.173 56.256) scale(423.009 431.803)">
<stop offset="0.07" stop-color="#B0B0B0"/>
<stop offset="1"/>
</radialGradient>
<radialGradient id="paint53_radial_511_30" cx="0" cy="0" r="1" gradientUnits="userSpaceOnUse" gradientTransform="translate(157.173 56.2563) scale(423.008 431.802)">
<stop offset="0.07" stop-color="#B0B0B0"/>
<stop offset="1"/>
</radialGradient>
<radialGradient id="paint54_radial_511_30" cx="0" cy="0" r="1" gradientUnits="userSpaceOnUse" gradientTransform="translate(157.172 56.2496) scale(423.021 431.824)">
<stop offset="0.07" stop-color="#B0B0B0"/>
<stop offset="1"/>
</radialGradient>
</defs>
</svg>
