<svg width="27" height="15" viewBox="0 0 27 15" fill="none" xmlns="http://www.w3.org/2000/svg">
<path d="M25.8614 14.8884H1.10788C0.992736 14.8925 0.877936 14.8726 0.77073 14.8302C0.663524 14.7878 0.566204 14.7238 0.484731 14.6419C0.403259 14.56 0.339375 14.4619 0.297158 14.3542C0.254941 14.2464 0.235243 14.131 0.239287 14.0153V6.44897C0.235243 6.33323 0.254941 6.21784 0.297158 6.11008C0.339375 6.00233 0.403259 5.90495 0.484731 5.82306C0.566204 5.74117 0.663524 5.67651 0.77073 5.63408C0.877936 5.59164 0.992736 5.57176 1.10788 5.57582C1.22194 5.57582 1.33489 5.59873 1.44027 5.6426C1.54564 5.68648 1.64137 5.75052 1.72203 5.83158C1.80268 5.91265 1.86666 6.00914 1.91031 6.11506C1.95395 6.22097 1.97639 6.33432 1.97639 6.44897V13.1421H25.1376V2.02569H4.03192L14.0492 8.98102L21.5476 4.2082C21.7437 4.0898 21.9784 4.05425 22.2006 4.10874C22.4229 4.16322 22.6148 4.30363 22.7346 4.49949C22.7982 4.59418 22.8418 4.70062 22.8631 4.81279C22.8844 4.92497 22.8829 5.04084 22.8585 5.15239C22.8342 5.26394 22.7875 5.36925 22.7214 5.46215C22.6553 5.55505 22.5711 5.63308 22.474 5.69234L14.5123 10.7557C14.372 10.8534 14.2054 10.9056 14.0347 10.9056C13.864 10.9056 13.6974 10.8534 13.557 10.7557L0.760392 2.02569C0.603621 1.9209 0.485015 1.76792 0.422354 1.58947C0.359694 1.41102 0.356387 1.21722 0.412989 1.03674C0.46899 0.857694 0.580974 0.701358 0.732208 0.591281C0.883442 0.481204 1.0659 0.423361 1.25261 0.425745H26.0061C26.2341 0.433028 26.4509 0.527155 26.6123 0.689323C26.7736 0.851492 26.8674 1.06896 26.8747 1.29818V14.1609C26.8572 14.2763 26.8169 14.3869 26.7561 14.4863C26.6954 14.5858 26.6153 14.6714 26.5208 14.7392C26.4264 14.8071 26.3194 14.8558 26.2061 14.8813C26.0928 14.9069 25.9756 14.9092 25.8614 14.8884Z" fill="white"/>
</svg>
