<svg width="28" height="21" viewBox="0 0 28 21" fill="none" xmlns="http://www.w3.org/2000/svg">
<path d="M1.00183 2.1106V18.8894C0.993708 19.0273 1.01267 19.1656 1.05763 19.2961C1.10259 19.4266 1.17268 19.5468 1.26385 19.65C1.35503 19.7532 1.46551 19.8369 1.58895 19.897C1.7124 19.957 1.8464 19.9923 1.98324 20H26.0168C26.1537 19.9923 26.2876 19.957 26.411 19.897C26.5345 19.8369 26.645 19.7532 26.7361 19.65C26.8273 19.5468 26.8974 19.4266 26.9424 19.2961C26.9873 19.1656 27.0063 19.0273 26.9982 18.8894V2.1106C27.0093 1.83335 26.9132 1.5626 26.7301 1.35541C26.547 1.14823 26.2913 1.02071 26.0168 1H1.98324C1.70877 1.02071 1.453 1.14823 1.2699 1.35541C1.08681 1.5626 0.990676 1.83335 1.00183 2.1106ZM23.0326 3.01909L14.0401 9.31891L5.04752 3.01909H23.0326ZM2.80434 17.6777V3.82703L14.0401 11.7013L25.2757 3.82703V17.6777C25.2785 17.7165 25.2733 17.7554 25.2605 17.7921C25.2476 17.8288 25.2274 17.8623 25.201 17.8907C25.1747 17.9191 25.1429 17.9418 25.1075 17.9572C25.0721 17.9727 25.0339 17.981 24.9954 17.9809H3.06471C3.02614 17.981 2.98801 17.9727 2.95261 17.9572C2.91722 17.9418 2.88536 17.9191 2.85904 17.8907C2.83272 17.8623 2.81248 17.8288 2.79963 17.7921C2.78678 17.7554 2.78159 17.7165 2.78435 17.6777H2.80434Z" fill="#808080" stroke="#808080" stroke-width="0.5"/>
</svg>
