<svg width="60" height="60" viewBox="0 0 60 60" fill="none" xmlns="http://www.w3.org/2000/svg">
<path d="M13.125 7.5V48.75H46.875V7.5H13.125ZM11.25 3.75H48.75C49.2975 3.75 49.7469 3.92562 50.0981 4.27687C50.4494 4.62812 50.625 5.0775 50.625 5.625V50.625C50.625 51.1725 50.4494 51.6219 50.0981 51.9731C49.7469 52.3244 49.2975 52.5 48.75 52.5H11.25C10.7025 52.5 10.2531 52.3244 9.90188 51.9731C9.55063 51.6219 9.375 51.1725 9.375 50.625V5.625C9.375 5.0775 9.55063 4.62812 9.90188 4.27687C10.2531 3.92562 10.7025 3.75 11.25 3.75ZM3.75 48.75H56.25V52.5H3.75V48.75ZM18.75 11.25H26.25V16.875H18.75V11.25ZM22.5 48.75H37.5V45C37.4613 42.89 36.7287 41.1225 35.3025 39.6975C33.8762 38.2725 32.1087 37.54 30 37.5C27.89 37.5387 26.1225 38.2713 24.6975 39.6975C23.2725 41.1238 22.54 42.8913 22.5 45V48.75ZM30 33.75C33.2038 33.8288 35.86 34.9225 37.9688 37.0312C40.0775 39.14 41.1712 41.7962 41.25 45V52.5H18.75V45C18.8287 41.7962 19.9225 39.14 22.0312 37.0312C24.14 34.9225 26.7962 33.8288 30 33.75ZM18.75 22.5H26.25V28.125H18.75V22.5ZM33.75 11.25H41.25V16.875H33.75V11.25ZM33.75 22.5H41.25V28.125H33.75V22.5Z" fill="white" fill-opacity="0.96"/>
</svg>
