<svg width="16" height="28" viewBox="0 0 16 28" fill="none" xmlns="http://www.w3.org/2000/svg">
<path d="M7.15248 27.1782C6.25047 27.1919 5.35181 27.0647 4.4889 26.8003C4.30546 26.7531 4.14423 26.6425 4.03318 26.4884C3.92212 26.3343 3.86828 26.1462 3.88095 25.9563V16.0334H0.985797C0.757743 16.0261 0.540947 15.9312 0.379608 15.7691C0.218268 15.6069 0.124445 15.3894 0.117199 15.1602V10.6787C0.116593 10.56 0.139282 10.4425 0.183994 10.3327C0.228707 10.2228 0.294553 10.1228 0.377752 10.0386C0.542751 9.88472 0.760783 9.80103 0.985797 9.80553H4.05465V6.89551C3.95839 6.11019 4.02245 5.31345 4.24293 4.55386C4.46341 3.79427 4.83562 3.08801 5.33691 2.47792C5.83821 1.86783 6.45806 1.36703 7.15849 1.00586C7.85891 0.644682 8.62527 0.430512 9.41069 0.377105H14.1877C14.3028 0.37304 14.4175 0.392928 14.5247 0.435362C14.6319 0.477796 14.7293 0.541742 14.8108 0.623632C14.8923 0.705523 14.9561 0.803609 14.9983 0.911366C15.0405 1.01912 15.0602 1.13451 15.0562 1.25025V5.17906C15.0621 5.29845 15.0419 5.41725 14.9969 5.52789C14.9519 5.63853 14.8831 5.73821 14.7956 5.81918C14.707 5.90262 14.602 5.96593 14.4873 6.00603C14.3726 6.04613 14.2507 6.06164 14.1297 6.0515C12.9137 6.0515 11.2346 6.05204 11.032 6.60494C10.8976 6.79403 10.6939 6.92125 10.4659 6.95946C10.2379 6.99766 10.0041 6.94319 9.81596 6.80813C9.62784 6.67307 9.50082 6.46897 9.46282 6.23977C9.42481 6.01056 9.47891 5.77524 9.61328 5.58615C10.0966 5.10663 10.6796 4.74048 11.3203 4.51408C11.961 4.28768 12.6435 4.20678 13.3191 4.27678V2.1234H9.43958C5.73379 2.298 5.79175 6.66268 5.79175 6.86639V10.6787C5.79541 10.7935 5.77395 10.9077 5.72894 11.0133C5.68392 11.1189 5.61635 11.2131 5.53111 11.2897C5.36458 11.4448 5.14981 11.5376 4.92316 11.5518H1.85431V14.2871H4.74945C4.8646 14.283 4.97931 14.3029 5.08652 14.3453C5.19373 14.3878 5.29114 14.4517 5.37261 14.5336C5.45408 14.6155 5.51788 14.7136 5.56009 14.8213C5.60231 14.9291 5.62201 15.0445 5.61796 15.1602V25.2579C6.69989 25.4523 7.80757 25.4523 8.8895 25.2579V15.1893C8.88545 15.0736 8.90515 14.9582 8.94737 14.8505C8.98958 14.7427 9.05347 14.6446 9.13494 14.5627C9.21641 14.4808 9.31373 14.4169 9.42094 14.3745C9.52814 14.332 9.64295 14.3121 9.75809 14.3162H12.6532L13.0875 11.4062H9.75809C9.64295 11.4102 9.52814 11.3904 9.42094 11.3479C9.31373 11.3055 9.21641 11.2415 9.13494 11.1597C9.05347 11.0778 8.98958 10.9797 8.94737 10.8719C8.90515 10.7642 8.88545 10.6488 8.8895 10.533V9.89292C8.8872 9.68008 8.96239 9.47353 9.10084 9.31248C9.23928 9.15142 9.43145 9.04695 9.64129 9.01835C9.85113 8.98975 10.0641 9.03941 10.2402 9.1576C10.4164 9.27578 10.5435 9.45412 10.5976 9.65989H14.0718C14.2001 9.65646 14.3273 9.68381 14.4431 9.73946C14.5589 9.79511 14.6599 9.87778 14.7378 9.9803C14.8212 10.0742 14.8827 10.1856 14.9178 10.3064C14.9529 10.4272 14.9605 10.5544 14.9403 10.6787L14.2455 15.2767C14.2173 15.4876 14.1135 15.6802 13.9536 15.8195C13.7937 15.9588 13.5887 16.0353 13.377 16.0334H10.4819V25.9271C10.4875 26.1198 10.4274 26.3086 10.3115 26.4621C10.1957 26.6156 10.031 26.7247 9.84494 26.7712C8.9694 27.0264 8.06398 27.1631 7.15248 27.1782Z" fill="white"/>
</svg>
