<svg width="12" height="21" viewBox="0 0 12 21" fill="none" xmlns="http://www.w3.org/2000/svg">
<path d="M10.7504 1.10453C9.87288 1.10453 8.99533 0.981867 8.11779 1.00229C7.65464 1.02253 7.19591 1.10516 6.75277 1.24766C6.11432 1.4118 5.53194 1.75856 5.07055 2.24909C4.60915 2.73963 4.28688 3.35438 4.13967 4.02553C4.04008 4.22784 3.98664 4.45175 3.98363 4.67935C3.92519 5.6112 3.92519 6.54631 3.98363 7.47816C3.98363 8.09099 4.10063 8.02975 3.4376 8.02975H1.2925C1.1755 8.02975 1 8.02943 1 8.21327C1 9.25508 1 10.2561 1 11.3592C1.11701 11.5022 1.25352 11.3592 1.37052 11.3592C2.11155 11.3592 2.83307 11.3592 3.5546 11.3592C3.88612 11.3592 3.96416 11.4612 3.96416 11.7676C3.96416 14.4232 3.96416 17.0587 3.96416 19.7142C3.94986 19.7953 3.94986 19.8781 3.96416 19.9591C3.96416 19.9591 4.12014 19.9591 4.29565 19.9591H7.27927C7.28835 19.9718 7.30013 19.9819 7.31367 19.989C7.32721 19.9961 7.34215 20 7.35729 20C7.37243 20 7.38737 19.9961 7.40091 19.989C7.41445 19.9819 7.42623 19.9718 7.43531 19.9591C7.43531 17.1605 7.43531 14.3418 7.43531 11.5432C7.43531 11.2981 7.55229 11.2979 7.70829 11.2979H10.0289C10.1459 11.2979 10.2824 11.2979 10.3994 11.2979C10.6334 10.3378 10.6529 9.2552 10.8284 8.33596C10.8284 8.04997 10.8284 7.94798 10.5164 7.9684C9.59988 7.9684 8.68333 7.9684 7.76679 7.9684C7.51328 7.9684 7.43531 7.96808 7.43531 7.64124C7.43531 6.98756 7.43531 6.35441 7.43531 5.70073C7.43531 4.6385 7.86433 4.18907 8.89787 4.14821C9.4829 4.14821 10.0874 4.14821 10.6725 4.14821C10.887 4.14821 10.965 4.14843 10.965 3.86245C10.965 3.01811 10.965 2.18062 10.965 1.3499C11.0625 1.14563 10.9454 1.10453 10.7504 1.10453Z" fill="#808080" stroke="#808080" stroke-width="0.5"/>
</svg>
