<svg width="58" height="103" viewBox="0 0 58 103" fill="none" xmlns="http://www.w3.org/2000/svg">
<path d="M27.3124 102.996C23.8106 103.049 20.3218 102.56 16.9718 101.544C16.2597 101.362 15.6338 100.938 15.2026 100.345C14.7715 99.7528 14.5625 99.0299 14.6116 98.3002V60.1675H3.37211C2.48676 60.1395 1.64512 59.775 1.01877 59.1518C0.392413 58.5286 0.0281734 57.6929 4.6012e-05 56.812V39.5899C-0.00230919 39.1338 0.0857735 38.6825 0.259356 38.2603C0.432939 37.8381 0.688568 37.4537 1.01156 37.13C1.65212 36.5388 2.49856 36.2172 3.37211 36.2345H15.286V25.0516C14.9123 22.0337 15.161 18.9719 16.0169 16.0529C16.8729 13.1338 18.3179 10.4197 20.264 8.0752C22.2101 5.73069 24.6165 3.80618 27.3357 2.41822C30.0549 1.03026 33.03 0.207228 36.0792 0.00199148H54.6243C55.0714 -0.0136293 55.5167 0.062798 55.9329 0.225868C56.3491 0.388938 56.7272 0.634674 57.0435 0.949372C57.3598 1.26407 57.6075 1.64101 57.7714 2.0551C57.9353 2.4692 58.0118 2.91263 57.9961 3.35741V18.4554C58.0192 18.9142 57.9407 19.3708 57.7659 19.796C57.5911 20.2211 57.3242 20.6042 56.9845 20.9153C56.6404 21.236 56.2327 21.4793 55.7875 21.6334C55.3422 21.7875 54.8691 21.8471 54.3993 21.8081C44.6154 21.6334 43.335 20.8173 40.8974 23.0848C39.4216 24.4577 40.1538 35.6748 40.1538 35.6748C40.1538 35.6748 34.7861 37.0894 34.0558 36.5703C34.0558 35.3115 34.287 24.0085 34.8763 22.7143C35.3029 20.9153 36.5149 19.0945 37.5513 18.2683C37.9103 17.9821 39.7821 16.7863 41.2692 16.4158C44.6229 15.8201 48.6296 15.6309 51.2523 15.9V6.71283H36.1913C21.8047 7.3838 22.0298 24.1569 22.0298 24.9397V39.5899C22.0439 40.0312 21.9607 40.4701 21.7859 40.8759C21.6111 41.2816 21.3488 41.6438 21.0179 41.9379C20.3714 42.5342 19.5376 42.8908 18.6577 42.9454H6.74383V53.4566H17.9834C18.4304 53.441 18.8757 53.5174 19.2919 53.6805C19.7081 53.8436 20.0863 54.0893 20.4026 54.404C20.7189 54.7187 20.9665 55.0956 21.1304 55.5097C21.2943 55.9238 21.3708 56.3673 21.3551 56.812V95.6164C25.5553 96.3637 29.8556 96.3637 34.0558 95.6164V56.924C34.0401 56.4792 34.1166 56.0358 34.2805 55.6217C34.4444 55.2076 34.6924 54.8307 35.0087 54.5159C35.325 54.2013 35.7028 53.9555 36.119 53.7924C36.5352 53.6294 36.9808 53.5529 37.4279 53.5686H48.6674L50.3533 42.3857H37.4279C36.9808 42.4013 36.5352 42.3249 36.119 42.1618C35.7028 41.9987 35.325 41.753 35.0087 41.4383C34.6924 41.1236 34.4444 40.7466 34.2805 40.3325C34.1166 39.9184 34.0401 39.475 34.0558 39.0302V36.5703C34.0469 35.7524 34.3388 34.9587 34.8763 34.3398C35.4137 33.7208 36.1598 33.3194 36.9744 33.2094C37.7891 33.0995 38.6159 33.2904 39.2996 33.7446C39.9834 34.1987 39.6206 34.9409 40.1538 35.6748H54.1747C54.6727 35.6617 55.1665 35.7668 55.616 35.9806C56.0654 36.1945 56.4576 36.5122 56.7599 36.9061C57.0839 37.2668 57.3228 37.6949 57.4589 38.1593C57.595 38.6237 57.6247 39.1125 57.5464 39.5899L54.849 57.2598C54.7395 58.07 54.3366 58.8103 53.7157 59.3457C53.0948 59.8811 52.2988 60.1748 51.4773 60.1675H40.2377V98.1883C40.2597 98.9285 40.0263 99.6541 39.5764 100.244C39.1266 100.834 38.4874 101.253 37.765 101.432C34.366 102.413 30.851 102.938 27.3124 102.996Z" fill="#5B5A5A"/>
</svg>
