<svg width="34" height="34" viewBox="0 0 34 34" fill="none" xmlns="http://www.w3.org/2000/svg">
<path d="M29.308 15.846C28.687 14.757 28.058 13.673 27.429 12.589C27.051 11.938 26.686 11.28 26.293 10.638C26.279 10.608 26.268 10.578 26.252 10.549C25.544 9.32102 24.837 8.09102 24.125 6.86502C23.674 6.08802 22.989 5.69302 22.093 5.69202C18.633 5.68702 15.173 5.69002 11.713 5.69102C11.602 5.69102 11.489 5.69602 11.38 5.71302C10.654 5.83002 10.096 6.20102 9.72601 6.83902C8.92001 8.23002 8.11801 9.62402 7.31401 11.016C7.14201 11.314 6.97401 11.613 6.80401 11.911C6.75901 11.976 6.71501 12.041 6.69201 12.119C6.64801 12.14 6.63401 12.185 6.61201 12.223C6.52801 12.368 6.44701 12.515 6.36301 12.661C6.13001 13.063 5.89601 13.464 5.66301 13.866C5.45101 14.232 5.237 14.597 5.029 14.965C4.819 15.336 4.58401 15.692 4.40301 16.078C4.22601 16.456 4.17301 16.856 4.22101 17.273C4.25401 17.557 4.33501 17.826 4.46901 18.073C4.69801 18.492 4.94701 18.899 5.18501 19.312C5.41401 19.709 5.64001 20.108 5.86901 20.504C6.12401 20.945 6.38301 21.384 6.63801 21.825C6.85001 22.191 7.05601 22.56 7.26701 22.926C7.52201 23.367 7.78201 23.806 8.03601 24.247C8.27301 24.657 8.50401 25.071 8.74101 25.482C9.02501 25.974 9.31601 26.461 9.59501 26.955C9.79101 27.302 10.005 27.631 10.335 27.868C10.703 28.132 11.109 28.305 11.565 28.306C13.492 28.312 15.42 28.309 17.347 28.309C17.491 28.309 17.636 28.305 17.78 28.303C17.809 28.305 17.839 28.31 17.868 28.31C19.303 28.31 20.737 28.31 22.172 28.311C22.287 28.311 22.402 28.305 22.515 28.284C23.215 28.152 23.752 27.783 24.108 27.165C25.844 24.161 27.58 21.159 29.31 18.152C29.749 17.389 29.741 16.61 29.306 15.846H29.308ZM6.47801 17.572C6.17201 17.584 5.89401 17.313 5.89601 16.999C5.89801 16.71 6.15601 16.415 6.46601 16.447C6.74901 16.416 7.01301 16.704 7.02801 16.965C7.04801 17.313 6.75101 17.56 6.47801 17.571V17.572ZM22.146 7.38502C22.456 7.38602 22.708 7.63902 22.708 7.94902C22.708 8.26502 22.458 8.51802 22.142 8.52002C21.835 8.52202 21.582 8.26802 21.581 7.95502C21.58 7.63702 21.831 7.38402 22.146 7.38502V7.38502ZM11.7 7.38502C12.007 7.38802 12.264 7.64802 12.26 7.95402C12.257 8.26302 12.003 8.51702 11.695 8.51902C11.384 8.52102 11.123 8.25902 11.125 7.94902C11.127 7.63602 11.386 7.38202 11.7 7.38502ZM11.684 26.627C11.379 26.631 11.142 26.394 11.122 26.077C11.105 25.796 11.334 25.482 11.693 25.489C12.018 25.495 12.283 25.794 12.244 26.056C12.265 26.384 11.983 26.624 11.683 26.628L11.684 26.627ZM22.138 26.618C21.825 26.616 21.579 26.369 21.58 26.054C21.58 25.735 21.829 25.489 22.149 25.49C22.464 25.491 22.711 25.744 22.708 26.064C22.706 26.374 22.453 26.619 22.138 26.617V26.618ZM24.651 17.156C24.44 17.5 24.244 17.853 24.042 18.203C23.46 19.213 22.877 20.221 22.295 21.23C21.847 22.006 21.399 22.782 20.952 23.558C20.908 23.634 20.846 23.704 20.835 23.796C20.832 23.791 20.827 23.786 20.82 23.781C20.763 23.762 20.703 23.769 20.644 23.769C18.171 23.769 15.699 23.769 13.226 23.769C13.19 23.769 13.154 23.767 13.118 23.769C13.039 23.775 12.991 23.738 12.952 23.671C12.634 23.119 12.315 22.568 11.997 22.016C11.458 21.08 10.917 20.145 10.377 19.21C9.95201 18.473 9.52601 17.738 9.10201 17C9.10101 16.998 9.099 16.995 9.098 16.993C9.122 16.978 9.13201 16.951 9.14501 16.928C9.50601 16.314 9.856 15.695 10.214 15.08C10.235 15.043 10.264 15.007 10.254 14.959C10.263 14.958 10.272 14.955 10.282 14.949C10.317 14.918 10.337 14.876 10.36 14.837C11.213 13.355 12.07 11.876 12.921 10.393C12.985 10.282 13.057 10.247 13.179 10.248C13.914 10.253 14.649 10.25 15.385 10.25C17.151 10.25 18.917 10.25 20.682 10.249C20.738 10.249 20.796 10.261 20.848 10.228C20.842 10.242 20.845 10.26 20.853 10.279C20.869 10.315 20.889 10.349 20.908 10.383C21.549 11.494 22.192 12.605 22.833 13.717C23.438 14.766 24.043 15.815 24.653 16.862C24.719 16.974 24.711 17.054 24.648 17.157L24.651 17.156ZM27.364 17.57C27.053 17.567 26.806 17.316 26.805 17.003C26.805 16.686 27.057 16.436 27.374 16.439C27.688 16.442 27.933 16.69 27.932 17.004C27.932 17.321 27.679 17.573 27.363 17.57H27.364Z" fill="#C3D2DF"/>
<path d="M16.924 13.603C15.056 13.597 13.5 15.142 13.523 17.006C13.505 18.865 15.03 20.406 16.908 20.405C18.811 20.404 20.314 18.903 20.32 17.007C20.327 15.099 18.767 13.609 16.924 13.603V13.603Z" fill="#C3D2DF"/>
</svg>
