<svg width="20" height="21" viewBox="0 0 20 21" fill="none" xmlns="http://www.w3.org/2000/svg">
<path d="M17.5 11.3304V10.9985C17.4479 8.87604 16.7154 7.10853 15.3025 5.69603C13.8896 4.28354 12.1221 3.55104 10 3.49854C7.8775 3.55062 6.11 4.28312 4.6975 5.69603C3.285 7.10895 2.5525 8.87645 2.5 10.9985V11.3304C2.89083 11.1092 3.3075 10.9985 3.75 10.9985C4.1925 10.9985 4.60917 11.1125 5 11.3404C5.39083 11.5683 5.69688 11.871 5.91813 12.2485C6.13937 12.626 6.25 13.0427 6.25 13.4985V15.9985C6.23708 16.7019 5.99292 17.291 5.5175 17.766C5.04208 18.241 4.45292 18.4852 3.75 18.4985C3.04667 18.4856 2.4575 18.2415 1.9825 17.766C1.5075 17.2906 1.26333 16.7015 1.25 15.9985V10.9985C1.315 8.52437 2.17104 6.46374 3.81813 4.81666C5.46521 3.16958 7.52583 2.31354 10 2.24854C12.4742 2.31354 14.5348 3.16958 16.1819 4.81666C17.829 6.46374 18.685 8.52437 18.75 10.9985V15.9985C18.7371 16.7019 18.4929 17.291 18.0175 17.766C17.5421 18.241 16.9529 18.4852 16.25 18.4985C15.5467 18.4856 14.9575 18.2415 14.4825 17.766C14.0075 17.2906 13.7633 16.7015 13.75 15.9985V13.4985C13.75 13.0427 13.8606 12.626 14.0819 12.2485C14.3031 11.871 14.6092 11.5683 15 11.3404C15.3908 11.1125 15.8075 10.9985 16.25 10.9985C16.6925 10.9985 17.1092 11.1092 17.5 11.3304ZM17.5 13.4985C17.4871 13.1469 17.3633 12.854 17.1287 12.6198C16.8942 12.3856 16.6012 12.2683 16.25 12.2679C15.8988 12.2675 15.6058 12.3848 15.3713 12.6198C15.1367 12.8548 15.0129 13.1477 15 13.4985V15.9985C15.0129 16.3502 15.1367 16.6431 15.3713 16.8773C15.6058 17.1115 15.8988 17.2287 16.25 17.2292C16.6012 17.2296 16.8942 17.1123 17.1287 16.8773C17.3633 16.6423 17.4871 16.3494 17.5 15.9985V13.4985ZM2.5 13.4985V15.9985C2.51292 16.3502 2.63667 16.6431 2.87125 16.8773C3.10583 17.1115 3.39875 17.2287 3.75 17.2292C4.10125 17.2296 4.39417 17.1123 4.62875 16.8773C4.86333 16.6423 4.98708 16.3494 5 15.9985V13.4985C4.98708 13.1469 4.86333 12.854 4.62875 12.6198C4.39417 12.3856 4.10125 12.2683 3.75 12.2679C3.39875 12.2675 3.10583 12.3848 2.87125 12.6198C2.63667 12.8548 2.51292 13.1477 2.5 13.4985Z" fill="white" fill-opacity="0.96"/>
</svg>
