<?xml version="1.0" ?><svg width="50px" height="50px" viewBox="0 0 50 50" xmlns="http://www.w3.org/2000/svg"><g id="Solid"><path d="M36.9971,15.99879v-4.259L24.99979,8.21041,13.00247,11.73984v4.259a2.00238,2.00238,0,0,1-2.00012,2.00007H8.31908A39.76815,39.76815,0,0,0,10.181,25.965c2.76482,7.86065,7.749,13.1626,14.81682,15.76134,5.56528-2.06356,14.67522-7.8421,16.68706-23.72747H38.99722A2.0027,2.0027,0,0,1,36.9971,15.99879Zm-.99322,12.00045a.99948.99948,0,0,1-1.00006,1H29.00345v6.00023a.99948.99948,0,0,1-1.00006,1H22.003a.99979.99979,0,0,1-1.00006-1V28.99928H15.0026a.99979.99979,0,0,1-1.00007-1V21.999a.99979.99979,0,0,1,1.00007-1H21.003V14.99875a.99979.99979,0,0,1,1.00006-1h6.00037a.99948.99948,0,0,1,1.00006,1V20.999h6.00037a.99948.99948,0,0,1,1.00006,1Zm-8.00049-5.00019h6.00036v4.00016H28.00339a.99947.99947,0,0,0-1.00006,1v6.00023H23.00308V27.99924a.99978.99978,0,0,0-1.00006-1H16.00266V22.99905H22.003a.99978.99978,0,0,0,1.00006-1V15.99879h4.00025V21.999A.99947.99947,0,0,0,28.00339,22.99905Zm19.426-10.40176a1.99138,1.99138,0,0,0-1.43075-.59865H42.99747V8.74656a2.01058,2.01058,0,0,0-1.43564-1.918L25.30108,2.04514a1.04155,1.04155,0,0,0-.64555.01269L8.43774,6.82852a2.01,2.01,0,0,0-1.43563,1.918v3.25208H4.00095A1.99423,1.99423,0,0,0,2.00034,14.028c.0835,4.5324,1.56748,27.44635,22.64591,33.90851A.98626.98626,0,0,0,24.99637,48c.00244-.001.00293-.001.00732,0a.98622.98622,0,0,0,.35012-.06348C46.43518,41.47436,47.91671,18.55943,47.99972,14.027A1.97891,1.97891,0,0,0,47.42938,12.59729Zm-22.09705,31.135a.99925.99925,0,0,1-.66606.001c-7.84472-2.76573-13.35286-8.52083-16.37209-17.10417a42.3001,42.3001,0,0,1-2.0929-9.52868,1.0001,1.0001,0,0,1,.99469-1.1016h3.80638v-4.259a2.0119,2.0119,0,0,1,1.43612-1.919L24.71754,6.20936a.99158.99158,0,0,1,.56449,0L37.56159,9.8218a2.01056,2.01056,0,0,1,1.43563,1.918v4.259h3.80883a1.001,1.001,0,0,1,.99518,1.10258C43.15568,23.37211,40.06467,38.52015,25.33233,43.73226Z"/></g></svg>