<svg width="50" height="50" viewBox="0 0 50 50" fill="none" xmlns="http://www.w3.org/2000/svg">
<path d="M36.9971 15.9988V11.7398L24.9998 8.21041L13.0025 11.7398V15.9988C13.0019 16.5291 12.7909 17.0375 12.416 17.4124C12.041 17.7874 11.5326 17.9983 11.0024 17.9989H8.31908C8.66422 20.7112 9.28816 23.3807 10.181 25.965C12.9458 33.8257 17.93 39.1276 24.9978 41.7263C30.5631 39.6628 39.673 33.8842 41.6849 17.9989H38.9972C38.467 17.9982 37.9586 17.7872 37.5837 17.4123C37.2087 17.0374 36.9978 16.529 36.9971 15.9988V15.9988ZM36.0039 27.9992C36.0039 28.1306 35.9781 28.2607 35.9279 28.382C35.8777 28.5034 35.804 28.6136 35.7111 28.7065C35.6182 28.7994 35.508 28.8731 35.3866 28.9233C35.2652 28.9735 35.1352 28.9993 35.0038 28.9992H29.0035V34.9995C29.0035 35.1308 28.9777 35.2609 28.9275 35.3823C28.8772 35.5036 28.8036 35.6139 28.7107 35.7068C28.6178 35.7996 28.5075 35.8733 28.3862 35.9235C28.2648 35.9737 28.1347 35.9995 28.0034 35.9995H22.003C21.8717 35.9995 21.7416 35.9737 21.6203 35.9234C21.4989 35.8732 21.3887 35.7995 21.2958 35.7067C21.2029 35.6138 21.1293 35.5035 21.079 35.3822C21.0288 35.2609 21.0029 35.1308 21.0029 34.9995V28.9993H15.0026C14.8713 28.9993 14.7412 28.9735 14.6199 28.9232C14.4985 28.873 14.3883 28.7993 14.2954 28.7065C14.2025 28.6136 14.1289 28.5034 14.0786 28.382C14.0284 28.2607 14.0025 28.1306 14.0025 27.9993V21.999C14.0025 21.8677 14.0284 21.7376 14.0786 21.6163C14.1289 21.4949 14.2025 21.3847 14.2954 21.2918C14.3883 21.1989 14.4985 21.1253 14.6199 21.075C14.7412 21.0248 14.8713 20.999 15.0026 20.999H21.003V14.9988C21.003 14.8674 21.0288 14.7374 21.0791 14.616C21.1293 14.4947 21.203 14.3844 21.2959 14.2916C21.3887 14.1987 21.499 14.125 21.6203 14.0748C21.7417 14.0246 21.8717 13.9987 22.0031 13.9988H28.0034C28.1348 13.9987 28.2648 14.0245 28.3862 14.0747C28.5076 14.1249 28.6178 14.1986 28.7107 14.2915C28.8036 14.3843 28.8773 14.4946 28.9275 14.616C28.9777 14.7373 29.0036 14.8674 29.0035 14.9988V20.999H35.0039C35.1352 20.9989 35.2653 21.0247 35.3866 21.075C35.508 21.1252 35.6183 21.1988 35.7112 21.2917C35.804 21.3846 35.8777 21.4949 35.9279 21.6162C35.9782 21.7376 36.004 21.8677 36.0039 21.999L36.0039 27.9992ZM28.0034 22.9991H34.0037V26.9992H28.0034C27.872 26.9991 27.742 27.0249 27.6206 27.0752C27.4992 27.1254 27.389 27.1991 27.2961 27.2919C27.2032 27.3848 27.1295 27.4951 27.0793 27.6164C27.0291 27.7378 27.0033 27.8679 27.0033 27.9992V33.9994H23.0031V27.9992C23.0031 27.8679 22.9773 27.7379 22.927 27.6165C22.8768 27.4952 22.8031 27.3849 22.7102 27.292C22.6174 27.1992 22.5071 27.1255 22.3858 27.0753C22.2644 27.025 22.1344 26.9992 22.003 26.9992H16.0027V22.9991H22.003C22.1343 22.9991 22.2644 22.9732 22.3857 22.923C22.5071 22.8728 22.6173 22.7991 22.7102 22.7062C22.8031 22.6134 22.8767 22.5031 22.927 22.3818C22.9772 22.2604 23.0031 22.1304 23.0031 21.9991V15.9988H27.0033V21.999C27.0032 22.1304 27.0291 22.2604 27.0793 22.3818C27.1295 22.5032 27.2032 22.6134 27.2961 22.7063C27.3889 22.7992 27.4992 22.8729 27.6206 22.9231C27.742 22.9733 27.872 22.9991 28.0034 22.9991ZM47.4294 12.5973C47.2431 12.4069 47.0204 12.2558 46.7747 12.153C46.5289 12.0501 46.265 11.9977 45.9986 11.9986H42.9975V8.74656C42.9956 8.31514 42.855 7.89576 42.5965 7.55038C42.338 7.20499 41.9752 6.95193 41.5618 6.82856L25.3011 2.04514C25.09 1.98088 24.8639 1.98533 24.6555 2.05783L8.43774 6.82852C8.02429 6.95181 7.66147 7.20485 7.40294 7.55026C7.1444 7.89566 7.00387 8.31508 7.00211 8.74652V11.9986H4.00095C3.73554 11.9977 3.47263 12.0498 3.22761 12.1518C2.9826 12.2539 2.76042 12.4038 2.57409 12.5928C2.38776 12.7818 2.24104 13.0061 2.14252 13.2526C2.04399 13.499 1.99566 13.7626 2.00034 14.028C2.08384 18.5604 3.56782 41.4744 24.6462 47.9365C24.7581 47.9787 24.8768 48.0002 24.9964 48C24.9988 47.999 24.9993 47.999 25.0037 48C25.1233 48.0002 25.2419 47.9787 25.3538 47.9365C46.4352 41.4744 47.9167 18.5594 47.9997 14.027C48.005 13.7627 47.9572 13.5 47.8593 13.2544C47.7613 13.0089 47.6151 12.7854 47.4294 12.5973H47.4294ZM25.3323 43.7323C25.117 43.8088 24.8819 43.8091 24.6663 43.7333C16.8216 40.9676 11.3134 35.2125 8.29419 26.6291C7.2314 23.5442 6.52909 20.3468 6.20129 17.1004C6.1871 16.9613 6.20225 16.8207 6.24577 16.6878C6.28929 16.5548 6.36021 16.4325 6.45395 16.3287C6.54769 16.2249 6.66216 16.1419 6.78998 16.0851C6.91779 16.0283 7.05611 15.9989 7.19598 15.9988H11.0024V11.7398C11.0042 11.3082 11.1449 10.8887 11.4035 10.5431C11.6621 10.1976 12.0249 9.94436 12.4385 9.82084L24.7175 6.20936C24.9017 6.15467 25.0978 6.15467 25.282 6.20936L37.5616 9.8218C37.975 9.94517 38.3378 10.1982 38.5963 10.5436C38.8548 10.889 38.9954 11.3084 38.9972 11.7398V15.9988H42.806C42.946 15.9989 43.0844 16.0283 43.2123 16.0852C43.3402 16.1421 43.4547 16.2252 43.5485 16.3291C43.6423 16.433 43.7132 16.5554 43.7567 16.6884C43.8003 16.8215 43.8154 16.9621 43.8012 17.1014C43.1557 23.3721 40.0647 38.5202 25.3323 43.7323L25.3323 43.7323Z" fill="white"/>
</svg>
