<svg width="16" height="16" viewBox="0 0 16 16" fill="none" xmlns="http://www.w3.org/2000/svg">
<path d="M8.5 13.9845C9.125 13.9325 9.724 13.7867 10.297 13.547C10.87 13.3073 11.396 12.9843 11.875 12.578L9.0155 9.7185C8.85917 9.81217 8.68733 9.88517 8.5 9.9375V13.9845ZM12.578 11.875C12.9843 11.3957 13.3073 10.8697 13.547 10.297C13.7867 9.72433 13.9325 9.12533 13.9845 8.5H9.9375C9.8855 8.68767 9.8125 8.8595 9.7185 9.0155L12.578 11.875ZM13.9845 7.5C13.9325 6.875 13.7867 6.276 13.547 5.703C13.3073 5.13 12.9843 4.604 12.578 4.125L9.7185 6.9845C9.81217 7.14083 9.88517 7.31267 9.9375 7.5H13.9845ZM11.875 3.422C11.3957 3.01567 10.8697 2.69267 10.297 2.453C9.72433 2.21333 9.12533 2.0675 8.5 2.0155V6.0625C8.68767 6.1145 8.8595 6.1875 9.0155 6.2815L11.875 3.422ZM7.5 2.0155C6.875 2.0675 6.276 2.21333 5.703 2.453C5.13 2.69267 4.604 3.01567 4.125 3.422L6.9845 6.2815C7.14083 6.18783 7.31267 6.11483 7.5 6.0625V2.0155ZM3.422 4.125C3.01567 4.60433 2.69267 5.13033 2.453 5.703C2.21333 6.27567 2.0675 6.87467 2.0155 7.5H6.0625C6.1145 7.31233 6.1875 7.1405 6.2815 6.9845L3.422 4.125ZM2.0155 8.5C2.0675 9.125 2.21333 9.724 2.453 10.297C2.69267 10.87 3.01567 11.396 3.422 11.875L6.2815 9.0155C6.18783 8.84883 6.11483 8.677 6.0625 8.5H2.0155ZM4.125 12.578C4.60433 12.9843 5.13033 13.3073 5.703 13.547C6.27567 13.7867 6.87467 13.9325 7.5 13.9845V9.9375C7.323 9.8855 7.15117 9.8125 6.9845 9.7185L4.125 12.578ZM8 15C6.02067 14.948 4.37217 14.2632 3.0545 12.9455C1.73683 11.6278 1.052 9.97933 1 8C1.052 6.02067 1.73683 4.37217 3.0545 3.0545C4.37217 1.73683 6.02067 1.052 8 1C9.97933 1.052 11.6278 1.73683 12.9455 3.0545C14.2632 4.37217 14.948 6.02067 15 8C14.948 9.97933 14.2632 11.6278 12.9455 12.9455C11.6278 14.2632 9.97933 14.948 8 15ZM8 9C8.28133 8.98967 8.51567 8.89067 8.703 8.703C8.89033 8.51533 8.98417 8.281 8.9845 8C8.98483 7.719 8.891 7.48467 8.703 7.297C8.515 7.10933 8.28067 7.0155 8 7.0155C7.71933 7.0155 7.485 7.10933 7.297 7.297C7.109 7.48467 7.01517 7.719 7.0155 8C7.01583 8.281 7.10967 8.51533 7.297 8.703C7.48433 8.89067 7.71867 8.98967 8 9Z" fill="#80B5FE" fill-opacity="0.96"/>
</svg>
