<svg width="60" height="80" viewBox="0 0 60 80" fill="none" xmlns="http://www.w3.org/2000/svg">
<path d="M30 32.5C42.4264 32.5 52.5 26.9036 52.5 20C52.5 13.0964 42.4264 7.5 30 7.5C17.5736 7.5 7.5 13.0964 7.5 20C7.5 26.9036 17.5736 32.5 30 32.5Z" stroke="url(#paint0_linear_330_1464)" stroke-miterlimit="10" stroke-linecap="round"/>
<path d="M52.5 46.875C52.5 53.7781 42.4219 59.375 30 59.375C17.5781 59.375 7.5 53.7781 7.5 46.875M52.5 33.4375C52.5 40.3406 42.4219 45.9375 30 45.9375C17.5781 45.9375 7.5 40.3406 7.5 33.4375H52.5Z" stroke="url(#paint1_linear_330_1464)" stroke-miterlimit="10" stroke-linecap="round"/>
<path d="M7.5 19.8813V60.1188C7.5 66.9563 17.5781 72.5 30 72.5C42.4219 72.5 52.5 66.9563 52.5 60.1188V19.8813" stroke="url(#paint2_linear_330_1464)" stroke-miterlimit="10" stroke-linecap="round"/>
<defs>
<linearGradient id="paint0_linear_330_1464" x1="7.5" y1="20" x2="73.0986" y2="20" gradientUnits="userSpaceOnUse">
<stop stop-color="#007BFC"/>
<stop offset="1" stop-color="#B3E6FF"/>
</linearGradient>
<linearGradient id="paint1_linear_330_1464" x1="7.5" y1="46.4063" x2="73.0986" y2="46.4062" gradientUnits="userSpaceOnUse">
<stop stop-color="#007BFC"/>
<stop offset="1" stop-color="#B3E6FF"/>
</linearGradient>
<linearGradient id="paint2_linear_330_1464" x1="7.5" y1="46.1906" x2="73.0986" y2="46.1906" gradientUnits="userSpaceOnUse">
<stop stop-color="#007BFC"/>
<stop offset="1" stop-color="#B3E6FF"/>
</linearGradient>
</defs>
</svg>
