<svg width="80" height="80" viewBox="0 0 80 80" fill="none" xmlns="http://www.w3.org/2000/svg">
<path d="M67.15 20.3234L42.864 5.75781C41.9917 5.2605 41.0049 4.99896 40.0008 4.99896C38.9966 4.99896 38.0098 5.2605 37.1375 5.75781L12.85 20.3219C11.9747 20.8582 11.2526 21.6113 10.7534 22.5082C10.2541 23.4051 9.99464 24.4157 9.99999 25.4422V54.5312C9.99474 55.5584 10.2542 56.5695 10.7534 57.4672C11.2526 58.3649 11.9747 59.1188 12.85 59.6562L19.2187 63.4594L19.2547 63.4797C22.4703 65.125 23.7016 65.125 25.1281 65.125C30.15 65.125 33.2703 61.875 33.2703 56.6422V28.4375C33.2732 28.0854 33.1363 27.7465 32.8897 27.4951C32.6431 27.2438 32.3068 27.1006 31.9547 27.0969H28.4578C28.1057 27.1006 27.7694 27.2438 27.5228 27.4951C27.2761 27.7465 27.1393 28.0854 27.1422 28.4375V56.6422C27.1549 57.046 27.063 57.4462 26.8755 57.804C26.688 58.1618 26.4111 58.4651 26.0719 58.6844C25.15 59.2469 23.8109 59.1281 22.3 58.3484L16.1969 54.675C16.1735 54.659 16.1544 54.6376 16.1413 54.6125C16.1283 54.5874 16.1216 54.5595 16.1219 54.5312V25.8531C16.1229 25.8202 16.1318 25.7879 16.1478 25.7591C16.1638 25.7303 16.1866 25.7057 16.2141 25.6875L39.9391 11.1563C39.9568 11.1474 39.9763 11.1429 39.9961 11.1429C40.0159 11.1429 40.0354 11.1474 40.0531 11.1563L63.7922 25.6875C63.8192 25.7072 63.8411 25.7331 63.856 25.763C63.871 25.7929 63.8786 25.8259 63.8781 25.8594V54.5312C63.8787 54.5609 63.8727 54.5903 63.8605 54.6173C63.8484 54.6443 63.8304 54.6683 63.8078 54.6875L40.0484 68.8515C40.0079 68.8656 39.9639 68.8656 39.9234 68.8515L33.8562 65.2484C33.6761 65.1307 33.468 65.0627 33.2532 65.0515C33.0383 65.0402 32.8242 65.0861 32.6328 65.1844L32.5797 65.2156C30.9047 66.2078 30.4547 66.4656 28.9016 67.0312C28.6484 67.1234 28.0531 67.3437 28.0016 67.9328C27.95 68.5219 28.5156 68.9406 29.0187 69.2328L37.1281 74.2125C37.9922 74.7301 38.9803 75.0038 39.9875 75.0047H40.0781C41.0601 74.9893 42.0209 74.7161 42.864 74.2125L67.15 59.6609C68.0248 59.1218 68.7464 58.3669 69.2455 57.4686C69.7446 56.5703 70.0044 55.5588 70 54.5312V25.4422C70.0049 24.416 69.7452 23.4058 69.246 22.5092C68.7468 21.6126 68.0249 20.8598 67.15 20.3234V20.3234Z" fill="url(#paint0_linear_330_1338)"/>
<path d="M48.1063 49.6953C42.2797 49.6953 41.0375 48.0672 40.6688 45.439C40.6272 45.1261 40.4747 44.8385 40.239 44.6286C40.0033 44.4187 39.7 44.3004 39.3844 44.2953H36.2906C35.942 44.3027 35.6104 44.4479 35.3685 44.6991C35.1266 44.9504 34.9941 45.2872 35 45.6359C35 47.9141 35.8 55.35 48.1125 55.35C51.9219 55.35 55.0906 54.4594 57.2734 52.7734C59.4563 51.0875 60.625 48.6344 60.625 45.7109C60.625 39.8437 56.7969 38.2375 49.2578 37.1875C41.5938 36.1219 41.5938 35.5797 41.5938 34.3922C41.5938 33.5375 41.5938 31.5359 47.1344 31.5359C51.0766 31.5359 53.1875 32.0344 53.8625 34.6609C53.9223 34.9521 54.0797 35.2142 54.3087 35.4037C54.5378 35.5932 54.8246 35.6989 55.1219 35.7031H58.2266C58.4095 35.7013 58.59 35.6605 58.756 35.5835C58.922 35.5064 59.0696 35.3948 59.1891 35.2562C59.4278 34.9776 59.5468 34.6159 59.5203 34.25C59.1188 28.6953 55.0578 25.8781 47.1391 25.8781C39.9422 25.8781 35.6469 29.1203 35.6469 34.55C35.6469 40.5031 40.0984 42.1859 46.7859 42.8828C54.5984 43.6906 54.5984 44.8687 54.5984 45.9094C54.6031 47.5312 53.9297 49.6953 48.1063 49.6953Z" fill="url(#paint1_linear_330_1338)"/>
<defs>
<linearGradient id="paint0_linear_330_1338" x1="20.2352" y1="40.4136" x2="137.412" y2="40.4136" gradientUnits="userSpaceOnUse">
<stop stop-color="#007BFC"/>
<stop offset="1" stop-color="#B3E6FF"/>
</linearGradient>
<linearGradient id="paint1_linear_330_1338" x1="39.3712" y1="40.7874" x2="89.4157" y2="40.7874" gradientUnits="userSpaceOnUse">
<stop stop-color="#007BFC"/>
<stop offset="1" stop-color="#B3E6FF"/>
</linearGradient>
</defs>
</svg>
