<svg width="80" height="80" viewBox="0 0 80 80" fill="none" xmlns="http://www.w3.org/2000/svg">
<path d="M30 10H13.3333C11.4924 10 10 11.4924 10 13.3333V30C10 31.8409 11.4924 33.3333 13.3333 33.3333H30C31.8409 33.3333 33.3333 31.8409 33.3333 30V13.3333C33.3333 11.4924 31.8409 10 30 10Z" fill="#2F88FF"/>
<path d="M30 46.6667H13.3333C11.4924 46.6667 10 48.159 10 50V66.6667C10 68.5076 11.4924 70 13.3333 70H30C31.8409 70 33.3333 68.5076 33.3333 66.6667V50C33.3333 48.159 31.8409 46.6667 30 46.6667Z" fill="#2F88FF"/>
<path d="M58.3333 33.3333C64.7767 33.3333 70 28.11 70 21.6667C70 15.2233 64.7767 10 58.3333 10C51.89 10 46.6667 15.2233 46.6667 21.6667C46.6667 28.11 51.89 33.3333 58.3333 33.3333Z" fill="#2F88FF"/>
<path d="M66.6667 46.6667H50C48.159 46.6667 46.6667 48.159 46.6667 50V66.6667C46.6667 68.5076 48.159 70 50 70H66.6667C68.5076 70 70 68.5076 70 66.6667V50C70 48.159 68.5076 46.6667 66.6667 46.6667Z" fill="#2F88FF"/>
</svg>
