<svg width="80" height="80" viewBox="0 0 80 80" fill="none" xmlns="http://www.w3.org/2000/svg">
<path d="M60 78.4H25C24.5025 78.4 24.1 77.9975 24.1 77.5V65C24.1 64.5025 24.5025 64.1 25 64.1H51.6V58.75C51.6 56.49 49.7625 54.65 47.5 54.65H37.5C34.2475 54.65 31.6 52.0025 31.6 48.75V43.4H25C24.5025 43.4 24.1 42.9975 24.1 42.5V30C24.1 29.5025 24.5025 29.1 25 29.1H60C60.4975 29.1 60.9 29.5025 60.9 30V42.5C60.9 42.9975 60.4975 43.4 60 43.4H33.4V48.75C33.4 51.01 35.24 52.85 37.5 52.85H47.5C50.755 52.85 53.4 55.4975 53.4 58.75V64.1H60C60.4975 64.1 60.9 64.5025 60.9 65V77.5C60.9 77.9975 60.4975 78.4 60 78.4ZM25.9 76.6H59.1V65.9H25.9V76.6ZM25.9 41.6H59.1V30.9H25.9V41.6ZM35 72.15H30V70.35H35V72.15ZM65.0025 48.4V46.6C72.0475 46.6 76.6 42.88 76.6 37.1175C76.6 31.0375 71.7275 25.9 65.9575 25.9C65.46 25.9 65.0575 25.4975 65.0575 25C65.0575 12.8875 55.3175 3.40001 42.8875 3.40001C35.1775 3.40001 27.485 8.22751 23.2875 15.695C23.0975 16.0275 22.7275 16.2025 22.3475 16.1425C21.415 15.9825 20.4725 15.9 19.5525 15.9C10.3425 15.9 3.40001 22.5425 3.40001 31.3475C3.40001 40.0425 10.5375 46.6 20.0025 46.6V48.4025C9.51251 48.4025 1.60251 41.07 1.60251 31.35C1.60251 21.5175 9.32001 14.1025 19.555 14.1025C20.3725 14.1025 21.2025 14.16 22.0325 14.2725C26.6075 6.55501 34.7275 1.60251 42.8875 1.60251C56.0325 1.60251 66.39 11.4325 66.8425 24.1375C73.195 24.63 78.4025 30.375 78.4025 37.12C78.4 43.9725 73.1425 48.4 65.0025 48.4ZM35 37.15H30V35.35H35V37.15Z" fill="url(#paint0_linear_330_1496)"/>
<defs>
<linearGradient id="paint0_linear_330_1496" x1="1.60251" y1="40.0013" x2="113.557" y2="40.0012" gradientUnits="userSpaceOnUse">
<stop stop-color="#007BFC"/>
<stop offset="1" stop-color="#B3E6FF"/>
</linearGradient>
</defs>
</svg>
