<svg width="23" height="23" viewBox="0 0 23 23" fill="none" xmlns="http://www.w3.org/2000/svg">
<path d="M16.5983 1H6.14797C4.7463 1 3.40202 1.55672 2.41089 2.54786C1.41976 3.53899 0.862976 4.88314 0.862976 6.28481V16.7152C0.862976 17.4092 0.999681 18.0966 1.26528 18.7378C1.53087 19.379 1.92013 19.9614 2.41089 20.4521C2.90165 20.9429 3.48424 21.3322 4.12545 21.5978C4.76666 21.8634 5.45393 22 6.14797 22H16.5983C17.2914 22 17.9777 21.8632 18.6178 21.5973C19.2579 21.3315 19.8392 20.9422 20.3283 20.4512C20.8175 19.9601 21.2049 19.3774 21.4683 18.7363C21.7318 18.0952 21.866 17.4083 21.8634 16.7152V6.28481C21.8634 4.88659 21.3093 3.54523 20.3225 2.55467C19.3357 1.56411 17.9965 1.00528 16.5983 1ZM20.1882 16.6353C20.1882 17.6104 19.8022 18.546 19.1145 19.2373C18.4269 19.9287 17.4936 20.3198 16.5185 20.3251H6.22776C5.74418 20.3251 5.26532 20.2293 4.8188 20.0436C4.37228 19.858 3.96691 19.586 3.62589 19.2432C3.28488 18.9003 3.01499 18.4934 2.83176 18.0459C2.64852 17.5984 2.55549 17.1189 2.55812 16.6353V6.36467C2.55549 5.88109 2.64852 5.40164 2.83176 4.95412C3.01499 4.5066 3.28488 4.0997 3.62589 3.75683C3.96691 3.41396 4.37228 3.14202 4.8188 2.95636C5.26532 2.7707 5.74418 2.67493 6.22776 2.67494H16.5185C17.4936 2.68021 18.4269 3.07132 19.1145 3.76267C19.8022 4.45402 20.1882 5.38959 20.1882 6.36467V16.6353Z" fill="#808080" stroke="#808080" stroke-width="0.5"/>
<path d="M11.3134 6.22562C10.2673 6.22168 9.24351 6.52811 8.37177 7.10643C7.50004 7.68474 6.81951 8.50887 6.41644 9.47422C6.01337 10.4396 5.9059 11.503 6.10756 12.5295C6.30923 13.556 6.81102 14.4995 7.54934 15.2406C8.28766 15.9817 9.22931 16.487 10.255 16.6925C11.2808 16.8981 12.3444 16.7944 13.3113 16.395C14.2782 15.9956 15.1047 15.3184 15.6864 14.4489C16.268 13.5793 16.5785 12.5566 16.5785 11.5104C16.5785 10.1122 16.0244 8.77134 15.0376 7.78078C14.0507 6.79022 12.7116 6.2309 11.3134 6.22562ZM11.3134 15.0405C10.6104 15.0405 9.92327 14.832 9.33906 14.4411C8.75485 14.0501 8.29988 13.4944 8.03179 12.8445C7.7637 12.1947 7.6946 11.48 7.8332 10.7908C7.9718 10.1016 8.31188 9.46935 8.81035 8.97369C9.30881 8.47802 9.94319 8.14142 10.6331 8.0067C11.323 7.87199 12.0375 7.94481 12.6858 8.21656C13.3341 8.4883 13.8871 8.94674 14.2748 9.53314C14.6624 10.1195 14.8673 10.8075 14.8633 11.5104C14.858 12.4485 14.4817 13.3463 13.8165 14.0077C13.1514 14.6692 12.2514 15.0405 11.3134 15.0405Z" fill="#808080" stroke="#808080" stroke-width="0.5"/>
<path d="M17.0172 7.10308C17.7551 7.10308 18.3534 6.50484 18.3534 5.76687C18.3534 5.02891 17.7551 4.43066 17.0172 4.43066C16.2792 4.43066 15.6809 5.02891 15.6809 5.76687C15.6809 6.50484 16.2792 7.10308 17.0172 7.10308Z" fill="#808080" stroke="#808080" stroke-width="0.5"/>
</svg>
