<svg width="60" height="60" viewBox="0 0 60 60" fill="none" xmlns="http://www.w3.org/2000/svg">
<path d="M16.875 39.3168V43.0668C13.0863 42.7543 9.97125 41.2893 7.53 38.6718C5.08875 36.0543 3.82875 32.8512 3.75 29.0624C3.78875 25.5462 4.8825 22.5187 7.03125 19.9799C9.18 17.4412 11.9731 15.8393 15.4106 15.1743C16.2706 11.9706 17.9212 9.33369 20.3625 7.26369C22.8037 5.19369 25.7044 4.04119 29.0644 3.80619C32.3844 3.61119 35.3925 4.38244 38.0887 6.11994C40.785 7.85744 42.7575 10.2693 44.0062 13.3556C47.7175 14.1368 50.6963 15.9237 52.9425 18.7162C55.1888 21.5087 56.2725 24.7999 56.1937 28.5899C56.0375 32.3399 54.7581 35.5431 52.3556 38.1993C49.9531 40.8556 46.8769 42.4574 43.1269 43.0049V39.1968C45.8619 38.6893 48.0887 37.4293 49.8075 35.4168C51.5262 33.4043 52.425 31.0118 52.5037 28.2393C52.465 25.4268 51.6056 23.0049 49.9256 20.9737C48.2456 18.9424 46.0387 17.6337 43.305 17.0474L41.2537 16.6949L40.4925 14.7018C39.555 12.3968 38.0806 10.5899 36.0694 9.28119C34.0581 7.97244 31.8025 7.39619 29.3025 7.55244C26.8025 7.70869 24.625 8.55806 22.77 10.1006C20.915 11.6431 19.675 13.6449 19.05 16.1062L18.4631 18.4499L16.0612 18.8606C13.5225 19.3681 11.4719 20.5499 9.90937 22.4062C8.34687 24.2624 7.54625 26.4793 7.5075 29.0568C7.54625 31.8306 8.445 34.1643 10.2037 36.0581C11.9625 37.9518 14.1894 39.0356 16.8844 39.3093L16.875 39.3168ZM24.375 43.1249C23.6712 43.0862 23.1438 42.7637 22.7925 42.1574C22.4412 41.5512 22.4219 40.9362 22.7344 40.3124L30.2344 27.1874C30.6256 26.5624 31.1725 26.2499 31.875 26.2499C32.5775 26.2499 33.1144 26.5624 33.4856 27.1874C33.8569 27.8124 33.8669 28.4374 33.5156 29.0624L27.5981 39.3749H35.625C36.3288 39.4137 36.8563 39.7362 37.2075 40.3424C37.5588 40.9487 37.5781 41.5637 37.2656 42.1874L29.7656 55.3124C29.4919 55.7812 29.1112 56.0743 28.6237 56.1918C28.1362 56.3093 27.6575 56.2412 27.1875 55.9874C26.7175 55.7337 26.4244 55.3624 26.3081 54.8737C26.1919 54.3849 26.2506 53.9062 26.4844 53.4374L32.4019 43.1249H24.375Z" fill="white" fill-opacity="0.96"/>
</svg>
