<svg width="347" height="367" viewBox="0 0 347 367" fill="none" xmlns="http://www.w3.org/2000/svg">
<path d="M346.897 177.478C346.943 178.81 346.973 180.147 346.989 181.487L345.989 181.498C345.996 182.165 346 182.832 346 183.5C346 184.168 345.996 184.835 345.989 185.502L346.989 185.513C346.973 186.853 346.943 188.19 346.897 189.523L345.898 189.488C345.853 190.817 345.792 192.143 345.717 193.464L346.715 193.521C346.639 194.86 346.548 196.195 346.441 197.526L345.444 197.446C345.339 198.77 345.218 200.09 345.082 201.405L346.077 201.508C345.939 202.842 345.786 204.173 345.619 205.498L344.627 205.373C344.46 206.691 344.278 208.004 344.082 209.313L345.071 209.461C344.872 210.787 344.658 212.108 344.429 213.424L343.444 213.253C343.216 214.563 342.974 215.867 342.717 217.167L343.698 217.361C343.438 218.675 343.163 219.983 342.873 221.286L341.897 221.069C341.609 222.368 341.306 223.66 340.988 224.948L341.959 225.187C341.639 226.486 341.304 227.78 340.954 229.068L339.989 228.806C339.641 230.089 339.278 231.367 338.9 232.639L339.859 232.923C339.479 234.206 339.084 235.482 338.675 236.751L337.723 236.445C337.315 237.711 336.893 238.971 336.457 240.224L337.401 240.553C336.962 241.816 336.508 243.072 336.04 244.321L335.104 243.97C334.637 245.216 334.157 246.455 333.663 247.688L334.591 248.06C334.093 249.3 333.582 250.534 333.057 251.76L332.137 251.366C331.614 252.589 331.076 253.805 330.525 255.013L331.435 255.428C330.88 256.644 330.312 257.852 329.73 259.052L328.83 258.616C328.25 259.813 327.657 261.003 327.05 262.185L327.94 262.641C327.329 263.83 326.706 265.01 326.069 266.183L325.19 265.705C324.556 266.874 323.908 268.035 323.247 269.188L324.114 269.685C323.449 270.844 322.772 271.995 322.081 273.137L321.226 272.62C320.538 273.757 319.837 274.887 319.124 276.007L319.967 276.544C319.25 277.672 318.519 278.79 317.777 279.899L316.946 279.343C316.206 280.448 315.454 281.543 314.69 282.63L315.508 283.205C314.739 284.298 313.958 285.382 313.165 286.456L312.36 285.862C311.571 286.931 310.769 287.991 309.956 289.041L310.747 289.653C309.928 290.71 309.098 291.756 308.256 292.793L307.48 292.163C306.642 293.194 305.793 294.216 304.932 295.227L305.694 295.876C304.828 296.893 303.95 297.901 303.061 298.898L302.315 298.233C301.431 299.224 300.536 300.206 299.629 301.177L300.36 301.859C299.449 302.836 298.526 303.802 297.592 304.758L296.877 304.059C295.948 305.009 295.009 305.948 294.059 306.877L294.758 307.592C293.802 308.526 292.836 309.449 291.859 310.36L291.177 309.629C290.206 310.536 289.224 311.431 288.233 312.315L288.898 313.061C287.901 313.95 286.893 314.828 285.876 315.694L285.227 314.932C284.216 315.793 283.194 316.642 282.163 317.48L282.793 318.256C281.756 319.098 280.71 319.928 279.653 320.747L279.041 319.956C277.991 320.769 276.931 321.571 275.862 322.36L276.456 323.165C275.382 323.958 274.298 324.739 273.205 325.508L272.63 324.69C271.543 325.454 270.448 326.206 269.343 326.946L269.899 327.777C268.79 328.519 267.672 329.25 266.544 329.967L266.007 329.124C264.887 329.837 263.757 330.538 262.62 331.226L263.137 332.081C261.995 332.772 260.844 333.449 259.685 334.114L259.188 333.247C258.035 333.908 256.874 334.556 255.705 335.19L256.183 336.069C255.01 336.706 253.83 337.329 252.641 337.94L252.185 337.05C251.003 337.657 249.813 338.25 248.616 338.83L249.052 339.73C247.852 340.312 246.644 340.88 245.428 341.435L245.013 340.525C243.805 341.076 242.589 341.614 241.366 342.137L241.76 343.057C240.534 343.582 239.3 344.093 238.06 344.591L237.688 343.663C236.455 344.157 235.216 344.638 233.97 345.104L234.321 346.04C233.072 346.508 231.816 346.962 230.553 347.401L230.224 346.457C228.971 346.893 227.711 347.315 226.445 347.723L226.751 348.675C225.482 349.084 224.206 349.479 222.923 349.859L222.639 348.9C221.367 349.278 220.089 349.641 218.806 349.989L219.068 350.954C217.78 351.304 216.486 351.639 215.187 351.959L214.947 350.988C213.66 351.306 212.368 351.609 211.069 351.897L211.286 352.873C209.983 353.163 208.675 353.438 207.361 353.698L207.167 352.717C205.867 352.974 204.563 353.216 203.253 353.444L203.424 354.429C202.108 354.658 200.787 354.872 199.461 355.071L199.313 354.082C198.004 354.278 196.691 354.46 195.373 354.627L195.498 355.619C194.173 355.786 192.842 355.939 191.508 356.077L191.405 355.082C190.09 355.218 188.77 355.339 187.446 355.444L187.525 356.441C186.195 356.548 184.86 356.639 183.521 356.715L183.464 355.717C182.143 355.792 180.817 355.853 179.488 355.898L179.522 356.897C178.19 356.943 176.853 356.973 175.513 356.989L175.502 355.989C174.835 355.996 174.168 356 173.5 356C172.832 356 172.165 355.996 171.498 355.989L171.487 356.989C170.147 356.973 168.81 356.943 167.477 356.897L167.512 355.898C166.183 355.853 164.857 355.792 163.536 355.717L163.479 356.715C162.14 356.639 160.805 356.548 159.474 356.441L159.554 355.444C158.23 355.339 156.91 355.218 155.595 355.082L155.492 356.077C154.158 355.939 152.827 355.786 151.502 355.619L151.627 354.627C150.309 354.46 148.996 354.278 147.687 354.082L147.539 355.071C146.213 354.872 144.892 354.658 143.576 354.429L143.747 353.444C142.437 353.216 141.133 352.974 139.833 352.717L139.639 353.698C138.325 353.438 137.017 353.163 135.714 352.873L135.931 351.897C134.632 351.609 133.34 351.306 132.052 350.988L131.813 351.959C130.514 351.639 129.22 351.304 127.932 350.954L128.194 349.989C126.911 349.641 125.633 349.278 124.361 348.9L124.077 349.859C122.794 349.479 121.518 349.084 120.249 348.675L120.555 347.723C119.289 347.315 118.029 346.893 116.776 346.457L116.447 347.401C115.184 346.962 113.928 346.508 112.679 346.04L113.03 345.104C111.784 344.637 110.545 344.157 109.312 343.663L108.94 344.591C107.7 344.093 106.466 343.582 105.24 343.057L105.634 342.137C104.411 341.614 103.195 341.076 101.987 340.525L101.572 341.435C100.356 340.88 99.1483 340.312 97.9478 339.73L98.3839 338.83C97.1866 338.25 95.9971 337.657 94.8155 337.05L94.3587 337.94C93.1702 337.329 91.9897 336.706 90.8173 336.069L91.2945 335.19C90.1256 334.556 88.9649 333.908 87.8124 333.247L87.315 334.114C86.1559 333.449 85.0052 332.772 83.8631 332.081L84.3804 331.226C83.2425 330.538 82.1132 329.837 80.9927 329.124L80.4557 329.967C79.3285 329.25 78.21 328.519 77.1007 327.777L77.657 326.946C76.5524 326.206 75.4568 325.454 74.3704 324.69L73.7951 325.508C72.7021 324.739 71.6184 323.958 70.5441 323.165L71.1381 322.36C70.069 321.571 69.0093 320.769 67.9593 319.956L67.3469 320.747C66.2905 319.928 65.2437 319.098 64.2068 318.256L64.8372 317.48C63.8057 316.642 62.7841 315.793 61.7726 314.932L61.1245 315.694C60.1068 314.828 59.0992 313.95 58.102 313.061L58.7674 312.315C57.7756 311.431 56.7941 310.536 55.8231 309.629L55.1407 310.36C54.1639 309.449 53.1977 308.526 52.2422 307.592L52.9411 306.877C51.9911 305.948 51.0517 305.009 50.1233 304.059L49.4081 304.758C48.4743 303.802 47.5514 302.836 46.6397 301.859L47.3707 301.177C46.4643 300.206 45.5691 299.224 44.6851 298.233L43.9386 298.898C43.0497 297.901 42.1722 296.893 41.3062 295.876L42.0678 295.227C41.2071 294.216 40.3578 293.194 39.5202 292.163L38.7439 292.793C37.9019 291.756 37.0717 290.71 36.2534 289.653L37.044 289.041C36.2306 287.991 35.4291 286.931 34.6397 285.862L33.8352 286.456C33.042 285.382 32.2609 284.298 31.4921 283.205L32.31 282.63C31.5458 281.543 30.7939 280.448 30.0544 279.343L29.2234 279.899C28.4807 278.79 27.7505 277.672 27.0329 276.544L27.8764 276.007C27.1631 274.887 26.4624 273.757 25.7745 272.62L24.9187 273.137C24.2282 271.995 23.5505 270.844 22.8858 269.685L23.7533 269.188C23.0924 268.035 22.4445 266.874 21.8097 265.705L20.9309 266.183C20.2942 265.01 19.6706 263.83 19.0604 262.641L19.9499 262.185C19.3432 261.003 18.7497 259.813 18.1697 258.616L17.2697 259.052C16.6881 257.852 16.12 256.644 15.5654 255.428L16.4752 255.013C15.9241 253.805 15.3865 252.589 14.8626 251.366L13.9434 251.76C13.4182 250.534 12.9067 249.3 12.4091 248.06L13.3372 247.688C12.843 246.455 12.3625 245.216 11.896 243.97L10.9595 244.321C10.4919 243.072 10.0383 241.816 9.5988 240.553L10.5432 240.224C10.107 238.971 9.68479 237.711 9.27684 236.445L8.32501 236.751C7.91599 235.482 7.5212 234.206 7.14083 232.923L8.09954 232.639C7.72231 231.367 7.35934 230.089 7.01083 228.806L6.04576 229.068C5.69619 227.78 5.36108 226.486 5.04061 225.187L6.01152 224.947C5.69409 223.66 5.39111 222.368 5.10275 221.069L4.12654 221.286C3.83712 219.983 3.56234 218.675 3.30241 217.361L4.28339 217.167C4.02634 215.867 3.78388 214.563 3.55619 213.253L2.57097 213.424C2.34218 212.108 2.12822 210.787 1.92926 209.461L2.91819 209.313C2.72186 208.004 2.54022 206.691 2.37345 205.373L1.38136 205.498C1.21362 204.173 1.06085 202.842 0.923204 201.508L1.91793 201.405C1.78229 200.09 1.66142 198.77 1.55551 197.446L0.558691 197.525C0.452234 196.195 0.360794 194.86 0.28454 193.521L1.28292 193.464C1.20769 192.143 1.14732 190.817 1.10199 189.488L0.102567 189.522C0.0571047 188.19 0.0266735 186.853 0.0114374 185.513L1.01137 185.502C1.0038 184.835 1 184.168 1 183.5C1 182.832 1.0038 182.165 1.01137 181.498L0.0114386 181.487C0.0266756 180.147 0.0571076 178.81 0.10257 177.477L1.10199 177.512C1.14733 176.183 1.20769 174.857 1.28293 173.536L0.284545 173.479C0.360799 172.14 0.45224 170.805 0.558697 169.474L1.55551 169.554C1.66143 168.23 1.78229 166.91 1.91794 165.595L0.923214 165.492C1.06086 164.158 1.21364 162.827 1.38137 161.502L2.37346 161.627C2.54023 160.309 2.72187 158.996 2.9182 157.687L1.92927 157.539C2.12823 156.213 2.34219 154.892 2.57098 153.576L3.5562 153.747C3.7839 152.437 4.02636 151.133 4.28341 149.833L3.30242 149.639C3.56236 148.325 3.83713 147.017 4.12656 145.714L5.10277 145.931C5.39112 144.632 5.6941 143.34 6.01153 142.052L5.04063 141.813C5.3611 140.514 5.69621 139.22 6.04578 137.932L7.01085 138.194C7.35936 136.911 7.72232 135.633 8.09956 134.361L7.14085 134.077C7.52122 132.794 7.91601 131.518 8.32503 130.249L9.27686 130.555C9.68481 129.289 10.107 128.029 10.5432 126.776L9.59882 126.447C10.0383 125.184 10.4919 123.928 10.9595 122.679L11.8961 123.03C12.3625 121.784 12.843 120.545 13.3373 119.312L12.4092 118.94C12.9067 117.7 13.4182 116.466 13.9434 115.24L14.8626 115.634C15.3865 114.411 15.9241 113.195 16.4753 111.987L15.5654 111.572C16.12 110.356 16.6882 109.148 17.2698 107.948L18.1697 108.384C18.7497 107.187 19.3432 105.997 19.95 104.815L19.0604 104.359C19.6706 103.17 20.2942 101.99 20.9309 100.817L21.8097 101.295C22.4445 100.126 23.0924 98.9649 23.7533 97.8124L22.8858 97.315C23.5505 96.1559 24.2282 95.0052 24.9187 93.8631L25.7745 94.3804C26.4624 93.2425 27.1631 92.1132 27.8764 90.9927L27.0329 90.4557C27.7504 89.3285 28.4807 88.21 29.2234 87.1007L30.0544 87.657C30.7939 86.5524 31.5458 85.4568 32.31 84.3704L31.4921 83.7951C32.2609 82.7021 33.042 81.6184 33.8352 80.5441L34.6397 81.1381C35.4291 80.069 36.2306 79.0093 37.0439 77.9593L36.2534 77.3469C37.0717 76.2905 37.9019 75.2437 38.7439 74.2069L39.5202 74.8372C40.3578 73.8057 41.2071 72.7841 42.0678 71.7726L41.3062 71.1245C42.1722 70.1068 43.0497 69.0992 43.9386 68.102L44.6851 68.7674C45.569 67.7756 46.4643 66.7941 47.3706 65.8231L46.6396 65.1407C47.5513 64.1639 48.4742 63.1977 49.408 62.2422L50.1232 62.9411C51.0517 61.9911 51.991 61.0517 52.9411 60.1233L52.2421 59.4081C53.1976 58.4743 54.1639 57.5514 55.1407 56.6396L55.823 57.3707C56.7941 56.4643 57.7756 55.5691 58.7673 54.6851L58.1019 53.9386C59.0992 53.0497 60.1068 52.1722 61.1245 51.3062L61.7725 52.0678C62.7841 51.2071 63.8057 50.3578 64.8372 49.5202L64.2068 48.7439C65.2437 47.9019 66.2904 47.0717 67.3469 46.2534L67.9593 47.044C69.0093 46.2306 70.069 45.4291 71.1381 44.6397L70.5441 43.8353C71.6183 43.042 72.7021 42.2609 73.7951 41.4921L74.3704 42.31C75.4568 41.5458 76.5524 40.7939 77.657 40.0544L77.1007 39.2234C78.21 38.4807 79.3284 37.7505 80.4557 37.0329L80.9927 37.8764C82.1132 37.1631 83.2425 36.4624 84.3804 35.7745L83.8631 34.9187C85.0052 34.2282 86.1559 33.5505 87.315 32.8858L87.8125 33.7533C88.9649 33.0924 90.1256 32.4445 91.2946 31.8097L90.8173 30.9309C91.9897 30.2942 93.1702 29.6706 94.3587 29.0604L94.8155 29.95C95.9971 29.3432 97.1866 28.7497 98.3839 28.1697L97.9479 27.2697C99.1483 26.6881 100.356 26.12 101.572 25.5654L101.987 26.4753C103.195 25.9241 104.411 25.3865 105.634 24.8626L105.24 23.9434C106.466 23.4182 107.7 22.9067 108.94 22.4091L109.312 23.3373C110.545 22.843 111.784 22.3625 113.03 21.896L112.679 20.9595C113.928 20.4919 115.184 20.0383 116.447 19.5988L116.776 20.5432C118.029 20.107 119.289 19.6848 120.555 19.2768L120.249 18.325C121.518 17.916 122.794 17.5212 124.077 17.1408L124.361 18.0995C125.633 17.7223 126.911 17.3593 128.194 17.0108L127.932 16.0458C129.22 15.6962 130.514 15.3611 131.813 15.0406L132.053 16.0115C133.34 15.6941 134.632 15.3911 135.931 15.1028L135.714 14.1265C137.017 13.8371 138.325 13.5623 139.639 13.3024L139.833 14.2834C141.133 14.0263 142.437 13.7839 143.747 13.5562L143.576 12.571C144.892 12.3422 146.213 12.1282 147.539 11.9293L147.687 12.9182C148.996 12.7219 150.309 12.5402 151.627 12.3734L151.502 11.3814C152.827 11.2136 154.158 11.0608 155.492 10.9232L155.595 11.9179C156.91 11.7823 158.23 11.6614 159.554 11.5555L159.475 10.5587C160.805 10.4522 162.14 10.3608 163.479 10.2845L163.536 11.2829C164.857 11.2077 166.183 11.1473 167.512 11.102L167.478 10.1026C168.81 10.0571 170.147 10.0267 171.487 10.0114L171.498 11.0114C172.165 11.0038 172.832 11 173.5 11C174.168 11 174.835 11.0038 175.502 11.0114L175.513 10.0114C176.853 10.0267 178.19 10.0571 179.523 10.1026L179.488 11.102C180.817 11.1473 182.143 11.2077 183.464 11.2829L183.521 10.2845C184.86 10.3608 186.195 10.4522 187.526 10.5587L187.446 11.5555C188.77 11.6614 190.09 11.7823 191.405 11.9179L191.508 10.9232C192.842 11.0609 194.173 11.2136 195.498 11.3814L195.373 12.3735C196.691 12.5402 198.004 12.7219 199.313 12.9182L199.461 11.9293C200.787 12.1282 202.108 12.3422 203.424 12.571L203.253 13.5562C204.563 13.7839 205.867 14.0264 207.167 14.2834L207.361 13.3024C208.675 13.5624 209.983 13.8371 211.286 14.1266L211.069 15.1028C212.368 15.3911 213.66 15.6941 214.948 16.0115L215.187 15.0406C216.486 15.3611 217.78 15.6962 219.068 16.0458L218.806 17.0108C220.089 17.3594 221.367 17.7223 222.639 18.0996L222.923 17.1408C224.206 17.5212 225.482 17.916 226.751 18.325L226.445 19.2769C227.711 19.6848 228.971 20.107 230.224 20.5432L230.553 19.5988C231.816 20.0383 233.072 20.4919 234.321 20.9595L233.97 21.8961C235.216 22.3625 236.455 22.843 237.688 23.3373L238.06 22.4091C239.3 22.9067 240.534 23.4182 241.76 23.9434L241.366 24.8626C242.589 25.3865 243.805 25.9241 245.013 26.4753L245.428 25.5654C246.644 26.12 247.852 26.6881 249.052 27.2697L248.616 28.1697C249.813 28.7497 251.003 29.3432 252.185 29.9499L252.641 29.0604C253.83 29.6706 255.01 30.2942 256.183 30.9309L255.705 31.8097C256.874 32.4445 258.035 33.0924 259.188 33.7533L259.685 32.8858C260.844 33.5505 261.995 34.2282 263.137 34.9187L262.62 35.7745C263.757 36.4624 264.887 37.1631 266.007 37.8764L266.544 37.0329C267.672 37.7504 268.79 38.4807 269.899 39.2234L269.343 40.0544C270.448 40.7939 271.543 41.5458 272.63 42.31L273.205 41.492C274.298 42.2609 275.382 43.042 276.456 43.8352L275.862 44.6397C276.931 45.4291 277.991 46.2306 279.041 47.0439L279.653 46.2533C280.71 47.0717 281.756 47.9019 282.793 48.7439L282.163 49.5201C283.194 50.3578 284.216 51.207 285.227 52.0678L285.875 51.3062C286.893 52.1722 287.901 53.0497 288.898 53.9385L288.233 54.6851C289.224 55.569 290.206 56.4643 291.177 57.3706L291.859 56.6396C292.836 57.5513 293.802 58.4742 294.758 59.408L294.059 60.1232C295.009 61.0517 295.948 61.991 296.877 62.9411L297.592 62.2421C298.526 63.1976 299.449 64.1639 300.36 65.1407L299.629 65.823C300.536 66.794 301.431 67.7755 302.315 68.7673L303.061 68.1019C303.95 69.0992 304.828 70.1068 305.694 71.1245L304.932 71.7725C305.793 72.7841 306.642 73.8057 307.48 74.8372L308.256 74.2068C309.098 75.2437 309.928 76.2904 310.747 77.3469L309.956 77.9592C310.769 79.0093 311.571 80.069 312.36 81.1381L313.165 80.5441C313.958 81.6183 314.739 82.7021 315.508 83.7951L314.69 84.3704C315.454 85.4568 316.206 86.5524 316.946 87.657L317.777 87.1007C318.519 88.21 319.25 89.3284 319.967 90.4557L319.124 90.9927C319.837 92.1132 320.538 93.2425 321.226 94.3804L322.081 93.863C322.772 95.0052 323.449 96.1559 324.114 97.315L323.247 97.8125C323.908 98.9649 324.556 100.126 325.19 101.295L326.069 100.817C326.706 101.99 327.329 103.17 327.94 104.359L327.05 104.815C327.657 105.997 328.25 107.187 328.83 108.384L329.73 107.948C330.312 109.148 330.88 110.356 331.435 111.572L330.525 111.987C331.076 113.195 331.614 114.411 332.137 115.634L333.057 115.24C333.582 116.466 334.093 117.7 334.591 118.94L333.663 119.312C334.157 120.545 334.637 121.784 335.104 123.03L336.04 122.679C336.508 123.928 336.962 125.184 337.401 126.447L336.457 126.776C336.893 128.029 337.315 129.289 337.723 130.555L338.675 130.249C339.084 131.518 339.479 132.794 339.859 134.077L338.9 134.361C339.278 135.633 339.641 136.911 339.989 138.194L340.954 137.932C341.304 139.22 341.639 140.514 341.959 141.813L340.988 142.053C341.306 143.34 341.609 144.632 341.897 145.931L342.873 145.714C343.163 147.017 343.438 148.325 343.698 149.639L342.717 149.833C342.974 151.133 343.216 152.437 343.444 153.747L344.429 153.576C344.658 154.892 344.872 156.213 345.071 157.539L344.082 157.687C344.278 158.996 344.46 160.309 344.627 161.627L345.619 161.502C345.786 162.827 345.939 164.158 346.077 165.492L345.082 165.595C345.218 166.91 345.339 168.23 345.444 169.554L346.441 169.475C346.548 170.805 346.639 172.14 346.715 173.479L345.717 173.536C345.792 174.857 345.853 176.183 345.898 177.512L346.897 177.478Z" stroke="#203F5F" stroke-width="2" stroke-dasharray="4 4"/>
<circle cx="187" cy="10" r="10" fill="#007BFC"/>
<circle cx="174" cy="357" r="10" fill="#007BFC"/>
</svg>
