<svg width="32" height="32" viewBox="0 0 32 32" fill="none" xmlns="http://www.w3.org/2000/svg">
<g clip-path="url(#clip0_330_1520)">
<path d="M16.6707 0C16.464 0 16.2507 0.0106667 16.032 0.028C10.396 0.472 11.8907 6.43733 11.8053 8.42533C11.7027 9.88267 11.4053 11.0307 10.404 12.4533C9.224 13.8547 7.568 16.12 6.78267 18.4813C6.412 19.5907 6.236 20.7267 6.4 21.8C6.348 21.8453 6.29867 21.8907 6.252 21.98C5.90533 22.3373 5.65333 22.7813 5.36933 23.0987C5.104 23.364 4.72267 23.4547 4.30667 23.632C3.88933 23.8133 3.42933 23.9907 3.15467 24.54C3.03467 24.7907 2.97333 25.064 2.97867 25.3413C2.97867 25.6067 3.01467 25.876 3.052 26.056C3.12933 26.588 3.20667 27.028 3.104 27.3493C2.77333 28.256 2.732 28.8773 2.964 29.3293C3.196 29.7747 3.67733 29.9547 4.216 30.1307C5.29733 30.3973 6.76267 30.3107 7.916 30.9293C9.15067 31.552 10.404 31.824 11.404 31.556C12.1053 31.4027 12.6973 30.9387 13.0147 30.296C13.7973 30.292 14.6547 29.9373 16.028 29.8507C16.96 29.7733 18.1267 30.2067 19.4653 30.116C19.4987 30.296 19.5493 30.3813 19.6173 30.5613L19.6213 30.5653C20.1427 31.6027 21.1053 32.0747 22.1333 31.9933C23.1613 31.9133 24.256 31.2787 25.1427 30.252C25.984 29.232 27.3867 28.8067 28.3133 28.248C28.7773 27.9827 29.152 27.6227 29.1787 27.1107C29.2093 26.5773 28.9133 26.028 28.2267 25.2747V25.1453L28.2227 25.1413C27.996 24.8747 27.8893 24.428 27.772 23.9067C27.6587 23.372 27.5293 22.8587 27.116 22.512H27.112C27.0333 22.44 26.948 22.4227 26.8613 22.332C26.7867 22.2813 26.7 22.2493 26.608 22.2467C27.1827 20.5427 26.96 18.8467 26.3773 17.3213C25.6667 15.4413 24.424 13.804 23.4773 12.6773C22.416 11.3373 21.376 10.068 21.396 8.18533C21.432 5.316 21.712 0.008 16.6707 0V0ZM17.376 4.54H17.3933C17.6773 4.54 17.9213 4.62267 18.172 4.804C18.4267 4.984 18.612 5.24667 18.7573 5.51467C18.8973 5.86 18.968 6.12667 18.9787 6.48C18.9787 6.45333 18.9867 6.42667 18.9867 6.40133V6.54C18.984 6.53067 18.9813 6.52 18.9813 6.512L18.976 6.48C18.9733 6.804 18.9053 7.124 18.776 7.42133C18.7133 7.588 18.6173 7.74133 18.492 7.868C18.4533 7.84667 18.416 7.828 18.3747 7.812C18.2347 7.752 18.1093 7.72667 17.9947 7.63467C17.9 7.59733 17.8013 7.56667 17.7027 7.54667C17.768 7.468 17.896 7.36933 17.9453 7.28267C18.016 7.112 18.0547 6.93067 18.0627 6.74667V6.72133C18.0653 6.54133 18.0387 6.36 17.9813 6.188C17.9213 6.008 17.8467 5.92 17.7373 5.74267C17.6253 5.65467 17.5147 5.56667 17.3813 5.56667H17.36C17.236 5.56667 17.1253 5.60667 17.0107 5.74267C16.884 5.868 16.7893 6.01867 16.7373 6.188C16.6667 6.35733 16.6253 6.54 16.6173 6.72133V6.74667C16.62 6.86533 16.628 6.98533 16.644 7.10267C16.3867 7.01333 16.06 6.92267 15.8347 6.83333C15.8213 6.74667 15.8133 6.65733 15.8107 6.568V6.54133C15.8 6.18933 15.868 5.84 16.0107 5.516C16.12 5.224 16.32 4.97467 16.584 4.80533C16.812 4.63333 17.0893 4.54 17.376 4.54V4.54ZM13.4267 4.61867H13.4747C13.664 4.61867 13.8347 4.68267 14.0067 4.79867C14.2013 4.97067 14.3587 5.18267 14.4653 5.41867C14.5853 5.684 14.6533 5.95333 14.6693 6.308V6.31333C14.6787 6.492 14.6773 6.58133 14.6667 6.668V6.77467C14.6267 6.784 14.592 6.79867 14.556 6.80667C14.3533 6.88 14.1907 6.98667 14.032 7.07333C14.048 6.95467 14.0493 6.83467 14.036 6.71733V6.69733C14.02 6.52 13.984 6.432 13.9267 6.25333C13.8853 6.11733 13.8093 5.996 13.7053 5.89733C13.64 5.83733 13.552 5.80667 13.4613 5.812H13.4333C13.3387 5.82 13.26 5.86667 13.1853 5.988C13.1 6.09067 13.0453 6.216 13.0253 6.348C12.9893 6.492 12.9787 6.64 12.9947 6.78933V6.808C13.0107 6.988 13.044 7.076 13.1027 7.25333C13.1627 7.432 13.232 7.52 13.3227 7.61067C13.3373 7.62267 13.3507 7.63467 13.368 7.64267C13.2747 7.71867 13.212 7.736 13.1333 7.824C13.084 7.86133 13.0267 7.904 12.9587 7.91467C12.82 7.748 12.6973 7.568 12.592 7.37867C12.464 7.09867 12.3973 6.79467 12.3853 6.48933C12.3627 6.188 12.4 5.88667 12.492 5.59867C12.5653 5.336 12.6947 5.09333 12.8693 4.88533C13.04 4.708 13.216 4.61867 13.4267 4.61867V4.61867ZM15.2547 6.89333C15.696 6.89333 16.2307 6.98 16.8747 7.42533C17.2653 7.692 17.572 7.784 18.2787 8.04933H18.2827C18.6227 8.23067 18.8227 8.404 18.92 8.58133V8.40667C19.0173 8.60267 19.024 8.83067 18.9413 9.03333C18.7773 9.448 18.2533 9.892 17.5227 10.1573V10.16C17.1653 10.34 16.8547 10.604 16.4893 10.78C16.1213 10.96 15.7053 11.1693 15.14 11.136C14.9373 11.1467 14.7333 11.116 14.5427 11.0467C14.396 10.9667 14.252 10.8787 14.1133 10.7827C13.8533 10.6027 13.6293 10.34 13.2973 10.1627V10.156H13.2907C12.7573 9.828 12.4693 9.47333 12.376 9.208C12.284 8.85067 12.3693 8.58267 12.6333 8.408C12.932 8.228 13.14 8.04667 13.2773 7.96C13.416 7.86133 13.468 7.824 13.512 7.78533H13.5147V7.78133C13.74 7.512 14.096 7.156 14.6333 6.98C14.8187 6.932 15.0253 6.89333 15.2547 6.89333V6.89333ZM18.9867 9.75067C19.4653 11.64 20.5827 14.384 21.3013 15.7147C21.6827 16.4267 22.4413 17.9267 22.7707 19.7467C22.9787 19.74 23.2093 19.7707 23.4547 19.832C24.316 17.604 22.7267 15.2093 22.0027 14.544C21.708 14.276 21.6933 14.0973 21.8387 14.0973C22.624 14.8093 23.6587 16.1933 24.0333 17.7733C24.2053 18.4867 24.2453 19.2453 24.0613 20C24.1507 20.0373 24.2413 20.0813 24.3347 20.0893C25.7107 20.8013 26.2187 21.34 25.9747 22.1387V22.0813C25.8933 22.0773 25.8147 22.0813 25.7333 22.0813H25.7133C25.9147 21.4587 25.4707 20.9813 24.2933 20.4493C23.0733 19.916 22.0987 20.0013 21.932 21.0693C21.9227 21.1267 21.916 21.1573 21.9093 21.2493C21.8187 21.28 21.724 21.32 21.6307 21.3347C21.0573 21.692 20.748 22.2267 20.5733 22.9173C20.4 23.628 20.3467 24.4587 20.3 25.4093V25.4133C20.272 25.8587 20.072 26.5307 19.8747 27.2147C17.8747 28.644 15.1013 29.2653 12.7427 27.66C12.5947 27.4027 12.4147 27.1613 12.2067 26.9493C12.108 26.7827 11.9827 26.6333 11.84 26.504C12.0827 26.504 12.2907 26.4653 12.46 26.4147C12.6533 26.3253 12.8027 26.164 12.8787 25.9693C13.0227 25.6133 12.8787 25.04 12.4187 24.4187C11.9587 23.796 11.1773 23.092 10.0347 22.3907C9.19467 21.8587 8.72 21.2307 8.50133 20.5293C8.28133 19.8173 8.31067 19.0827 8.48133 18.336C8.808 16.9093 9.64533 15.5227 10.18 14.652C10.3227 14.5653 10.2293 14.832 9.636 15.9507C9.108 16.952 8.11467 19.28 9.47333 21.0893C9.524 19.7707 9.81733 18.4693 10.336 17.2547C11.088 15.5507 12.66 12.5827 12.784 10.2307C12.848 10.2787 13.0733 10.4107 13.1693 10.5C13.46 10.6773 13.676 10.944 13.956 11.12C14.2373 11.388 14.592 11.5667 15.124 11.5667C15.176 11.5707 15.224 11.5747 15.272 11.5747C15.82 11.5747 16.244 11.396 16.6 11.2173C16.9867 11.0387 17.2947 10.772 17.5867 10.684H17.5933C18.216 10.504 18.708 10.148 18.9867 9.75067V9.75067ZM21.9013 21.6947C21.9507 22.496 22.3587 23.3547 23.0773 23.5307C23.8613 23.7093 24.9893 23.0867 25.4653 22.5107L25.7467 22.4987C26.1667 22.488 26.516 22.512 26.876 22.8547L26.88 22.8587C27.1573 23.124 27.2867 23.5667 27.4013 24.0267C27.5147 24.5613 27.6067 25.0667 27.9467 25.448C28.5947 26.1507 28.8067 26.656 28.7947 26.968L28.7987 26.96V26.984L28.7947 26.968C28.7747 27.3173 28.548 27.496 28.1307 27.7613C27.2907 28.296 25.8027 28.7107 24.8547 29.8547C24.0307 30.8373 23.0267 31.3733 22.14 31.4427C21.2547 31.5133 20.4907 31.176 20.0413 30.2453L20.0347 30.2413C19.7547 29.7067 19.8747 28.8747 20.1093 27.988C20.344 27.0973 20.68 26.1947 20.7267 25.4573C20.776 24.5053 20.828 23.6773 20.9867 23.0387C21.1467 22.4187 21.3973 21.976 21.8413 21.7267L21.9013 21.6973V21.6947ZM7.48133 21.76H7.49467C7.56533 21.76 7.63467 21.7667 7.704 21.7787C8.20533 21.852 8.64533 22.2227 9.068 22.7813L10.2813 25L10.2853 25.004C10.6093 25.7147 11.2907 26.4227 11.8707 27.188C12.4493 27.9853 12.8973 28.696 12.8427 29.2813V29.2893C12.7667 30.2813 12.204 30.82 11.3427 31.0147C10.4827 31.1947 9.316 31.0173 8.14933 30.396C6.85867 29.6813 5.32533 29.7707 4.34 29.5933C3.848 29.5053 3.52533 29.3253 3.376 29.0587C3.228 28.7933 3.22533 28.2573 3.54 27.4187V27.4147L3.54267 27.4107C3.69867 26.9653 3.58267 26.4067 3.50667 25.9187C3.43333 25.384 3.396 24.9733 3.564 24.6653C3.77733 24.22 4.092 24.1333 4.48267 23.9547C4.876 23.7747 5.33733 23.6853 5.704 23.3293H5.70667V23.3253C6.048 22.968 6.3 22.524 6.59733 22.208C6.85067 21.94 7.104 21.76 7.48133 21.76V21.76ZM17.0267 9.66133C16.4467 9.92933 15.7667 10.3747 15.0427 10.3747C14.32 10.3747 13.7493 10.0187 13.3373 9.75333C13.1307 9.57467 12.964 9.396 12.8387 9.30667C12.62 9.128 12.6467 8.86133 12.74 8.86133C12.8853 8.88267 12.912 9.04133 13.0053 9.12933C13.1333 9.21733 13.292 9.39467 13.4867 9.57333C13.8747 9.84 14.3933 10.196 15.0413 10.196C15.688 10.196 16.4453 9.84 16.9053 9.57467C17.1653 9.39467 17.4987 9.12933 17.7693 8.952C17.9773 8.76933 17.968 8.59467 18.1413 8.59467C18.3133 8.616 18.1867 8.77333 17.9453 9.03867C17.704 9.21867 17.3307 9.48533 17.0253 9.66267V9.66133H17.0267ZM15.584 7.54933V7.52C15.576 7.49467 15.6013 7.464 15.6227 7.45333C15.7213 7.396 15.8627 7.41733 15.9693 7.45867C16.0533 7.45867 16.1827 7.548 16.1693 7.63867C16.1613 7.704 16.056 7.72667 15.9893 7.72667C15.916 7.72667 15.8667 7.66933 15.8013 7.636C15.732 7.612 15.6067 7.62533 15.584 7.54933V7.54933ZM14.8493 7.54933C14.8227 7.62667 14.6987 7.61467 14.628 7.63733C14.5653 7.67067 14.5133 7.728 14.4427 7.728C14.3747 7.728 14.268 7.70267 14.26 7.63733C14.248 7.54933 14.3773 7.46 14.46 7.46C14.568 7.41867 14.7053 7.39733 14.8053 7.45333C14.8307 7.46533 14.8533 7.49333 14.8453 7.52V7.548H14.8493V7.54933Z" fill="#C3D2DF"/>
</g>
<defs>
<clipPath id="clip0_330_1520">
<rect width="32" height="32" fill="white"/>
</clipPath>
</defs>
</svg>
