<svg width="60" height="60" viewBox="0 0 60 60" fill="none" xmlns="http://www.w3.org/2000/svg">
<path d="M30 3.75C30.5475 3.75 30.9969 3.92562 31.3481 4.27687C31.6994 4.62812 31.875 5.0775 31.875 5.625V16.875C31.875 17.4225 31.6994 17.8719 31.3481 18.2231C30.9969 18.5744 30.5475 18.75 30 18.75C29.4525 18.75 29.0031 18.5744 28.6519 18.2231C28.3006 17.8719 28.125 17.4225 28.125 16.875V5.625C28.125 5.0775 28.3006 4.62812 28.6519 4.27687C29.0031 3.92562 29.4525 3.75 30 3.75ZM30 41.25C30.5475 41.25 30.9969 41.4256 31.3481 41.7769C31.6994 42.1281 31.875 42.5775 31.875 43.125V54.375C31.875 54.9225 31.6994 55.3719 31.3481 55.7231C30.9969 56.0744 30.5475 56.25 30 56.25C29.4525 56.25 29.0031 56.0744 28.6519 55.7231C28.3006 55.3719 28.125 54.9225 28.125 54.375V43.125C28.125 42.5775 28.3006 42.1281 28.6519 41.7769C29.0031 41.4256 29.4525 41.25 30 41.25ZM56.25 30C56.25 30.5475 56.0744 30.9969 55.7231 31.3481C55.3719 31.6994 54.9225 31.875 54.375 31.875H43.125C42.5775 31.875 42.1281 31.6994 41.7769 31.3481C41.4256 30.9969 41.25 30.5475 41.25 30C41.25 29.4525 41.4256 29.0031 41.7769 28.6519C42.1281 28.3006 42.5775 28.125 43.125 28.125H54.375C54.9225 28.125 55.3719 28.3006 55.7231 28.6519C56.0744 29.0031 56.25 29.4525 56.25 30ZM18.75 30C18.75 30.5475 18.5744 30.9969 18.2231 31.3481C17.8719 31.6994 17.4225 31.875 16.875 31.875H5.625C5.0775 31.875 4.62812 31.6994 4.27687 31.3481C3.92562 30.9969 3.75 30.5475 3.75 30C3.75 29.4525 3.92562 29.0031 4.27687 28.6519C4.62812 28.3006 5.0775 28.125 5.625 28.125H16.875C17.4225 28.125 17.8719 28.3006 18.2231 28.6519C18.5744 29.0031 18.75 29.4525 18.75 30ZM11.4262 11.4262C11.8175 11.075 12.2669 10.8994 12.7744 10.8994C13.2819 10.8994 13.7119 11.075 14.0644 11.4262L22.0331 19.395C22.3844 19.7862 22.56 20.2256 22.56 20.7131C22.56 21.2006 22.3744 21.6306 22.0031 22.0031C21.6319 22.3756 21.2019 22.5612 20.7131 22.56C20.2244 22.5588 19.785 22.3831 19.395 22.0331L11.4262 14.0644C11.075 13.7131 10.8994 13.2831 10.8994 12.7744C10.8994 12.2656 11.075 11.8162 11.4262 11.4262ZM37.9688 37.9688C38.36 37.5775 38.7994 37.3819 39.2869 37.3819C39.7744 37.3819 40.2137 37.5775 40.605 37.9688L48.5737 45.9375C48.925 46.2887 49.1006 46.7188 49.1006 47.2275C49.1006 47.7362 48.915 48.1756 48.5437 48.5456C48.1725 48.9156 47.7331 49.1012 47.2256 49.1025C46.7181 49.1037 46.2881 48.9281 45.9356 48.5756L37.9669 40.6069C37.5756 40.2156 37.38 39.7763 37.38 39.2887C37.38 38.8013 37.5756 38.3619 37.9669 37.9706L37.9688 37.9688ZM48.5737 11.4262C48.925 11.8175 49.1006 12.2669 49.1006 12.7744C49.1006 13.2819 48.925 13.7119 48.5737 14.0644L40.605 22.0331C40.2137 22.3844 39.7744 22.56 39.2869 22.56C38.7994 22.56 38.3694 22.3744 37.9969 22.0031C37.6244 21.6319 37.4388 21.2019 37.44 20.7131C37.4412 20.2244 37.6169 19.785 37.9669 19.395L45.9356 11.4262C46.2869 11.075 46.7169 10.8994 47.2256 10.8994C47.7344 10.8994 48.1838 11.075 48.5737 11.4262ZM22.0312 37.9688C22.4225 38.36 22.6181 38.7994 22.6181 39.2869C22.6181 39.7744 22.4225 40.2137 22.0312 40.605L14.0625 48.5737C13.7113 48.925 13.2812 49.1006 12.7725 49.1006C12.2638 49.1006 11.8244 48.915 11.4544 48.5437C11.0844 48.1725 10.8987 47.7331 10.8975 47.2256C10.8962 46.7181 11.0719 46.2881 11.4244 45.9356L19.3931 37.9669C19.7844 37.5756 20.2237 37.38 20.7112 37.38C21.1987 37.38 21.6381 37.5756 22.0294 37.9669L22.0312 37.9688Z" fill="white" fill-opacity="0.96"/>
</svg>
