<svg width="21" height="31" viewBox="0 0 21 31" fill="none" xmlns="http://www.w3.org/2000/svg">
<path d="M10.4716 30.5998C10.2256 30.602 9.98339 30.5385 9.76975 30.4158C9.55611 30.2931 9.37865 30.1156 9.25563 29.9014L8.50295 28.6503C8.41078 28.4552 8.39382 28.2328 8.45541 28.0258C8.51701 27.8189 8.65275 27.6421 8.83639 27.5299C9.02003 27.4177 9.23852 27.3781 9.44965 27.4184C9.66078 27.4587 9.84951 27.576 9.97941 27.7481L10.4716 28.5338L16.5225 18.0291C17.6915 15.9664 18.3471 13.6499 18.4333 11.2776C18.4333 11.103 18.4333 10.9279 18.4333 10.7824C18.4989 9.68898 18.3412 8.59401 17.9701 7.56407C17.5989 6.53414 17.0219 5.59156 16.2748 4.79402C15.5277 3.99647 14.6263 3.36062 13.6258 2.92623C12.6253 2.49185 11.547 2.26764 10.4571 2.26764C9.3673 2.26764 8.28902 2.49185 7.28854 2.92623C6.28805 3.36062 5.38654 3.99647 4.63945 4.79402C3.89236 5.59156 3.3155 6.53414 2.94431 7.56407C2.57312 8.59401 2.41542 9.68898 2.48099 10.7824C2.44171 11.8354 2.51944 12.8898 2.71265 13.9255C3.1114 15.5387 3.71465 17.094 4.50763 18.5527L6.93954 22.9177C7.04741 23.12 7.07452 23.356 7.01535 23.5777C6.95618 23.7994 6.81524 23.9897 6.62112 24.1105C6.52056 24.1668 6.40981 24.2021 6.29545 24.215C6.18109 24.2278 6.06538 24.2183 5.95494 24.1858C5.8445 24.1533 5.74157 24.0988 5.65215 24.026C5.56274 23.9532 5.48863 23.8636 5.4341 23.7617L2.94422 19.3967C2.1014 17.7814 1.4504 16.0722 1.00452 14.3041C0.792618 13.1432 0.705275 11.9621 0.743971 10.7824C0.671869 9.45548 0.869592 8.12816 1.32516 6.88062C1.78072 5.63308 2.48455 4.49154 3.39359 3.52657C4.30263 2.56159 5.39781 1.79329 6.61228 1.26804C7.82676 0.742781 9.135 0.471619 10.4571 0.471619C11.7793 0.471619 13.0875 0.742781 14.302 1.26804C15.5165 1.79329 16.6117 2.56159 17.5208 3.52657C18.4298 4.49154 19.1336 5.63308 19.5891 6.88062C20.0447 8.12816 20.2425 9.45548 20.1704 10.7824C20.1856 10.9761 20.1856 11.1713 20.1704 11.365C20.0793 14.0155 19.3437 16.6027 18.0279 18.9015L11.7165 29.8723C11.5902 30.0922 11.4089 30.2754 11.1905 30.403C10.9721 30.5306 10.7242 30.5983 10.4716 30.5998Z" fill="white"/>
<path d="M10.4431 16.0496H9.77727C8.53802 15.8622 7.42163 15.1931 6.66884 14.1861C5.91605 13.179 5.58712 11.9151 5.75297 10.6665C5.92814 9.45738 6.56081 8.3627 7.51906 7.61084C8.34615 6.88818 9.40516 6.48975 10.5011 6.48975C11.597 6.48975 12.656 6.88818 13.4831 7.61084C13.6441 7.77893 13.734 8.00272 13.734 8.23604C13.734 8.46936 13.6441 8.69386 13.4831 8.86195C13.3207 9.02191 13.1024 9.11132 12.875 9.11132C12.6477 9.11132 12.4294 9.02191 12.2671 8.86195C11.7447 8.41881 11.0833 8.17565 10.3997 8.17565C9.71618 8.17565 9.05464 8.41881 8.53229 8.86195C7.9279 9.33124 7.53254 10.0213 7.43221 10.7823C7.36238 11.1736 7.37303 11.5754 7.46357 11.9624C7.55411 12.3494 7.7226 12.714 7.95861 13.033C8.19463 13.3521 8.4932 13.6188 8.83587 13.8174C9.17854 14.0159 9.55803 14.1421 9.95097 14.1875C10.3404 14.253 10.7391 14.2378 11.1224 14.1427C11.5058 14.0477 11.8658 13.8749 12.1802 13.6348C12.4967 13.4011 12.7625 13.1047 12.9616 12.7645C13.1607 12.4243 13.2888 12.047 13.3382 11.6555C13.3739 11.4283 13.4974 11.2247 13.6817 11.0885C13.866 10.9523 14.0963 10.8945 14.3226 10.9279C14.4371 10.9423 14.5476 10.9797 14.6476 11.0374C14.7477 11.0951 14.8354 11.1719 14.9055 11.264C14.9755 11.3561 15.0267 11.4616 15.0558 11.5738C15.085 11.6859 15.0916 11.8028 15.0754 11.9176C14.9896 12.5348 14.7813 13.1283 14.4631 13.6632C14.1448 14.1981 13.723 14.6636 13.2225 15.0315C12.4247 15.6546 11.4527 16.0103 10.4431 16.0496Z" fill="white"/>
</svg>
