<svg width="84" height="130" viewBox="0 0 84 130" fill="none" xmlns="http://www.w3.org/2000/svg">
<path d="M41.7902 129.798C40.7347 129.807 39.6958 129.535 38.7794 129.008C37.863 128.482 37.1017 127.721 36.574 126.802L33.3453 121.435C32.9499 120.598 32.8772 119.644 33.1414 118.756C33.4056 117.869 33.9879 117.11 34.7756 116.629C35.5634 116.148 36.5006 115.978 37.4063 116.151C38.3119 116.324 39.1215 116.827 39.6788 117.565L41.7902 120.935L67.7461 75.8738C72.7609 67.0256 75.5731 57.089 75.9428 46.9126C75.9428 46.1636 75.9428 45.4126 75.9428 44.7884C76.2241 40.0979 75.5479 35.4009 73.9557 30.9829C72.3634 26.5648 69.8885 22.5215 66.6838 19.1003C63.479 15.6792 59.6123 12.9516 55.3205 11.0882C51.0288 9.22488 46.403 8.26313 41.728 8.26313C37.053 8.26313 32.4276 9.22488 28.1359 11.0882C23.8442 12.9516 19.977 15.6792 16.7723 19.1003C13.5676 22.5215 11.093 26.5648 9.50076 30.9829C7.9085 35.4009 7.23201 40.0979 7.51328 44.7884C7.34478 49.3054 7.67823 53.8282 8.50702 58.2709C10.2175 65.191 12.8053 71.8626 16.2068 78.1199L26.6388 96.8442C27.1016 97.7119 27.2178 98.7246 26.964 99.6754C26.7102 100.626 26.1056 101.443 25.2729 101.961C24.8415 102.202 24.3665 102.354 23.8759 102.409C23.3854 102.464 22.889 102.424 22.4152 102.284C21.9415 102.145 21.5 101.911 21.1164 101.598C20.7329 101.286 20.415 100.902 20.181 100.465L9.50039 81.7404C5.88497 74.8115 3.09243 67.4795 1.17978 59.8953C0.270789 54.9152 -0.103885 49.8489 0.0621084 44.7884C-0.24718 39.0963 0.600977 33.4026 2.55518 28.0511C4.50939 22.6996 7.52854 17.8028 11.428 13.6634C15.3274 9.52407 20.0254 6.22834 25.235 3.97518C30.4447 1.72202 36.0566 0.558838 41.728 0.558838C47.3995 0.558838 53.0114 1.72202 58.221 3.97518C63.4307 6.22834 68.129 9.52407 72.0285 13.6634C75.9279 17.8028 78.9467 22.6996 80.9009 28.0511C82.8551 33.4026 83.7036 39.0963 83.3943 44.7884C83.4596 45.6193 83.4596 46.4565 83.3943 47.2874C83.0036 58.657 79.8481 69.7554 74.2039 79.6162L47.1303 126.677C46.5885 127.62 45.8106 128.406 44.8737 128.954C43.9369 129.501 42.8738 129.791 41.7902 129.798Z" fill="#5B5A5A"/>
<path d="M41.6678 67.3823H38.8116C33.4957 66.5784 28.7068 63.7084 25.4776 59.3885C22.2484 55.0686 20.8374 49.6466 21.5488 44.2908C22.3003 39.1041 25.0142 34.4083 29.1247 31.1831C32.6726 28.0832 37.2154 26.374 41.9164 26.374C46.6174 26.374 51.1601 28.0832 54.7081 31.1831C55.3987 31.9041 55.7844 32.8641 55.7844 33.865C55.7844 34.8658 55.3987 35.8289 54.7081 36.5499C54.0116 37.2361 53.075 37.6196 52.0998 37.6196C51.1246 37.6196 50.1883 37.2361 49.4919 36.5499C47.2512 34.649 44.4138 33.6059 41.4817 33.6059C38.5496 33.6059 35.7118 34.649 33.4711 36.5499C30.8785 38.563 29.1825 41.5231 28.7522 44.7875C28.4526 46.4662 28.4983 48.1894 28.8867 49.8496C29.2751 51.5097 29.9978 53.0737 31.0102 54.4423C32.0227 55.8108 33.3034 56.955 34.7733 57.8068C36.2433 58.6586 37.8711 59.1997 39.5567 59.3946C41.2273 59.6756 42.9374 59.6105 44.5819 59.2026C46.2264 58.7947 47.7705 58.0535 49.1193 57.0236C50.4767 56.0213 51.6172 54.7495 52.4712 53.2903C53.3252 51.831 53.8748 50.2125 54.0869 48.533C54.24 47.5587 54.7695 46.6853 55.5601 46.101C56.3507 45.5167 57.3385 45.2687 58.3094 45.4123C58.8004 45.4736 59.2745 45.6341 59.7037 45.8816C60.1329 46.1291 60.509 46.4587 60.8096 46.8538C61.1102 47.2489 61.3295 47.7013 61.4547 48.1825C61.5798 48.6638 61.6082 49.1651 61.5384 49.6576C61.1704 52.3053 60.2773 54.8511 58.912 57.1455C57.5467 59.4398 55.7372 61.4368 53.5904 63.0151C50.168 65.6878 45.9984 67.2138 41.6678 67.3823Z" fill="#5B5A5A"/>
<path d="M54 48.5C54.4615 42.5 51.5 38.6667 50 37L54 30.5C59.2 34.5 62 43 61.5 49L60 48C57.8333 50.3333 53.6 53.7 54 48.5Z" fill="#5B5A5A"/>
</svg>
