<svg width="310" height="108" viewBox="0 0 310 108" fill="none" xmlns="http://www.w3.org/2000/svg">
<path d="M49.0391 50.6793H48.8575C41.5924 47.278 36.6885 43.5186 31.2397 43.5186H29.1692V106.926H19.9789V43.4649H17.7449C12.2961 43.4649 7.59195 47.2064 0.32689 50.6256H0.145264L1.07156 41.8717H48.0402L49.0391 50.6793Z" fill="#091A54"/>
<path d="M54.615 62.1542C50.256 78.7489 47.35 106.908 68.8 106.908H39.9578L69.1088 0.107422H88.4339L117.494 106.836H98.0782L70.3439 4.79763L54.615 62.1542Z" fill="#DDA852"/>
<path d="M160.412 95.4868L160.285 106.926H123.506V41.8538H132.751V105.315H138.036C145.828 105.315 155 104.724 158.487 95.5226L160.412 95.4868Z" fill="#091A54"/>
<path d="M200.824 95.5226H202.84L202.713 106.962H165.861V41.8538H202.713L202.84 53.2929H200.824C197.337 44.0915 188.111 43.5008 180.373 43.5008H175.106V72.2506H192.397V73.8618H175.106V105.315H180.373C188.165 105.315 197.337 104.724 200.824 95.5226Z" fill="#091A54"/>
<path d="M256.093 41.8001V108.036H255.276L213.302 50.7509V106.765H211.486V48.2089L207.054 42.1223V41.8538H217.952L254.277 92.2646V41.8001H256.093Z" fill="#091A54"/>
<path d="M310 50.6793H309.818C302.553 47.278 297.631 43.5186 292.201 43.5186H290.112V106.926H280.867V43.4649H278.688C273.239 43.4649 268.517 47.2064 261.27 50.6256H261.088L261.996 41.8717H308.983L310 50.6793Z" fill="#091A54"/>
<path d="M14.5301 2.61363C12.2961 1.61114 10.8976 0.483342 9.22662 0.483342H8.60909V19.28H5.86653V0.483342H5.21268C3.63253 0.483342 2.19768 1.57534 0 2.59572L0.27244 0H14.185L14.5301 2.61363Z" fill="#091A54"/>
<path d="M37.1426 0V19.28H34.4001V9.48782H24.8284V19.28H22.0858V0H24.8284V8.95077H34.4001V0H37.1426Z" fill="#091A54"/>
<path d="M56.6311 15.8966H57.2305V19.28H46.3329V0H57.2305V3.38339H56.6311C55.5958 0.644455 52.8896 0.483342 50.5648 0.483342H49.0391V8.95077H54.1247V9.48782H49.0391V18.7966H50.6011C52.8896 18.7966 55.5958 18.6355 56.6311 15.8966Z" fill="#091A54"/>
</svg>
