<svg width="151" height="19" viewBox="0 0 151 19" fill="none" xmlns="http://www.w3.org/2000/svg">
<path d="M5.668 18H0.78V0.58H10.946C12.4887 0.58 13.78 0.787999 14.82 1.204C15.86 1.62 16.64 2.22667 17.16 3.024C17.6973 3.804 17.966 4.766 17.966 5.91C17.966 6.82867 17.8013 7.626 17.472 8.302C17.16 8.96067 16.6573 9.498 15.964 9.914C15.2707 10.3127 14.3693 10.5813 13.26 10.72V10.98C14.1613 11.2053 14.8027 11.5433 15.184 11.994C15.5827 12.4273 15.9467 12.9733 16.276 13.632L18.434 18H12.792L10.712 13.736C10.504 13.3027 10.2873 12.9647 10.062 12.722C9.83667 12.4793 9.542 12.3147 9.178 12.228C8.814 12.124 8.31133 12.072 7.67 12.072H5.668V18ZM5.668 4.974V8.432H10.894C11.6047 8.432 12.1073 8.328 12.402 8.12C12.6967 7.912 12.844 7.43533 12.844 6.69C12.844 5.99667 12.6967 5.53733 12.402 5.312C12.1073 5.08667 11.6047 4.974 10.894 4.974H5.668ZM26.4676 18.26C24.9596 18.26 23.6249 17.9913 22.4636 17.454C21.3196 16.8993 20.4269 16.1107 19.7856 15.088C19.1443 14.0653 18.8236 12.852 18.8236 11.448C18.8236 10.0267 19.1443 8.81333 19.7856 7.808C20.4269 6.78533 21.3196 6.00533 22.4636 5.468C23.6249 4.91333 24.9596 4.636 26.4676 4.636C27.9929 4.636 29.3276 4.91333 30.4716 5.468C31.6156 6.00533 32.5083 6.78533 33.1496 7.808C33.7909 8.81333 34.1116 10.0267 34.1116 11.448C34.1116 12.852 33.7909 14.0653 33.1496 15.088C32.5083 16.1107 31.6156 16.8993 30.4716 17.454C29.3276 17.9913 27.9929 18.26 26.4676 18.26ZM26.4676 13.944C27.5769 13.944 28.3223 13.7707 28.7036 13.424C29.0849 13.06 29.2756 12.4013 29.2756 11.448C29.2756 10.4947 29.0849 9.836 28.7036 9.472C28.3223 9.108 27.5769 8.926 26.4676 8.926C25.3583 8.926 24.6129 9.108 24.2316 9.472C23.8503 9.836 23.6596 10.4947 23.6596 11.448C23.6596 12.4013 23.8503 13.06 24.2316 13.424C24.6129 13.7707 25.3583 13.944 26.4676 13.944ZM45.1659 18.26C43.6405 18.26 42.4705 17.9567 41.6559 17.35C40.8412 16.726 40.3299 15.764 40.1219 14.464H39.3159L39.6799 11.474H40.1739C40.1739 12.098 40.2865 12.5833 40.5119 12.93C40.7545 13.2593 41.1099 13.4847 41.5779 13.606C42.0632 13.7273 42.6699 13.788 43.3979 13.788C44.1605 13.788 44.7585 13.7187 45.1919 13.58C45.6425 13.424 45.9632 13.1727 46.1539 12.826C46.3445 12.4793 46.4399 12.02 46.4399 11.448C46.4399 10.8587 46.3445 10.3993 46.1539 10.07C45.9632 9.72333 45.6425 9.472 45.1919 9.316C44.7585 9.16 44.1605 9.082 43.3979 9.082C42.3059 9.082 41.4912 9.22067 40.9539 9.498C40.4339 9.77533 40.1739 10.3733 40.1739 11.292H39.6799V8.276H40.4339C40.6245 7.184 41.1099 6.30867 41.8899 5.65C42.6699 4.974 43.8312 4.636 45.3739 4.636C46.6565 4.636 47.7399 4.91333 48.6239 5.468C49.5252 6.00533 50.2099 6.78533 50.6779 7.808C51.1459 8.81333 51.3799 10.0267 51.3799 11.448C51.3799 12.852 51.1372 14.0653 50.6519 15.088C50.1839 16.1107 49.4819 16.8993 48.5459 17.454C47.6272 17.9913 46.5005 18.26 45.1659 18.26ZM39.8619 18H35.2859V0.58H40.1739V13.97L39.8619 14.308V18ZM59.9324 18.26C58.4244 18.26 57.0898 17.9913 55.9284 17.454C54.7844 16.8993 53.8918 16.1107 53.2504 15.088C52.6091 14.0653 52.2884 12.852 52.2884 11.448C52.2884 10.0267 52.6091 8.81333 53.2504 7.808C53.8918 6.78533 54.7844 6.00533 55.9284 5.468C57.0898 4.91333 58.4244 4.636 59.9324 4.636C61.4578 4.636 62.7924 4.91333 63.9364 5.468C65.0804 6.00533 65.9731 6.78533 66.6144 7.808C67.2558 8.81333 67.5764 10.0267 67.5764 11.448C67.5764 12.852 67.2558 14.0653 66.6144 15.088C65.9731 16.1107 65.0804 16.8993 63.9364 17.454C62.7924 17.9913 61.4578 18.26 59.9324 18.26ZM59.9324 13.944C61.0418 13.944 61.7871 13.7707 62.1684 13.424C62.5498 13.06 62.7404 12.4013 62.7404 11.448C62.7404 10.4947 62.5498 9.836 62.1684 9.472C61.7871 9.108 61.0418 8.926 59.9324 8.926C58.8231 8.926 58.0778 9.108 57.6964 9.472C57.3151 9.836 57.1244 10.4947 57.1244 11.448C57.1244 12.4013 57.3151 13.06 57.6964 13.424C58.0778 13.7707 58.8231 13.944 59.9324 13.944Z" fill="#35973F"/>
<path d="M73.6387 18H68.7507V0.58H73.6387V18ZM90.4619 18H85.5739V11.396C85.5739 10.4773 85.3746 9.85333 84.9759 9.524C84.5773 9.17733 83.8406 9.004 82.7659 9.004C81.6913 9.004 80.9719 9.16867 80.6079 9.498C80.2613 9.81 80.0879 10.3907 80.0879 11.24H79.5939L79.1779 8.874H80.0359C80.1399 8.146 80.3739 7.46133 80.7379 6.82C81.1193 6.17867 81.6739 5.65867 82.4019 5.26C83.1473 4.844 84.1006 4.636 85.2619 4.636C86.4406 4.636 87.4113 4.85267 88.1739 5.286C88.9539 5.71933 89.5259 6.30867 89.8899 7.054C90.2713 7.79933 90.4619 8.64867 90.4619 9.602V18ZM80.0879 18H75.1999V4.896H79.7759V8.926L80.0879 9.056V18ZM102.853 18H96.821L90.997 4.896H96.457L99.733 13.242H100.071L103.373 4.896H108.729L102.853 18ZM116.682 18.26C115.208 18.26 113.9 18.0347 112.756 17.584C111.612 17.1333 110.719 16.4053 110.078 15.4C109.436 14.3947 109.116 13.0773 109.116 11.448C109.116 10.0267 109.436 8.81333 110.078 7.808C110.719 6.78533 111.594 6.00533 112.704 5.468C113.83 4.91333 115.122 4.636 116.578 4.636C118.086 4.636 119.394 4.88733 120.504 5.39C121.613 5.87533 122.471 6.60333 123.078 7.574C123.684 8.52733 123.988 9.706 123.988 11.11C123.988 11.3353 123.979 11.5433 123.962 11.734C123.962 11.9073 123.944 12.1153 123.91 12.358H112.314V9.888H120.374L119.308 11.422C119.308 11.266 119.308 11.1187 119.308 10.98C119.308 10.824 119.308 10.668 119.308 10.512C119.308 9.71467 119.1 9.16 118.684 8.848C118.285 8.536 117.548 8.38 116.474 8.38C115.364 8.38 114.61 8.55333 114.212 8.9C113.83 9.24667 113.64 9.87067 113.64 10.772V12.02C113.64 12.9387 113.839 13.5627 114.238 13.892C114.636 14.2213 115.39 14.386 116.5 14.386C117.488 14.386 118.146 14.2993 118.476 14.126C118.822 13.9353 118.996 13.6493 118.996 13.268V12.982H123.884V13.294C123.884 14.2647 123.589 15.1227 123 15.868C122.41 16.6133 121.578 17.2027 120.504 17.636C119.429 18.052 118.155 18.26 116.682 18.26ZM132.342 18.26C130.036 18.26 128.277 17.8353 127.064 16.986C125.85 16.1367 125.244 14.958 125.244 13.45V13.346H130.132V13.606C130.132 13.97 130.279 14.1953 130.574 14.282C130.886 14.3687 131.484 14.412 132.368 14.412C133.217 14.412 133.754 14.3687 133.98 14.282C134.205 14.178 134.318 14.0133 134.318 13.788C134.318 13.58 134.231 13.4413 134.058 13.372C133.884 13.2853 133.494 13.2073 132.888 13.138L129.092 12.722C127.74 12.5833 126.708 12.202 125.998 11.578C125.287 10.9367 124.932 10.0613 124.932 8.952C124.932 8.172 125.148 7.46133 125.582 6.82C126.032 6.16133 126.752 5.63267 127.74 5.234C128.745 4.83533 130.062 4.636 131.692 4.636C133.217 4.636 134.491 4.818 135.514 5.182C136.554 5.546 137.334 6.092 137.854 6.82C138.391 7.53067 138.66 8.42333 138.66 9.498V9.602H133.772V9.446C133.772 9.22067 133.72 9.03867 133.616 8.9C133.529 8.744 133.321 8.63133 132.992 8.562C132.68 8.49267 132.194 8.458 131.536 8.458C130.738 8.458 130.236 8.51867 130.028 8.64C129.837 8.744 129.742 8.91733 129.742 9.16C129.742 9.33333 129.837 9.472 130.028 9.576C130.236 9.68 130.721 9.77533 131.484 9.862L134.084 10.148C135.99 10.356 137.308 10.7807 138.036 11.422C138.764 12.0633 139.128 12.9387 139.128 14.048C139.128 14.8627 138.859 15.5907 138.322 16.232C137.802 16.856 137.039 17.35 136.034 17.714C135.028 18.078 133.798 18.26 132.342 18.26ZM150.103 18H146.671C145.042 18 143.759 17.5927 142.823 16.778C141.905 15.9633 141.445 14.7067 141.445 13.008V2.634H146.333V12.306C146.333 12.826 146.429 13.1727 146.619 13.346C146.827 13.5193 147.209 13.606 147.763 13.606H150.103V18ZM150.103 8.9H139.521V4.896H150.103V8.9Z" fill="#313131"/>
</svg>
