<svg width="97" height="13" viewBox="0 0 97 13" fill="none" xmlns="http://www.w3.org/2000/svg">
<path d="M28.4799 0C28.0899 0.33 21.8599 5.35 3.81992 0H3.74992L0.669922 3.52C14.9999 5.96 23.8299 5.14 28.4899 0H28.4799Z" fill="url(#paint0_linear)"/>
<path d="M5.86001 6.16995L3.76001 8.61995C19.36 9.42995 25.41 3.44995 25.41 3.44995C20.28 7.06995 8.28001 6.44995 5.86001 6.16995Z" fill="url(#paint1_linear)"/>
<path d="M9.68999 10.34L7.98999 12.34C12.8404 11.9751 17.454 10.0968 21.18 6.96997C21.18 6.96997 17.11 9.96997 9.68999 10.33" fill="url(#paint2_linear)"/>
<path d="M27.8799 12.35C27.6399 11.83 27.3899 11.35 27.1499 10.74C26.9099 10.13 26.6899 9.63002 26.4699 9.08002C26.2499 8.53002 26.0599 8.01001 25.8799 7.51001C25.6999 7.01001 25.5399 6.57001 25.4099 6.18001H26.9399L27.3299 7.33002L27.7599 8.52001C27.9099 8.93001 28.0499 9.33002 28.1899 9.70002C28.3299 10.07 28.4499 10.4 28.5699 10.7C28.6899 10.43 28.8099 10.11 28.9499 9.70002C29.0899 9.29001 29.2299 8.94003 29.3799 8.53001C29.5299 8.12002 29.6699 7.71002 29.8099 7.29002L30.1999 6.14001H31.6799L31.1999 7.52001C31.0199 8.02001 30.8199 8.52001 30.6099 9.09001C30.3999 9.66001 30.1699 10.19 29.9299 10.75C29.6899 11.31 29.4499 11.85 29.2099 12.36L27.8799 12.35Z" fill="black"/>
<path d="M34.37 7.57993C34.37 7.65993 34.29 7.78993 34.23 7.93993C34.17 8.08993 34.1 8.26993 34.03 8.47993C33.96 8.68993 33.86 8.89993 33.77 9.13993C33.68 9.37993 33.58 9.63993 33.48 9.90993H35.25L35 9.13993C34.92 8.89993 34.83 8.67993 34.75 8.46993L34.54 7.93993L34.4 7.57993H34.37ZM36 12.3499L35.77 11.6899C35.7 11.4699 35.62 11.2399 35.54 11.0199H33.17L32.93 11.6899L32.71 12.3499H31.27C31.5 11.6899 31.72 11.0699 31.93 10.5099C32.14 9.94993 32.34 9.40993 32.54 8.90993C32.74 8.40993 32.94 7.90993 33.13 7.48993C33.32 7.06993 33.53 6.59993 33.74 6.17993H35.05C35.26 6.59993 35.46 7.03993 35.65 7.48993C35.84 7.93993 36.05 8.40993 36.25 8.90993C36.45 9.40993 36.65 9.90993 36.86 10.5099C37.07 11.1099 37.29 11.6899 37.53 12.3499H36Z" fill="black"/>
<path d="M42.4598 12.3499C42.0698 11.6499 41.6298 10.9499 41.1698 10.2599C40.7152 9.58143 40.221 8.9303 39.6898 8.30993V12.3099H38.3198V6.17993H39.4498C39.6802 6.40715 39.8973 6.64755 40.0998 6.89993C40.3398 7.17993 40.5798 7.48993 40.8298 7.80993C41.0798 8.12993 41.3198 8.46993 41.5598 8.80993C41.7998 9.14993 42.0398 9.48993 42.2498 9.80993V6.17993H43.6298V12.3499H42.4598Z" fill="black"/>
<path d="M47.0001 7.29002H46.7001H46.4501V9.07001H46.8801C47.2542 9.0912 47.6279 9.02262 47.9701 8.87002C48.0967 8.79822 48.1994 8.69067 48.2652 8.56082C48.331 8.43097 48.3571 8.2846 48.3401 8.14001C48.3462 7.99028 48.3116 7.84169 48.2401 7.71001C48.174 7.63086 48.0923 7.56618 48.0001 7.52001C47.8662 7.4482 47.7206 7.40079 47.5701 7.38001C47.3871 7.36367 47.2031 7.36367 47.0201 7.38001L47.0001 7.29002ZM46.9301 6.19001C47.669 6.14836 48.4044 6.31834 49.0501 6.68001C49.3032 6.85578 49.5051 7.09561 49.6351 7.37497C49.7651 7.65433 49.8186 7.9632 49.7901 8.27001C49.796 8.56922 49.7267 8.86512 49.5887 9.13065C49.4507 9.39619 49.2483 9.62289 49.0001 9.79002C48.349 10.1565 47.6058 10.3267 46.8601 10.28H46.4301V12.35H45.0601V6.26001C45.3909 6.20138 45.7248 6.16132 46.0601 6.14001C46.4001 6.14001 46.7001 6.14001 46.9501 6.14001" fill="black"/>
<path d="M54.5201 6.17993H55.91V12.3499H54.5201V9.72993H52.19V12.3499H50.8V6.17993H52.19V8.53993H54.5201V6.17993Z" fill="black"/>
<path d="M59.7601 12.5199C59.3747 12.5298 58.9911 12.4652 58.6301 12.3299C58.338 12.2197 58.0722 12.0493 57.8501 11.8299C57.647 11.6044 57.4936 11.3386 57.4001 11.0499C57.2961 10.7269 57.2454 10.3892 57.2501 10.0499V6.17993H58.6401V9.89993C58.6352 10.1167 58.6656 10.3329 58.7301 10.5399C58.7739 10.6985 58.8525 10.8454 58.9601 10.9699C59.0522 11.0787 59.1737 11.1585 59.3101 11.1999C59.4584 11.2489 59.6139 11.2726 59.7701 11.2699C59.9222 11.2774 60.0743 11.2538 60.2171 11.2005C60.3598 11.1472 60.4901 11.0653 60.6001 10.9599C60.8382 10.6608 60.9495 10.2802 60.9101 9.89993V6.17993H62.3001V10.0199C62.3031 10.359 62.2525 10.6965 62.1501 11.0199C62.0584 11.3116 61.901 11.5785 61.6901 11.7999C61.466 12.0217 61.1965 12.1923 60.9001 12.2999C60.5337 12.4266 60.1477 12.4875 59.7601 12.4799" fill="black"/>
<path d="M64.5899 11.65C64.597 11.7649 64.5772 11.8799 64.532 11.9858C64.4869 12.0917 64.4177 12.1856 64.3299 12.26C64.1692 12.3961 63.9654 12.4707 63.7549 12.4707C63.5443 12.4707 63.3406 12.3961 63.1799 12.26C63.0199 12.0973 62.9302 11.8782 62.9302 11.65C62.9302 11.4218 63.0199 11.2027 63.1799 11.04C63.3406 10.904 63.5443 10.8293 63.7549 10.8293C63.9654 10.8293 64.1692 10.904 64.3299 11.04C64.4177 11.1145 64.4869 11.2084 64.532 11.3143C64.5772 11.4202 64.597 11.5351 64.5899 11.65Z" fill="black"/>
<path d="M66.9598 6.17993H65.5698V12.3599H66.9598V6.17993Z" fill="black"/>
<path d="M72.5299 12.3499C72.1299 11.6499 71.6999 10.9499 71.2399 10.2599C70.7821 9.58374 70.288 8.93279 69.7599 8.30993V12.3099H68.3799V6.17993H69.5199C69.7099 6.36993 69.9299 6.60993 70.1699 6.89993C70.4099 7.18993 70.6499 7.48993 70.8899 7.80993C71.1299 8.12993 71.3799 8.46993 71.6299 8.80993C71.8799 9.14993 72.0999 9.48993 72.3099 9.80993V6.17993H73.6999V12.3499H72.5299Z" fill="black"/>
<path d="M77 12.3499C76.75 11.8299 76.51 11.3499 76.27 10.7399C76.03 10.1299 75.8 9.62994 75.59 9.07994C75.38 8.52994 75.15 8.00994 75 7.51994C74.85 7.02994 74.66 6.57994 74.53 6.18994H76L76.39 7.33994C76.53 7.74994 76.67 8.15994 76.82 8.56994C76.97 8.97994 77.11 9.37994 77.24 9.74994C77.37 10.1199 77.5 10.4499 77.63 10.7499C77.74 10.4799 77.87 10.1599 78.01 9.74994C78.15 9.33994 78.29 8.98994 78.44 8.57994C78.59 8.16994 78.73 7.75994 78.87 7.33994C79.01 6.91994 79.14 6.54994 79.25 6.18994H80.73C80.6 6.57994 80.44 7.02994 80.26 7.51994C80.08 8.00994 79.88 8.51994 79.67 9.08994C79.46 9.65994 79.23 10.1899 78.99 10.7499C78.75 11.3099 78.51 11.8499 78.26 12.3599L77 12.3499Z" fill="black"/>
<path d="M81.5601 12.3499V6.17993H85.7301V7.33993H82.9501V8.55993H85.4201V9.69993H82.9501V11.1799H85.9301V12.3499H81.5601Z" fill="black"/>
<path d="M88.64 11.2899C88.8049 11.2968 88.9699 11.28 89.13 11.2399C89.2413 11.2187 89.3469 11.1744 89.44 11.1099C89.5095 11.0579 89.5646 10.9891 89.6 10.9099C89.616 10.824 89.616 10.7358 89.6 10.6499C89.6006 10.5494 89.5752 10.4505 89.5261 10.3629C89.477 10.2752 89.406 10.2018 89.32 10.1499C89.0081 9.95876 88.6717 9.81075 88.32 9.70992C88.1127 9.64033 87.9091 9.56023 87.71 9.46992C87.5137 9.38061 87.3317 9.26266 87.17 9.11992C87.0048 8.9775 86.869 8.80428 86.77 8.60992C86.6644 8.38495 86.6131 8.13835 86.62 7.88992C86.6179 7.62479 86.6724 7.36225 86.78 7.11992C86.8865 6.89082 87.0438 6.68903 87.24 6.52992C87.4505 6.36178 87.6916 6.23612 87.95 6.15992C88.259 6.07206 88.5788 6.0283 88.9 6.02992C89.2616 6.02476 89.622 6.07191 89.97 6.16992C90.2304 6.23711 90.4821 6.33444 90.72 6.45992L90.32 7.55992C90.1369 7.46441 89.9463 7.38414 89.75 7.31992C89.5002 7.24637 89.2404 7.21262 88.98 7.21992C88.7348 7.19732 88.4883 7.24593 88.27 7.35992C88.1979 7.40252 88.1391 7.4644 88.1002 7.5386C88.0614 7.6128 88.044 7.69638 88.05 7.77992C88.0492 7.88215 88.0769 7.98257 88.13 8.06992C88.1926 8.15125 88.2708 8.21925 88.36 8.26992C88.4623 8.3404 88.5732 8.39753 88.69 8.43992L89.12 8.59992C89.44 8.71992 89.72 8.83992 89.96 8.94992C90.1764 9.05581 90.3753 9.19407 90.55 9.35992C90.707 9.51031 90.8269 9.69519 90.9 9.89992C90.9858 10.1438 91.0265 10.4014 91.02 10.6599C91.0314 10.9155 90.9821 11.1703 90.876 11.4032C90.77 11.6361 90.6103 11.8406 90.41 11.9999C89.8708 12.36 89.2265 12.529 88.58 12.4799C88.3325 12.4799 88.0853 12.4632 87.84 12.4299C87.6439 12.4045 87.4501 12.3644 87.26 12.3099L86.82 12.1599L86.52 12.0099L86.91 10.8999C87.1264 11.0139 87.3544 11.1044 87.59 11.1699C87.9159 11.2575 88.2527 11.2979 88.59 11.2899" fill="black"/>
<path d="M96.5499 6.17993V7.35993H94.6899V12.3499H93.2999V7.35993H91.4299V6.17993H96.5499Z" fill="black"/>
<defs>
<linearGradient id="paint0_linear" x1="0.669922" y1="2.41" x2="28.4899" y2="2.41" gradientUnits="userSpaceOnUse">
<stop stop-color="#A45125"/>
<stop offset="0.93" stop-color="#D28344"/>
<stop offset="1" stop-color="#D68747"/>
</linearGradient>
<linearGradient id="paint1_linear" x1="431.564" y1="69.2802" x2="900.287" y2="69.2802" gradientUnits="userSpaceOnUse">
<stop stop-color="#A45125"/>
<stop offset="0.93" stop-color="#D28344"/>
<stop offset="1" stop-color="#D68747"/>
</linearGradient>
<linearGradient id="paint2_linear" x1="324.418" y1="93.6955" x2="498.394" y2="93.6955" gradientUnits="userSpaceOnUse">
<stop stop-color="#A45125"/>
<stop offset="0.93" stop-color="#D28344"/>
<stop offset="1" stop-color="#D68747"/>
</linearGradient>
</defs>
</svg>
