<svg width="55" height="60" viewBox="0 0 55 60" fill="none" xmlns="http://www.w3.org/2000/svg">
<path d="M21.6261 0H17.7236V26.6667H21.6261V0Z" fill="#4C9551"/>
<path d="M14.7185 60C10.8149 60 7.07123 58.4509 4.31097 55.6934C1.5507 52.936 0 49.1961 0 45.2965C0 41.3969 1.5507 37.657 4.31097 34.8995C7.07123 32.1421 10.8149 30.593 14.7185 30.593H21.6005V34.5669H14.6987C12.591 34.5708 10.5317 35.1988 8.78116 36.3714C7.03059 37.544 5.66723 39.2087 4.86337 41.1551C4.05952 43.1015 3.85123 45.2423 4.26483 47.3069C4.67843 49.3715 5.69535 51.2673 7.18711 52.7548C8.67886 54.2422 10.5785 55.2546 12.646 55.6639C14.7135 56.0732 16.856 55.8612 18.8029 55.0545C20.7498 54.2478 22.4136 52.8828 23.5842 51.1318C24.7548 49.3808 25.3795 47.3225 25.3795 45.217V19.7442C25.3795 15.848 26.9275 12.1111 29.6835 9.35423C32.4394 6.59735 36.178 5.04591 40.0782 5.04065H40.2771C44.1298 5.04591 47.8229 6.57851 50.5452 9.30185C53.2676 12.0252 54.7967 15.7166 54.7967 19.5653V19.7442C54.7947 23.5392 53.3239 27.1865 50.692 29.9232C48.06 32.6599 44.4707 34.2739 40.6749 34.4278H33.2957V30.4539H40.0981C42.9274 30.4539 45.6411 29.3325 47.6436 27.3357C49.6461 25.339 50.7737 22.6302 50.779 19.8038V19.6249C50.7737 16.8494 49.6677 14.189 47.7031 12.2264C45.7384 10.2638 43.0754 9.15891 40.297 9.15366H40.0981C37.2722 9.15891 34.5636 10.2827 32.5654 12.2788C30.5672 14.275 29.4423 16.9808 29.4371 19.8038V45.2965C29.4318 49.1945 27.8794 52.9313 25.1203 55.6876C22.3612 58.4439 18.6205 59.9947 14.7185 60Z" fill="#4C9551"/>
</svg>
