<svg width="80" height="28" viewBox="0 0 80 28" fill="none" xmlns="http://www.w3.org/2000/svg">
<path d="M12.6554 13.139H12.6085C10.7336 12.2572 9.46811 11.2826 8.06197 11.2826H7.52764V27.7215H5.15595V11.2687H4.57943C3.17329 11.2687 1.95932 12.2387 0.084469 13.1251H0.0375977L0.276641 10.8556H12.3976L12.6554 13.139Z" fill="white"/>
<path d="M14.0943 16.114C12.9694 20.4164 12.2194 27.7169 17.7549 27.7169H10.3118L17.8346 0.027832H22.8217L30.3211 27.6983H25.3106L18.1533 1.24381L14.0943 16.114Z" fill="#DDA852"/>
<path d="M41.3968 24.7558L41.364 27.7215H31.8726V10.851H34.2583V27.3038H35.6223C37.633 27.3038 40 27.1506 40.9 24.7651L41.3968 24.7558Z" fill="white"/>
<path d="M51.8257 24.7651H52.346L52.3132 27.7308H42.803V10.851H52.3132L52.346 13.8166H51.8257C50.9258 11.4311 48.5447 11.2779 46.548 11.2779H45.1887V18.7316H49.6509V19.1493H45.1887V27.3038H46.548C48.5588 27.3038 50.9258 27.1506 51.8257 24.7651Z" fill="white"/>
<path d="M66.0886 10.837V28.0093H65.8777L55.0457 13.1576V27.6797H54.577V12.4986L53.4333 10.9206V10.851H56.2456L65.6199 23.9204V10.837H66.0886Z" fill="white"/>
<path d="M79.9999 13.139H79.953C78.0782 12.2572 76.808 11.2826 75.4065 11.2826H74.8675V27.7215H72.4817V11.2687H71.9193C70.5131 11.2687 69.2945 12.2387 67.4243 13.1251H67.3774L67.6118 10.8556H79.7374L79.9999 13.139Z" fill="white"/>
<path d="M3.74971 0.677607C3.17319 0.417703 2.81228 0.125311 2.38106 0.125311H2.2217V4.99851H1.51394V0.125311H1.34521C0.937427 0.125311 0.567143 0.40842 0 0.672965L0.070307 0H3.66065L3.74971 0.677607Z" fill="white"/>
<path d="M9.5851 0V4.99851H8.87734V2.4598H6.40722V4.99851H5.69946V0H6.40722V2.32057H8.87734V0H9.5851Z" fill="white"/>
<path d="M14.6144 4.12133H14.7691V4.99851H11.9568V0H14.7691V0.877176H14.6144C14.3472 0.167081 13.6488 0.125311 13.0489 0.125311H12.6552V2.32057H13.9676V2.4598H12.6552V4.8732H13.0583C13.6488 4.8732 14.3472 4.83143 14.6144 4.12133Z" fill="white"/>
</svg>
