<svg width="41" height="45" viewBox="0 0 41 45" fill="none" xmlns="http://www.w3.org/2000/svg">
<path d="M16.1811 0H13.2612V19.9525H16.1811V0Z" fill="white"/>
<path d="M11.0127 44.8931C8.09195 44.8931 5.29083 43.7341 3.22555 41.6709C1.16027 39.6077 0 36.8095 0 33.8917C0 30.9739 1.16027 28.1757 3.22555 26.1125C5.29083 24.0493 8.09195 22.8902 11.0127 22.8902H16.1619V25.8636H10.9978C9.42081 25.8665 7.88005 26.3364 6.57024 27.2138C5.26042 28.0912 4.24033 29.3367 3.63887 30.793C3.03741 32.2494 2.88157 33.8511 3.19103 35.3959C3.5005 36.9407 4.26137 38.3592 5.37753 39.4721C6.4937 40.5851 7.91505 41.3425 9.46199 41.6488C11.0089 41.9551 12.612 41.7964 14.0687 41.1928C15.5254 40.5893 16.7703 39.5679 17.6462 38.2578C18.522 36.9477 18.9895 35.4076 18.9895 33.8322V14.7729C18.9895 11.8577 20.1477 9.06173 22.2098 6.99899C24.2718 4.93624 27.0691 3.77542 29.9873 3.77148H30.1361C33.0188 3.77542 35.782 4.92214 37.8189 6.9598C39.8559 8.99745 41 11.7594 41 14.6391V14.7729C40.9985 17.6125 39.898 20.3415 37.9287 22.3891C35.9594 24.4367 33.2739 25.6444 30.4338 25.7595H24.9125V22.7862H30.0022C32.1191 22.7862 34.1496 21.9471 35.6479 20.4531C37.1462 18.9591 37.9899 16.9323 37.9938 14.8175V14.6837C37.9899 12.607 37.1623 10.6165 35.6924 9.14803C34.2224 7.67956 32.2298 6.85285 30.151 6.84892H30.0022C27.8878 6.85285 25.8612 7.69366 24.3661 9.18721C22.871 10.6808 22.0293 12.7053 22.0254 14.8175V33.8917C22.0215 36.8083 20.8599 39.6042 18.7955 41.6666C16.7311 43.7289 13.9322 44.8892 11.0127 44.8931Z" fill="white"/>
</svg>
