<svg width="108" height="30" viewBox="0 0 108 30" fill="none" xmlns="http://www.w3.org/2000/svg">
<path d="M27.84 1.08L17.6 29H10.8L0.56 1.08H6.56L14.24 23.28L21.88 1.08H27.84ZM54.3575 1.08V29H48.7575V17.12H36.7975V29H31.1975V1.08H36.7975V12.56H48.7575V1.08H54.3575ZM65.4694 5.6V12.6H74.8694V17.04H65.4694V24.44H76.0694V29H59.8694V1.04H76.0694V5.6H65.4694ZM79.7984 15C79.7984 12.2533 80.4118 9.8 81.6384 7.64C82.8918 5.45333 84.5851 3.76 86.7184 2.56C88.8784 1.33333 91.2918 0.719999 93.9584 0.719999C97.0784 0.719999 99.8118 1.52 102.158 3.12C104.505 4.72 106.145 6.93333 107.078 9.76H100.638C99.9984 8.42667 99.0918 7.42667 97.9184 6.76C96.7718 6.09333 95.4384 5.76 93.9184 5.76C92.2918 5.76 90.8384 6.14667 89.5584 6.92C88.3051 7.66666 87.3184 8.73333 86.5984 10.12C85.9051 11.5067 85.5584 13.1333 85.5584 15C85.5584 16.84 85.9051 18.4667 86.5984 19.88C87.3184 21.2667 88.3051 22.3467 89.5584 23.12C90.8384 23.8667 92.2918 24.24 93.9184 24.24C95.4384 24.24 96.7718 23.9067 97.9184 23.24C99.0918 22.5467 99.9984 21.5333 100.638 20.2H107.078C106.145 23.0533 104.505 25.28 102.158 26.88C99.8384 28.4533 97.1051 29.24 93.9584 29.24C91.2918 29.24 88.8784 28.64 86.7184 27.44C84.5851 26.2133 82.8918 24.52 81.6384 22.36C80.4118 20.2 79.7984 17.7467 79.7984 15Z" fill="white"/>
</svg>
