<svg width="32" height="32" viewBox="0 0 32 32" fill="none" xmlns="http://www.w3.org/2000/svg">
<g clip-path="url(#clip0_280_833)">
<path d="M15.9889 8.80247C16.9048 8.80247 17.6473 8.05999 17.6473 7.14409C17.6473 6.2282 16.9048 5.48572 15.9889 5.48572C15.073 5.48572 14.3306 6.2282 14.3306 7.14409C14.3306 8.05999 15.073 8.80247 15.9889 8.80247Z" fill="white"/>
<path d="M20.0835 13.9735C19.9784 13.8638 19.8413 13.7825 19.682 13.7465L17.1738 13.1792L16.2953 10.8737L17.1839 12.0549L17.3328 10.9845C17.418 10.3717 16.9902 9.80578 16.3774 9.72059L14.4893 9.45809C13.8428 9.36821 13.2556 9.84878 13.2167 10.5009L12.9687 14.6514L14.465 14.9898C15.1756 15.1506 15.6852 15.7248 15.7983 16.4016C15.8345 16.618 15.8305 16.8449 15.779 17.0722C15.7277 17.2992 15.6338 17.5055 15.5082 17.6852H16.0373V21.3393C16.0373 21.6938 16.3246 21.9812 16.6791 21.9812C17.0336 21.9812 17.3209 21.6938 17.3209 21.3393V17.5628L18.6675 21.3419C18.818 21.7642 19.2404 22.0287 19.6901 21.9738V18.4755L18.8275 16.0549C18.1523 15.9022 16.4909 15.5264 15.8584 15.3833C15.4023 15.2802 15.0839 14.8922 15.0465 14.4498L14.7958 11.4448L15.8275 14.1522C15.9231 14.4032 16.1381 14.5897 16.4002 14.649L19.3281 15.3112C19.4526 15.3394 19.5728 15.3369 19.69 15.309C19.6901 14.8548 19.6213 14.3714 20.0835 13.9735Z" fill="white"/>
<path d="M15.1184 23.2428L13.3606 18.3103C12.6598 18.1518 10.8867 17.7507 10.2047 17.5965C9.71988 17.4869 9.38151 17.0745 9.34176 16.6042L9.07532 13.4102L10.1719 16.2879C10.2736 16.5547 10.5021 16.7529 10.7807 16.8159L13.8928 17.5199C14.3516 17.6237 14.8086 17.3359 14.9126 16.8762C15.0165 16.4169 14.7284 15.9603 14.269 15.8564L11.6028 15.2533L10.669 12.8029L11.6134 14.0584L11.7716 12.9206C11.8622 12.2692 11.4076 11.6678 10.7562 11.5772L8.74932 11.2982C8.06226 11.2027 7.43813 11.7134 7.3967 12.4067L7.13376 16.8074C8.01338 16.8354 8.76088 17.5069 8.85895 18.4069C8.92895 19.0495 8.64982 19.6668 8.14395 20.0429H10.3948V23.927C10.3948 24.3037 10.7002 24.6092 11.0769 24.6092C11.4537 24.6092 11.7591 24.3037 11.7591 23.927V19.9129L13.1905 23.9297C13.3804 24.4628 13.9663 24.7397 14.4979 24.5501C15.0304 24.3605 15.3081 23.7751 15.1184 23.2428Z" fill="white"/>
<path d="M10.3435 10.6018C11.317 10.6018 12.1062 9.81261 12.1062 8.8391C12.1062 7.8656 11.317 7.07642 10.3435 7.07642C9.36999 7.07642 8.58081 7.8656 8.58081 8.8391C8.58081 9.81261 9.36999 10.6018 10.3435 10.6018Z" fill="white"/>
<path d="M27.8513 8.319C28.7894 8.319 29.5499 7.55853 29.5499 6.62044C29.5499 5.68235 28.7894 4.92188 27.8513 4.92188C26.9132 4.92188 26.1527 5.68235 26.1527 6.62044C26.1527 7.55853 26.9132 8.319 27.8513 8.319Z" fill="white"/>
<path d="M9.50931 25.6686L7.60756 20.3319C7.59994 20.328 7.59506 20.3256 7.58744 20.3217C7.48513 20.3521 7.37881 20.3741 7.26888 20.3861L5.28331 20.6025C4.29656 20.71 4.21869 20.7186 3.59344 20.7866C2.57775 20.8973 1.75444 19.9627 2.00756 18.958L2.9235 15.3785V18.958C2.9235 19.4815 3.37856 19.8887 3.898 19.8321L7.16956 19.4756C7.65225 19.423 8.00094 18.989 7.94831 18.5063C7.89569 18.0236 7.46225 17.6747 6.979 17.7275L4.68194 17.9778V15.3785L5.09969 17.0107L5.79319 16.9351L6.05869 15.0256C6.15206 14.354 5.68331 13.7339 5.01169 13.6405L2.97012 13.3566C2.18925 13.2481 1.5885 13.8158 1.54788 14.4956C1.38006 17.273 1.24081 20.9625 1.24081 20.9625H0.703438C0.314938 20.9626 0 21.2775 0 21.666V26.3508C0 26.738 0.303 27.0703 0.690188 27.0773C1.08469 27.0845 1.40669 26.7669 1.40669 26.3741V22.3693H4.639V26.3508C4.639 26.738 4.942 27.0703 5.32919 27.0773C5.72369 27.0845 6.04569 26.7669 6.04569 26.3741V22.2354L7.52156 26.377C7.71706 26.9255 8.32025 27.2123 8.86963 27.0167C9.4185 26.821 9.70494 26.2175 9.50931 25.6686Z" fill="white"/>
<path d="M4.58569 12.6348C5.58961 12.6348 6.40344 11.8209 6.40344 10.817C6.40344 9.8131 5.58961 8.99927 4.58569 8.99927C3.58178 8.99927 2.76794 9.8131 2.76794 10.817C2.76794 11.8209 3.58178 12.6348 4.58569 12.6348Z" fill="white"/>
<path d="M24.1187 15.5484L20.9101 14.5411C20.7156 14.48 20.517 14.6252 20.517 14.8296V24.6034C20.517 24.8785 20.7401 25.1016 21.0152 25.1016H23.9695C24.2446 25.1016 24.4677 24.8785 24.4677 24.6034V16.0237C24.4676 15.8061 24.3264 15.6136 24.1187 15.5484Z" fill="white"/>
<path d="M31.8418 11.9939L29.8269 9.35671C29.6198 9.03708 29.2747 8.82727 28.8836 8.82727H26.8373C26.2036 8.82727 25.6899 9.37671 25.6899 10.0544V10.5451L26.9459 9.52027L25.2515 11.8382C25.2248 11.837 22.6352 11.7208 22.6084 11.7208C22.1897 11.7208 21.8392 12.0695 21.8546 12.5033C21.8684 12.894 22.1808 13.2123 22.5753 13.2299L25.5884 13.3646C25.8371 13.3758 26.0845 13.2572 26.2316 13.056L28.1027 10.4963L26.8991 13.3385C26.7812 13.6168 26.3357 14.0581 25.69 14.088C25.69 14.088 25.6667 14.071 25.6667 24.1802C25.6667 24.7084 26.0949 25.1365 26.6231 25.1365C27.1512 25.1365 27.5794 24.7084 27.5794 24.1802V16.9671H28.1237V24.1803C28.1237 24.7085 28.5518 25.1366 29.08 25.1366C29.6082 25.1366 30.0363 24.7085 30.0363 24.1803V16.3558C30.3439 16.3535 30.6332 16.1661 30.7501 15.8615L31.9489 12.7374C32.0447 12.4878 32.0041 12.2063 31.8418 11.9939ZM30.0309 13.4358V12.161L30.3565 12.5872L30.0309 13.4358Z" fill="white"/>
</g>
<defs>
<clipPath id="clip0_280_833">
<rect width="32" height="32" fill="white"/>
</clipPath>
</defs>
</svg>
