<svg width="16" height="16" viewBox="0 0 16 16" fill="none" xmlns="http://www.w3.org/2000/svg">
<path d="M2 3.49976V11.4998C2.01033 11.7811 2.10933 12.0154 2.297 12.2028C2.48467 12.3901 2.719 12.4891 3 12.4998H13C13.2813 12.4894 13.5157 12.3904 13.703 12.2028C13.8903 12.0151 13.9893 11.7808 14 11.4998V3.49976H2ZM2 2.49976H14C14.2813 2.51009 14.5157 2.60909 14.703 2.79676C14.8903 2.98442 14.9893 3.21876 15 3.49976V11.4998C14.9897 12.0624 14.7943 12.5338 14.414 12.9138C14.0337 13.2938 13.5623 13.4891 13 13.4998H3C2.43733 13.4894 1.966 13.2941 1.586 12.9138C1.206 12.5334 1.01067 12.0621 1 11.4998V3.49976C1.01033 3.21842 1.10933 2.98409 1.297 2.79676C1.48467 2.60942 1.719 2.51042 2 2.49976ZM14.125 3.49976L10.2655 7.92176C9.97383 8.24476 9.63267 8.49476 9.242 8.67176C8.85133 8.84876 8.43733 8.93726 8 8.93726C7.56267 8.93726 7.14867 8.84876 6.758 8.67176C6.36733 8.49476 6.02617 8.24476 5.7345 7.92176L1.875 3.49976H14.125ZM3.203 3.49976L6.5 7.26526C6.68767 7.48392 6.91167 7.65059 7.172 7.76526C7.43233 7.87992 7.70833 7.93726 8 7.93726C8.29167 7.93726 8.56767 7.87992 8.828 7.76526C9.08833 7.65059 9.31233 7.48392 9.5 7.26526L12.797 3.49976H3.203Z" fill="white" fill-opacity="0.96"/>
</svg>
