<svg width="32" height="32" viewBox="0 0 32 32" fill="none" xmlns="http://www.w3.org/2000/svg">
<path d="M5.95121 25.8923C4.09572 25.6777 2.16374 24.5128 1.17192 23.0105C0.309933 21.7049 -0.0569695 20.4097 0.00712196 18.8989C0.0835562 17.098 0.676196 15.7345 1.93316 14.4678C2.92982 13.4634 3.78468 12.9644 5.12438 12.6049C5.65622 12.4622 5.85595 12.4418 6.73599 12.4403C7.56319 12.4403 7.82916 12.4623 8.24278 12.5717C8.51899 12.6448 8.78861 12.7218 8.84182 12.7429C8.9162 12.7721 8.98701 12.6606 9.14728 12.2614C10.3783 9.19511 12.9756 7.00854 16.2996 6.24035C16.9995 6.07857 18.7986 6.01158 19.595 6.11759C23.9698 6.70003 27.4175 10.0906 28.1229 14.5041C28.2836 15.5095 28.1874 17.394 27.9299 18.2868L27.871 18.4908H28.259C29.6895 18.4953 31.0177 19.316 31.6184 20.5678C31.9361 21.2298 32.0319 21.7173 31.9909 22.4622C31.9047 24.0246 30.9004 25.2783 29.3062 25.8135C28.9759 25.9243 28.4697 25.9297 17.6915 25.9375C11.4933 25.9421 6.21019 25.921 5.95121 25.8912V25.8923ZM16.7024 19.9943C16.8318 19.9582 17.0367 19.8271 17.1576 19.7025L17.3776 19.4761V19.7368V19.9976H17.8484H18.3193V18.3966V16.7957H17.8484H17.3776V17.8223C17.3776 18.7872 17.3689 18.8618 17.2342 19.0623C17.1107 19.2461 17.0509 19.2782 16.8018 19.2945C16.5513 19.3109 16.495 19.2899 16.3801 19.1447C16.2567 18.9878 16.2475 18.9003 16.2475 17.8859V16.7957H15.7371H15.2267L15.2578 18.0042C15.2766 18.7228 15.3195 19.2892 15.3643 19.4012C15.5786 19.9372 16.0908 20.1642 16.7023 19.9943H16.7024ZM24.0482 19.9274C24.2813 19.8517 24.2836 19.8476 24.2836 19.5162C24.2836 19.3321 24.2731 19.1814 24.2599 19.1814C24.2466 19.1814 24.1347 19.2239 24.0107 19.2756C23.7142 19.3995 23.0749 19.3973 22.8315 19.271C22.6769 19.191 22.4629 18.8666 22.4629 18.7121C22.4629 18.6939 22.929 18.6788 23.4988 18.6788H24.5347V18.2236C24.5301 17.295 24 16.7332 23.1235 16.7332C22.0832 16.7332 21.3817 17.665 21.5717 18.7942C21.6798 19.4362 22.041 19.8468 22.6268 19.9938C22.9264 20.0689 23.7284 20.0313 24.0495 19.927L24.0482 19.9274ZM22.5023 18.0642C22.4392 17.9622 22.6987 17.5134 22.8644 17.4379C23.0735 17.3427 23.1677 17.3412 23.3634 17.4306C23.5346 17.5086 23.6558 17.7282 23.6558 17.9603C23.6558 18.1123 23.6485 18.1143 23.0945 18.1143C22.7857 18.1143 22.5193 18.0919 22.5023 18.0644V18.0642ZM8.58203 19.4779L8.74029 18.9896L9.55505 19.007L10.3698 19.0244L10.5276 19.5109L10.6854 19.9975H11.2105C11.7264 19.9975 11.7348 19.9929 11.6913 19.8562C11.6671 19.7786 11.3156 18.7827 10.9107 17.6431L10.1745 15.5713L9.57901 15.5535L8.98353 15.5357L8.18925 17.7195C7.7524 18.9206 7.39505 19.9257 7.3951 19.953C7.39515 19.9804 7.62664 19.9946 7.90948 19.9846L8.42376 19.9662L8.58203 19.478V19.4779ZM8.96475 18.1927C8.96475 18.1671 9.07528 17.8066 9.21037 17.3922C9.34545 16.9778 9.47588 16.554 9.5002 16.4504C9.53997 16.2819 9.55981 16.3184 9.69014 16.7957C9.77028 17.0892 9.89412 17.4962 9.96534 17.7001C10.1601 18.2578 10.1747 18.2397 9.52977 18.2397C9.21901 18.2397 8.96475 18.2186 8.96475 18.1927V18.1927ZM14.7407 19.6523V19.307H14.0224C13.6274 19.307 13.2917 19.2859 13.2766 19.2599C13.2615 19.2338 13.5846 18.7765 13.9949 18.2434C14.6473 17.3954 14.7407 17.244 14.7407 17.0348V16.7957H13.3909H12.0411V17.141V17.4863H12.7631C13.1602 17.4863 13.4845 17.5073 13.4837 17.5334C13.4837 17.5594 13.13 18.0325 12.6992 18.585C12.0641 19.3995 11.9159 19.6281 11.9157 19.7936V19.9976H13.3284H14.7409V19.6523H14.7407ZM20.1499 19.0715C20.1682 18.2755 20.1892 18.1147 20.3001 17.9258C20.4766 17.6246 20.7102 17.5192 21.0247 17.599L21.2701 17.6613V17.2358C21.2701 16.7567 21.2012 16.6913 20.8134 16.8014C20.5407 16.8789 20.4964 16.9133 20.3049 17.1969L20.14 17.4411V17.1183V16.7957H19.6692H19.1983V18.3966V19.9976H19.6634H20.1285L20.15 19.0715H20.1499Z" fill="#C3D2DF"/>
</svg>
