<svg width="488" height="488" viewBox="0 0 488 488" fill="none" xmlns="http://www.w3.org/2000/svg">
<g clip-path="url(#clip0_2_28)">
<path d="M36.036 253.4C37.836 256.5 42.236 256.5 44.036 253.4L77.936 194.6C79.736 191.5 77.536 187.7 73.936 187.7H55.436V151.4C55.436 127.9 74.536 108.8 98.036 108.8H142.736V78H98.036C57.636 78 24.736 110.9 24.736 151.3V187.7H6.136C2.636 187.7 0.336002 191.5 2.136 194.6L36.036 253.4Z" fill="white"/>
<path d="M159.436 439.1C186.774 439.1 208.936 416.938 208.936 389.6C208.936 362.262 186.774 340.1 159.436 340.1C132.098 340.1 109.936 362.262 109.936 389.6C109.936 416.938 132.098 439.1 159.436 439.1Z" fill="white"/>
<path d="M72.236 406.2C81.4039 406.2 88.836 398.768 88.836 389.6C88.836 380.432 81.4039 373 72.236 373C63.0681 373 55.636 380.432 55.636 389.6C55.636 398.768 63.0681 406.2 72.236 406.2Z" fill="white"/>
<path d="M246.636 406.2C255.804 406.2 263.236 398.768 263.236 389.6C263.236 380.432 255.804 373 246.636 373C237.468 373 230.036 380.432 230.036 389.6C230.036 398.768 237.468 406.2 246.636 406.2Z" fill="white"/>
<path d="M290.036 291.8H28.836C13.736 291.8 1.436 304.1 1.436 319.2V460C1.436 475.1 13.736 487.4 28.836 487.4H289.936C305.036 487.4 317.336 475.1 317.336 460V319.2C317.436 304.1 305.136 291.8 290.036 291.8ZM294.036 431.7C292.436 431.4 290.836 431.3 289.136 431.3C273.836 431.3 261.436 443.7 261.436 459C261.436 460.7 261.636 462.4 261.936 464.1H58.536C59.036 461.9 59.336 459.7 59.336 457.3C59.336 442 46.936 429.6 31.636 429.6C29.236 429.6 26.936 429.9 24.736 430.5V345.5C26.936 346.1 29.236 346.4 31.636 346.4C46.936 346.4 59.336 334 59.336 318.7C59.336 317.5 59.236 316.4 59.136 315.3H261.836C261.536 317 261.336 318.7 261.336 320.4C261.336 335.7 273.736 348.1 289.036 348.1C290.736 348.1 292.336 347.9 293.936 347.7V431.7H294.036V431.7Z" fill="white"/>
<path d="M451.436 234C449.636 230.9 445.236 230.9 443.436 234L409.536 292.8C407.736 295.9 409.936 299.7 413.536 299.7H432.136V336C432.136 359.5 413.036 378.6 389.536 378.6H344.736V409.3H389.436C429.836 409.3 462.736 376.4 462.736 336V299.7H481.336C484.836 299.7 487.136 295.9 485.336 292.8L451.436 234Z" fill="white"/>
<path d="M328.036 147.3C355.374 147.3 377.536 125.138 377.536 97.8C377.536 70.4619 355.374 48.3 328.036 48.3C300.698 48.3 278.536 70.4619 278.536 97.8C278.536 125.138 300.698 147.3 328.036 147.3Z" fill="white"/>
<path d="M240.836 114.4C250.004 114.4 257.436 106.968 257.436 97.8C257.436 88.6321 250.004 81.2 240.836 81.2C231.668 81.2 224.236 88.6321 224.236 97.8C224.236 106.968 231.668 114.4 240.836 114.4Z" fill="white"/>
<path d="M415.236 114.4C424.404 114.4 431.836 106.968 431.836 97.8C431.836 88.6321 424.404 81.2 415.236 81.2C406.068 81.2 398.636 88.6321 398.636 97.8C398.636 106.968 406.068 114.4 415.236 114.4Z" fill="white"/>
<path d="M458.636 0H197.436C182.336 0 170.036 12.3 170.036 27.4V168.2C170.036 183.3 182.336 195.6 197.436 195.6H458.536C473.636 195.6 485.936 183.3 485.936 168.2V27.3C485.936 12.2 473.736 0 458.636 0ZM462.636 139.8C461.036 139.5 459.436 139.4 457.736 139.4C442.436 139.4 430.036 151.8 430.036 167.1C430.036 168.8 430.236 170.5 430.536 172.2H227.136C227.636 170 227.936 167.8 227.936 165.4C227.936 150.1 215.536 137.7 200.236 137.7C197.836 137.7 195.536 138 193.336 138.6V53.6C195.536 54.2 197.836 54.5 200.236 54.5C215.536 54.5 227.936 42.1 227.936 26.8C227.936 25.6 227.836 24.5 227.736 23.4H430.436C430.136 25.1 429.936 26.8 429.936 28.5C429.936 43.8 442.336 56.2 457.636 56.2C459.336 56.2 460.936 56 462.536 55.8V139.8H462.636V139.8Z" fill="white"/>
</g>
<defs>
<clipPath id="clip0_2_28">
<rect width="487.4" height="487.4" fill="white"/>
</clipPath>
</defs>
</svg>
