<svg width="56" height="43" viewBox="0 0 56 43" fill="none" xmlns="http://www.w3.org/2000/svg">
<path d="M21.5434 11.2256L17.5346 12.7968L14.0494 14.6463L13.0729 14.9562C12.8252 15.2385 12.563 15.526 12.2829 15.8185C11.9756 16.1397 11.6862 16.4313 11.4665 16.642C11.2214 16.8762 10.8578 17.311 10.6714 17.5892C10.3947 18.0035 10.1777 18.4454 10.0849 18.784C9.91716 19.3946 9.99888 20.0135 10.3224 20.5853C10.7353 21.3147 11.5559 22.0563 12.5119 22.5606C12.9989 22.8183 13.8212 23.1498 14.4384 23.337C15.4659 23.649 17.452 23.9875 18.5451 24.0377C18.7673 24.0479 19.0618 24.0469 19.0755 24.0356C19.0993 24.0162 19.2696 23.6295 19.4671 23.1447C20.1396 21.4947 20.6257 19.948 20.887 18.6275C21.0454 17.8275 21.1688 16.7606 21.2488 15.4963C21.271 15.1424 21.2795 13.9609 21.2625 13.5589C21.2344 12.9053 21.1867 12.3723 21.1101 11.8506C21.099 11.7739 21.0948 11.7064 21.1007 11.7003C21.1118 11.689 21.1501 11.6747 21.6421 11.5018L21.5442 11.2256H21.5434ZM20.6274 11.8711C20.664 11.8711 20.761 12.9871 20.7857 13.696C20.7908 13.8463 20.79 13.9425 20.7823 13.9425C20.7585 13.9425 20.269 13.5967 19.9217 13.3349C19.6186 13.1057 19.044 12.6475 18.952 12.5605C18.9231 12.5329 18.9265 12.5319 19.1742 12.4296C19.5956 12.2547 20.595 11.8701 20.6265 11.8701L20.6274 11.8711ZM18.5851 12.6771C18.6107 12.6771 18.6813 12.7242 18.8482 12.849C19.4739 13.3195 20.3201 13.8862 20.6827 14.0765C20.7951 14.1358 20.8079 14.1123 20.5491 14.324C19.9966 14.7751 19.3104 15.2181 18.4668 15.6682C18.3195 15.7469 18.1952 15.8103 18.1901 15.8103C18.185 15.8103 18.2012 15.7203 18.2259 15.6109C18.4302 14.7035 18.5451 13.787 18.5485 13.0515C18.5502 12.6884 18.5502 12.6864 18.5792 12.6771C18.5809 12.6771 18.5826 12.6761 18.5843 12.6761L18.5851 12.6771ZM18.1654 12.8695C18.1833 12.8909 18.1705 13.7052 18.1484 13.9272C18.0956 14.4591 18.0088 14.9521 17.87 15.5116C17.8368 15.6457 17.8062 15.7612 17.8011 15.7674C17.7892 15.7837 17.3746 15.2989 17.2367 15.1066C17.0008 14.7782 16.8153 14.4529 16.6791 14.1317C16.6101 13.9691 16.5003 13.6458 16.5105 13.6377C16.5573 13.5967 18.1535 12.8551 18.1654 12.8695V12.8695ZM16.1853 13.8075C16.1887 13.8075 16.1921 13.8095 16.1938 13.8116C16.1998 13.8197 16.2211 13.8791 16.2406 13.9435C16.3368 14.2586 16.5539 14.7271 16.7429 15.0258C16.9489 15.3531 17.2171 15.7009 17.4418 15.9321C17.5142 16.0067 17.5814 16.0753 17.5908 16.0855C17.6104 16.106 17.6163 16.1029 17.1226 16.3279C16.5497 16.5888 15.9257 16.8506 15.2097 17.1289C14.9364 17.2353 14.7057 17.3243 14.6972 17.3283C14.67 17.3406 14.6785 17.3202 14.7577 17.1708C15.1135 16.5029 15.6524 15.1976 15.9537 14.2739C16.0057 14.1133 16.0559 13.9537 16.0644 13.9169C16.0772 13.8637 16.0908 13.8463 16.1317 13.8238C16.1547 13.8116 16.1742 13.8054 16.1853 13.8075ZM15.5783 14.1082C15.586 14.1164 15.4327 14.5061 15.2812 14.8611C14.9884 15.5485 14.6649 16.2246 14.2358 17.0501C14.1618 17.1923 14.0936 17.3232 14.0843 17.3386C14.069 17.3652 14.063 17.356 14.0162 17.2445C13.9132 16.999 13.8272 16.689 13.7829 16.4016C13.7387 16.1162 13.7463 15.6231 13.7991 15.3163C13.8383 15.0892 13.8366 15.0943 13.9259 15.0391C14.3116 14.8017 15.5655 14.0959 15.5783 14.1092V14.1082ZM20.8045 14.3629V14.5174C20.8036 15.3296 20.7321 16.4415 20.6265 17.2527C20.6078 17.3948 20.5925 17.5125 20.5908 17.5135C20.5891 17.5145 20.504 17.4849 20.4009 17.446C19.9464 17.2762 19.4526 17.0225 19.0082 16.7299C18.7137 16.5356 18.2872 16.2216 18.2991 16.2072C18.3025 16.2031 18.4276 16.1234 18.5783 16.0292C19.1734 15.6579 19.7412 15.258 20.2358 14.8611C20.4214 14.7128 20.6989 14.4713 20.7602 14.4059L20.8036 14.3598L20.8045 14.3629ZM13.29 15.44C13.3019 15.439 13.2994 15.4677 13.2798 15.6017C13.2662 15.6948 13.2509 15.8707 13.2457 15.9924C13.2211 16.5243 13.2934 16.9171 13.5131 17.4552C13.5744 17.6045 13.622 17.7293 13.6195 17.7314C13.5973 17.7539 11.5934 18.4577 10.9634 18.6653C10.777 18.7267 10.6135 18.7809 10.5999 18.786C10.5778 18.7942 10.5761 18.7881 10.5837 18.7267C10.6527 18.1927 10.9915 17.492 11.4657 16.9028C11.7807 16.511 12.0326 16.2799 12.4617 15.9853C12.7699 15.7745 13.2475 15.4574 13.2824 15.4411C13.2849 15.44 13.2866 15.44 13.2892 15.44H13.29ZM18.0164 16.4568C18.0182 16.4538 18.0922 16.5018 18.1816 16.5632C18.8286 17.0133 19.7318 17.4347 20.5023 17.6465L20.5721 17.6659L20.4767 17.7304C20.074 17.9984 18.7494 18.6612 17.3967 19.2709C17.1992 19.3599 17.0068 19.4468 16.9685 19.4652C16.9302 19.4836 16.9004 19.4959 16.9004 19.4918C16.9004 19.4877 16.9566 19.3588 17.0247 19.2054C17.4044 18.3523 17.784 17.3151 17.9781 16.5949C17.9977 16.5213 18.0156 16.4599 18.0173 16.4568H18.0164ZM17.5346 16.6461C17.5363 16.6481 17.5133 16.7248 17.4818 16.8148C17.2179 17.582 16.8723 18.4188 16.4305 19.3588C16.3181 19.5982 16.2236 19.7936 16.2202 19.7926C16.2168 19.7915 16.1257 19.7271 16.0176 19.6473C15.3749 19.1747 14.8062 18.5927 14.4333 18.027L14.3797 17.9472L14.6564 17.8562C15.6447 17.5309 16.4824 17.1831 17.3158 16.7514C17.4342 16.69 17.5321 16.642 17.5338 16.645L17.5346 16.6461ZM20.5278 17.9022C20.5295 17.9022 20.5295 17.9043 20.5295 17.9053C20.5295 17.9861 20.3763 18.7349 20.2494 19.277C20.143 19.7322 20.0528 20.0872 19.8868 20.7173C19.8135 20.9955 19.7506 21.2226 19.7463 21.2216C19.742 21.2205 19.725 21.2165 19.7071 21.2124C18.8073 21.017 18.0003 20.7439 17.2452 20.3787C17.034 20.2764 16.7284 20.1138 16.7123 20.0953C16.7071 20.0892 16.8893 19.9859 17.1175 19.8662C18.4966 19.143 19.9259 18.3196 20.4146 17.9666C20.4733 17.9247 20.5167 17.8991 20.5269 17.9022H20.5278ZM13.6186 18.1866C13.6263 18.1948 13.2398 18.8586 12.7009 19.7649C12.5136 20.08 12.2931 20.4513 12.2123 20.5904C12.1314 20.7295 12.008 20.9485 11.9381 21.0784L11.8105 21.3147L11.6751 21.1776C11.5159 21.017 11.2375 20.6764 11.1107 20.4871C10.8502 20.0974 10.674 19.6872 10.605 19.3108C10.5727 19.1369 10.5718 19.0489 10.6025 19.0376C10.6467 19.0213 11.4555 18.7932 12.2148 18.5814C12.6362 18.4638 13.124 18.3267 13.2985 18.2756C13.473 18.2244 13.6178 18.1856 13.6195 18.1876L13.6186 18.1866ZM14.0068 18.3646L14.1047 18.4955C14.5414 19.0796 14.985 19.5153 15.5264 19.8918C15.6217 19.9583 15.6949 20.0156 15.689 20.0207C15.6669 20.037 13.8161 20.8277 12.9606 21.1868C12.4779 21.3893 12.0812 21.553 12.0795 21.553C12.0778 21.553 12.0497 21.5315 12.019 21.5049L11.9628 21.4568L12.0505 21.3055C12.3349 20.8114 12.6916 20.2682 13.4722 19.1389L14.0077 18.3646H14.0068ZM16.4245 20.4411C16.4271 20.438 16.5616 20.4953 16.7259 20.569C17.1209 20.7459 17.4299 20.8615 17.8496 20.9883C18.3646 21.1428 19.1078 21.2983 19.5488 21.3423C19.616 21.3494 19.6509 21.3586 19.6399 21.3668C19.6195 21.3822 19.1734 21.5612 18.8456 21.685C18.3255 21.8814 16.7344 22.446 15.437 22.8951C15.1961 22.9779 14.9909 23.0485 14.9799 23.0516C14.9509 23.0587 14.8496 23.027 14.8496 23.0107C14.8496 23.0025 14.922 22.892 15.0105 22.7652C15.4464 22.1381 15.8797 21.4384 16.2415 20.7766C16.3402 20.5955 16.4228 20.4442 16.4254 20.4411H16.4245ZM15.889 20.4595C15.8933 20.4646 15.6779 20.8779 15.2999 21.5929C15.1399 21.8947 14.9594 22.2383 14.8973 22.357C14.8351 22.4757 14.744 22.6547 14.6955 22.757L14.607 22.9431L14.5619 22.9288C14.4529 22.893 13.6867 22.5688 13.485 22.4716C13.2338 22.3519 12.9725 22.2077 12.7801 22.0818C12.5392 21.9253 12.2336 21.6931 12.2574 21.6839C12.2642 21.6809 12.6788 21.5448 13.1776 21.3811C14.5057 20.9464 15.2404 20.6968 15.7222 20.5158C15.8124 20.482 15.8873 20.4564 15.889 20.4585V20.4595ZM19.6612 21.5223C19.6637 21.5213 19.6654 21.5213 19.6654 21.5223C19.6782 21.5602 19.1861 23.1958 19.0065 23.7144C18.9665 23.831 18.9512 23.8587 18.9307 23.8576C18.8797 23.8546 18.1671 23.7349 17.7355 23.6561C16.9804 23.518 15.7154 23.2531 15.3961 23.1651L15.3221 23.1457L15.775 23.0229C16.7455 22.76 17.2111 22.6189 17.6836 22.446C18.2795 22.2271 18.8703 21.953 19.4662 21.6205C19.5607 21.5673 19.6407 21.5274 19.6612 21.5223V21.5223ZM17.412 0.000134482C17.3448 -0.00907177 16.2687 0.456356 15.5775 0.793918C14.641 1.25116 13.914 1.68897 13.4654 2.06745C13.2985 2.20861 13.0883 2.46127 13.0576 2.55845C13.0457 2.59527 13.0406 2.63721 13.0406 2.6812L13.4475 3.14254L14.4129 3.51283L16.7131 4.0069L19.3419 4.55007L19.3683 4.279C19.3607 4.27695 19.353 4.27593 19.3445 4.2749L18.998 4.20944L18.9273 4.06112C18.5698 3.30313 18.1748 2.36614 17.9458 1.73193C17.7679 1.24093 17.5976 0.674237 17.5031 0.26507C17.4469 0.0216155 17.441 0.00627191 17.4095 0.00115732L17.412 0.000134482ZM17.3618 0.187328C17.3644 0.186305 17.3661 0.186305 17.3661 0.187328C17.3678 0.190397 17.3805 0.291666 17.3924 0.413393C17.4444 0.921783 17.5389 1.41585 17.687 1.94675C17.7985 2.34671 17.8002 2.32318 17.6674 2.27919C17.3584 2.17588 15.9733 1.88946 14.9713 1.72273C14.8096 1.69613 14.6751 1.67158 14.6734 1.66954C14.6606 1.65419 15.3961 1.19081 15.7222 1.00873C16.1402 0.774483 17.2792 0.205741 17.3618 0.187328V0.187328ZM14.4418 1.81684L14.5593 1.86491C15.2029 2.1278 16.8153 2.4981 17.7066 2.58709C17.807 2.59732 17.8913 2.60755 17.8939 2.61062C17.8964 2.61369 17.8113 2.6679 17.704 2.73235C17.2741 2.99114 16.8008 3.3062 16.473 3.55272C16.3768 3.62535 16.2892 3.68366 16.2772 3.68264C16.2653 3.68161 16.2023 3.66934 16.1359 3.65604L16.015 3.63251L15.7111 3.27756C15.1765 2.65665 14.7594 2.17588 14.5985 1.9938L14.4418 1.81684ZM14.3226 1.9314L14.7483 2.57072C14.9824 2.92261 15.2182 3.27142 15.2701 3.3461C15.3221 3.42077 15.3629 3.48521 15.3604 3.48726C15.3485 3.49749 14.7432 3.35633 14.4222 3.26733C14.0928 3.17629 13.9566 3.13333 13.7531 3.05456L13.5871 2.99012L13.588 2.94102C13.5897 2.69552 13.8476 2.33341 14.2843 1.96311L14.3235 1.9314H14.3226ZM17.9509 2.8019C17.9637 2.80293 17.9773 2.83464 18.0147 2.93386C18.1178 3.20596 18.4395 3.94348 18.5179 4.08567C18.5434 4.13272 18.5843 4.13579 18.1569 4.05293C17.1311 3.85346 16.7991 3.78697 16.7991 3.77981C16.7991 3.7747 16.8297 3.75117 16.8672 3.7256C17.1847 3.51283 17.5057 3.24585 17.7909 2.95739C17.859 2.88783 17.9245 2.82236 17.9364 2.81009C17.9415 2.80497 17.9458 2.8019 17.95 2.80293L17.9509 2.8019ZM13.0763 2.50935C13.0763 2.50935 13.0099 2.63619 13.0729 2.82441C13.1121 2.94102 13.2287 3.08116 13.3573 3.22948C13.3573 3.22948 14.704 4.80784 14.8683 5.03698C15.6141 6.07115 15.9384 7.08997 15.9682 8.49648C15.9878 9.3987 15.8422 10.1925 15.4906 11.1141C14.8598 12.7661 13.5318 14.589 11.4801 16.6154L11.7815 16.4957C11.9748 16.3218 12.2378 16.1356 12.8584 15.7275C14.286 14.7884 15.8899 13.9251 17.8598 13.0362C20.6938 11.7565 25.3564 10.2549 28.009 9.76695L28.2857 9.7158L28.2431 9.63601C28.0005 9.18286 27.8354 8.9036 27.6362 8.60798C27.0547 7.74362 26.3499 7.0378 25.4866 6.45781C24.3008 5.65993 22.7625 5.04005 20.8181 4.57564C20.4503 4.48767 19.645 4.32196 18.9903 4.19921C17.6027 3.93939 16.708 3.76345 15.7188 3.55682C15.3646 3.48317 14.8351 3.37576 14.4835 3.28472C14.3005 3.23767 13.9523 3.13844 13.6825 3.02592C13.4594 2.92056 13.1444 2.81827 13.078 2.51037L13.0763 2.50935ZM13.857 3.41975C13.8587 3.4177 13.9098 3.43611 13.9711 3.46169C14.0843 3.50772 14.235 3.56193 14.4095 3.62126C14.5321 3.66218 14.6666 3.70514 14.8087 3.74913C14.9909 3.80539 15.1416 3.85346 15.1433 3.85551C15.1637 3.88313 15.4694 5.05641 15.5741 5.5065C15.6141 5.67835 15.6439 5.82156 15.6413 5.82462C15.6388 5.82769 15.6047 5.76427 15.5664 5.68448C15.2123 4.93673 14.6521 4.17568 14.0034 3.56398C13.9225 3.48726 13.857 3.42281 13.857 3.41975V3.41975ZM15.3485 3.91484C15.3638 3.91381 15.431 3.92711 15.5111 3.94859C16.027 4.08566 16.9489 4.29945 17.5414 4.41914C17.6402 4.43959 17.721 4.46108 17.721 4.46721C17.721 4.47335 17.6844 4.50199 17.6393 4.52859C17.5397 4.58894 17.1371 4.87843 17.0025 4.98686C16.6663 5.25691 16.3641 5.54639 16.1444 5.80928C16.0559 5.91464 15.9818 6.00159 15.9793 6.00159C15.9767 6.00159 15.9614 5.94021 15.9452 5.86452C15.8354 5.35817 15.6073 4.6094 15.4038 4.0826C15.3706 3.99769 15.3442 3.92302 15.3442 3.91688C15.3442 3.91586 15.3451 3.91586 15.3476 3.91484H15.3485ZM17.973 4.51427C17.9901 4.52143 18.0233 4.64418 18.0811 4.91832C18.1918 5.44512 18.2437 6.03739 18.2267 6.58465C18.2216 6.73707 18.214 6.87823 18.2088 6.89971L18.1995 6.93756L18.0428 6.87618C17.7202 6.75241 17.1924 6.56522 16.7403 6.41485C16.4833 6.32892 16.273 6.25323 16.273 6.24607C16.273 6.22356 16.6476 5.77348 16.8085 5.60265C17.1158 5.27532 17.9441 4.50199 17.973 4.51427V4.51427ZM18.1816 4.55007C18.191 4.53984 19.4356 4.79864 20.0008 4.92855C20.4222 5.02573 21.0326 5.17916 21.0692 5.19758C21.0871 5.20678 21.0241 5.2477 20.8215 5.35715C20.0204 5.79087 19.4271 6.17855 18.8371 6.65319C18.6813 6.77798 18.5528 6.88027 18.5502 6.88027C18.5477 6.88027 18.5451 6.77594 18.5451 6.6491C18.5443 5.9576 18.4302 5.25997 18.2191 4.67077C18.1961 4.60735 18.179 4.55314 18.1816 4.55007V4.55007ZM21.3995 5.31521C21.4089 5.32646 21.368 5.62209 21.3331 5.79598C21.2233 6.33813 20.9313 7.14316 20.5712 7.8991C20.5074 8.03208 20.4512 8.14358 20.4444 8.14562C20.4376 8.14767 20.3558 8.09652 20.2622 8.03106C19.9097 7.78351 19.5113 7.54926 19.0738 7.3324C18.952 7.27205 18.8473 7.21784 18.8422 7.2117C18.8226 7.1892 19.7957 6.41485 20.3116 6.04353C20.7244 5.74586 21.3885 5.30089 21.4004 5.31521H21.3995ZM21.6294 5.35817C21.6575 5.35817 22.2091 5.53923 22.4952 5.64152C23.206 5.89725 24.0266 6.25732 24.5579 6.54783L24.7792 6.66853L24.6234 6.71149C23.3218 7.07054 22.2057 7.48584 21.1314 8.00957C21.042 8.05356 20.9645 8.08936 20.9586 8.08936C20.9526 8.08936 20.9815 8.00651 21.0215 7.90524C21.3442 7.08077 21.5536 6.21538 21.6072 5.48092C21.6124 5.41443 21.6226 5.36022 21.6294 5.36022V5.35817ZM16.1427 6.87414C16.1512 6.86391 16.5718 6.98154 16.8008 7.05929C17.1456 7.1759 17.8785 7.4705 17.8785 7.493C17.8785 7.49709 17.7977 7.582 17.6989 7.68122C17.3031 8.07913 16.9208 8.49648 16.4628 9.02738C16.3275 9.18491 16.2117 9.31277 16.2057 9.31277C16.1998 9.31277 16.1972 9.28924 16.2006 9.26163C16.2696 8.64992 16.2551 7.86432 16.1589 7.06542C16.147 6.96415 16.1393 6.87823 16.1427 6.87414V6.87414ZM24.9895 6.88334C24.9954 6.8905 24.7945 7.26898 24.6694 7.48482C24.4864 7.79885 24.2216 8.21211 23.618 9.12455C23.3013 9.60328 22.9438 10.1454 22.8229 10.3285C22.702 10.5116 22.6016 10.662 22.5982 10.662C22.5948 10.662 22.5564 10.5965 22.5122 10.5167C22.1717 9.90606 21.7681 9.37005 21.2863 8.88826C21.1961 8.79824 21.0948 8.70004 21.0616 8.66936C21.0284 8.63867 21.0003 8.61105 21.0003 8.60696C21.0003 8.59673 21.5145 8.33179 21.9069 8.13949C22.5905 7.80499 23.5244 7.40503 24.2233 7.14726C24.5919 7.01121 24.9835 6.87618 24.9895 6.88334V6.88334ZM25.2219 6.95699C25.2329 6.95392 25.3062 6.99689 25.3947 7.05724C26.1311 7.56358 26.8521 8.21518 27.4199 8.88417C27.5817 9.07443 27.9758 9.56748 27.9699 9.57157C27.9682 9.57259 27.832 9.58589 27.6668 9.60021C26.3907 9.7158 24.7596 10.0411 23.1898 10.4953C23.0834 10.526 22.9906 10.5515 22.9847 10.5515C22.9787 10.5515 23.0953 10.4104 23.2443 10.2395C24.1663 9.17468 24.5877 8.5016 25.0823 7.29967C25.1563 7.12066 25.2185 6.9662 25.221 6.95699C25.221 6.95597 25.2219 6.95597 25.2227 6.95597L25.2219 6.95699ZM18.4787 7.7876C18.5204 7.79885 18.9137 8.01878 19.2108 8.19779C19.4824 8.36146 19.8936 8.62435 19.914 8.64685C19.9166 8.64992 19.7718 8.74096 19.5922 8.84837C19.0227 9.19104 18.5349 9.51326 18.0258 9.88765C17.8802 9.99403 17.7594 10.082 17.7551 10.082C17.7423 10.082 17.7474 10.0687 17.8283 9.8897C18.0999 9.29334 18.3178 8.58036 18.4438 7.88478C18.4549 7.82238 18.4685 7.78453 18.4779 7.7876H18.4787ZM18.082 7.8725C18.0905 7.88273 17.9884 8.33282 17.9237 8.5732C17.7994 9.03454 17.5899 9.61453 17.3882 10.0513C17.3405 10.1536 17.2682 10.304 17.2273 10.3848L17.1524 10.5321L16.9821 10.3347C16.7846 10.1045 16.6237 9.96232 16.4186 9.83446C16.3377 9.78434 16.2721 9.7383 16.2721 9.73114C16.2713 9.70148 16.7889 9.13581 17.1873 8.73073C17.4725 8.44022 18.0743 7.86227 18.0811 7.87148L18.082 7.8725ZM20.4903 9.06216L20.6385 9.17775C20.9773 9.44166 21.3782 9.79763 21.6847 10.1045C21.8558 10.2764 22.1895 10.6344 22.2576 10.7213L22.2942 10.7674L22.0491 10.8492C20.6614 11.3116 19.5888 11.7238 18.3382 12.2762C18.1995 12.3375 18.0794 12.3887 18.0709 12.3887C18.0539 12.3887 18.0369 12.4081 18.3485 12.0624C19.1487 11.1775 19.8553 10.2027 20.3839 9.25447L20.4903 9.06216V9.06216ZM19.8578 9.25344C19.8646 9.26163 19.4475 9.96437 19.1998 10.3613C18.9027 10.8359 18.3748 11.6287 18.0113 12.1452C17.8598 12.3611 17.7296 12.5401 17.7219 12.5431C17.7142 12.5462 17.7091 12.493 17.7091 12.4102C17.7083 11.9693 17.6155 11.4987 17.452 11.0998C17.3831 10.931 17.3712 10.8911 17.3856 10.8748C17.4427 10.8124 18.3255 10.2078 18.8822 9.8498C19.2645 9.60328 19.851 9.24526 19.8587 9.25447L19.8578 9.25344ZM16.0304 10.3797C16.038 10.3797 16.1087 10.4226 16.1879 10.4748C16.3811 10.6037 16.5548 10.7449 16.708 10.8983C16.714 10.9044 16.6348 10.9822 16.5318 11.0712C16.2449 11.3197 15.8073 11.7166 15.5545 11.9591C15.2872 12.2148 15.2787 12.2219 15.3085 12.1667C15.5085 11.7995 15.609 11.5908 15.7145 11.3248C15.8082 11.0886 15.901 10.8083 15.9674 10.5638C15.9955 10.4625 16.0236 10.3797 16.0312 10.3797H16.0304ZM17.0502 11.3412C17.0638 11.3392 17.0834 11.3699 17.166 11.5172C17.3388 11.8271 17.4708 12.2404 17.5048 12.5779L17.5116 12.6505L17.0979 12.8429C16.3547 13.1896 15.6703 13.5313 15.2089 13.785C15.0795 13.8566 14.8513 13.9875 14.7023 14.0765C14.5534 14.1655 14.4316 14.2361 14.4316 14.233C14.4316 14.2289 14.5253 14.145 14.6393 14.0448C15.546 13.2541 16.3283 12.3877 16.9174 11.5212C16.9804 11.4282 17.0375 11.3484 17.0451 11.3433C17.0468 11.3412 17.0485 11.3412 17.0511 11.3412H17.0502ZM16.5795 11.4814C16.5914 11.4957 16.2449 11.9672 16.0116 12.2526C15.4276 12.9697 14.8479 13.5313 14.1303 14.0775C14.0409 14.1461 13.9583 14.2074 13.9481 14.2156C13.9285 14.2299 13.954 14.1941 14.2699 13.7819C14.4682 13.5221 14.6206 13.3062 14.7926 13.0372C14.9058 12.8602 14.9279 12.8347 15.0948 12.6904C15.5434 12.3017 16.5684 11.467 16.5803 11.4814H16.5795Z" fill="#C3D2DF"/>
<path d="M3.344 35.1217C2.83067 35.1217 2.36867 35.0337 1.958 34.8577C1.54733 34.6744 1.22467 34.4177 0.99 34.0877C0.755333 33.7577 0.638 33.3727 0.638 32.9327H1.98C2.00933 33.2627 2.13767 33.5341 2.365 33.7467C2.59967 33.9594 2.926 34.0657 3.344 34.0657C3.77667 34.0657 4.114 33.9631 4.356 33.7577C4.598 33.5451 4.719 33.2737 4.719 32.9437C4.719 32.6871 4.642 32.4781 4.488 32.3167C4.34133 32.1554 4.15433 32.0307 3.927 31.9427C3.707 31.8547 3.399 31.7594 3.003 31.6567C2.50433 31.5247 2.09733 31.3927 1.782 31.2607C1.474 31.1214 1.21 30.9087 0.99 30.6227C0.77 30.3367 0.66 29.9554 0.66 29.4787C0.66 29.0387 0.77 28.6537 0.99 28.3237C1.21 27.9937 1.518 27.7407 1.914 27.5647C2.31 27.3887 2.76833 27.3007 3.289 27.3007C4.02967 27.3007 4.63467 27.4877 5.104 27.8617C5.58067 28.2284 5.84467 28.7344 5.896 29.3797H4.51C4.488 29.1011 4.356 28.8627 4.114 28.6647C3.872 28.4667 3.553 28.3677 3.157 28.3677C2.79767 28.3677 2.50433 28.4594 2.277 28.6427C2.04967 28.8261 1.936 29.0901 1.936 29.4347C1.936 29.6694 2.00567 29.8637 2.145 30.0177C2.29167 30.1644 2.475 30.2817 2.695 30.3697C2.915 30.4577 3.21567 30.5531 3.597 30.6557C4.103 30.7951 4.51367 30.9344 4.829 31.0737C5.15167 31.2131 5.423 31.4294 5.643 31.7227C5.87033 32.0087 5.984 32.3937 5.984 32.8777C5.984 33.2664 5.87767 33.6331 5.665 33.9777C5.45967 34.3224 5.15533 34.6011 4.752 34.8137C4.356 35.0191 3.88667 35.1217 3.344 35.1217ZM13.3817 36.4307L12.0397 34.9787C11.7097 35.0741 11.3467 35.1217 10.9507 35.1217C10.2393 35.1217 9.58301 34.9567 8.98167 34.6267C8.38767 34.2894 7.91467 33.8237 7.56267 33.2297C7.21801 32.6284 7.04567 31.9537 7.04567 31.2057C7.04567 30.4577 7.21801 29.7867 7.56267 29.1927C7.91467 28.5987 8.38767 28.1367 8.98167 27.8067C9.58301 27.4694 10.2393 27.3007 10.9507 27.3007C11.6693 27.3007 12.3257 27.4694 12.9197 27.8067C13.521 28.1367 13.994 28.5987 14.3387 29.1927C14.6833 29.7867 14.8557 30.4577 14.8557 31.2057C14.8557 31.9097 14.7017 32.5477 14.3937 33.1197C14.093 33.6844 13.675 34.1391 13.1397 34.4837L14.9767 36.4307H13.3817ZM8.33267 31.2057C8.33267 31.7704 8.44267 32.2691 8.66267 32.7017C8.89001 33.1271 9.20167 33.4571 9.59767 33.6917C9.99367 33.9191 10.4447 34.0327 10.9507 34.0327C11.4567 34.0327 11.9077 33.9191 12.3037 33.6917C12.6997 33.4571 13.0077 33.1271 13.2277 32.7017C13.455 32.2691 13.5687 31.7704 13.5687 31.2057C13.5687 30.6411 13.455 30.1461 13.2277 29.7207C13.0077 29.2954 12.6997 28.9691 12.3037 28.7417C11.9077 28.5144 11.4567 28.4007 10.9507 28.4007C10.4447 28.4007 9.99367 28.5144 9.59767 28.7417C9.20167 28.9691 8.89001 29.2954 8.66267 29.7207C8.44267 30.1461 8.33267 30.6411 8.33267 31.2057ZM17.3759 34.0327H19.9609V35.0447H16.1219V27.3997H17.3759V34.0327ZM23.9432 35.1167C23.5965 35.1167 23.2845 35.0554 23.0072 34.9327C22.7352 34.8047 22.5192 34.6341 22.3592 34.4207C22.1992 34.2021 22.1138 33.9594 22.1032 33.6927H23.0472C23.0632 33.8794 23.1512 34.0367 23.3112 34.1647C23.4765 34.2874 23.6818 34.3487 23.9272 34.3487C24.1832 34.3487 24.3805 34.3007 24.5192 34.2047C24.6632 34.1034 24.7352 33.9754 24.7352 33.8207C24.7352 33.6554 24.6552 33.5327 24.4952 33.4527C24.3405 33.3727 24.0925 33.2847 23.7512 33.1887C23.4205 33.0981 23.1512 33.0101 22.9432 32.9247C22.7352 32.8394 22.5538 32.7087 22.3992 32.5327C22.2498 32.3567 22.1752 32.1247 22.1752 31.8367C22.1752 31.6021 22.2445 31.3887 22.3832 31.1967C22.5218 30.9994 22.7192 30.8447 22.9752 30.7327C23.2365 30.6207 23.5352 30.5647 23.8712 30.5647C24.3725 30.5647 24.7752 30.6927 25.0792 30.9487C25.3885 31.1994 25.5538 31.5434 25.5752 31.9807H24.6632C24.6472 31.7834 24.5672 31.6261 24.4232 31.5087C24.2792 31.3914 24.0845 31.3327 23.8392 31.3327C23.5992 31.3327 23.4152 31.3781 23.2872 31.4687C23.1592 31.5594 23.0952 31.6794 23.0952 31.8287C23.0952 31.9461 23.1378 32.0447 23.2232 32.1247C23.3085 32.2047 23.4125 32.2687 23.5352 32.3167C23.6578 32.3594 23.8392 32.4154 24.0792 32.4847C24.3992 32.5701 24.6605 32.6581 24.8632 32.7487C25.0712 32.8341 25.2498 32.9621 25.3992 33.1327C25.5485 33.3034 25.6258 33.5301 25.6312 33.8127C25.6312 34.0634 25.5618 34.2874 25.4232 34.4847C25.2845 34.6821 25.0872 34.8367 24.8312 34.9487C24.5805 35.0607 24.2845 35.1167 23.9432 35.1167ZM30.6566 32.7327C30.6566 32.8981 30.6459 33.0474 30.6246 33.1807H27.2566C27.2833 33.5327 27.4139 33.8154 27.6486 34.0287C27.8833 34.2421 28.1713 34.3487 28.5126 34.3487C29.0033 34.3487 29.3499 34.1434 29.5526 33.7327H30.5366C30.4033 34.1381 30.1606 34.4714 29.8086 34.7327C29.4619 34.9887 29.0299 35.1167 28.5126 35.1167C28.0913 35.1167 27.7126 35.0234 27.3766 34.8367C27.0459 34.6447 26.7846 34.3781 26.5926 34.0367C26.4059 33.6901 26.3126 33.2901 26.3126 32.8367C26.3126 32.3834 26.4033 31.9861 26.5846 31.6447C26.7713 31.2981 27.0299 31.0314 27.3606 30.8447C27.6966 30.6581 28.0806 30.5647 28.5126 30.5647C28.9286 30.5647 29.2993 30.6554 29.6246 30.8367C29.9499 31.0181 30.2033 31.2741 30.3846 31.6047C30.5659 31.9301 30.6566 32.3061 30.6566 32.7327ZM29.7046 32.4447C29.6993 32.1087 29.5793 31.8394 29.3446 31.6367C29.1099 31.4341 28.8193 31.3327 28.4726 31.3327C28.1579 31.3327 27.8886 31.4341 27.6646 31.6367C27.4406 31.8341 27.3073 32.1034 27.2646 32.4447H29.7046ZM32.4661 31.2767C32.5994 31.0527 32.7754 30.8794 32.9941 30.7567C33.2181 30.6287 33.4821 30.5647 33.7861 30.5647V31.5087H33.5541C33.1968 31.5087 32.9248 31.5994 32.7381 31.7807C32.5568 31.9621 32.4661 32.2767 32.4661 32.7247V35.0447H31.5541V30.6367H32.4661V31.2767ZM36.3284 34.2287L37.5764 30.6367H38.5444L36.8644 35.0447H35.7764L34.1044 30.6367H35.0804L36.3284 34.2287ZM43.2738 32.7327C43.2738 32.8981 43.2631 33.0474 43.2418 33.1807H39.8738C39.9005 33.5327 40.0311 33.8154 40.2658 34.0287C40.5005 34.2421 40.7885 34.3487 41.1298 34.3487C41.6205 34.3487 41.9671 34.1434 42.1698 33.7327H43.1538C43.0205 34.1381 42.7778 34.4714 42.4258 34.7327C42.0791 34.9887 41.6471 35.1167 41.1298 35.1167C40.7085 35.1167 40.3298 35.0234 39.9938 34.8367C39.6631 34.6447 39.4018 34.3781 39.2098 34.0367C39.0231 33.6901 38.9298 33.2901 38.9298 32.8367C38.9298 32.3834 39.0205 31.9861 39.2018 31.6447C39.3885 31.2981 39.6471 31.0314 39.9778 30.8447C40.3138 30.6581 40.6978 30.5647 41.1298 30.5647C41.5458 30.5647 41.9165 30.6554 42.2418 30.8367C42.5671 31.0181 42.8205 31.2741 43.0018 31.6047C43.1831 31.9301 43.2738 32.3061 43.2738 32.7327ZM42.3218 32.4447C42.3165 32.1087 42.1965 31.8394 41.9618 31.6367C41.7271 31.4341 41.4365 31.3327 41.0898 31.3327C40.7751 31.3327 40.5058 31.4341 40.2818 31.6367C40.0578 31.8341 39.9245 32.1034 39.8818 32.4447H42.3218ZM45.0833 31.2767C45.2166 31.0527 45.3926 30.8794 45.6113 30.7567C45.8353 30.6287 46.0993 30.5647 46.4033 30.5647V31.5087H46.1713C45.814 31.5087 45.542 31.5994 45.3553 31.7807C45.174 31.9621 45.0833 32.2767 45.0833 32.7247V35.0447H44.1713V30.6367H45.0833V31.2767Z" fill="#C3D2DF"/>
</svg>
