<svg width="41" height="27" viewBox="0 0 41 27" fill="none" xmlns="http://www.w3.org/2000/svg">
<path d="M9.85708 24.0406H8.27507C8.21912 21.5099 8.06505 19.1307 7.81315 16.9012H7.79909L5.39046 24.0406H4.18599L1.79172 16.9012H1.77797C1.60035 19.0417 1.48847 21.4215 1.442 24.0406H0C0.0929336 20.8557 0.32649 17.8698 0.699753 15.0826H2.66053L4.9426 21.6649H4.95666L7.2528 15.0826H9.12889C9.53976 18.3473 9.78249 21.3334 9.85708 24.0406V24.0406ZM16.718 17.4314C16.0738 20.7441 15.224 23.1512 14.1693 24.6537C13.3476 25.8103 12.4473 26.3891 11.4669 26.3891C11.2055 26.3891 10.883 26.3144 10.5009 26.166V25.3673C10.6877 25.3928 10.9069 25.4073 11.1588 25.4073C11.6167 25.4073 11.9848 25.2879 12.2654 25.0486C12.6011 24.7571 12.7689 24.4294 12.7689 24.067C12.7689 23.8184 12.6381 23.3102 12.377 22.5407L10.6409 17.4311H12.1951L13.4411 21.2526C13.7212 22.1203 13.8379 22.7261 13.7912 23.0712C14.4726 21.3465 14.9486 19.4659 15.2197 17.4309H16.718V17.4314V17.4314Z" fill="#C3D2DF"/>
<path d="M37.7764 24.0405H33.2825V15.0826H34.7942V22.9378H37.7764V24.0405ZM32.1062 24.257L30.3686 23.4443C30.5227 23.3243 30.67 23.1945 30.8027 23.0442C31.5413 22.2219 31.9096 21.006 31.9096 19.3954C31.9096 16.4318 30.6825 14.9493 28.2274 14.9493C27.0236 14.9493 26.0845 15.3253 25.4128 16.0778C24.6749 16.9006 24.3065 18.1122 24.3065 19.7141C24.3065 21.2887 24.633 22.4439 25.2863 23.1766C25.8839 23.8403 26.7848 24.1726 27.9896 24.1726C28.439 24.1726 28.8514 24.1205 29.2271 24.0153L31.4893 25.2635L32.1062 24.257ZM26.4773 22.248C26.0946 21.6645 25.9032 20.7275 25.9032 19.4357C25.9032 17.1802 26.6262 16.0511 28.0737 16.0511C28.8303 16.0511 29.3848 16.3211 29.7394 16.86C30.1216 17.4444 30.3139 18.3729 30.3139 19.6469C30.3139 21.9209 29.5903 23.0581 28.1437 23.0581C27.3868 23.0584 26.8322 22.7892 26.4773 22.248V22.248ZM23.6477 21.5576C23.6477 22.3173 23.3536 22.9405 22.7661 23.4286C22.1779 23.9148 21.3892 24.1585 20.4008 24.1585C19.4764 24.1585 18.5801 23.8786 17.7125 23.3217L18.1188 22.5525C18.8653 22.9068 19.5412 23.083 20.148 23.083C20.7176 23.083 21.1627 22.9633 21.4855 22.7261C21.808 22.4879 22.0003 22.1538 22.0003 21.7314C22.0003 21.1992 21.6087 20.7443 20.8903 20.3634C20.2278 20.0186 18.9029 19.2977 18.9029 19.2977C18.1848 18.8017 17.8253 18.2692 17.8253 17.3919C17.8253 16.6659 18.0934 16.0798 18.6299 15.6339C19.167 15.1863 19.8601 14.9632 20.7096 14.9632C21.587 14.9632 22.3845 15.186 23.1029 15.6269L22.7386 16.3965C22.1241 16.149 21.5176 16.0253 20.9193 16.0253C20.4348 16.0253 20.0606 16.1357 19.8004 16.3573C19.5382 16.5781 19.3764 16.8606 19.3764 17.2071C19.3764 17.7367 19.7763 18.1974 20.5143 18.5859C21.1856 18.9312 22.5435 19.6645 22.5435 19.6645C23.2799 20.1597 23.6477 20.6873 23.6477 21.5576" fill="#C3D2DF"/>
<path d="M39.6742 12.0821C38.7601 12.0601 38.0524 12.1473 37.4584 12.3854C37.2869 12.4503 37.0143 12.4503 36.9904 12.6557C37.083 12.7427 37.0937 12.8829 37.1741 13.0028C37.3111 13.2192 37.5498 13.5104 37.7678 13.6622C38.0072 13.8361 38.2475 14.0082 38.4994 14.1597C38.9435 14.4202 39.447 14.5717 39.8799 14.8313C40.1321 14.9822 40.3828 15.1775 40.6353 15.34C40.7594 15.4267 40.8389 15.5672 41 15.6214V15.5883C40.9193 15.491 40.8964 15.3502 40.8172 15.2418L40.4742 14.9283C40.1428 14.5065 39.731 14.1383 39.2868 13.8358C38.9212 13.597 38.1215 13.2726 37.9732 12.8733L37.95 12.8513C38.2013 12.829 38.4994 12.7427 38.7381 12.6763C39.1267 12.5792 39.481 12.6013 39.8796 12.5042C40.063 12.4607 40.2449 12.4063 40.4289 12.3527V12.255C40.2223 12.0601 40.0749 11.801 39.8576 11.6168C39.2761 11.1408 38.6354 10.6752 37.9732 10.2855C37.6186 10.0685 37.1625 9.92885 36.785 9.7443C36.6489 9.67911 36.4197 9.64695 36.3396 9.53859C36.1347 9.30044 36.0195 8.98696 35.8709 8.70506C35.5408 8.11025 35.2201 7.45026 34.9352 6.82127C34.7291 6.39943 34.6038 5.97817 34.3525 5.58792C33.1755 3.74817 31.8974 2.63389 29.933 1.54018C29.5108 1.31246 29.0085 1.2154 28.472 1.09603L27.6151 1.05315C27.4323 0.977247 27.2492 0.771253 27.0896 0.673906C26.4379 0.284516 24.7599 -0.55945 24.2805 0.554829C23.9718 1.25915 24.7372 1.95159 25.0001 2.30882C25.1943 2.55682 25.4459 2.83901 25.5816 3.12063C25.662 3.3046 25.6846 3.49987 25.765 3.69428C25.9478 4.17059 26.1187 4.70049 26.359 5.14493C26.4843 5.37149 26.621 5.60964 26.7812 5.81477C26.8729 5.93471 27.0324 5.98773 27.0673 6.1833C26.908 6.39885 26.8955 6.72421 26.8041 6.99482C26.3932 8.21774 26.5537 9.73271 27.1361 10.6314C27.3183 10.902 27.753 11.4977 28.3344 11.2694C28.8492 11.0747 28.7352 10.4579 28.8832 9.91697C28.9171 9.78631 28.8948 9.70055 28.9633 9.61479V9.63594C29.1225 9.9387 29.2833 10.2305 29.431 10.5341C29.7853 11.064 30.4022 11.6162 30.9161 11.9833C31.1897 12.1791 31.4064 12.5141 31.7491 12.6337V12.6013H31.7265C31.6571 12.5042 31.5556 12.4608 31.4645 12.3854C31.2585 12.1904 31.0304 11.9523 30.8705 11.7361C30.3918 11.1298 29.9681 10.4585 29.5921 9.76574C29.4081 9.42966 29.2494 9.06229 29.1011 8.72679C29.0321 8.59728 29.0321 8.40201 28.9174 8.33682C28.7456 8.57468 28.4952 8.78067 28.3699 9.07214C28.1525 9.5383 28.1299 10.1117 28.0492 10.7079L28.0043 10.7288C27.6405 10.6422 27.5139 10.2855 27.3758 9.98274C27.0337 9.21381 26.9762 7.97959 27.273 7.09245C27.3525 6.8656 27.6964 6.15114 27.5592 5.935C27.4904 5.72785 27.2617 5.60993 27.1364 5.44682C26.989 5.24169 26.8276 4.9821 26.7249 4.75438C26.451 4.14857 26.3131 3.47728 26.0181 2.87175C25.8803 2.58956 25.6409 2.29752 25.4471 2.03764C25.2294 1.7456 24.9901 1.53989 24.8179 1.19367C24.7611 1.07459 24.6813 0.879899 24.7727 0.750393C24.795 0.663476 24.8415 0.631027 24.9326 0.609297C25.0805 0.4908 25.5033 0.641456 25.6516 0.706644C26.075 0.86889 26.429 1.02042 26.7824 1.24756C26.9423 1.35621 27.1138 1.56191 27.3189 1.61609H27.5592C27.9239 1.69142 28.335 1.63695 28.6784 1.73488C29.2833 1.91914 29.8315 2.18945 30.323 2.4812C31.8188 3.38022 33.0523 4.65761 33.8851 6.1833C34.0217 6.43188 34.0798 6.6596 34.2045 6.91891C34.4451 7.44968 34.7426 7.99089 34.9813 8.51036C35.2213 9.01883 35.45 9.53801 35.7927 9.96043C35.9635 10.1876 36.6502 10.3067 36.958 10.4257C37.1857 10.5228 37.5404 10.6091 37.7458 10.7282C38.1343 10.9551 38.5214 11.2155 38.8867 11.465C39.0686 11.5948 39.6402 11.8654 39.6742 12.0821V12.0821ZM28.0251 2.67648C27.8674 2.67493 27.7102 2.69324 27.5576 2.73095V2.75268H27.5797C27.6717 2.92564 27.8316 3.04559 27.9456 3.19653C28.0376 3.37008 28.1174 3.54217 28.2076 3.71543L28.2296 3.69399C28.3907 3.58592 28.4708 3.41267 28.4708 3.15278C28.4014 3.0763 28.3907 3.00155 28.3329 2.92564C28.2657 2.81728 28.1174 2.7634 28.0251 2.67648" fill="#C3D2DF"/>
<path d="M40.7619 24.0391H40.9985V22.9416H40.6436L40.3541 23.6906L40.0395 22.9416H39.6977V24.0391H39.9212V23.2041H39.9337L40.2633 24.0391H40.4336L40.7619 23.2041V24.0391ZM38.8558 24.0391H39.1062V23.1276H39.4339V22.9413H38.5144V23.1276H38.8552L38.8558 24.0391Z" fill="#C3D2DF"/>
</svg>
