<svg width="16" height="16" viewBox="0 0 16 16" fill="none" xmlns="http://www.w3.org/2000/svg">
<path d="M3 1.99976V12.9998H9V1.99976H3ZM2.5 0.999756H9.5C9.646 0.999756 9.76583 1.04659 9.8595 1.14026C9.95317 1.23392 10 1.35376 10 1.49976V13.4998C10 13.6458 9.95317 13.7656 9.8595 13.8593C9.76583 13.9529 9.646 13.9998 9.5 13.9998H2.5C2.354 13.9998 2.23417 13.9529 2.1405 13.8593C2.04683 13.7656 2 13.6458 2 13.4998V1.49976C2 1.35376 2.04683 1.23392 2.1405 1.14026C2.23417 1.04659 2.354 0.999756 2.5 0.999756ZM4 3.99976H8V4.99976H4V3.99976ZM4 6.99976H8V7.99976H4V6.99976ZM4 9.99976H8V10.9998H4V9.99976ZM10 7.99976H12V8.99976H10V7.99976ZM10 9.99976H12V10.9998H10V9.99976ZM1 12.9998H15V13.9998H1V12.9998ZM10 5.99976V12.9998H13V5.99976H10ZM9.5 4.99976H13.5C13.646 4.99976 13.7658 5.04659 13.8595 5.14026C13.9532 5.23392 14 5.35376 14 5.49976V13.4998C14 13.6458 13.9532 13.7656 13.8595 13.8593C13.7658 13.9529 13.646 13.9998 13.5 13.9998H9.5C9.354 13.9998 9.23417 13.9529 9.1405 13.8593C9.04683 13.7656 9 13.6458 9 13.4998V5.49976C9 5.35376 9.04683 5.23392 9.1405 5.14026C9.23417 5.04659 9.354 4.99976 9.5 4.99976Z" fill="white" fill-opacity="0.96"/>
</svg>
