<svg width="107" height="106" viewBox="0 0 107 106" fill="none" xmlns="http://www.w3.org/2000/svg">
<path d="M76.7871 105.639C72.4483 105.673 68.1311 105.023 63.9932 103.711C53.1811 100.179 43.0227 94.8786 33.9273 88.0228C29.776 85.0596 26.0333 81.5563 22.7966 77.6058C12.9059 66.2706 5.72873 52.8091 1.81466 38.2544C-3.94262 15.4928 20.7494 1.7343 21.9009 1.09132C22.7153 0.669151 23.6533 0.552537 24.545 0.764804C25.4366 0.977072 26.2232 1.5022 26.7627 2.24668L43.1389 24.6224C43.724 25.3005 44.0463 26.1705 44.0463 27.0681C44.0463 27.9658 43.724 28.8325 43.1389 29.5107L33.4158 39.9278L35.8463 44.1693C36.1215 44.5957 36.3075 45.0748 36.3921 45.5759C36.4768 46.0769 36.4584 46.5891 36.3386 47.0829C36.2188 47.5766 35.9998 48.043 35.6952 48.4486C35.3905 48.8542 35.0068 49.1927 34.5672 49.4438C34.1352 49.7154 33.6519 49.8924 33.1479 49.9681C32.644 50.0439 32.1302 50.0161 31.6381 49.8834C31.146 49.7506 30.6861 49.518 30.2876 49.1989C29.889 48.8798 29.5603 48.4804 29.3216 48.0279L25.3555 41.3406C24.8572 40.6728 24.5879 39.8615 24.5879 39.0267C24.5879 38.192 24.8572 37.3807 25.3555 36.7129L34.8229 26.5532L22.029 9.7063C17.4504 12.4015 13.7827 16.4165 11.5015 21.2317C9.22029 26.0468 8.43072 31.4413 9.23499 36.7129C12.9928 50.0112 19.634 62.3086 28.6817 72.7206C31.3893 76.1642 34.5784 79.1956 38.1495 81.7217C46.6133 88.0339 56.0298 92.9386 66.0403 96.2517C73.128 98.5942 80.8262 98.2301 87.6621 95.225C90.1179 93.6735 92.2422 91.6442 93.9115 89.2598C95.5808 86.8755 96.7618 84.1828 97.3856 81.3356L82.1608 71.8195L76.2753 81.593C75.9543 82.1274 75.5049 82.572 74.9685 82.8865C74.432 83.2011 73.8257 83.3742 73.2048 83.392C72.3093 83.392 70.774 83.3934 60.4109 78.3781C53.9047 75.3379 48.1075 70.9565 43.3951 65.5184C43.0105 65.14 42.7092 64.6839 42.5111 64.181C42.313 63.678 42.2225 63.1391 42.2452 62.5986C42.2679 62.0582 42.4032 61.5289 42.6427 61.0445C42.8822 60.5601 43.2203 60.1301 43.6352 59.7856C44.0501 59.4411 44.5325 59.1896 45.0509 59.0446C45.5694 58.8996 46.1124 58.8645 46.6447 58.9442C47.177 59.0238 47.6869 59.2157 48.1409 59.5061C48.5949 59.7966 48.9831 60.1791 49.2802 60.6301C53.3669 65.1278 58.2749 68.796 63.7374 71.4334L71.7977 75.0344L78.0666 64.4886C78.5788 63.6162 79.4021 62.9739 80.3694 62.6897C80.8271 62.4628 81.3304 62.3443 81.8406 62.3443C82.3509 62.3443 82.8546 62.4628 83.3122 62.6897L104.294 75.5493C104.969 75.9749 105.502 76.5954 105.821 77.3295C106.141 78.0635 106.233 78.8748 106.085 79.6622C105.346 86.8565 101.929 93.5041 96.52 98.2735C91.1106 103.043 84.1081 105.582 76.9152 105.382L76.7871 105.639Z" fill="#5B5A5A"/>
</svg>
