<svg width="25" height="25" viewBox="0 0 25 25" fill="none" xmlns="http://www.w3.org/2000/svg">
<path d="M17.7125 24.4567C16.7306 24.4644 15.7537 24.3174 14.8173 24.0205C12.3707 23.2212 10.0719 22.0217 8.0137 20.4704C7.07432 19.7998 6.22738 19.007 5.49493 18.1131C3.25678 15.548 1.63265 12.5018 0.746936 9.20824C-0.555881 4.05751 5.03169 0.944106 5.29225 0.798606C5.47654 0.703073 5.6888 0.676684 5.89058 0.724718C6.09235 0.772753 6.27034 0.891585 6.39242 1.06005L10.0982 6.12345C10.2306 6.27691 10.3035 6.47377 10.3035 6.6769C10.3035 6.88003 10.2306 7.07617 10.0982 7.22963L7.89796 9.58691L8.44795 10.5467C8.51024 10.6432 8.55232 10.7516 8.57147 10.865C8.59062 10.9784 8.58648 11.0943 8.55937 11.206C8.53225 11.3178 8.4827 11.4233 8.41376 11.5151C8.34482 11.6069 8.25799 11.6835 8.15851 11.7403C8.06076 11.8018 7.95138 11.8418 7.83735 11.8589C7.72331 11.8761 7.60705 11.8698 7.49569 11.8398C7.38432 11.8097 7.28026 11.7571 7.19007 11.6849C7.09989 11.6127 7.02551 11.5223 6.97149 11.4199L6.074 9.90662C5.96124 9.7555 5.9003 9.57191 5.9003 9.38301C5.9003 9.19412 5.96124 9.01052 6.074 8.85941L8.21638 6.56038L5.32123 2.74809C4.28514 3.35798 3.45519 4.26654 2.93897 5.35616C2.42276 6.44578 2.24408 7.6665 2.42608 8.85941C3.27644 11.8687 4.77927 14.6515 6.82668 17.0076C7.43938 17.7869 8.16105 18.4728 8.96915 19.0445C10.8844 20.4729 13.0153 21.5827 15.2806 22.3324C16.8844 22.8626 18.6265 22.7801 20.1734 22.1001C20.7291 21.749 21.2098 21.2898 21.5875 20.7503C21.9653 20.2107 22.2325 19.6014 22.3737 18.9571L18.9285 16.8037L17.5966 19.0153C17.524 19.1363 17.4223 19.2369 17.3009 19.308C17.1795 19.3792 17.0423 19.4184 16.9018 19.4224C16.6992 19.4224 16.3517 19.4227 14.0067 18.2878C12.5344 17.5999 11.2225 16.6084 10.1562 15.3778C10.0691 15.2922 10.001 15.189 9.95614 15.0752C9.91131 14.9614 9.89084 14.8394 9.89597 14.7171C9.9011 14.5948 9.93171 14.475 9.98591 14.3654C10.0401 14.2558 10.1166 14.1585 10.2105 14.0805C10.3044 14.0026 10.4135 13.9457 10.5309 13.9129C10.6482 13.8801 10.7711 13.8721 10.8915 13.8901C11.012 13.9082 11.1274 13.9516 11.2301 14.0173C11.3328 14.083 11.4207 14.1696 11.4879 14.2716C12.4127 15.2894 13.5233 16.1195 14.7594 16.7163L16.5834 17.5312L18.002 15.1448C18.1179 14.9474 18.3042 14.802 18.5231 14.7377C18.6267 14.6864 18.7406 14.6596 18.856 14.6596C18.9715 14.6596 19.0855 14.6864 19.189 14.7377L23.937 17.6477C24.0899 17.744 24.2103 17.8844 24.2826 18.0505C24.3549 18.2167 24.3757 18.4002 24.3424 18.5784C24.1751 20.2064 23.4019 21.7107 22.1778 22.79C20.9537 23.8693 19.3691 24.4438 17.7414 24.3984L17.7125 24.4567Z" fill="white"/>
</svg>
