<svg width="60" height="44" viewBox="0 0 60 44" fill="none" xmlns="http://www.w3.org/2000/svg">
<path d="M32.8296 12.607C32.6139 12.3498 32.2455 12.4201 31.9606 12.4784C31.2759 12.6043 30.531 12.7505 29.8679 12.4571C31.0522 10.5322 31.984 8.43049 32.5052 6.21219C32.6948 5.36911 32.8412 4.50659 32.8134 3.63852C32.7927 3.15266 32.7271 2.63534 32.4387 2.23277C31.7252 1.26382 30.691 0.557705 29.5507 0.242127C28.1264 -0.155816 26.5989 -0.0373584 25.198 0.408708C25.0821 0.432769 24.968 0.379093 24.8547 0.364286C23.5833 0.0986826 22.1815 0.203258 21.0789 0.9612C19.7553 0.470713 18.3329 0.174569 16.9239 0.326342C15.8762 0.438322 14.824 0.939915 14.2228 1.85888C13.4627 3.00551 13.3593 4.46957 13.4806 5.81332C13.725 7.59759 14.1474 9.35409 14.6847 11.0671C15.0387 12.1351 15.4287 13.2114 16.0586 14.1442C16.3785 14.6023 16.8035 15.0641 17.3759 15.1363C17.8845 15.2001 18.3446 14.8753 18.6564 14.4903C19.1955 13.8259 19.75 13.1734 20.325 12.5423C20.7006 12.732 21.1086 12.8412 21.5255 12.8736C21.3 13.1493 21.114 13.5093 20.7546 13.6176C20.2702 13.8101 19.7032 13.7842 19.2764 14.1164C19.0302 14.2978 19.0185 14.693 19.2396 14.9012C19.6394 15.301 20.2289 15.3871 20.7609 15.4334C21.5148 15.4926 22.2767 15.2316 22.8491 14.7226C22.8455 15.9572 22.8509 17.1954 22.9857 18.4235C23.0531 19.1425 23.3541 19.8588 23.8852 20.3429C24.3857 20.7926 25.0992 20.8861 25.7344 20.7723C26.3581 20.6501 26.9987 20.4576 27.4858 20.0189C28.0033 19.5488 28.2244 18.839 28.3268 18.1579C28.5128 16.9372 28.6539 15.711 28.7887 14.4848C30.1213 14.7161 31.6291 14.4533 32.6247 13.451C32.8377 13.2447 33.0398 12.8874 32.8296 12.607V12.607ZM29.8724 0.998218C30.6721 1.31102 31.3829 1.85426 31.9166 2.54186C32.1709 2.8704 32.2033 3.31184 32.2194 3.71533C32.2311 4.6778 32.0424 5.62823 31.8025 6.55368C31.3433 8.26669 30.646 9.90843 29.7699 11.4373C29.6837 11.5881 29.5893 11.7334 29.4851 11.8713C29.477 11.8297 29.4608 11.7445 29.4527 11.7019C29.5615 11.4077 29.7205 11.13 29.7825 10.8172C30.0018 9.93527 29.8167 9.0274 29.7376 8.1399C29.6549 7.30237 29.9326 6.48705 29.9254 5.65137C29.9568 5.24232 29.7996 4.85548 29.6468 4.48808C29.0942 3.21559 28.2154 2.08377 27.0877 1.30639C26.8127 1.11205 26.5054 0.976007 26.2314 0.780738C27.4301 0.516059 28.7159 0.549376 29.8715 0.997293L29.8724 0.998218ZM29.1418 8.14175C29.2119 9.13291 29.4914 10.1972 29.0376 11.1374C28.4293 9.89085 27.643 8.70072 27.3689 7.31255C27.2917 6.87111 27.2719 6.31214 27.6529 6.00489C28.1363 5.65137 28.768 5.73096 29.3269 5.76613C29.3027 6.56109 29.0655 7.34124 29.1427 8.14175H29.1418ZM18.2664 14.0137C18.0481 14.2784 17.7533 14.594 17.3813 14.5153C16.9464 14.3857 16.6697 13.9767 16.427 13.6093C15.772 12.5302 15.3775 11.3114 15.0154 10.1018C14.6101 8.67018 14.2687 7.21538 14.0719 5.73651C13.9739 4.61117 14.035 3.40438 14.594 2.40212C15.0127 1.64325 15.7935 1.15925 16.6139 1.00099C17.9277 0.740943 19.2746 1.01673 20.5353 1.41282C19.9791 2.04212 19.546 2.78341 19.2935 3.59503C18.9493 4.67872 18.7921 5.83183 18.8747 6.97106C18.9224 7.77342 18.9017 8.57949 18.793 9.37537C18.6564 10.4147 19.0617 11.4835 19.8111 12.185C19.3007 12.7995 18.7597 13.3853 18.2655 14.0146L18.2664 14.0137ZM19.4166 10.2906C19.2881 9.70206 19.4561 9.10977 19.475 8.52026C19.519 7.85301 19.4732 7.18484 19.4606 6.51759C20.0663 6.11409 20.7743 5.79852 21.5085 5.84201C21.8886 5.85867 22.239 6.13538 22.3307 6.52129C22.664 7.88818 22.7674 9.40961 22.1285 10.7043C21.9056 11.2041 21.725 11.7214 21.5696 12.2461C20.5075 12.2572 19.6044 11.3327 19.4166 10.2916V10.2906ZM22.7215 13.9499C22.0548 14.8799 20.7204 15.0576 19.7562 14.5514C20.2316 14.3247 20.7878 14.3423 21.247 14.0628C21.6909 13.8166 21.867 13.2752 22.2821 12.9967C22.7341 12.9309 23.0639 13.6223 22.7224 13.9489L22.7215 13.9499ZM28.44 12.8634C28.1866 13.2835 28.2756 13.7962 28.2136 14.2627C28.068 15.5703 27.9252 16.8798 27.7185 18.1792C27.6205 18.802 27.3636 19.4637 26.793 19.7737C26.208 20.08 25.5287 20.2725 24.8709 20.1679C24.2464 20.055 23.8528 19.4554 23.6758 18.8714C23.5464 18.3818 23.5329 17.8701 23.4961 17.3657C23.4332 16.1487 23.4323 14.929 23.4629 13.7111C23.4889 13.2354 23.2517 12.7403 22.8392 12.5089C22.6398 12.3933 22.4061 12.3775 22.1833 12.359C22.3585 11.4641 22.8878 10.6914 23.0693 9.79738C23.3047 8.69147 23.1744 7.54021 22.9336 6.44818C22.8159 5.90309 22.4133 5.42093 21.8778 5.28859C21.0529 5.07482 20.2208 5.40705 19.4831 5.76242C19.5765 4.52788 19.8973 3.26371 20.6315 2.26145C21.1715 1.51554 22.009 1.01765 22.903 0.898269C24.3785 0.704851 25.9276 1.12315 27.1003 2.07359C28.0689 2.86207 28.8345 3.93004 29.247 5.13127C28.5614 5.10628 27.7841 5.07759 27.2297 5.56808C26.7265 6.00489 26.6618 6.74988 26.775 7.37548C27.0374 8.8636 27.8901 10.1287 28.5191 11.4669C28.6863 11.7806 28.9109 12.0545 29.1248 12.3359C28.8705 12.4682 28.5865 12.595 28.4418 12.8643L28.44 12.8634ZM30.2048 13.9156C29.752 13.9711 29.2811 13.9878 28.8444 13.8333C28.8462 13.5788 28.8327 13.2771 29.0313 13.0873C29.1886 12.968 29.4123 12.8578 29.5938 12.9883C30.3666 13.4075 31.2652 13.203 32.0873 13.1003C31.585 13.6037 30.8896 13.8388 30.2048 13.9156ZM27.8308 6.19091C27.67 6.32695 27.8434 6.53055 27.9818 6.5944C28.3169 6.79707 28.7761 6.51389 28.7869 6.11965C28.4841 5.97435 28.104 5.98916 27.8299 6.19091H27.8308ZM21.8984 6.82021C22.0413 6.73692 22.1923 6.50833 22.0269 6.37044C21.7915 6.17332 21.4492 6.13538 21.1625 6.21497C21.07 6.24828 20.9729 6.31307 20.9918 6.42967C21.0583 6.82576 21.5732 7.06638 21.8975 6.82021H21.8984Z" fill="#C3D2DF"/>
<path d="M4.488 28.8318C4.488 29.1145 4.42133 29.3812 4.288 29.6318C4.15467 29.8825 3.94133 30.0878 3.648 30.2478C3.35467 30.4025 2.97867 30.4798 2.52 30.4798H1.512V32.7358H0.6V27.1758H2.52C2.94667 27.1758 3.30667 27.2505 3.6 27.3998C3.89867 27.5438 4.12 27.7412 4.264 27.9918C4.41333 28.2425 4.488 28.5225 4.488 28.8318ZM2.52 29.7358C2.86667 29.7358 3.12533 29.6585 3.296 29.5038C3.46667 29.3438 3.552 29.1198 3.552 28.8318C3.552 28.2238 3.208 27.9198 2.52 27.9198H1.512V29.7358H2.52ZM7.26981 32.8078C6.85381 32.8078 6.47781 32.7145 6.14181 32.5278C5.80581 32.3358 5.54181 32.0692 5.34981 31.7278C5.15781 31.3812 5.06181 30.9812 5.06181 30.5278C5.06181 30.0798 5.16048 29.6825 5.35781 29.3358C5.55515 28.9892 5.82448 28.7225 6.16581 28.5358C6.50715 28.3492 6.88848 28.2558 7.30981 28.2558C7.73115 28.2558 8.11248 28.3492 8.45381 28.5358C8.79515 28.7225 9.06448 28.9892 9.26181 29.3358C9.45915 29.6825 9.55781 30.0798 9.55781 30.5278C9.55781 30.9758 9.45648 31.3732 9.25381 31.7198C9.05115 32.0665 8.77381 32.3358 8.42181 32.5278C8.07515 32.7145 7.69115 32.8078 7.26981 32.8078ZM7.26981 32.0158C7.50448 32.0158 7.72315 31.9598 7.92581 31.8478C8.13381 31.7358 8.30181 31.5678 8.42981 31.3438C8.55781 31.1198 8.62181 30.8478 8.62181 30.5278C8.62181 30.2078 8.56048 29.9385 8.43781 29.7198C8.31515 29.4958 8.15248 29.3278 7.94981 29.2158C7.74715 29.1038 7.52848 29.0478 7.29381 29.0478C7.05915 29.0478 6.84048 29.1038 6.63781 29.2158C6.44048 29.3278 6.28315 29.4958 6.16581 29.7198C6.04848 29.9385 5.98981 30.2078 5.98981 30.5278C5.98981 31.0025 6.10981 31.3705 6.34981 31.6318C6.59515 31.8878 6.90181 32.0158 7.26981 32.0158ZM12.0594 32.8078C11.7127 32.8078 11.4007 32.7465 11.1234 32.6238C10.8514 32.4958 10.6354 32.3252 10.4754 32.1118C10.3154 31.8932 10.23 31.6505 10.2194 31.3838H11.1634C11.1794 31.5705 11.2674 31.7278 11.4274 31.8558C11.5927 31.9785 11.798 32.0398 12.0434 32.0398C12.2994 32.0398 12.4967 31.9918 12.6354 31.8958C12.7794 31.7945 12.8514 31.6665 12.8514 31.5118C12.8514 31.3465 12.7714 31.2238 12.6114 31.1438C12.4567 31.0638 12.2087 30.9758 11.8674 30.8798C11.5367 30.7892 11.2674 30.7012 11.0594 30.6158C10.8514 30.5305 10.67 30.3998 10.5154 30.2238C10.366 30.0478 10.2914 29.8158 10.2914 29.5278C10.2914 29.2932 10.3607 29.0798 10.4994 28.8878C10.638 28.6905 10.8354 28.5358 11.0914 28.4238C11.3527 28.3118 11.6514 28.2558 11.9874 28.2558C12.4887 28.2558 12.8914 28.3838 13.1954 28.6398C13.5047 28.8905 13.67 29.2345 13.6914 29.6718H12.7794C12.7634 29.4745 12.6834 29.3172 12.5394 29.1998C12.3954 29.0825 12.2007 29.0238 11.9554 29.0238C11.7154 29.0238 11.5314 29.0692 11.4034 29.1598C11.2754 29.2505 11.2114 29.3705 11.2114 29.5198C11.2114 29.6372 11.254 29.7358 11.3394 29.8158C11.4247 29.8958 11.5287 29.9598 11.6514 30.0078C11.774 30.0505 11.9554 30.1065 12.1954 30.1758C12.5154 30.2612 12.7767 30.3492 12.9794 30.4398C13.1874 30.5252 13.366 30.6532 13.5154 30.8238C13.6647 30.9945 13.742 31.2212 13.7474 31.5038C13.7474 31.7545 13.678 31.9785 13.5394 32.1758C13.4007 32.3732 13.2034 32.5278 12.9474 32.6398C12.6967 32.7518 12.4007 32.8078 12.0594 32.8078ZM15.7968 29.0718V31.5118C15.7968 31.6772 15.8341 31.7972 15.9088 31.8718C15.9888 31.9412 16.1221 31.9758 16.3088 31.9758H16.8688V32.7358H16.1488C15.7381 32.7358 15.4235 32.6398 15.2048 32.4478C14.9861 32.2558 14.8768 31.9438 14.8768 31.5118V29.0718H14.3568V28.3278H14.8768V27.2318H15.7968V28.3278H16.8688V29.0718H15.7968ZM19.4854 28.2558C19.8267 28.2558 20.128 28.3252 20.3894 28.4638C20.656 28.5972 20.864 28.7652 21.0134 28.9678V28.3278H21.9334V32.8078C21.9334 33.2132 21.848 33.5732 21.6774 33.8878C21.5067 34.2078 21.2587 34.4585 20.9334 34.6398C20.6134 34.8212 20.2294 34.9118 19.7814 34.9118C19.184 34.9118 18.688 34.7705 18.2934 34.4878C17.8987 34.2105 17.6747 33.8318 17.6214 33.3518H18.5254C18.5947 33.5812 18.7414 33.7652 18.9654 33.9038C19.1947 34.0478 19.4667 34.1198 19.7814 34.1198C20.1494 34.1198 20.4454 34.0078 20.6694 33.7838C20.8987 33.5598 21.0134 33.2345 21.0134 32.8078V32.0718C20.8587 32.2798 20.648 32.4558 20.3814 32.5998C20.12 32.7385 19.8214 32.8078 19.4854 32.8078C19.1014 32.8078 18.7494 32.7118 18.4294 32.5198C18.1147 32.3225 17.864 32.0505 17.6774 31.7038C17.496 31.3518 17.4054 30.9545 17.4054 30.5118C17.4054 30.0692 17.496 29.6772 17.6774 29.3358C17.864 28.9945 18.1147 28.7305 18.4294 28.5438C18.7494 28.3518 19.1014 28.2558 19.4854 28.2558ZM21.0134 30.5278C21.0134 30.2238 20.9494 29.9598 20.8214 29.7358C20.6987 29.5118 20.536 29.3412 20.3334 29.2238C20.1307 29.1065 19.912 29.0478 19.6774 29.0478C19.4427 29.0478 19.224 29.1065 19.0214 29.2238C18.8187 29.3358 18.6534 29.5038 18.5254 29.7278C18.4027 29.9465 18.3414 30.2078 18.3414 30.5118C18.3414 30.8158 18.4027 31.0825 18.5254 31.3118C18.6534 31.5412 18.8187 31.7172 19.0214 31.8398C19.2294 31.9572 19.448 32.0158 19.6774 32.0158C19.912 32.0158 20.1307 31.9572 20.3334 31.8398C20.536 31.7225 20.6987 31.5518 20.8214 31.3278C20.9494 31.0985 21.0134 30.8318 21.0134 30.5278ZM24.0433 28.9678C24.1766 28.7438 24.3526 28.5705 24.5713 28.4478C24.7953 28.3198 25.0593 28.2558 25.3633 28.2558V29.1998H25.1313C24.7739 29.1998 24.5019 29.2905 24.3153 29.4718C24.1339 29.6532 24.0433 29.9678 24.0433 30.4158V32.7358H23.1313V28.3278H24.0433V28.9678ZM30.2416 30.4238C30.2416 30.5892 30.2309 30.7385 30.2096 30.8718H26.8416C26.8682 31.2238 26.9989 31.5065 27.2336 31.7198C27.4682 31.9332 27.7562 32.0398 28.0976 32.0398C28.5882 32.0398 28.9349 31.8345 29.1376 31.4238H30.1216C29.9882 31.8292 29.7456 32.1625 29.3936 32.4238C29.0469 32.6798 28.6149 32.8078 28.0976 32.8078C27.6762 32.8078 27.2976 32.7145 26.9616 32.5278C26.6309 32.3358 26.3696 32.0692 26.1776 31.7278C25.9909 31.3812 25.8976 30.9812 25.8976 30.5278C25.8976 30.0745 25.9882 29.6772 26.1696 29.3358C26.3562 28.9892 26.6149 28.7225 26.9456 28.5358C27.2816 28.3492 27.6656 28.2558 28.0976 28.2558C28.5136 28.2558 28.8842 28.3465 29.2096 28.5278C29.5349 28.7092 29.7882 28.9652 29.9696 29.2958C30.1509 29.6212 30.2416 29.9972 30.2416 30.4238ZM29.2896 30.1358C29.2842 29.7998 29.1642 29.5305 28.9296 29.3278C28.6949 29.1252 28.4042 29.0238 28.0576 29.0238C27.7429 29.0238 27.4736 29.1252 27.2496 29.3278C27.0256 29.5252 26.8922 29.7945 26.8496 30.1358H29.2896ZM37.0003 32.8128C36.4869 32.8128 36.0249 32.7248 35.6143 32.5488C35.2036 32.3655 34.8809 32.1088 34.6463 31.7788C34.4116 31.4488 34.2943 31.0638 34.2943 30.6238H35.6363C35.6656 30.9538 35.7939 31.2252 36.0213 31.4378C36.2559 31.6505 36.5823 31.7568 37.0003 31.7568C37.4329 31.7568 37.7703 31.6542 38.0123 31.4488C38.2543 31.2362 38.3753 30.9648 38.3753 30.6348C38.3753 30.3782 38.2983 30.1692 38.1443 30.0078C37.9976 29.8465 37.8106 29.7218 37.5833 29.6338C37.3633 29.5458 37.0553 29.4505 36.6593 29.3478C36.1606 29.2158 35.7536 29.0838 35.4383 28.9518C35.1303 28.8125 34.8663 28.5998 34.6463 28.3138C34.4263 28.0278 34.3163 27.6465 34.3163 27.1698C34.3163 26.7298 34.4263 26.3448 34.6463 26.0148C34.8663 25.6848 35.1743 25.4318 35.5703 25.2558C35.9663 25.0798 36.4246 24.9918 36.9453 24.9918C37.6859 24.9918 38.2909 25.1788 38.7603 25.5528C39.2369 25.9195 39.5009 26.4255 39.5523 27.0708H38.1663C38.1443 26.7922 38.0123 26.5538 37.7703 26.3558C37.5283 26.1578 37.2093 26.0588 36.8133 26.0588C36.4539 26.0588 36.1606 26.1505 35.9333 26.3338C35.7059 26.5172 35.5923 26.7812 35.5923 27.1258C35.5923 27.3605 35.6619 27.5548 35.8013 27.7088C35.9479 27.8555 36.1313 27.9728 36.3513 28.0608C36.5713 28.1488 36.8719 28.2442 37.2533 28.3468C37.7593 28.4862 38.1699 28.6255 38.4853 28.7648C38.8079 28.9042 39.0793 29.1205 39.2993 29.4138C39.5266 29.6998 39.6403 30.0848 39.6403 30.5688C39.6403 30.9575 39.5339 31.3242 39.3213 31.6688C39.1159 32.0135 38.8116 32.2922 38.4083 32.5048C38.0123 32.7102 37.5429 32.8128 37.0003 32.8128ZM47.0379 34.1218L45.6959 32.6698C45.3659 32.7652 45.0029 32.8128 44.6069 32.8128C43.8956 32.8128 43.2393 32.6478 42.6379 32.3178C42.0439 31.9805 41.5709 31.5148 41.2189 30.9208C40.8743 30.3195 40.7019 29.6448 40.7019 28.8968C40.7019 28.1488 40.8743 27.4778 41.2189 26.8838C41.5709 26.2898 42.0439 25.8278 42.6379 25.4978C43.2393 25.1605 43.8956 24.9918 44.6069 24.9918C45.3256 24.9918 45.9819 25.1605 46.5759 25.4978C47.1773 25.8278 47.6503 26.2898 47.9949 26.8838C48.3396 27.4778 48.5119 28.1488 48.5119 28.8968C48.5119 29.6008 48.3579 30.2388 48.0499 30.8108C47.7493 31.3755 47.3313 31.8302 46.7959 32.1748L48.6329 34.1218H47.0379ZM41.9889 28.8968C41.9889 29.4615 42.0989 29.9602 42.3189 30.3928C42.5463 30.8182 42.8579 31.1482 43.2539 31.3828C43.6499 31.6102 44.1009 31.7238 44.6069 31.7238C45.1129 31.7238 45.5639 31.6102 45.9599 31.3828C46.3559 31.1482 46.6639 30.8182 46.8839 30.3928C47.1113 29.9602 47.2249 29.4615 47.2249 28.8968C47.2249 28.3322 47.1113 27.8372 46.8839 27.4118C46.6639 26.9865 46.3559 26.6602 45.9599 26.4328C45.5639 26.2055 45.1129 26.0918 44.6069 26.0918C44.1009 26.0918 43.6499 26.2055 43.2539 26.4328C42.8579 26.6602 42.5463 26.9865 42.3189 27.4118C42.0989 27.8372 41.9889 28.3322 41.9889 28.8968ZM51.0321 31.7238H53.6171V32.7358H49.7781V25.0908H51.0321V31.7238Z" fill="#C3D2DF"/>
</svg>
