<svg width="100" height="170" viewBox="0 0 100 170" fill="none" xmlns="http://www.w3.org/2000/svg">
<g clip-path="url(#clip0_280_518)">
<path d="M60.6171 132.63H39.3655C39.3655 132.63 32.4187 139.961 33.3739 150.796C34.4563 149.565 35.6374 148.426 36.9052 147.39C36.9678 147.343 37.0432 147.315 37.1214 147.311C37.1997 147.307 37.2774 147.327 37.3446 147.368C37.4117 147.408 37.4653 147.468 37.4984 147.54C37.5315 147.612 37.5426 147.691 37.5304 147.769C37.1541 150.213 37.4783 157.543 50 170C62.5217 157.543 62.8459 150.213 62.4696 147.769C62.4554 147.692 62.4651 147.611 62.4972 147.539C62.5294 147.467 62.5826 147.406 62.6497 147.365C62.7169 147.324 62.7949 147.304 62.8733 147.309C62.9517 147.313 63.027 147.342 63.089 147.39C64.3581 148.427 65.5411 149.566 66.6261 150.796C67.5813 139.961 60.6171 132.63 60.6171 132.63Z" fill="url(#paint0_linear_280_518)"/>
<path d="M49.9363 124.291C49.9363 124.291 36.3378 135.167 49.9363 153.893C63.5406 135.167 49.9363 124.291 49.9363 124.291Z" fill="#FFE697"/>
<path d="M49.9363 131.242C49.9363 131.242 41.8316 137.739 49.9363 148.93C58.0642 137.739 49.9363 131.242 49.9363 131.242Z" fill="white"/>
<path d="M34.6764 127.714L36.2221 130.718C36.5445 131.343 37.0314 131.868 37.6296 132.234C38.2279 132.6 38.9145 132.794 39.6144 132.794H60.1077C60.8078 132.794 61.4946 132.601 62.093 132.235C62.6914 131.869 63.1782 131.344 63.5001 130.718L65.0457 127.714H34.6764Z" fill="#949494" stroke="#424242" stroke-width="2" stroke-miterlimit="10"/>
<path d="M30.2999 122.028L32.2913 125.895C32.7068 126.701 33.3341 127.377 34.1048 127.849C34.8755 128.321 35.7601 128.571 36.662 128.571H63.0601C63.9622 128.572 64.847 128.322 65.6179 127.85C66.3887 127.378 67.0159 126.702 67.4308 125.895L69.4223 122.028H30.2999Z" fill="#4D4D4D" stroke="#424242" stroke-width="2" stroke-miterlimit="10"/>
<path d="M68.7276 92.4149C68.7276 92.4149 102.02 103.938 99.9016 137.64C99.9016 137.64 71.871 108.872 56.6169 115.03L68.7276 92.4149Z" fill="#E02424"/>
<path d="M31.2609 92.4149C31.2609 92.4149 -2.02038 103.938 0.0984148 137.628C0.0984148 137.628 28.129 108.86 43.3831 115.019L31.2609 92.4149Z" fill="#E02424"/>
<path d="M66.0299 27.9921C62.0942 17.8814 56.639 8.44044 49.8553 -0.00012207V-0.00012207C43.1386 8.35302 37.7236 17.6877 33.7965 27.683C44.4122 25.1998 55.463 25.3058 66.0299 27.9921Z" fill="#E02424"/>
<g filter="url(#filter0_d_280_518)">
<path d="M66.4698 29.1584L66.0241 27.9921C48.2112 23.385 33.7907 27.6888 33.7907 27.6888L33.2291 29.1584C18.525 67.5194 25.1881 109.187 27.5559 120.955C27.7435 121.874 28.2396 122.7 28.9608 123.294C29.682 123.888 30.5842 124.213 31.5156 124.215H68.1892C69.1198 124.213 70.0213 123.889 70.7424 123.296C71.4635 122.704 71.9601 121.879 72.1489 120.961C74.5166 109.187 81.1856 67.5194 66.4698 29.1584Z" fill="white"/>
</g>
<path d="M49.1895 72.7679C56.7317 72.7679 62.8459 66.6087 62.8459 59.0109C62.8459 51.4131 56.7317 45.2539 49.1895 45.2539C41.6473 45.2539 35.5332 51.4131 35.5332 59.0109C35.5332 66.6087 41.6473 72.7679 49.1895 72.7679Z" fill="#043146" stroke="#424242" stroke-width="2" stroke-miterlimit="10"/>
<path d="M53.804 69.3948C59.1457 67.1945 61.7053 61.0486 59.521 55.6676C57.3368 50.2867 51.2359 47.7082 45.8942 49.9085C40.5526 52.1089 37.993 58.2547 40.1773 63.6357C42.3615 69.0167 48.4624 71.5951 53.804 69.3948Z" fill="#7C7C7C" stroke="#424242" stroke-width="2" stroke-miterlimit="10"/>
<path d="M49.1895 69.438C54.9061 69.438 59.5403 64.7696 59.5403 59.0109C59.5403 53.2522 54.9061 48.5838 49.1895 48.5838C43.4729 48.5838 38.8387 53.2522 38.8387 59.0109C38.8387 64.7696 43.4729 69.438 49.1895 69.438Z" fill="#007BFC" stroke="#424242" stroke-width="2" stroke-miterlimit="10"/>
<g opacity="0.08">
<path opacity="0.08" d="M49.8495 50.345C51.7938 50.3463 53.6983 50.8996 55.3447 51.9414C56.9912 52.9831 58.3129 54.4712 59.1583 56.235C58.4939 53.802 56.9758 51.6945 54.8858 50.3037C52.7957 48.9128 50.2757 48.3332 47.7935 48.6722C45.3114 49.0113 43.0356 50.2462 41.3888 52.1475C39.7419 54.0488 38.8358 56.4875 38.8387 59.0109C38.8368 60.5899 39.1953 62.1483 39.8865 63.5654C39.4492 62.0168 39.3755 60.3869 39.6712 58.8047C39.967 57.2224 40.624 55.7311 41.5904 54.4487C42.5568 53.1663 43.8061 52.1279 45.2396 51.4157C46.673 50.7035 48.2512 50.3369 49.8495 50.345V50.345Z" fill="black" stroke="#424242" stroke-width="2" stroke-miterlimit="10"/>
</g>
<path d="M50 96.6137C38.8445 122.197 50 144.311 50 144.311C50 144.311 61.1555 122.197 50 96.6137Z" fill="#E02424"/>
</g>
<defs>
<filter id="filter0_d_280_518" x="13.9852" y="19.8628" width="71.7357" height="118.352" filterUnits="userSpaceOnUse" color-interpolation-filters="sRGB">
<feFlood flood-opacity="0" result="BackgroundImageFix"/>
<feColorMatrix in="SourceAlpha" type="matrix" values="0 0 0 0 0 0 0 0 0 0 0 0 0 0 0 0 0 0 127 0" result="hardAlpha"/>
<feOffset dy="4"/>
<feGaussianBlur stdDeviation="5"/>
<feComposite in2="hardAlpha" operator="out"/>
<feColorMatrix type="matrix" values="0 0 0 0 0 0 0 0 0 0 0 0 0 0 0 0 0 0 0.08 0"/>
<feBlend mode="normal" in2="BackgroundImageFix" result="effect1_dropShadow_280_518"/>
<feBlend mode="normal" in="SourceGraphic" in2="effect1_dropShadow_280_518" result="shape"/>
</filter>
<linearGradient id="paint0_linear_280_518" x1="50" y1="132.63" x2="50" y2="170" gradientUnits="userSpaceOnUse">
<stop offset="0.01" stop-color="#F7BD6F"/>
<stop offset="0.45" stop-color="#F39958"/>
<stop offset="1" stop-color="#ED6637"/>
</linearGradient>
<clipPath id="clip0_280_518">
<rect width="100" height="170" fill="white"/>
</clipPath>
</defs>
</svg>
