<svg width="24" height="28" viewBox="0 0 24 28" fill="none" xmlns="http://www.w3.org/2000/svg">
<path d="M10.7112 0.000213463C9.23714 -0.00955901 7.78022 0.316331 6.45084 0.953181C5.12146 1.59003 3.95457 2.52113 3.03851 3.6759C2.12245 4.83067 1.48126 6.17881 1.16364 7.61813C0.846026 9.05746 0.860295 10.5502 1.20531 11.9832C1.55032 13.4162 2.21706 14.7519 3.15498 15.889C4.0929 17.0261 5.27737 17.9347 6.61865 18.5461C7.95993 19.1575 9.42284 19.4555 10.8964 19.4177C12.37 19.3798 13.8156 19.007 15.1237 18.3275L21.3465 27.4346C21.4406 27.572 21.5608 27.6895 21.7003 27.7805C21.8398 27.8714 21.9959 27.934 22.1597 27.9647C22.3234 27.9953 22.4916 27.9934 22.6546 27.9591C22.8175 27.9247 22.9721 27.8586 23.1096 27.7645C23.247 27.6704 23.3646 27.5502 23.4555 27.4107C23.5465 27.2712 23.6091 27.1151 23.6398 26.9514C23.6704 26.7877 23.6685 26.6195 23.6341 26.4566C23.5998 26.2936 23.5336 26.139 23.4395 26.0016L17.2357 16.8756C18.6869 15.5616 19.7061 13.8388 20.1592 11.9343C20.6122 10.0297 20.4777 8.03262 19.7735 6.20595C19.0694 4.37928 17.8284 2.80867 16.2141 1.70094C14.5998 0.5932 12.6879 0.00026866 10.7301 0.000213463H10.7112ZM10.7112 17.1962C9.21937 17.1962 7.7611 16.7538 6.5207 15.9251C5.28031 15.0964 4.31354 13.9185 3.74265 12.5403C3.17176 11.1622 3.02237 9.64572 3.31341 8.18269C3.60445 6.71967 4.32285 5.3758 5.37772 4.32102C6.43259 3.26624 7.77657 2.54793 9.23972 2.25692C10.7029 1.9659 12.2195 2.11526 13.5977 2.68611C14.976 3.25695 16.154 4.22363 16.9828 5.46392C17.8116 6.70421 18.2539 8.1624 18.2539 9.65408C18.2539 11.6544 17.4592 13.5727 16.0447 14.9871C14.6302 16.4016 12.7116 17.1962 10.7112 17.1962Z" fill="black"/>
</svg>
