<svg width="32" height="32" viewBox="0 0 32 32" fill="none" xmlns="http://www.w3.org/2000/svg">
<g clip-path="url(#clip0_1214_42)">
<path fill-rule="evenodd" clip-rule="evenodd" d="M5.99616 6.90716C4.89501 6.99409 4 7.51852 4 8.62309C4 9.8312 4 11.8068 4 15C4 25.1439 13.0455 29 16 29C18.9545 29 28 25.1439 28 15C28 11.8068 28 9.83119 28 8.62309C28 7.51852 27.105 6.99409 26.0038 6.90716C24.5826 6.79497 22.6416 6.5472 21 6C19.6007 5.53357 18.419 4.84959 17.5563 4.25247C16.6481 3.62384 15.3519 3.62384 14.4437 4.25247C13.581 4.84959 12.3993 5.53357 11 6C9.3584 6.5472 7.41738 6.79497 5.99616 6.90716Z" stroke="#558BD6" stroke-width="2" stroke-linecap="round" stroke-linejoin="round"/>
<path d="M21 12L14 20L11 16" stroke="#558BD6" stroke-width="2" stroke-linecap="round" stroke-linejoin="round"/>
</g>
<defs>
<clipPath id="clip0_1214_42">
<rect width="32" height="32" fill="white"/>
</clipPath>
</defs>
</svg>
