<svg width="61" height="31" viewBox="0 0 61 31" fill="none" xmlns="http://www.w3.org/2000/svg">
<path d="M23.2531 15.495C22.4581 15.495 21.8117 15.7617 21.3161 16.2948C20.8205 16.8283 20.5691 17.5277 20.5691 18.3847C20.5691 18.8288 20.6315 19.2337 20.7546 19.6048C20.8776 19.9765 21.069 20.321 21.3264 20.6322C21.5837 20.9437 22.0989 21.3668 22.8667 21.9048C23.8088 22.5566 24.4253 23.0855 24.7212 23.4985C25.0174 23.9112 25.1643 24.3436 25.1643 24.7945C25.1643 25.3982 24.9889 25.88 24.6285 26.2422C24.2675 26.6046 23.7847 26.7852 23.1861 26.7852C22.5547 26.7852 22.0047 26.5329 21.5324 26.0321C21.0601 25.5305 20.8217 24.8671 20.8164 24.0356H20.5227V27.0537H20.8164C20.906 26.7679 21.0301 26.6217 21.1924 26.6217C21.2705 26.6217 21.4535 26.6827 21.7385 26.7968C22.4319 27.0764 23.0012 27.2113 23.4488 27.2113C24.2201 27.2113 24.8785 26.9052 25.427 26.2831C25.9747 25.6613 26.2513 24.9112 26.2513 24.0356C26.2513 23.3566 26.0687 22.7525 25.7103 22.2259C25.352 21.6987 24.6551 21.0854 23.6137 20.3812C22.7175 19.771 22.1358 19.2741 21.8673 18.8867C21.5984 18.4999 21.4603 18.072 21.4603 17.6024C21.4603 17.0945 21.625 16.6866 21.9497 16.3823C22.2745 16.0778 22.7 15.927 23.2325 15.927C23.8317 15.927 24.3312 16.1285 24.7264 16.5341C25.1212 16.9404 25.3495 17.5035 25.4167 18.2271H25.7103V15.6117H25.4373C25.4039 15.7451 25.373 15.8303 25.3446 15.8686C25.317 15.9067 25.2638 15.927 25.1849 15.927C25.0899 15.927 24.9205 15.8817 24.68 15.7927C24.1649 15.5961 23.6899 15.495 23.2531 15.495ZM32.8504 15.495C31.8817 15.495 31.0022 15.7537 30.2076 16.2714C29.4118 16.7882 28.7819 17.5057 28.317 18.4197C27.8524 19.3336 27.6216 20.3042 27.6216 21.3386C27.6216 22.7282 28.023 23.9663 28.8322 25.0513C29.6418 26.1358 30.6119 26.8115 31.7377 27.0712C31.995 27.2232 32.3633 27.6155 32.8452 28.2504C33.3884 28.967 33.8479 29.4838 34.2259 29.7916C34.6034 30.0995 35.011 30.3252 35.4416 30.4746C35.8727 30.6234 36.3388 30.6964 36.8428 30.6964C37.4532 30.6964 37.9997 30.5762 38.481 30.3286L38.3729 30.0251C38.0934 30.1393 37.7955 30.1944 37.4816 30.1944C37.0557 30.1944 36.6252 30.0352 36.1937 29.7157C35.7629 29.3954 35.224 28.7842 34.5813 27.8826C34.2792 27.4507 34.0707 27.1781 33.9528 27.0712C35.1845 26.7986 36.1972 26.1222 36.9871 25.0397C37.7767 23.9576 38.1719 22.7226 38.1719 21.3386C38.1719 19.6951 37.656 18.314 36.6316 17.1879C35.6065 16.0618 34.3458 15.495 32.8504 15.495ZM38.8416 15.495L38.8571 15.8511C39.5021 15.8511 39.8633 16.0664 39.9441 16.4991C39.9742 16.6539 39.988 16.9398 39.9904 17.3514L39.9853 25.2265C39.9799 25.8146 39.906 26.1902 39.7638 26.3532C39.6214 26.515 39.3807 26.6163 39.0322 26.6567L39.0168 27.0128H45.4459L45.6108 25.2265H45.3171C45.2333 25.7131 45.041 26.0617 44.735 26.2598C44.4282 26.4592 43.8856 26.5575 43.102 26.5575H42.4941C41.789 26.5575 41.381 26.2686 41.2732 25.6877C41.2509 25.5727 41.2433 25.4495 41.2423 25.314L41.268 17.3514C41.2679 16.7642 41.3334 16.3707 41.4689 16.178C41.606 15.9861 41.853 15.8787 42.2108 15.8511L42.1953 15.495H38.8417H38.8416ZM32.9534 15.927C34.046 15.927 34.938 16.4146 35.6271 17.3981C36.3159 18.3819 36.6574 19.7304 36.6574 21.4378C36.6574 23.0558 36.311 24.3513 35.6168 25.3257C34.9225 26.2999 33.9986 26.7852 32.8504 26.7852C31.7473 26.7852 30.8528 26.2847 30.1664 25.279C29.4807 24.2733 29.1413 22.9676 29.1413 21.3619C29.1413 19.7119 29.4848 18.3911 30.1767 17.4039C30.8683 16.4178 31.7943 15.927 32.9534 15.927ZM47.7384 17.6199C47.5816 17.6199 47.462 17.6799 47.3726 17.8009C47.2811 17.9214 47.2531 18.0673 47.285 18.2446C47.3159 18.4165 47.4015 18.5672 47.5375 18.6941C47.6726 18.8208 47.8185 18.8867 47.9753 18.8867C48.127 18.8867 48.2426 18.8208 48.3256 18.6941C48.4087 18.5672 48.434 18.4165 48.4029 18.2446C48.371 18.0673 48.2883 17.9214 48.1608 17.8009C48.0318 17.6799 47.89 17.6199 47.7384 17.6199ZM51.9781 18.8283C51.7117 19.9899 51.1341 20.6184 50.2472 20.7198L50.2575 21.0525H51.2929L51.2723 24.9871C51.274 25.6598 51.2921 26.1077 51.3341 26.3356C51.4361 26.8814 51.7506 27.1588 52.2769 27.1588C53.0383 27.1588 53.837 26.6332 54.6724 25.5826L54.4199 25.3374C53.8168 26.0293 53.2835 26.3765 52.8178 26.3765C52.5316 26.3765 52.3542 26.19 52.2872 25.8219C52.2688 25.7325 52.2614 25.6281 52.2614 25.5067L52.2717 21.0525H53.8533L53.8378 20.5213H52.2769V18.8283H51.9781H51.9781ZM58.093 20.3111C57.2084 20.3111 56.4888 20.7978 55.9293 21.7647C55.3728 22.7333 55.2005 23.8064 55.4193 24.9871C55.5481 25.6787 55.8047 26.2147 56.1972 26.5925C56.5891 26.9701 57.0864 27.1588 57.6809 27.1588C58.2343 27.1588 59.005 27 59.3293 26.6801C59.6545 26.3604 59.9541 25.8425 60.2309 25.1331L60.0094 24.8704C59.568 25.7906 58.6772 26.2539 58.0054 26.2539C57.0818 26.2539 56.5162 25.6797 56.3054 24.5376C56.278 24.3918 56.2576 24.2352 56.2436 24.0706C57.3423 23.8735 58.175 23.5244 58.7369 23.0198C59.2984 22.515 59.8622 21.9798 59.7569 21.4144C59.6943 21.0785 59.5404 20.8144 59.3036 20.6147C59.0637 20.4151 58.441 20.3111 58.093 20.3111ZM48.4235 20.352L46.5175 20.8482V21.2335L47.1768 21.1401C47.4962 21.1401 47.6842 21.304 47.7435 21.6304C47.7635 21.7397 47.7761 21.8931 47.7796 22.0858L47.759 25.6176C47.7536 26.1063 47.7058 26.3905 47.6096 26.4758C47.5125 26.5612 47.2566 26.6042 46.842 26.6042L46.8317 26.9369H49.8557L49.8505 26.6042C49.4303 26.6042 49.1579 26.5666 49.0366 26.4933C48.9173 26.4204 48.835 26.2878 48.7996 26.0846C48.7722 25.9382 48.7602 25.686 48.7584 25.3374L48.7687 20.352H48.4235H48.4235ZM57.6087 21.0058C57.7927 21.0058 57.9706 21.0863 58.1496 21.2452C58.3262 21.4034 58.4338 21.5794 58.469 21.7705C58.6415 22.7095 57.9069 23.3587 56.2539 23.7203C56.2067 23.0357 56.3114 22.4141 56.5784 21.8523C56.8434 21.2909 57.1886 21.0058 57.6087 21.0058Z" fill="#C3D2DF"/>
<path d="M18.9835 2.01117H2.57996C1.48057 2.01117 0.58107 3.03067 0.58107 4.27644V24.776C0.58107 26.0217 1.48057 27.041 2.57996 27.041H13.3838C13.2611 20.9494 15.0968 9.12744 18.9835 2.01117Z" fill="#C3D2DF"/>
<path d="M18.3876 2.67181H2.57994C1.79931 2.67181 1.16406 3.39149 1.16406 4.27625V23.2802C4.74415 21.7231 10.1174 20.3796 13.8327 20.4407C14.5793 16.0169 16.7735 7.34726 18.3876 2.67181Z" fill="url(#paint0_linear_330_1486)"/>
<path d="M22.8097 1.33996C21.6862 0.204637 20.326 0.66068 18.9835 2.01083C18.7842 2.21141 18.5854 2.43395 18.3875 2.67166C16.091 5.43244 13.9593 10.5463 13.297 14.4517C13.555 15.0446 13.7565 15.8012 13.8892 16.3791C13.9232 16.5274 13.9539 16.6666 13.9784 16.7849C14.0367 17.0651 14.0681 17.2468 14.0681 17.2468C14.0681 17.2468 14.0474 17.1585 13.963 16.8809C13.9469 16.8277 13.929 16.7695 13.9077 16.7011C13.8987 16.6729 13.8861 16.6385 13.8723 16.6019C13.7225 16.2072 13.3081 15.3743 13.1257 15.0117C12.9697 15.5331 12.8319 16.0209 12.7165 16.4622C13.243 17.5538 13.5638 19.4246 13.5638 19.4246C13.5638 19.4246 13.536 19.3033 13.4037 18.8802C13.2863 18.5059 12.7012 17.3444 12.5627 17.0729C12.3256 18.0645 12.2314 18.7341 12.3164 18.8971C12.4813 19.2129 12.6383 19.758 12.7762 20.3607C13.0878 21.7185 13.3044 23.3715 13.3044 23.3715C13.3044 23.3715 13.3114 23.481 13.3231 23.6496C13.2799 24.7899 13.3058 25.9721 13.3837 27.0407C13.487 28.4553 13.6813 29.6704 13.929 30.3208L14.0971 30.2169C13.7334 28.9356 13.5857 27.2564 13.6504 25.3199C13.7482 22.3599 14.3493 18.7903 15.46 15.0698C17.3364 9.45346 19.9398 4.9472 22.3225 2.79519C20.1508 5.01772 17.2115 12.2119 16.3317 14.876C15.3465 17.8593 14.6483 20.6589 14.2275 23.3411C14.9535 20.8265 17.3008 19.7456 17.3008 19.7456C17.3008 19.7456 18.452 18.1367 19.7974 15.8381C18.9915 16.0464 17.6682 16.4029 17.2249 16.614C16.5711 16.9248 16.3949 17.0308 16.3949 17.0308C16.3949 17.0308 18.5128 15.5693 20.3299 14.9075C22.8288 10.4475 25.5513 4.11148 22.8097 1.33996Z" fill="#C3D2DF"/>
<defs>
<linearGradient id="paint0_linear_330_1486" x1="11.0954" y1="3.09355" x2="11.0954" y2="22.1341" gradientUnits="userSpaceOnUse">
<stop stop-color="#C3D2DF"/>
<stop offset="0.920245" stop-color="#E0E0E0"/>
<stop offset="1" stop-color="#F2F2F2"/>
</linearGradient>
</defs>
</svg>
