<svg width="105" height="60" viewBox="0 0 105 60" fill="none" xmlns="http://www.w3.org/2000/svg">
<path d="M32.78 58.6523C25.1829 58.7327 27.6472 44.416 27.6472 44.416H26.991C24.1038 52.0644 20.9542 55.6797 18.4315 57.3508C18.2128 57.5276 18.0086 57.6722 17.7899 57.8007C17.4399 57.9935 17.0754 58.1381 16.7108 58.2667C14.8006 59.0219 13.5466 58.6845 13.5466 58.6845H13.1383V59.4236H34.6902V58.6845H33.5382C33.2758 58.7005 33.0279 58.6845 32.78 58.6523Z" fill="white"/>
<path d="M63.9984 58.7003C63.1818 58.7003 62.3798 58.395 61.5632 57.8808C60.7466 57.2863 59.9446 56.1615 58.9239 54.378C57.9761 52.5944 56.8241 49.9914 55.5409 46.5689C54.3306 43.1464 52.9016 38.5991 51.1518 32.8789L49.6644 27.7371C49.6644 27.5925 49.5915 27.5122 49.5915 27.5122C49.5915 27.4318 49.5915 27.4318 49.5186 27.3676L44.1525 8.92142H44.1817L42.5339 3.12084C41.5715 2.51025 40.7258 1.70685 40.0113 0.774902L32.837 24.7163H33.4786L37.6928 10.3193L37.9115 11.0906V11.0745L41.2362 22.8364H41.2799L42.0965 25.7447L43.788 31.7702C45.4795 37.7315 46.6314 42.568 47.3022 46.1351C47.973 49.7022 48.25 52.3856 48.1188 54.3298C48.0459 56.1937 47.7105 57.3024 46.9668 57.8969C46.296 58.4111 45.3482 58.7164 44.1963 58.7164H43.1172V59.4555H65.0628V58.7164H63.9984V58.7003Z" fill="white"/>
<path d="M10.9801 28.2515H6.0952V42.8734H4.88491V28.2515H0V27.1267H10.9801V28.2515Z" fill="white"/>
<path d="M25.3875 42.8734H24.1627V35.3214H16.0114V42.8734H14.8011V27.1267H16.0114V34.1967H24.1627V27.1267H25.3875V42.8734Z" fill="white"/>
<path d="M38.4077 35.3214H31.7292V41.7487H39.3992V42.8734H30.5189V27.1267H39.3555V28.2515H31.7292V34.1967H38.4077V35.3214Z" fill="white"/>
<path d="M63.8398 41.7487H70.8974V42.8734H62.6295V27.1267H63.8398V41.7487Z" fill="white"/>
<path d="M76.1899 27.1267H74.9796V42.8573H76.1899V27.1267Z" fill="white"/>
<path d="M89.6491 39.0007C89.6491 38.133 89.3721 37.4421 88.818 36.9279C88.2638 36.4137 87.2431 35.9317 85.7704 35.4818C84.2976 35.0319 83.2185 34.5177 82.5332 33.9874C81.5708 33.2162 81.075 32.2199 81.075 30.9827C81.075 29.7776 81.5271 28.7974 82.4311 28.0422C83.3352 27.287 84.4726 26.9175 85.8724 26.9175C86.8203 26.9175 87.666 27.1264 88.4242 27.5281C89.1679 27.9298 89.7512 28.4922 90.1595 29.2152C90.5678 29.9383 90.7719 30.7417 90.7719 31.6254H89.5616C89.5616 30.5489 89.2262 29.6812 88.5555 29.0224C87.8847 28.3636 86.9952 28.0422 85.8724 28.0422C84.7788 28.0422 83.9039 28.3154 83.2623 28.8457C82.6207 29.3759 82.2853 30.0829 82.2853 30.9506C82.2853 31.754 82.5769 32.4128 83.1602 32.9109C83.7435 33.409 84.6767 33.8589 85.9599 34.2445C87.2431 34.6302 88.2055 35.0319 88.8763 35.4496C89.5325 35.8674 90.0282 36.3655 90.3636 36.9279C90.699 37.5063 90.8594 38.1812 90.8594 38.9685C90.8594 40.2058 90.4074 41.202 89.5033 41.9572C88.5992 42.7124 87.4181 43.082 85.9453 43.082C84.9392 43.082 84.0205 42.8892 83.1748 42.4875C82.3291 42.0858 81.702 41.5394 81.2646 40.8164C80.8271 40.1094 80.6084 39.2899 80.6084 38.358H81.8187C81.8187 39.4667 82.1978 40.3504 82.9415 40.9771C83.6997 41.6198 84.6913 41.9411 85.9453 41.9411C87.0536 41.9411 87.943 41.668 88.6284 41.1377C89.3137 40.6075 89.6491 39.8844 89.6491 39.0007Z" fill="white"/>
<path d="M104.668 28.2515H99.7688V42.8734H98.5585V28.2515H93.6736V27.1267H104.668V28.2515Z" fill="white"/>
</svg>
