<svg width="145" height="45" viewBox="0 0 145 45" fill="none" xmlns="http://www.w3.org/2000/svg">
<path d="M53.1788 16.0231H50.0414V14.9307L57.6234 14.9307V16.0231H54.486V24.8671H53.2311V16.0231H53.1788Z" fill="white"/>
<path d="M59.0875 14.9307H60.3425V19.2486H65.8329V14.9307H67.0879V24.8671H65.8329V20.3411H60.3425V24.8671H59.0875V14.9307Z" fill="white"/>
<path d="M68.7089 14.9307L74.9314 14.9307V16.0231H69.9638V19.2486H74.6699V20.3411H69.9638V23.7746H74.9314V24.8671H68.7089V14.9307Z" fill="white"/>
<path d="M36.8645 29.8611H34.9821V44.7397H36.8645V29.8611Z" fill="white"/>
<path d="M48.7866 41.6183H48.7343L40.4725 29.8611H38.6423V44.7397H40.4725V32.9825H40.5248L48.8389 44.7397H50.669V29.8611L48.7866 29.8611V41.6183Z" fill="white"/>
<path d="M52.3945 44.7397H54.277V38.2888H60.9701V36.6241H54.277V31.5258H61.5453V29.8611H52.3945V44.7397Z" fill="white"/>
<path d="M64.4213 29.8611H62.5388V44.7397H71.6896V43.075H64.4213V29.8611Z" fill="white"/>
<path d="M81.9385 39.3813C81.9385 40.5258 81.5725 41.4622 80.8927 42.1906C80.1607 42.9189 79.1672 43.283 77.8599 43.283C76.5527 43.283 75.5592 42.9189 74.8271 42.1906C74.095 41.4622 73.729 40.5258 73.729 39.3813V29.8611H71.8466V39.5374C71.8466 40.6299 72.108 41.5663 72.5786 42.3987C73.0492 43.231 73.729 43.8553 74.6179 44.3235C75.5069 44.7917 76.6049 44.9998 77.8076 44.9998C79.0626 44.9998 80.1084 44.7917 80.9973 44.3235C81.8862 43.8553 82.566 43.231 83.0366 42.3987C83.5072 41.5663 83.7687 40.6299 83.7687 39.5374V29.8611L81.8862 29.8611V39.3813H81.9385Z" fill="white"/>
<path d="M85.5464 44.7397H94.9063V43.075H87.4288V37.9767H94.488V36.312H87.4288V31.5258H94.9063V29.8611H85.5464V44.7397Z" fill="white"/>
<path d="M106.358 41.6183H106.306L97.9914 29.8611H96.1613V44.7397H98.0437V32.9825H98.096L106.41 44.7397H108.188V29.8611L106.358 29.8611V41.6183Z" fill="white"/>
<path d="M111.901 34.1271C112.319 33.2427 112.894 32.5664 113.626 32.0461C114.358 31.5779 115.247 31.3178 116.241 31.3178C116.973 31.3178 117.6 31.4219 118.123 31.682C118.698 31.8901 119.169 32.2542 119.535 32.6704C119.901 33.0866 120.215 33.6068 120.424 34.2311L120.476 34.4392H122.358V34.3352C122.149 33.3987 121.783 32.5664 121.208 31.8901C120.633 31.2138 119.901 30.6415 119.064 30.2253C118.228 29.8091 117.234 29.6531 116.188 29.6531C114.776 29.6531 113.574 29.9652 112.528 30.5895C111.482 31.2138 110.698 32.0982 110.123 33.2427C109.547 34.3872 109.286 35.7398 109.286 37.3005C109.286 38.8612 109.547 40.2138 110.123 41.3583C110.698 42.5028 111.482 43.3872 112.528 44.0635C113.574 44.6878 114.776 44.9999 116.188 44.9999C117.234 44.9999 118.175 44.7918 119.064 44.4276C119.953 44.0635 120.633 43.4912 121.208 42.8149C121.783 42.0866 122.149 41.3063 122.358 40.3178V40.2138H120.476L120.424 40.3178C120.215 40.9941 119.901 41.5143 119.483 41.9826C119.064 42.4508 118.594 42.7629 118.071 42.971C117.496 43.1791 116.868 43.3352 116.188 43.3352C115.195 43.3352 114.306 43.075 113.574 42.6068C112.842 42.0866 112.267 41.4103 111.848 40.5259C111.43 39.6415 111.221 38.6011 111.221 37.3525C111.325 36.0519 111.534 35.0115 111.901 34.1271Z" fill="white"/>
<path d="M123.457 44.7397H132.817V43.075H125.339V37.9767H132.398V36.312H125.339V31.5258H132.817V29.8611H123.457V44.7397Z" fill="white"/>
<path d="M141.497 38.549C142.438 38.2368 143.17 37.7166 143.693 36.9883C144.216 36.26 144.477 35.3235 144.477 34.2831C144.477 33.3987 144.268 32.6183 143.902 31.942C143.484 31.2657 142.961 30.7455 142.229 30.3813C141.497 30.0172 140.66 29.8091 139.719 29.8091H134.072V44.7397H135.954V38.8611H139.457H139.51H139.562L142.804 44.7397H145L141.497 38.549ZM135.954 37.1964V31.4738H139.457C140.451 31.4738 141.183 31.7339 141.758 32.2021C142.333 32.7224 142.595 33.3987 142.595 34.2831C142.595 35.2195 142.333 35.8958 141.81 36.416C141.288 36.9363 140.555 37.1443 139.562 37.1443H135.954V37.1964Z" fill="white"/>
<path d="M0 0L0 29.8613L15.0072 14.9306L0 0Z" fill="white"/>
<path d="M0.627441 30.4336L15.0072 44.7399L30.6942 29.081L30.6942 0.468262L0.627441 30.4336Z" fill="white"/>
<path d="M31.5309 0L31.5309 28.2486L59.9766 0L31.5309 0Z" fill="white"/>
</svg>
