<?xml version="1.0"?>
<svg xmlns="http://www.w3.org/2000/svg" xmlns:xlink="http://www.w3.org/1999/xlink" xmlns:svgjs="http://svgjs.com/svgjs" version="1.1" width="512" height="512" x="0" y="0" viewBox="0 0 511.758 511.758" style="enable-background:new 0 0 512 512" xml:space="preserve" class=""><g><g xmlns="http://www.w3.org/2000/svg"><g><path d="m100.687 247.848c-4.142 0-7.5-3.358-7.5-7.5 0-4.142 3.358-7.5 7.5-7.5 4.142 0 7.5 3.358 7.5 7.5 0 4.142-3.358 7.5-7.5 7.5z" fill="#383f43" data-original="#000000" style="" class=""/></g><g><path d="m504.258 268.692c4.142 0 7.5-3.357 7.5-7.5v-36.38c0-2.508-1.253-4.85-3.34-6.24l-46.59-31.06c-1.232-.821-2.68-1.26-4.16-1.26h-7.8s.003-101.143.003-101.216c0-12.699-10.332-23.031-23.031-23.031h-357.215c-4.142 0-7.5 3.357-7.5 7.5v23.566h-23.567c-4.142 0-7.5 3.357-7.5 7.5v101.214h-23.558c-4.142 0-7.5 3.357-7.5 7.5v62.125c0 4.143 3.358 7.5 7.5 7.5h23.558v101.222c0 4.143 3.358 7.5 7.5 7.5h292.688c17.263 28.426 44.288 50.681 77.45 61.735 1.581.513 3.163.513 4.744 0 57.777-19.267 98.317-75.419 98.317-136.405v-19.08c0-4.143-3.358-7.5-7.5-7.5s-7.5 3.357-7.5 7.5v19.08c0 53.942-34.86 103.327-85.69 121.359-50.746-18.006-85.68-67.532-85.68-121.359v-84.137l41.361-27.573h88.648l41.361 27.573v32.366c.001 4.143 3.359 7.501 7.501 7.501zm-342.26-160.62c4.142 0 7.5-3.357 7.5-7.5s-3.358-7.5-7.5-7.5h-84.873v-16.067h349.715c4.382 0 7.956 3.528 8.029 7.894-.073 4.107-3.851 8.173-8.032 8.173h-232.15c-4.142 0-7.5 3.357-7.5 7.5s3.358 7.5 7.5 7.5h232.15c2.785 0 5.495-.491 8.03-1.433v32.155h-388.809v-30.723h115.94zm-146.998 108.714h85.687c12.992 0 23.562 10.57 23.562 23.563s-10.57 23.563-23.562 23.563h-85.687zm349.478-30.534c-1.48 0-2.928.438-4.16 1.26l-46.59 31.06c-2.086 1.391-3.34 3.732-3.34 6.24v88.15c0 4.104.173 8.177.514 12.21h-38.564c-4.142 0-7.5 3.357-7.5 7.5s3.358 7.5 7.5 7.5h40.629c2.166 11.298 5.66 22.183 10.342 32.46h-277.251v-32.46h193.6c4.142 0 7.5-3.357 7.5-7.5s-3.358-7.5-7.5-7.5h-193.6v-46.262h54.629c21.263 0 38.562-17.299 38.562-38.563s-17.299-38.563-38.562-38.563h-54.629v-47.991h388.81v32.458h-70.39z" fill="#383f43" data-original="#000000" style="" class=""/><path d="m452.349 218.814c-1.232-.821-2.68-1.26-4.16-1.26h-74.233c-1.48 0-2.928.438-4.16 1.26l-24.771 16.514c-2.086 1.391-3.34 3.732-3.34 6.24v71.396c0 44.221 26.03 84.485 66.315 102.577 2.048.878 4.097.878 6.146 0 40.284-18.093 66.314-58.356 66.314-102.577v-71.396c0-2.508-1.253-4.85-3.34-6.24zm13.11 94.149c0 37.188-21.237 71.145-54.387 87.448-33.151-16.304-54.388-50.261-54.388-87.448v-67.382l19.542-13.027h69.691l19.542 13.027z" fill="#383f43" data-original="#000000" style="" class=""/><path d="m436.188 285.482-32.438 42.185-18.438-18.438c-2.928-2.929-7.677-2.93-10.606-.001s-2.929 7.678 0 10.606l24.479 24.479c3.171 3.172 8.466 2.889 11.249-.731l37.646-48.958c2.525-3.283 1.91-7.992-1.374-10.517-3.285-2.524-7.993-1.909-10.518 1.375z" fill="#383f43" data-original="#000000" style="" class=""/></g></g></g></svg>
