<svg xmlns="http://www.w3.org/2000/svg" viewBox="0 0 768.96 132.75"><defs><style>.cls-1{opacity:0.3;}.cls-2{fill:none;stroke:#3d7bfc;stroke-miterlimit:10;stroke-width:0.25px;}</style></defs><g id="Layer_2" data-name="Layer 2"><g id="Layer_1-2" data-name="Layer 1"><g class="cls-1"><path class="cls-2" d="M0,65.24C95.52,84.6,230.61,2.69,287.38,26.79,346,51.66,419.16,117,493.11,108.38S617.68,50.8,768.9,132.64"/><path class="cls-2" d="M3.51,65.89C100.88,87.59,235.65,5.68,293.59,27.6c59.67,22.66,131.28,84.95,204.35,78s125.75-54.44,269.78,23.49"/><path class="cls-2" d="M7,66.54c99.24,24,233.7-57.87,292.79-38.13,60.74,20.45,130.79,79.66,203,74.33s126.93-51.31,263.76,22.73"/><path class="cls-2" d="M10.49,67.2c101.12,26.38,235.25-55.55,295.5-38,61.81,18.24,130.3,74.37,201.62,70.69s128.12-48.17,257.75,22"/><path class="cls-2" d="M14,67.85C117,96.57,250.79,14.64,312.19,30c62.88,16,129.82,69.07,200.25,67.05s129.31-45,251.73,21.21"/><path class="cls-2" d="M17.46,68.5c104.88,31.07,238.4-51,300.93-37.65,64,13.67,129.33,63.78,198.89,63.42S647.77,52.37,763,114.72"/><path class="cls-2" d="M21,69.15c106.75,33.41,240-48.7,303.64-37.49C389.64,43.1,453.43,90.14,522.11,91.45s131.68-38.77,239.7,19.69"/><path class="cls-2" d="M24.44,69.8C133.07,105.56,266,23.43,330.79,32.47,396.91,41.69,459.14,85.66,527,88.63S659.81,53,760.63,107.55"/><path class="cls-2" d="M27.92,70.46C138.43,108.55,271,26.4,337,33.28c67.18,7,127.85,47.9,194.78,52.53s134-32.5,227.66,18.16"/><path class="cls-2" d="M31.41,71.11C143.8,111.55,276,29.38,343.2,34.09,411.44,38.88,470.57,76.7,536.62,83s135.22-29.36,221.64,17.4"/><path class="cls-2" d="M34.9,71.76c114.26,42.78,246.16-39.39,314.5-36.85,69.31,2.57,126.88,37.31,192.05,45.25S677.86,53.94,757.08,96.8"/><path class="cls-2" d="M38.38,72.41c116.15,45.12,247.72-37,317.22-36.69,70.37.36,126.39,32,190.68,41.62s137.6-23.09,209.61,15.88"/><path class="cls-2" d="M41.87,73.06c118,47.47,249.27-34.71,319.93-36.53,71.44-1.84,125.9,26.73,189.32,38S689.9,54.57,754.71,89.64"/><path class="cls-2" d="M45.36,73.71C165.26,123.52,296.18,41.34,368,37.34c72.51-4,125.42,21.43,188,34.36s140-16.82,197.58,14.35"/><path class="cls-2" d="M48.85,74.37c121.77,52.15,252.37-30,325.36-36.22,73.56-6.24,124.92,16.14,186.58,30.73S701.94,55.19,752.35,82.47"/><path class="cls-2" d="M52.33,75C176,129.51,306.28,47.48,380.41,39c74.65-8.29,124.43,10.85,185.21,27.1S708,55.51,751.16,78.89"/><path class="cls-2" d="M55.82,75.67c125.53,56.84,255.5-25.2,330.79-35.89,75.72-10.51,123.94,5.55,183.85,23.46S714,55.82,750,75.3"/><path class="cls-2" d="M59.31,76.32c127.41,59.18,257.06-22.87,333.5-35.73,76.79-12.72,123.45.26,182.48,19.83S720,56.13,748.8,71.72"/><path class="cls-2" d="M62.79,77C192.08,138.5,321.41,56.44,399,41.4c77.86-14.93,123-5,181.11,16.19S726,56.45,747.62,68.14"/><path class="cls-2" d="M66.28,77.63c131.17,63.86,260.18-18.2,338.93-35.42C484.14,25.07,527.69,31.89,585,54.77s147.07,2,161.47,9.78"/><path class="cls-2" d="M69.77,78.28c133,66.2,261.73-15.87,341.65-35.26S533.4,27.4,589.79,52s148.26,5.12,155.46,9"/><path class="cls-2" d="M73.26,78.93c134.92,68.55,263.29-13.53,344.36-35.1s121.49-20.91,177,5.3,149.44,8.26,149.44,8.26"/><path class="cls-2" d="M72.91,77.32c28.81,13.74,57.15,22,84.76,25.5,35.16,4.42,69.39,1.24,101.88-5.72A464.82,464.82,0,0,0,315,81.34c18.19-6.37,35.23-13.44,51.11-20C384,54.07,400.45,47.44,415.59,43c17.41-5,33.4-9.31,48-11.55A205.75,205.75,0,0,1,528.13,31c19.52,2.83,38.51,8.46,59.11,16.88,2,.82,4.09,1.68,6.16,2.56,19.62,8.27,43.37,10.88,66.43,11.42,42.8,1,82.87-6.41,84.57-6.24"/><path class="cls-2" d="M72.56,75.7c28.92,12.9,57.18,21.61,84.68,25.68,34.86,5,69,2.68,101.63-3.65a400,400,0,0,0,55.52-15.16c18.18-6.42,35-13.93,50.56-20.82,17.46-7.72,33.54-14.81,48.62-19.61,17.2-5.49,33.51-10.26,48.31-12.25,25-3.35,44.57-1.1,64.2,2.47,19.46,3.54,38.91,9.25,59.83,17q3.11,1.14,6.27,2.34c20,7.56,43.77,8.5,67,8.93,42.24.8,82.18-7.16,85.58-6.83"/><path class="cls-2" d="M72.21,74.09c29,12,57.21,21.3,84.6,25.84,34.55,5.73,68.63,4.2,101.37-1.57A344.5,344.5,0,0,0,313.79,83.8c18.18-6.48,34.72-14.38,50-21.67,17-8.11,32.72-15.65,47.73-20.84,17-5.89,33.62-11.24,48.66-12.93,25.15-2.84,44.19,1.14,63.83,5.4a592.85,592.85,0,0,1,60.54,17.05L591,52.94c20.45,6.8,44.16,7,67.53,6.44,41.67-1,81.48-7.92,86.58-7.41"/><path class="cls-2" d="M71.87,72.47c29.12,11.21,57.23,21,84.51,26,34.26,6.36,68.25,5.66,101.11.5A306.1,306.1,0,0,0,313.2,85c18.17-6.54,34.46-14.83,49.47-22.52C379.3,54,394.57,46,409.52,40.44c16.8-6.28,33.72-12.21,49-13.62,25.31-2.33,43.8,3.38,63.47,8.35,19.33,4.88,39.75,10.76,61.25,17.13l6.48,1.91c20.88,6,44.55,5.06,68.09,3.95,41.1-1.93,80.78-8.67,87.58-8"/><path class="cls-2" d="M71.52,70.86C100.74,81.22,128.77,91.45,156,97.05c34,7,67.87,7.11,100.85,2.57a274.36,274.36,0,0,0,55.8-13.36C330.77,79.67,346.81,71,361.54,62.9c16.21-8.9,31.08-17.34,45.95-23.31,16.6-6.67,33.84-13.19,49.35-14.3,25.47-1.83,43.42,5.6,63.1,11.28,19.26,5.55,40.17,11.52,62,17.22,2.19.57,4.39,1.14,6.59,1.68,21.3,5.29,44.93,3.15,68.64,1.47,40.51-2.87,80.08-9.43,88.58-8.59"/><path class="cls-2" d="M71.17,69.25c29.33,9.51,57.28,20.23,84.35,26.35,33.66,7.62,67.48,8.57,100.59,4.64C275.26,98,294.37,94,312,87.49c18.16-6.65,34-15.73,48.39-24.21C376.19,54,390.66,45.1,405.47,38.74c16.4-7,33.94-14.18,49.7-15,25.62-1.32,43,7.84,62.72,14.22,19.2,6.22,40.6,12.28,62.68,17.31q3.36.77,6.7,1.46c21.74,4.52,45.31,1.24,69.2-1C696.4,52,735.85,45.53,746,46.54"/><path class="cls-2" d="M70.83,67.63c29.42,8.67,57.3,19.87,84.26,26.53a294.57,294.57,0,0,0,100.33,6.71c19.15-1.9,38.35-5.64,56-12.15,18.16-6.71,33.71-16.17,47.85-25.06,15.38-9.66,29.44-19,44.18-25.77,16.21-7.43,34.05-15.16,50.05-15.68,25.78-.83,42.63,10.07,62.36,17.16a438.37,438.37,0,0,0,63.39,17.4c2.27.44,4.54.86,6.81,1.24,22.17,3.75,45.68-.66,69.74-3.51,39.35-4.66,78.69-10.94,90.58-9.76"/><path class="cls-2" d="M70.48,66c29.53,7.82,57.33,19.5,84.18,26.7a294.12,294.12,0,0,0,100.08,8.78c19.13-1.54,38.44-5,56.08-11.55,18.15-6.76,33.46-16.61,47.3-25.9,15-10,28.63-19.85,43.29-27,16-7.81,34.16-16.15,50.4-16.36,25.94-.34,42.25,12.28,62,20.09a317.22,317.22,0,0,0,64.11,17.49c2.31.37,4.61.72,6.91,1,22.61,3,46.07-2.55,70.3-6,38.76-5.52,78-11.7,91.58-10.35"/><path class="cls-2" d="M70.13,64.4c29.63,7,57.36,19.14,84.11,26.88a293,293,0,0,0,99.81,10.85c19.12-1.18,38.54-4.32,56.17-10.95,18.15-6.82,33.22-17.05,46.76-26.75C371.54,54,384.8,43.75,399.39,36.19c15.81-8.19,34.26-16.87,50.74-17,26.09-.28,41.87,14.51,61.62,23a251.56,251.56,0,0,0,64.82,17.56q3.52.48,7,.81c23,2.19,46.44-4.42,70.85-8.49C692.62,45.7,731.74,39.61,747,41.12"/><path class="cls-2" d="M69.78,62.79c29.74,6.13,57.39,18.77,84,27a292.13,292.13,0,0,0,99.55,12.93c19.12-.82,38.63-3.66,56.27-10.35,18.14-6.88,33-17.49,46.22-27.59C370,54,382.84,43.3,397.36,35.34c15.62-8.56,34.37-18.13,51.09-17.73,26.25.62,41.48,16.72,61.25,26,18.95,8.86,42.31,15.25,65.54,17.65q3.59.38,7.13.59c23.48,1.41,46.82-6.29,71.41-11,37.59-7.18,76.59-13.21,93.58-11.52"/><path class="cls-2" d="M69.44,61.17c29.83,5.29,57.41,18.4,83.94,27.22a291.72,291.72,0,0,0,99.29,15c19.11-.46,38.73-3,56.36-9.75,18.14-6.93,32.72-17.92,45.68-28.44C368.45,54,380.89,42.86,395.34,34.49c15.42-8.93,34.47-19.13,51.43-18.42C473.18,17.17,487.87,35,507.66,45c18.88,9.52,42.73,16,66.25,17.74,2.43.18,4.84.31,7.24.37,23.92.62,47.2-8.14,72-13.47,37-8,75.89-14,94.58-12.11"/><path class="cls-2" d="M69.09,59.56C99,64,126.53,77.58,153,87A291.25,291.25,0,0,0,252,104c19.1-.11,38.82-2.35,56.45-9.15,18.14-7,32.49-18.35,45.14-29.29,13.34-11.53,25.37-23.16,39.74-31.94,15.24-9.3,34.59-20.13,51.78-19.11,26.57,1.58,40.72,21.16,60.52,31.85,18.83,10.17,43.16,16.73,67,17.83,2.47.11,4.92.2,7.35.15,24.35-.56,47.59-10,72.51-16,36.43-8.75,75.2-14.71,95.59-12.69"/><path class="cls-2" d="M68.74,58c30.05,3.6,57.48,17.64,83.78,27.55a290.5,290.5,0,0,0,98.77,19.15c19.09.25,38.92-1.69,56.55-8.55,18.13-7,32.24-18.78,44.59-30.13,12.94-11.9,24.57-24,38.86-33.18,15-9.67,34.69-21.13,52.12-19.79,26.72,2,40.34,23.37,60.15,34.78,18.77,10.82,43.59,17.46,67.68,17.92,2.51,0,5,0,7.46-.07,24.79-1,48-11.8,73.06-18.46,35.86-9.52,74.5-15.47,96.59-13.28"/><path class="cls-2" d="M68.39,56.33c30.15,2.76,57.51,17.27,83.7,27.73,31.28,12.5,64.38,20.13,98.52,21.21,19.08.61,39-1,56.63-7.94,18.13-7.1,32-19.2,44.06-31,12.53-12.26,23.75-24.81,38-34.41,14.86-10,34.8-22.13,52.47-20.48C468.61,14,481.7,37,501.51,49.18c18.72,11.47,44,18.19,68.39,18q3.84,0,7.57-.29C602.7,65.13,625.84,53.3,651.09,46c35.3-10.26,73.8-16.22,97.59-13.86"/><path class="cls-2" d="M68.05,54.72c30.25,1.91,57.53,16.88,83.61,27.9,31,13.09,64,21.56,98.26,23.28,19.07,1,39.1-.37,56.73-7.34,18.12-7.16,31.77-19.63,43.51-31.83,12.14-12.61,22.95-25.62,37.08-35.64C401.91,20.7,422.14,8,440.05,9.93c27,3,39.59,27.78,59.42,40.66,18.66,12.11,44.44,18.91,69.1,18.08q3.88-.12,7.68-.51C601.91,65.6,625,52.77,650.42,44.73c34.74-11,73.1-17,98.59-14.45"/><path class="cls-2" d="M67.7,53.1c30.35,1.07,57.57,16.5,83.53,28.08,30.7,13.69,63.61,23,98,25.35,19.06,1.31,39.2.29,56.82-6.74,18.12-7.21,31.54-20.05,43-32.67,11.74-13,22.14-26.44,36.19-36.87,14.49-10.76,35-24.15,53.16-21.86,27.2,3.44,39.22,30,59.05,43.6C516,64.75,542.29,71.63,567.24,70.16c2.63-.15,5.22-.4,7.78-.73,26.09-3.37,49.18-17.17,74.73-25.92,34.19-11.71,72.4-17.73,99.59-15"/><path class="cls-2" d="M67.35,51.49C97.81,51.71,125,67.6,150.8,79.73,181.21,94,214,104.15,248.54,107.16c19.06,1.66,39.29.94,56.92-6.14,18.11-7.27,31.31-20.47,42.42-33.52,11.36-13.34,21.34-27.25,35.31-38.1,14.3-11.12,35.12-25.16,53.5-22.55,27.37,3.9,38.84,32.21,58.68,46.54,18.56,13.41,45.29,20.36,70.53,18.26q4-.33,7.89-1c26.53-4.18,49.6-18.94,75.28-28.41,33.67-12.41,71.71-18.49,100.6-15.63"/><path class="cls-2" d="M67,49.88c30.55-.63,57.64,15.71,83.36,28.41,30.12,14.87,62.85,25.84,97.48,29.5,19,2,39.39,1.6,57-5.54C323,94.92,336,81.36,346.74,67.88c11-13.69,20.55-28.06,34.42-39.33C395.29,17.07,416.39,2.38,435,5.32c27.53,4.35,38.47,34.4,58.31,49.47C511.83,68.85,539,75.88,564.57,73.14c2.71-.29,5.37-.69,8-1.17,26.95-5,50-20.7,75.83-30.9,33.14-13.1,71-19.24,101.6-16.21"/><path class="cls-2" d="M66.66,48.26c30.66-1.47,57.71,15.28,83.28,28.59,29.87,15.4,62.47,27.21,97.22,31.57,19,2.33,39.49,2.26,57.11-4.93,18.1-7.39,30.86-21.32,41.34-35.22s19.74-28.88,33.53-40.57C393.08,15.87,414.48.51,433.33,3.78c27.69,4.8,38.13,36.58,57.95,52.41,18.48,14.67,46.13,21.76,72,18.44,2.74-.37,5.45-.83,8.1-1.39,27.38-5.8,50.46-22.44,76.39-33.39,32.62-13.77,70.31-20,102.6-16.8"/><path class="cls-2" d="M66.31,46.65c30.76-2.32,57.74,14.9,83.2,28.75,29.57,16,62.09,28.66,97,33.65,19,2.69,39.57,2.91,57.19-4.33,18.1-7.45,30.67-21.72,40.8-36.07s19-29.67,32.64-41.8,35.46-28.22,54.54-24.6c27.86,5.21,37.75,38.8,57.58,55.35,18.42,15.32,46.56,22.49,72.67,18.51,2.79-.43,5.53-1,8.22-1.6,27.8-6.65,50.9-24.17,76.94-35.88,32.12-14.44,69.61-20.76,103.6-17.39"/><path class="cls-2" d="M66,45C96.83,41.87,123.73,59.57,149.08,74c29.28,16.62,61.7,30.1,96.71,35.71,19,3.06,39.67,3.58,57.28-3.72,18.1-7.51,30.44-22.15,40.26-36.92s18.16-30.49,31.76-43S410.65-3.22,430,.71c28,5.7,37.37,41,57.21,58.29,18.37,16,47,23.24,73.39,18.6,32.12-5.63,57.16-26.51,85.82-40.19C678,22.3,715.3,15.9,751,19.43"/></g></g></g></svg>