<svg width="28" height="28" viewBox="0 0 28 28" fill="none" xmlns="http://www.w3.org/2000/svg">
<path d="M12.8524 2.36628V13.0819C12.8524 13.2087 12.9551 13.3114 13.0819 13.3114H27.7668C27.8936 13.3114 27.9963 13.2087 27.9963 13.0819V0.229561C27.9963 0.162912 27.9674 0.0995677 27.917 0.0559611C27.8667 0.0123546 27.8 -0.00710769 27.7338 0.00243985L13.0488 2.13916C12.936 2.15559 12.8524 2.25235 12.8524 2.36628Z" fill="#C3D2DF"/>
<path d="M11.246 25.7001C11.3012 25.7001 11.3549 25.6803 11.3969 25.6436C11.4469 25.6 11.4755 25.5369 11.4755 25.4706V14.918C11.4755 14.7913 11.3728 14.6885 11.246 14.6885H0.237962C0.177096 14.6885 0.118709 14.7127 0.0756534 14.7557C0.0325976 14.7988 0.00845337 14.8572 0.00845337 14.918L0.00900419 23.962C0.00900419 24.0768 0.0937386 24.1738 0.207299 24.1894L11.2148 25.6981C11.2252 25.6994 11.2356 25.7001 11.246 25.7001Z" fill="#C3D2DF"/>
<path d="M0.239515 13.3114H11.246C11.3728 13.3114 11.4755 13.2086 11.4755 13.0819V2.63299C11.4755 2.56671 11.4469 2.50373 11.397 2.46012C11.3472 2.41652 11.2812 2.3965 11.2151 2.40559L0.198662 3.90162C0.0847345 3.91713 -9.17288e-05 4.01435 7.44439e-08 4.12929L0.0100066 13.082C0.0101902 13.2087 0.112918 13.3114 0.239515 13.3114Z" fill="#C3D2DF"/>
<path d="M27.7668 28C27.8218 28 27.8753 27.9803 27.9174 27.9437C27.9675 27.9001 27.9963 27.837 27.9963 27.7705L28 14.918C28 14.8572 27.9759 14.7988 27.9328 14.7557C27.8897 14.7127 27.8314 14.6885 27.7705 14.6885H13.0819C12.9551 14.6885 12.8524 14.7913 12.8524 14.918V25.7046C12.8524 25.8189 12.9366 25.9159 13.0498 25.9319L27.7348 27.9978C27.7455 27.9993 27.7562 28 27.7668 28Z" fill="#C3D2DF"/>
</svg>
