<svg xmlns="http://www.w3.org/2000/svg" width="24" height="24" fill="none"><path fill="#000" d="M20.549 7.528 19.39 6.161a1.2 1.2 0 0 1-.28-.656l-.174-1.764c-.09-.916-.84-1.645-1.782-1.733l-1.813-.17a1.26 1.26 0 0 1-.675-.272L13.26.439a2.03 2.03 0 0 0-2.52 0L9.334 1.566a1.26 1.26 0 0 1-.675.272l-1.813.17c-.942.088-1.691.817-1.782 1.733L4.89 5.505c-.024.242-.121.469-.28.656L3.451 7.528a1.89 1.89 0 0 0 0 2.452l1.159 1.367c.159.188.256.415.28.657l.174 1.763c.09.917.84 1.645 1.782 1.734l1.109.104-2.633 6.12a.45.45 0 0 0 .084.489c.123.135.31.188.488.139l2.285-.627a.02.02 0 0 1 .024.009l1.144 2.023A.48.48 0 0 0 9.79 24a.48.48 0 0 0 .418-.285l2.78-6.462a2 2 0 0 0 .271-.182l1.406-1.127a1.26 1.26 0 0 1 .618-.265l2.518 5.852-1.782-.49a.76.76 0 0 0-.864.352l-.892 1.578-1.182-2.748a.37.37 0 0 0-.479-.19.35.35 0 0 0-.196.465l1.384 3.218a.48.48 0 0 0 .418.284l.025.001a.48.48 0 0 0 .42-.242l1.143-2.023a.02.02 0 0 1 .024-.01l2.284.628a.49.49 0 0 0 .49-.14.45.45 0 0 0 .083-.489l-2.633-6.12 1.108-.103c.943-.089 1.692-.817 1.783-1.734l.174-1.763c.024-.242.121-.47.28-.657L20.55 9.98a1.89 1.89 0 0 0 0-2.452M9.736 22.97l-.892-1.578a.76.76 0 0 0-.864-.351L6.2 21.53l2.517-5.852c.228.032.44.122.618.264l1.406 1.128a2 2 0 0 0 1.346.437zM19.984 9.527l-1.158 1.368a1.9 1.9 0 0 0-.444 1.04l-.175 1.764a1.235 1.235 0 0 1-1.123 1.093l-1.593.15-.019.001-.201.02a2 2 0 0 0-1.07.43l-1.406 1.127c-.46.37-1.13.37-1.59 0L9.8 15.393a2 2 0 0 0-1.07-.43l-.203-.02-.017-.001-1.593-.15A1.235 1.235 0 0 1 5.793 13.7l-.175-1.763a1.9 1.9 0 0 0-.443-1.041L4.016 9.527a1.19 1.19 0 0 1 0-1.546l1.159-1.367c.252-.297.405-.657.443-1.041l.175-1.764a1.235 1.235 0 0 1 1.124-1.093l1.813-.17a2 2 0 0 0 1.07-.43L11.205.987A1.27 1.27 0 0 1 12 .711c.282 0 .565.093.795.277L14.2 2.115c.306.245.676.395 1.07.431l1.814.17a1.235 1.235 0 0 1 1.124 1.093l.174 1.764c.038.384.191.744.444 1.041l1.158 1.367c.38.448.38 1.098 0 1.546"></path><path fill="#000" d="M12 3.195q-.368 0-.731.045a.36.36 0 0 0-.316.398c.025.195.209.333.409.308q.317-.04.638-.04c2.748 0 4.984 2.175 4.984 4.848S14.748 13.602 12 13.602s-4.984-2.175-4.984-4.848c0-1.906 1.156-3.643 2.945-4.425a.35.35 0 0 0 .184-.47.37.37 0 0 0-.484-.179c-2.051.896-3.377 2.888-3.377 5.074 0 3.066 2.564 5.56 5.716 5.56s5.716-2.494 5.716-5.56-2.564-5.56-5.716-5.56"></path><path fill="#000" d="M8.366 8.342a1.07 1.07 0 0 0 0 1.539l1.598 1.555c.212.205.493.318.792.318.298 0 .58-.113.79-.318l3.49-3.394a1.07 1.07 0 0 0 0-1.539 1.143 1.143 0 0 0-1.583 0l-2.697 2.624-.807-.785a1.143 1.143 0 0 0-1.583 0m2.39 1.644c.096 0 .19-.037.258-.104l2.956-2.876a.395.395 0 0 1 .548 0 .37.37 0 0 1 0 .533l-3.489 3.393a.4.4 0 0 1-.273.11.4.4 0 0 1-.274-.11L8.884 9.378a.37.37 0 0 1 0-.533.39.39 0 0 1 .547 0l1.066 1.037a.37.37 0 0 0 .259.104"></path></svg>