<svg xmlns="http://www.w3.org/2000/svg" width="24" height="24" fill="none"><path fill="#000" d="M18.145 13.056h-.618a.352.352 0 1 0 0 .703h.618a.352.352 0 1 0 0-.703"></path><path fill="#000" d="M23.999 11.053a1 1 0 0 0-.02-.176l-.789-3.99-.157-.792a1.14 1.14 0 0 0-1.117-.918H1.142C.512 5.177 0 5.69 0 6.32v9.403c0 .63.512 1.142 1.142 1.142h1.114a2.314 2.314 0 0 0 2.284 1.959c1.154 0 2.113-.851 2.283-1.959h.906a.352.352 0 1 0 0-.704h-.906a2.314 2.314 0 0 0-2.283-1.958 2.314 2.314 0 0 0-2.284 1.958H1.142a.44.44 0 0 1-.438-.438V6.32c0-.241.196-.438.438-.438h20.774c.207 0 .387.147.427.35l.074.373h-4.62a.623.623 0 0 0-.622.622v3.795c0 .357.171.695.457.906.69.506 2.23 1.131 5.664 1.286v2.361a.587.587 0 0 1-.586.586h-.966a2.314 2.314 0 0 0-2.284-1.958c-1.154 0-2.114.85-2.283 1.958h-7.81a.352.352 0 1 0 0 .704h7.81a2.314 2.314 0 0 0 2.283 1.959c1.154 0 2.114-.851 2.284-1.959h.966c.711 0 1.29-.579 1.29-1.29v-4.476zm-19.46 3.853c.887 0 1.607.72 1.607 1.606s-.72 1.607-1.606 1.607-1.607-.72-1.607-1.607c0-.886.721-1.606 1.607-1.606m14.921 3.213c-.886 0-1.607-.72-1.607-1.607 0-.886.721-1.606 1.607-1.606s1.607.72 1.607 1.606-.721 1.607-1.607 1.607M17.88 11.02V7.308h4.677l.732 3.706.003.02q.005.03.005.059v1.415c-3.408-.156-4.747-.781-5.247-1.149a.42.42 0 0 1-.17-.338"></path><path fill="#000" d="M8.008 6.604h-5.89a.56.56 0 0 0-.56.561v3.96c0 .309.251.56.56.56h5.89c.31 0 .561-.252.561-.56v-3.96a.56.56 0 0 0-.561-.561m-3.297 4.378h-2.45V7.308h2.45zm3.154 0h-2.45V7.308h2.45zM15.731 6.604h-5.89a.56.56 0 0 0-.56.561v3.96c0 .309.251.56.56.56h5.89c.31 0 .561-.252.561-.56v-3.96a.56.56 0 0 0-.56-.561m-.142 4.378h-2.45V9.648a.352.352 0 1 0-.704 0v1.334h-2.45V7.308h2.45v.703a.352.352 0 1 0 .703 0v-.703h2.45z"></path></svg>