<svg xmlns="http://www.w3.org/2000/svg" width="24" height="24" fill="none"><g clip-path="url(#good_price_svg__a)"><path fill="#000" d="M23.772 19.676 20.625 7.929a1.17 1.17 0 0 0-.554-.722L15.244 4.42a1.24 1.24 0 0 0-.843-.145h-.015c-.331 0-.643.129-.877.362l-.975.976a.328.328 0 0 0 .464.464l.975-.976a.58.58 0 0 1 .413-.17.58.58 0 0 1 .414.17l3.94 3.941a.5.5 0 0 1 .157.377v12.892c0 .294-.24.533-.533.533h-7.955a.534.534 0 0 1-.533-.533v-4.08a.328.328 0 1 0-.656 0v4.08c0 .655.533 1.189 1.19 1.189h7.954a1.19 1.19 0 0 0 1.19-1.19v-.272l3.377-.906a1.19 1.19 0 0 0 .841-1.456m-1.01.823-3.209.86V9.418c0-.322-.12-.613-.348-.84L16.57 5.943l3.173 1.832c.13.076.21.179.248.324l3.148 11.747a.534.534 0 0 1-.377.653M9.22 9.709v-.29c0-.322.12-.613.348-.84l1.677-1.677a.328.328 0 0 1 .464.464l-1.677 1.676a.5.5 0 0 0-.156.377v.29a.328.328 0 1 1-.656 0m6.686-1.645c0 .838-.682 1.52-1.52 1.52a1.53 1.53 0 0 1-1.424-.99.328.328 0 0 1 .615-.228.865.865 0 1 0 .376-1.049.328.328 0 0 1-.33-.567 1.52 1.52 0 0 1 2.283 1.314m-3.791-.999A3.98 3.98 0 0 1 15.138.5a3.983 3.983 0 0 1 3.978 3.979.328.328 0 1 1-.656 0 3.326 3.326 0 0 0-3.322-3.323 3.326 3.326 0 0 0-3.323 3.323 3.31 3.31 0 0 0 2.778 3.278.328.328 0 0 1-.107.647 3.98 3.98 0 0 1-2.371-1.339M9.837 17.388a1.077 1.077 0 0 0 .917-1.64 1.154 1.154 0 0 0 .351-1.723 1.153 1.153 0 0 0 .008-1.871 1.155 1.155 0 0 0-.902-1.871H7.977c.124-1.069.262-3.041-.621-3.94-.358-.362-.832-.514-1.41-.449a.664.664 0 0 0-.59.72c.117 1.391.01 2.288-.349 2.905-.358.619-1.012 1-2.046 1.193a.79.79 0 0 0-.639-.33H.973a.787.787 0 0 0-.786.787v5.577c0 .433.352.786.786.786h1.35a.79.79 0 0 0 .697-.425c.405.036.66.111.947.197.223.067.453.135.768.193.368.067.764.092 1.172.092.67 0 1.369-.068 2.015-.131q.402-.04.766-.07zm.599-4.798a.498.498 0 0 1 0 .994H8.253a.498.498 0 0 1 0-.994zm-2.117 1.65h1.88a.498.498 0 0 1 0 .995h-1.88a.498.498 0 0 1 0-.994m1.518 2.492H8.674a.42.42 0 0 1 0-.84h1.163a.42.42 0 0 1 0 .84m.374-5.793a.498.498 0 0 1 0 .995H8.573a.498.498 0 0 1 0-.995zm-7.758 5.807c0 .07-.06.13-.13.13H.972c-.07 0-.13-.06-.13-.13v-5.577c0-.07.06-.13.13-.13h1.35c.07 0 .13.06.13.13zm2.4.105c-.28-.051-.493-.114-.698-.176a5 5 0 0 0-1.046-.22v-5.103c1.22-.231 2.008-.713 2.466-1.503.43-.742.564-1.756.434-3.29q.001-.01.01-.013c.373-.041.657.043.869.258.776.788.487 3.029.392 3.765v.004l-.002.022v.033l.001.014v.004c.164 1.496-.213 2.253-1.3 2.61a.328.328 0 0 0 .204.624q.564-.187.952-.51c.057.225.18.424.348.575a1.15 1.15 0 0 0 .276 1.8 1.07 1.07 0 0 0-.034 1.072c-.963.094-2.03.187-2.872.034m6.057 1.733a3.48 3.48 0 0 0 3.476 3.476 3.48 3.48 0 0 0 3.477-3.476 3.48 3.48 0 0 0-3.477-3.477 3.48 3.48 0 0 0-3.476 3.477m3.476-2.82a2.824 2.824 0 0 1 2.82 2.82 2.824 2.824 0 0 1-2.82 2.82 2.824 2.824 0 0 1-2.82-2.82 2.824 2.824 0 0 1 2.82-2.82m.665 3.584c.004-.104-.063-.205-.183-.275-.163-.096-.363-.143-.576-.194a7 7 0 0 1-.266-.067c-.27-.076-.606-.203-.806-.523-.217-.348-.168-.771.126-1.078.168-.175.423-.296.711-.347v-.285a.328.328 0 1 1 .657 0v.287c.412.075.735.28.892.572a.328.328 0 1 1-.578.311c-.065-.12-.25-.213-.482-.245-.293-.04-.598.028-.726.162-.05.05-.12.153-.043.275.064.102.19.173.425.239q.117.032.242.06c.25.06.509.122.757.267.329.194.518.516.506.864-.012.34-.214.64-.542.803a1.5 1.5 0 0 1-.451.137v.277a.328.328 0 0 1-.657 0v-.29c-.403-.075-.773-.276-.951-.602a.328.328 0 0 1 .575-.315c.151.276.82.39 1.192.205.11-.054.175-.141.178-.238m-2.788-5.405a.328.328 0 0 1 0-.656h4.247a.328.328 0 0 1 0 .656zm4.575-2.03a.33.33 0 0 1-.328.328h-4.247a.328.328 0 0 1 0-.656h4.247c.181 0 .328.147.328.328"></path></g><defs><clipPath id="good_price_svg__a"><path fill="#fff" d="M0 0h24v24H0z"></path></clipPath></defs></svg>