<?xml version="1.0"?>
<svg xmlns="http://www.w3.org/2000/svg" data-name="Layer 1" id="Layer_1" viewBox="0 0 128 128"><title/><path d="M128,27.125A26.98817,26.98817,0,0,0,79.24017,11.16461a54.73231,54.73231,0,0,0-30.48035,0A26.9878,26.9878,0,1,0,11.114,48.93774a54.72681,54.72681,0,0,0,.0592,30.3324A26.98656,26.98656,0,1,0,48.90778,116.8775a54.71861,54.71861,0,0,0,30.18445,0,26.98649,26.98649,0,1,0,37.73462-37.60736,54.72681,54.72681,0,0,0,.0592-30.3324A26.97615,26.97615,0,0,0,128,27.125ZM80.93457,15.90216a51.23743,51.23743,0,0,1,31.21918,31.32806A22.89137,22.89137,0,0,1,96.75,49.72485V37.25a6.00656,6.00656,0,0,0-6-6H78.37775a22.87134,22.87134,0,0,1,2.55682-15.34784Zm32.41522,35.22046a51.00071,51.00071,0,0,1-.06207,25.9729A26.90858,26.90858,0,0,0,96.75,74.4624V53.7876a26.90924,26.90924,0,0,0,16.59979-2.665ZM75.3363,92.75H52.6637A27.11737,27.11737,0,0,0,35.25,75.41888V52.83112A27.11837,27.11837,0,0,0,52.74847,35.25H75.25153A27.11837,27.11837,0,0,0,92.75,52.83112V75.41888A27.11737,27.11737,0,0,0,75.3363,92.75ZM92.75,79.66107V90.75a2.00261,2.00261,0,0,1-2,2H79.58539A23.11534,23.11534,0,0,1,92.75,79.66107ZM48.41461,92.75H37.25a2.00261,2.00261,0,0,1-2-2V79.66107A23.11534,23.11534,0,0,1,48.41461,92.75ZM35.25,48.58893V37.25a2.00261,2.00261,0,0,1,2-2H48.51331A23.11506,23.11506,0,0,1,35.25,48.58893ZM79.48669,35.25H90.75a2.00261,2.00261,0,0,1,2,2V48.58893A23.11506,23.11506,0,0,1,79.48669,35.25ZM64,13a50.88686,50.88686,0,0,1,13.04236,1.69714A26.82479,26.82479,0,0,0,74,27.125a27.0967,27.0967,0,0,0,.315,4.125H53.685A27.0967,27.0967,0,0,0,54,27.125a26.82479,26.82479,0,0,0-3.04236-12.42786A50.88686,50.88686,0,0,1,64,13ZM47.06543,15.90216A22.87134,22.87134,0,0,1,49.62225,31.25H37.25a6.00656,6.00656,0,0,0-6,6V49.72485a22.89137,22.89137,0,0,1-15.40375-2.49463A51.23743,51.23743,0,0,1,47.06543,15.90216ZM31.25,53.7876V74.4624a26.90858,26.90858,0,0,0-16.53772,2.63312,51.00071,51.00071,0,0,1-.06207-25.9729A26.90924,26.90924,0,0,0,31.25,53.7876ZM4,27.125A22.99123,22.99123,0,0,1,44.73163,12.49176,55.28109,55.28109,0,0,0,12.42419,44.90265,22.96319,22.96319,0,0,1,4,27.125Zm23,97A22.989,22.989,0,0,1,12.49951,83.28809a55.28092,55.28092,0,0,0,32.38275,32.27966A22.96267,22.96267,0,0,1,27,124.125Zm20.18585-11.98633A51.23913,51.23913,0,0,1,15.91718,80.97894,22.899,22.899,0,0,1,31.25,78.52515V90.75a6.00656,6.00656,0,0,0,6,6H49.57751a22.9329,22.9329,0,0,1-2.39166,15.38867ZM64,115a50.89788,50.89788,0,0,1-12.93048-1.66528A26.87083,26.87083,0,0,0,53.64026,96.75H74.35974a26.87083,26.87083,0,0,0,2.57074,16.58472A50.89788,50.89788,0,0,1,64,115Zm16.81415-2.86133A22.9329,22.9329,0,0,1,78.42249,96.75H90.75a6.00656,6.00656,0,0,0,6-6V78.52515a22.899,22.899,0,0,1,15.33282,2.4538A51.23913,51.23913,0,0,1,80.81415,112.13867ZM124,101.125a22.98806,22.98806,0,0,1-40.88226,14.44275,55.28092,55.28092,0,0,0,32.38275-32.27966A22.96282,22.96282,0,0,1,124,101.125Zm-8.42419-56.22235A55.28109,55.28109,0,0,0,83.26837,12.49176a22.99087,22.99087,0,1,1,32.30743,32.41089Z"/></svg>
