<svg xmlns="http://www.w3.org/2000/svg" width="24" height="24" fill="none" class="luxury"><path fill="#000" d="M1.014 8.49a.34.34 0 0 0 .071.322l3.763 4.267c-.356.33-.83.518-1.326.524a.38.38 0 0 0-.26.104.35.35 0 0 0-.107.249c0 .093.039.183.108.25a.38.38 0 0 0 .26.103c1.224 0 2.226 1.187 2.226 2.644 0 .094.039.184.108.25a.376.376 0 0 0 .52 0 .35.35 0 0 0 .107-.25c-.002-.54.143-1.07.421-1.54l4.814 5.462a.37.37 0 0 0 .282.125.38.38 0 0 0 .282-.125L22.917 8.812a.356.356 0 0 0 .014-.437L18.86 3.143a1 1 0 0 0-.052-.054.4.4 0 0 0-.245-.089H5.428a.4.4 0 0 0-.294.143L1.07 8.375a.4.4 0 0 0-.056.115m4.385-4.51 2.744 4.258H2.099zm16.503 4.258H15.86l2.756-4.258zm-7.175.705-2.726 10.275L9.274 8.943zm-5.284-.705 2.558-4.187 2.557 4.187zm6.041.705h6.37L12.75 19.251zm-.277-1.034-2.564-4.204h5.271zm-6.413 0L6.1 3.712h5.259zm-.277 1.034 2.734 10.308-3.88-4.402c.358-.339.84-.532 1.342-.54.098 0 .191-.038.26-.104a.35.35 0 0 0 .108-.25.35.35 0 0 0-.108-.248.38.38 0 0 0-.26-.104c-1.225 0-2.229-1.175-2.229-2.645a.35.35 0 0 0-.108-.25.375.375 0 0 0-.52 0 .35.35 0 0 0-.107.25 3 3 0 0 1-.43 1.561L2.157 8.943zm-2.395 6.395a3.2 3.2 0 0 0-1.274-1.382 3 3 0 0 0 .806-.67q.278-.325.468-.705c.269.573.712 1.055 1.27 1.382a3.1 3.1 0 0 0-.76.623.3.3 0 0 0-.067.078 3.4 3.4 0 0 0-.443.674m11.907-3.773a.35.35 0 0 1 .127.242.34.34 0 0 1-.09.256l-2.501 2.784a.37.37 0 0 1-.255.12.4.4 0 0 1-.268-.088.36.36 0 0 1-.125-.245.34.34 0 0 1 .092-.257l2.501-2.775a.36.36 0 0 1 .252-.122.38.38 0 0 1 .267.085m1.051-.74a.34.34 0 0 1-.15.277.37.37 0 0 1-.32.053.4.4 0 0 1-.145-.08.338.338 0 0 1-.056-.445.385.385 0 0 1 .61 0c.04.057.061.125.061.194m.63 4.097a.35.35 0 0 0-.108-.25.375.375 0 0 0-.52 0 .35.35 0 0 0-.107.25c0 .94-.627 1.683-1.396 1.683a.38.38 0 0 0-.26.104.35.35 0 0 0-.108.25c0 .093.039.182.108.249a.38.38 0 0 0 .26.103c.769 0 1.396.755 1.396 1.683 0 .094.039.183.108.25a.375.375 0 0 0 .52 0 .35.35 0 0 0 .107-.25c0-.94.624-1.683 1.394-1.683.097 0 .19-.037.26-.103a.35.35 0 0 0 .107-.25.35.35 0 0 0-.108-.25.38.38 0 0 0-.26-.102c-.773-.005-1.393-.76-1.393-1.689zm-.36 2.72a2.3 2.3 0 0 0-.65-.705c.266-.19.487-.43.65-.705.162.276.383.516.649.705a2.3 2.3 0 0 0-.65.705"></path></svg>