<svg xmlns="http://www.w3.org/2000/svg" width="24" height="24" fill="none"><path fill="#000" fill-rule="evenodd" d="M12 .703c-1.177 0-2.131.99-2.131 2.21 0 .817.426 1.53 1.062 1.913h2.138a2.23 2.23 0 0 0 1.062-1.912c0-.294-.054-.573-.154-.828a.356.356 0 0 1 .188-.457.335.335 0 0 1 .441.194c.132.338.203.706.203 1.09 0 .733-.26 1.402-.69 1.913h3.209c.82 0 1.484.69 1.484 1.54V7.47c.242.033.46.149.623.319.195.202.317.483.317.792 0 .57-.41 1.04-.94 1.112v.714c0 .291.174.554.445.666 1.607.662 2.743 2.288 2.743 4.19v4.22c0 2.49-1.946 4.507-4.347 4.507H8.601a.8.8 0 0 1-.231 0H6.347c-2.4 0-4.347-2.018-4.347-4.508v-4.218c0-1.903 1.137-3.53 2.743-4.191a.72.72 0 0 0 .446-.666v-.714a1.07 1.07 0 0 1-.624-.32 1.14 1.14 0 0 1-.317-.792c0-.57.41-1.04.94-1.111V6.365c0-.85.665-1.539 1.485-1.539H9.88a2.97 2.97 0 0 1-.69-1.912C9.19 1.304 10.448 0 12 0c.561 0 1.085.171 1.524.466a.36.36 0 0 1 .1.486.33.33 0 0 1-.468.104A2.07 2.07 0 0 0 12 .703M5.518 8.165h13.153c.111 0 .211.046.285.122s.118.18.118.295A.41.41 0 0 1 18.67 9H8.43a.345.345 0 0 0-.34.352c0 .194.153.351.34.351h9.704v.705c0 .59.354 1.106.873 1.32 1.357.558 2.315 1.932 2.315 3.537v4.219c0 1.248-.58 2.356-1.476 3.05.24-.428.376-.926.376-1.456 0-1.61-1.258-2.914-2.81-2.914q-.096 0-.19.007a.8.8 0 0 0-.684-.387h-.406a1 1 0 0 0 .01-.14v-.85c0-.467-.363-.844-.813-.844h-1.59a.345.345 0 0 0-.34.351c0 .194.152.352.34.352h1.59c.075 0 .136.063.136.14v.85c0 .078-.06.141-.136.141h-3.992a.14.14 0 0 1-.135-.14v-.85c0-.078.06-.141.135-.141h.82a.345.345 0 0 0 .338-.352.345.345 0 0 0-.339-.351h-.819c-.45 0-.813.377-.813.843v.85c0 .467.364.845.813.845h.407a1 1 0 0 0-.012.14v.85q0 .072.012.14h-.435a.85.85 0 0 0-.404-.768l-.708-.428a.8.8 0 0 0-1.113.305l-.688 1.226-.209-.476a.8.8 0 0 0-1.077-.418l-3.634 1.714a.83.83 0 0 0-.406.423 3.9 3.9 0 0 1-.392-1.713v-4.218c0-1.605.958-2.979 2.315-3.538.52-.213.874-.728.874-1.319v-.705h.98a.345.345 0 0 0 .34-.351.345.345 0 0 0-.34-.352H5.33a.4.4 0 0 1-.285-.123.42.42 0 0 1-.118-.295c0-.23.18-.417.403-.417zm-.716 14.77c.47.227.993.353 1.545.353h.822a.87.87 0 0 1-.094-.985l.337-.599zm3.73.353H8.44l-.022-.01-.708-.428a.144.144 0 0 1-.05-.193l2.01-3.577a.133.133 0 0 1 .186-.05l.708.428c.065.039.087.125.049.192l-2.01 3.577a.14.14 0 0 1-.07.061m.822 0h2.39a1 1 0 0 1-.012-.14v-.851a1 1 0 0 1 .012-.14h-.626a.82.82 0 0 1-.783-.615zm5.272-1.835a3 3 0 0 1 .072-1.131h-3.58a.14.14 0 0 0-.136.14v.85c0 .078.061.141.136.141zm.354-1.834h-2.434a.14.14 0 0 1-.135-.14v-.85c0-.079.06-.142.135-.142h3.578a2.87 2.87 0 0 0-1.144 1.132m2.068-.72a2.15 2.15 0 0 0-1.562 1.23l-.002.005a2.27 2.27 0 0 0-.12 1.559l.007.025a2.17 2.17 0 0 0 1.52 1.503q.252.066.521.067c1.178 0 2.132-.99 2.132-2.21 0-1.221-.954-2.21-2.132-2.21a2 2 0 0 0-.352.03zm-1.466 4.389a2.9 2.9 0 0 1-.78-1.132h-2.256a.14.14 0 0 0-.135.141v.85c0 .078.06.141.135.141zm-7.74-2.56a.143.143 0 0 0 .067-.186l-.34-.774a.134.134 0 0 0-.179-.07l-3.633 1.715a.143.143 0 0 0-.068.186l.34.774c.03.07.111.102.18.07zM18.134 7.463H5.867V6.365c0-.461.36-.835.806-.835h10.655c.445 0 .806.374.806.835zM12 2.132l.005-.001a.3.3 0 0 1 .116.017c.052.018.083.043.084.045a.33.33 0 0 0 .478-.046.36.36 0 0 0-.044-.495 1 1 0 0 0-.314-.175.345.345 0 0 0-.339-.351.345.345 0 0 0-.339.351V1.5a.83.83 0 0 0-.485.598c-.055.25-.01.577.241.78.183.15.435.256.707.355.075.028.104.066.118.094.015.033.022.08.01.137a.26.26 0 0 1-.25.209h-.01a.8.8 0 0 1-.206-.014.5.5 0 0 1-.17-.088.33.33 0 0 0-.469.102.36.36 0 0 0 .098.487 1.2 1.2 0 0 0 .416.19c0 .195.152.353.34.353a.345.345 0 0 0 .338-.352v-.04a.97.97 0 0 0 .572-.684.94.94 0 0 0-.062-.612.87.87 0 0 0-.5-.445c-.27-.1-.424-.173-.51-.242l-.003-.007a.2.2 0 0 1 .001-.066c.014-.06.048-.094.083-.105A.4.4 0 0 1 12 2.13m5.398 17.158c.188 0 .34.157.34.351a1 1 0 0 1 .314.175.36.36 0 0 1 .043.495.33.33 0 0 1-.477.045.312.312 0 0 0-.207-.061.4.4 0 0 0-.092.018c-.035.01-.07.044-.083.105a.15.15 0 0 0 .001.073c.087.069.24.143.511.242.23.085.403.242.5.445a.94.94 0 0 1 .061.612.97.97 0 0 1-.571.685v.039a.345.345 0 0 1-.34.351.345.345 0 0 1-.338-.351l-.038-.01a1.2 1.2 0 0 1-.378-.181.36.36 0 0 1-.098-.487.33.33 0 0 1 .469-.102.5.5 0 0 0 .17.088.8.8 0 0 0 .206.014h.009a.26.26 0 0 0 .25-.209.2.2 0 0 0-.01-.137c-.013-.028-.043-.066-.118-.094-.271-.1-.523-.205-.707-.355-.25-.203-.295-.53-.24-.78a.83.83 0 0 1 .485-.599v-.02c0-.195.151-.352.338-.352m-.16 1.203" clip-rule="evenodd"></path></svg>