<svg width="18" height="12" viewBox="0 0 18 12" fill="none" xmlns="http://www.w3.org/2000/svg">
<path d="M0.816406 1.15234C0.529948 1.00911 0.34375 0.851562 0.257812 0.679688C0.200521 0.507812 0.200521 0.393229 0.257812 0.335938C0.34375 0.278646 0.515625 0.25 0.773438 0.25H8.98047H17.1875C17.4453 0.25 17.6029 0.278646 17.6602 0.335938C17.7461 0.393229 17.7604 0.507812 17.7031 0.679688C17.6172 0.851562 17.431 1.00911 17.1445 1.15234C12.418 3.73047 9.9974 5.04818 9.88281 5.10547C9.65365 5.22005 9.35286 5.27734 8.98047 5.27734C8.60807 5.27734 8.30729 5.22005 8.07812 5.10547C7.96354 5.04818 5.54297 3.73047 0.816406 1.15234ZM17.5312 1.32422C17.7318 1.29557 17.832 1.29557 17.832 1.32422C17.8607 1.32422 17.875 1.39583 17.875 1.53906V10.3477C17.875 10.5482 17.7604 10.7487 17.5312 10.9492C17.3307 11.1497 17.1302 11.25 16.9297 11.25H8.98047H1.03125C0.802083 11.25 0.572917 11.1497 0.34375 10.9492C0.114583 10.7487 0 10.5482 0 10.3477V1.53906C0 1.28125 0.128906 1.20964 0.386719 1.32422C0.472656 1.38151 0.830729 1.625 1.46094 2.05469C2.09115 2.45573 2.86458 2.97135 3.78125 3.60156C4.72656 4.23177 5.48568 4.73307 6.05859 5.10547L2.49219 9.10156C2.40625 9.1875 2.39193 9.25911 2.44922 9.31641C2.47786 9.34505 2.52083 9.35938 2.57812 9.35938C2.63542 9.33073 2.67839 9.30208 2.70703 9.27344L6.91797 5.70703C7.51953 6.10807 7.90625 6.35156 8.07812 6.4375C8.30729 6.55208 8.60807 6.60938 8.98047 6.60938C9.35286 6.60938 9.65365 6.55208 9.88281 6.4375C10.0547 6.35156 10.4414 6.10807 11.043 5.70703L15.2539 9.27344C15.2826 9.30208 15.3255 9.33073 15.3828 9.35938C15.4401 9.35938 15.4831 9.34505 15.5117 9.31641C15.5404 9.28776 15.5117 9.21615 15.4258 9.10156L11.9023 5.10547C12.4753 4.73307 13.2201 4.23177 14.1367 3.60156C15.0534 2.97135 15.8268 2.45573 16.457 2.05469C17.0872 1.625 17.4453 1.38151 17.5312 1.32422Z" fill="#35973F"/>
</svg>
