<svg width="100" height="85" viewBox="0 0 100 85" fill="none" xmlns="http://www.w3.org/2000/svg">
<circle opacity="0.2" cx="50" cy="42" r="40" fill="#35973F"/>
<path d="M54.4679 78.6927H5.34031C4.47937 78.6927 3.78064 77.994 3.78064 77.1331V7.9127C3.78064 7.05176 4.47937 6.35303 5.34031 6.35303H90.5692C91.4301 6.35303 92.1288 7.05176 92.1288 7.9127V54.5594C92.1288 55.4203 91.4301 56.1191 90.5692 56.1191C89.7082 56.1191 89.0095 55.4203 89.0095 54.5594V9.47237H6.89999V75.5734H54.4679C55.3289 75.5734 56.0276 76.2721 56.0276 77.1331C56.0276 77.994 55.3289 78.6927 54.4679 78.6927Z" fill="#262626"/>
<path d="M94.3498 9.47241H1.55967C0.698734 9.47241 0 8.77368 0 7.91274V1.55967C0 0.698734 0.698734 0 1.55967 0H94.3498C95.2108 0 95.9095 0.698734 95.9095 1.55967V7.91274C95.9095 8.77368 95.2108 9.47241 94.3498 9.47241ZM3.11935 6.35307H92.7902V3.11935H3.11935V6.35307Z" fill="#262626"/>
<path d="M89.7082 84.7381C89.4462 84.7381 89.18 84.6715 88.9346 84.5322C88.1859 84.1038 87.9281 83.1514 88.3544 82.4048L95.1712 70.4847L85.73 59.7313V83.1639C85.73 84.0248 85.0312 84.7235 84.1703 84.7235C83.3094 84.7235 82.6106 84.0248 82.6106 83.1639V55.5909C82.6106 54.9421 83.012 54.3598 83.6213 54.131C84.2285 53.9023 84.9148 54.0728 85.3432 54.5615L98.251 69.262C98.6898 69.7631 98.7626 70.4868 98.434 71.065L91.0641 83.952C90.7771 84.4553 90.2509 84.7381 89.7082 84.7381ZM61.0892 84.7235C60.2283 84.7235 59.5295 84.0248 59.5295 83.1639V56.1295C59.5295 55.2686 60.2283 54.5698 61.0892 54.5698C61.9502 54.5698 62.6489 55.2686 62.6489 56.1295V83.1639C62.6489 84.0248 61.9502 84.7235 61.0892 84.7235Z" fill="#262626"/>
<path d="M72.319 61.6403C71.458 61.6403 70.7593 60.9416 70.7593 60.0806V59.4568C70.7593 58.5958 71.458 57.8971 72.319 57.8971C73.1799 57.8971 73.8786 58.5958 73.8786 59.4568V60.0806C73.8786 60.9416 73.1799 61.6403 72.319 61.6403Z" fill="#262626"/>
<path d="M72.319 77.6529C71.458 77.6529 70.7593 76.9542 70.7593 76.0932V65.2795C70.7593 64.4186 71.458 63.7198 72.319 63.7198C73.1799 63.7198 73.8786 64.4186 73.8786 65.2795V76.0932C73.8786 76.9542 73.1799 77.6529 72.319 77.6529Z" fill="#262626"/>
<path d="M12.232 56.4934C11.9242 56.4934 11.6123 56.4019 11.3419 56.2127C10.6349 55.7198 10.4623 54.7486 10.9551 54.0416L21.4237 39.0251C21.8645 38.3929 22.7026 38.1766 23.3951 38.5197L30.7463 42.161L40.6492 27.0073C40.9009 26.6225 41.3064 26.3688 41.7618 26.3127C42.2172 26.2565 42.6726 26.4021 43.0116 26.712L49.791 32.9486L63.6762 15.5551C64.2128 14.8813 65.1943 14.7711 65.8681 15.3097C66.5419 15.8462 66.6521 16.8278 66.1135 17.5016L51.1843 36.2031C50.914 36.5421 50.5168 36.7521 50.0842 36.7854C49.6517 36.8186 49.2274 36.671 48.9093 36.3778L42.2547 30.2535L32.6013 45.0246C32.1688 45.6859 31.312 45.9188 30.6029 45.5695L23.2142 41.9094L13.5151 55.8238C13.2115 56.2605 12.7248 56.4934 12.232 56.4934Z" fill="#262626"/>
<path d="M72.2025 55.5785C69.497 55.5785 66.7936 55.0398 64.2232 53.9626L63.3976 53.6174C62.8174 53.3741 62.441 52.8085 62.441 52.1784V42.6394C62.441 37.3552 66.7499 32.984 72.0465 32.8946C74.6502 32.8509 77.1061 33.847 78.9881 35.6978C80.8951 37.5715 81.9869 40.171 81.9869 42.8266V52.1763C81.9869 52.8106 81.6042 53.3804 81.0178 53.6195L80.0113 54.0313C77.4929 55.0627 74.8477 55.5785 72.2025 55.5785ZM65.5604 51.1407C69.8401 52.8937 74.5483 52.8979 78.8342 51.1469L78.8696 51.1323V42.8286C78.8696 41.0028 78.1168 39.2144 76.8025 37.923C75.5194 36.6627 73.8516 35.9827 72.0985 36.0139C68.4926 36.0742 65.5583 39.048 65.5583 42.6394V51.1407H65.5604Z" fill="#262626"/>
<path d="M72.1109 35.438C71.25 35.438 70.5513 34.7392 70.5513 33.8783V28.4714C70.5513 27.6105 71.25 26.9117 72.1109 26.9117C72.9719 26.9117 73.6706 27.6105 73.6706 28.4714V33.8783C73.6706 34.7392 72.9719 35.438 72.1109 35.438Z" fill="#262626"/>
<path d="M72.111 30.973C70.1271 30.973 68.5133 29.3593 68.5133 27.3754C68.5133 25.3915 70.1271 23.7777 72.111 23.7777C74.0949 23.7777 75.7086 25.3915 75.7086 27.3754C75.7086 29.3593 74.0949 30.973 72.111 30.973ZM72.111 26.895C71.8468 26.895 71.6327 27.1092 71.6327 27.3733C71.6327 27.6374 71.8468 27.8516 72.111 27.8516C72.3751 27.8516 72.5893 27.6374 72.5893 27.3733C72.5913 27.1092 72.3751 26.895 72.111 26.895Z" fill="#262626"/>
<path d="M49.0902 65.5646C48.6722 65.5646 48.2605 65.3961 47.959 65.0779L39.3412 56.0069C38.7486 55.383 38.7735 54.3952 39.3974 53.8025C40.0213 53.2099 41.009 53.2348 41.6017 53.8587L49.4562 62.1291L60.4467 57.1881C61.2328 56.8345 62.1561 57.186 62.5097 57.97C62.8632 58.7561 62.5118 59.6794 61.7257 60.0329L49.7266 65.4294C49.5228 65.5188 49.3065 65.5646 49.0902 65.5646Z" fill="#262626"/>
<path d="M49.0902 67.4008C46.8734 67.4008 45.0684 65.5978 45.0684 63.381C45.0684 61.1642 46.8713 59.3612 49.0902 59.3612C51.3091 59.3612 53.11 61.1642 53.11 63.381C53.11 65.5978 51.3071 67.4008 49.0902 67.4008ZM49.0902 62.4785C48.5932 62.4785 48.1877 62.8819 48.1877 63.3789C48.1877 63.8759 48.5911 64.2794 49.0902 64.2794C49.5893 64.2794 49.9907 63.8759 49.9907 63.3789C49.9907 62.884 49.5873 62.4785 49.0902 62.4785Z" fill="#262626"/>
<path d="M95.9782 74.5336C93.7614 74.5336 91.9584 72.7306 91.9584 70.5138C91.9584 68.297 93.7614 66.494 95.9782 66.494C98.195 66.494 99.998 68.297 99.998 70.5138C100 72.7285 98.195 74.5336 95.9782 74.5336ZM95.9782 69.6113C95.4812 69.6113 95.0777 70.0147 95.0777 70.5117C95.0777 71.0088 95.4812 71.4122 95.9782 71.4122C96.4752 71.4122 96.8786 71.0088 96.8786 70.5117C96.8807 70.0147 96.4752 69.6113 95.9782 69.6113Z" fill="#262626"/>
<path d="M75.5423 45.7316H68.8877C68.0267 45.7316 67.328 45.0329 67.328 44.172C67.328 43.311 68.0267 42.6123 68.8877 42.6123H75.5423C76.4032 42.6123 77.102 43.311 77.102 44.172C77.102 45.0329 76.4032 45.7316 75.5423 45.7316Z" fill="#262626"/>
<path d="M37.8377 57.1112C36.2136 57.1112 34.6019 56.4207 33.479 55.0815C32.9258 54.4223 33.0111 53.4386 33.6724 52.8834C34.3316 52.3302 35.3152 52.4155 35.8705 53.0768C36.3093 53.6008 36.9269 53.9232 37.609 53.9835C38.2911 54.0438 38.9545 53.8338 39.4785 53.395C40.0026 52.9562 40.3249 52.3386 40.3852 51.6565C40.4455 50.9744 40.2355 50.311 39.7967 49.7869C39.2435 49.1277 39.3288 48.1441 39.9901 47.5888C40.6493 47.0357 41.6329 47.1209 42.1882 47.7822C43.1635 48.9447 43.6272 50.4191 43.4941 51.9289C43.361 53.4407 42.6478 54.8091 41.4853 55.7844C40.4205 56.6765 39.125 57.1112 37.8377 57.1112Z" fill="#262626"/>
</svg>
