<svg width="90" height="90" viewBox="0 0 90 90" fill="none" xmlns="http://www.w3.org/2000/svg">
<path d="M89.8779 60.9105L85.378 50.4105L85.372 50.4135C85.3645 50.3955 85.363 50.3745 85.354 50.3565C85.105 49.833 84.5785 49.5 83.9995 49.5H78.7032L79.1517 48.9615C79.6197 48.399 79.6152 47.58 79.1367 47.025L70.137 36.525L70.1355 36.5265C69.855 36.198 69.444 36 69 36H49.5006C49.0866 36 48.6906 36.171 48.4071 36.474L36.196 49.5H30.0012C29.5872 49.5 29.1912 49.671 28.9077 49.974L6.40839 73.974C6.40089 73.9815 6.39789 73.992 6.39039 73.9995C6.3379 74.058 6.2974 74.1285 6.2539 74.1945C6.2179 74.25 6.1759 74.3025 6.1474 74.3625C6.1429 74.373 6.1339 74.3805 6.1294 74.391L0.129585 87.891C-0.0774085 88.356 -0.0339098 88.8915 0.242082 89.3175C0.518073 89.7435 0.993559 90 1.50204 90H36.001H70.4999C71.0024 90 71.4689 89.748 71.7464 89.331L71.7479 89.3325L71.7554 89.3205C71.7554 89.319 71.7569 89.319 71.7584 89.3175C71.7584 89.316 71.7584 89.316 71.7599 89.3145L89.7474 62.3325C90.0294 61.911 90.0788 61.3755 89.8779 60.9105ZM80.8481 52.5L63.7862 73.5H58.7028L76.2028 52.5H80.8481ZM69.0315 39.84L76.0348 48.012L74.3488 50.037L74.3473 50.0385L55.8919 72.186L51.245 61.7325L69.0315 39.84ZM53.192 73.5H42.0008H30.0012H23.3099L26.8648 65.5005L27.9747 63H48.5256L53.192 73.5ZM50.1516 39H65.8501L48.7866 60H30.4647L50.1516 39ZM30.6522 52.5H33.3821L25.9078 60.474C25.9003 60.4815 25.8973 60.4905 25.8913 60.498C25.8388 60.5565 25.7983 60.627 25.7548 60.693C25.7188 60.7485 25.6768 60.801 25.6483 60.861C25.6438 60.8715 25.6348 60.879 25.6303 60.8895L20.0265 73.5H10.9653L30.6522 52.5ZM3.81047 87L8.47533 76.5H21.0015H29.0277L33.6926 87H3.81047ZM32.3096 76.5H39.6924L36.001 84.8055L32.3096 76.5ZM38.3094 87L42.9743 76.5H55.5004H63.5267L68.1915 87H38.3094ZM70.7639 85.3995L66.2446 75.231L83.599 53.871L86.7999 61.3425L70.7639 85.3995Z" fill="white"/>
<path d="M13.5017 6C11.0207 6 9.0018 3.981 9.0018 1.5C9.0018 0.6705 8.33132 0 7.50185 0C6.67237 0 6.00189 0.6705 6.00189 1.5C6.00189 3.981 3.98295 6 1.50203 6C0.672555 6 0.0020752 6.6705 0.0020752 7.5C0.0020752 8.3295 0.672555 9 1.50203 9C3.98295 9 6.00189 11.019 6.00189 13.5C6.00189 14.3295 6.67237 15 7.50185 15C8.33132 15 9.0018 14.3295 9.0018 13.5C9.0018 11.019 11.0207 9 13.5017 9C14.3311 9 15.0016 8.3295 15.0016 7.5C15.0016 6.6705 14.3311 6 13.5017 6ZM7.50185 9.0045C7.07436 8.4345 6.56738 7.9275 5.99739 7.5C6.56738 7.0725 7.07436 6.5655 7.50185 5.9955C7.92933 6.5655 8.43632 7.0725 9.0063 7.5C8.43632 7.9275 7.92933 8.4345 7.50185 9.0045Z" fill="white"/>
<path d="M36.0009 33C33.52 33 31.5011 30.981 31.5011 28.5C31.5011 27.6705 30.8306 27 30.0011 27C29.1716 27 28.5012 27.6705 28.5012 28.5C28.5012 30.981 26.4822 33 24.0013 33C23.1718 33 22.5013 33.6705 22.5013 34.5C22.5013 35.3295 23.1718 36 24.0013 36C26.4822 36 28.5012 38.019 28.5012 40.5C28.5012 41.3295 29.1716 42 30.0011 42C30.8306 42 31.5011 41.3295 31.5011 40.5C31.5011 38.019 33.52 36 36.0009 36C36.8304 36 37.5009 35.3295 37.5009 34.5C37.5009 33.6705 36.8304 33 36.0009 33ZM30.0011 36.0045C29.5736 35.4345 29.0666 34.9275 28.4967 34.5C29.0666 34.0725 29.5736 33.5655 30.0011 32.9955C30.4286 33.5655 30.9356 34.0725 31.5056 34.5C30.9356 34.9275 30.4286 35.4345 30.0011 36.0045Z" fill="white"/>
<path d="M40.501 1.5H37.501V4.5H40.501V1.5Z" fill="white"/>
<path d="M10.5018 21H7.50183V24H10.5018V21Z" fill="white"/>
<path d="M88.4993 12C82.711 12 77.9997 7.2885 77.9997 1.5C77.9997 0.6705 77.3292 0 76.4997 0C75.6702 0 74.9998 0.6705 74.9998 1.5C74.9998 7.2885 70.2884 12 64.5001 12C63.6706 12 63.0001 12.6705 63.0001 13.5C63.0001 14.3295 63.6706 15 64.5001 15C70.2884 15 74.9998 19.7115 74.9998 25.5C74.9998 26.3295 75.6702 27 76.4997 27C77.3292 27 77.9997 26.3295 77.9997 25.5C77.9997 19.7115 82.711 15 88.4993 15C89.3288 15 89.9993 14.3295 89.9993 13.5C89.9993 12.6705 89.3288 12 88.4993 12ZM76.4997 19.3185C75.2128 16.8285 73.1713 14.787 70.6814 13.5C73.1713 12.213 75.2128 10.1715 76.4997 7.6815C77.7867 10.1715 79.8281 12.213 82.318 13.5C79.8281 14.787 77.7867 16.8285 76.4997 19.3185Z" fill="white"/>
<path d="M64.5002 27H61.5002V30H64.5002V27Z" fill="white"/>
<path d="M89.9994 37.5H86.9994V40.5H89.9994V37.5Z" fill="white"/>
<path d="M3.00208 52.5H0.0020752V55.5H3.00208V52.5Z" fill="white"/>
</svg>
