<svg width="100" height="98" viewBox="0 0 100 98" fill="none" xmlns="http://www.w3.org/2000/svg">
<circle opacity="0.2" cx="50" cy="49" r="40" fill="#35973F"/>
<path d="M29.9986 97.1491C29.8109 97.1491 29.6252 97.1153 29.4502 97.0521L20.0399 93.5736C19.4176 93.3436 19.0062 92.7509 19.0062 92.0885V79.6849C19.0062 79.3495 19.1138 79.0225 19.3121 78.7504L23.0859 73.5949C23.2526 73.367 23.4762 73.1877 23.7356 73.0759C24.2757 72.8418 36.9409 67.3804 41.4614 66.2096C42.0584 65.986 42.6786 65.8616 43.3093 65.8405L60.9085 65.2751C60.9718 65.273 61.0351 65.273 61.0963 65.273C64.1508 65.273 66.7665 67.6546 66.969 70.6627C67.0766 72.2469 66.5492 73.7657 65.4861 74.9407C64.4229 76.1157 62.9632 76.7928 61.379 76.8434L54.846 77.0544L47.6253 77.2653C47.1654 77.2801 46.8005 77.6661 46.8131 78.126C46.8258 78.5879 47.2181 78.9487 47.6738 78.9381L68.6123 78.1935C68.6334 78.1935 68.6714 78.1893 68.7684 78.1661C68.8043 78.1555 68.8338 78.1471 68.8802 78.1386C68.9097 78.1323 68.9688 78.1112 69.0047 78.0943L91.9619 61.2144C91.9725 61.206 91.983 61.1997 91.9914 61.1933C93.1348 60.3939 94.5186 60.1006 95.8876 60.3685C97.2567 60.6364 98.4274 61.4296 99.1868 62.6004C100.672 64.8933 100.069 67.931 97.8199 69.5489L74.8985 88.6606C74.8774 88.6775 74.8563 88.6944 74.8352 88.7113C74.0653 89.2871 73.2067 89.7111 72.2806 89.9664C63.4589 92.4091 48.4796 96.5352 47.2688 96.7356C45.7837 96.9824 32.6354 97.1217 30.0155 97.1491C30.0092 97.1491 30.0028 97.1491 29.9986 97.1491ZM22.1704 90.9874L30.275 93.9828C36.2384 93.9216 45.7436 93.7718 46.752 93.6157C47.581 93.4681 57.2718 90.8397 71.4369 86.9182C71.9684 86.7705 72.4642 86.5301 72.9093 86.2031L95.8454 67.0808C95.8792 67.0513 95.915 67.026 95.9509 67.0007C96.8305 66.3847 97.0921 65.1844 96.5352 64.3238C96.2462 63.8787 95.8032 63.577 95.2843 63.4758C94.7717 63.3745 94.2507 63.4821 93.8204 63.7795L70.8146 80.6932C70.7893 80.7122 70.7661 80.7291 70.7407 80.7459C70.2809 81.0455 69.7746 81.1805 69.5784 81.2269C69.3548 81.2838 69.0595 81.3471 68.7178 81.3577L47.7793 82.1023C46.6971 82.1361 45.6846 81.7479 44.9062 81.0138C44.1299 80.2797 43.6827 79.2883 43.6532 78.2209C43.5899 76.0165 45.3302 74.1707 47.5346 74.1053L54.751 73.8944L61.2798 73.6856C61.9991 73.6624 62.6594 73.3565 63.1425 72.8228C63.6255 72.2891 63.8639 71.6014 63.8154 70.88C63.7205 69.4899 62.4695 68.3908 61.0119 68.4415L43.4127 69.0068C43.1131 69.0173 42.8178 69.0785 42.5288 69.1924C42.4655 69.2177 42.398 69.2388 42.3326 69.2557C38.5546 70.2071 27.6044 74.8626 25.3852 75.814L22.1725 80.2038V90.9874H22.1704Z" fill="#262626"/>
<path d="M88.6585 75.9027C88.1839 75.9027 87.7156 75.6896 87.4034 75.2846L83.792 70.5889C83.2583 69.897 83.3891 68.9035 84.081 68.3698C84.775 67.8361 85.7665 67.9669 86.3002 68.6588L89.9116 73.3544C90.4453 74.0463 90.3145 75.0399 89.6226 75.5736C89.3336 75.7951 88.9939 75.9027 88.6585 75.9027Z" fill="#262626"/>
<path d="M72.5823 88.9053C71.941 88.9053 71.3356 88.5108 71.0994 87.8738L68.4815 80.8303C68.1778 80.0118 68.5933 79.1005 69.4139 78.7968C70.2324 78.4909 71.1437 78.9086 71.4474 79.7292L74.0653 86.7726C74.369 87.5911 73.9535 88.5024 73.1329 88.8062C72.9515 88.8737 72.7658 88.9053 72.5823 88.9053Z" fill="#262626"/>
<path d="M30.9542 97.1386C30.5745 97.1386 30.1948 97.0036 29.8932 96.7293C29.2456 96.1429 29.1949 95.143 29.7814 94.4954L44.3788 78.3749C44.9653 77.7273 45.9651 77.6767 46.6127 78.2631C47.2604 78.8495 47.311 79.8494 46.7245 80.497L32.1271 96.6175C31.8149 96.9635 31.3846 97.1386 30.9542 97.1386Z" fill="#262626"/>
<path d="M46.1424 76.8013C45.5876 76.8013 45.0497 76.5102 44.7607 75.9913L40.5629 68.4921C40.1368 67.7306 40.4089 66.7666 41.1704 66.3384C41.9319 65.9123 42.8959 66.1844 43.3241 66.9459L47.522 74.445C47.9481 75.2065 47.676 76.1706 46.9144 76.5988C46.6698 76.7359 46.404 76.8013 46.1424 76.8013Z" fill="#262626"/>
<path d="M54.6456 75.9406C53.7723 75.9406 53.0635 75.2318 53.0635 74.3585V67.6082C53.0635 66.7349 53.7723 66.0261 54.6456 66.0261C55.5189 66.0261 56.2277 66.7349 56.2277 67.6082V74.3585C56.2277 75.2318 55.521 75.9406 54.6456 75.9406Z" fill="#262626"/>
<path d="M19.9449 81.3197H11.718C10.8447 81.3197 10.1359 80.6109 10.1359 79.7376C10.1359 78.8643 10.8447 78.1555 11.718 78.1555H19.9449C20.8182 78.1555 21.527 78.8643 21.527 79.7376C21.527 80.6109 20.8203 81.3197 19.9449 81.3197Z" fill="#262626"/>
<path d="M19.9449 93.3436H11.718C10.8447 93.3436 10.1359 92.6349 10.1359 91.7615C10.1359 90.8882 10.8447 90.1794 11.718 90.1794H19.9449C20.8182 90.1794 21.527 90.8882 21.527 91.7615C21.527 92.6349 20.8203 93.3436 19.9449 93.3436Z" fill="#262626"/>
<path d="M19.9449 87.6481H11.718C10.8447 87.6481 10.1359 86.9393 10.1359 86.066C10.1359 85.1927 10.8447 84.4839 11.718 84.4839H19.9449C20.8182 84.4839 21.527 85.1927 21.527 86.066C21.527 86.9393 20.8203 87.6481 19.9449 87.6481Z" fill="#262626"/>
<path d="M7.45694 97.801H1.5821C0.708779 97.801 0 97.0922 0 96.2189C0 95.3455 0.708779 94.6368 1.5821 94.6368H7.45694C8.52644 94.6368 9.39554 93.7677 9.39554 92.6982V78.742C9.39554 77.6725 8.52644 76.8013 7.45694 76.8013H1.5821C0.708779 76.8013 0 76.0925 0 75.2192C0 74.3459 0.708779 73.6371 1.5821 73.6371H7.45694C10.271 73.6371 12.5597 75.9259 12.5597 78.742V92.6982C12.5618 95.5122 10.2731 97.801 7.45694 97.801Z" fill="#262626"/>
<path d="M35.4832 59.0565H21.527C20.6537 59.0565 19.9449 58.3477 19.9449 57.4744V29.7772C19.9449 28.9038 20.6537 28.1951 21.527 28.1951H35.4832C36.3566 28.1951 37.0653 28.9038 37.0653 29.7772V57.4744C37.0653 58.3498 36.3566 59.0565 35.4832 59.0565ZM23.1091 55.8923H33.9011V31.3593H23.1091V55.8923Z" fill="#262626"/>
<path d="M43.0372 59.0564H35.4832C34.6099 59.0564 33.9011 58.3476 33.9011 57.4743V13.2115C33.9011 12.3382 34.6099 11.6294 35.4832 11.6294H47.2076C48.0809 11.6294 48.7897 12.3382 48.7897 13.2115V25.1257C48.7897 25.999 48.0809 26.7078 47.2076 26.7078C46.3343 26.7078 45.6255 25.999 45.6255 25.1257V14.7936H37.0653V55.8943H43.0372C43.9105 55.8943 44.6193 56.6031 44.6193 57.4764C44.6193 58.3497 43.9126 59.0564 43.0372 59.0564Z" fill="#262626"/>
<path d="M34.9221 36.3881H22.2654C21.6832 36.3881 21.2106 35.9156 21.2106 35.3334C21.2106 34.7512 21.6832 34.2787 22.2654 34.2787H34.9221C35.5043 34.2787 35.9769 34.7512 35.9769 35.3334C35.9769 35.9156 35.5064 36.3881 34.9221 36.3881Z" fill="#262626"/>
<path d="M34.9221 41.8728H22.2654C21.6832 41.8728 21.2106 41.4002 21.2106 40.818C21.2106 40.2358 21.6832 39.7633 22.2654 39.7633H34.9221C35.5043 39.7633 35.9769 40.2358 35.9769 40.818C35.9769 41.4002 35.5064 41.8728 34.9221 41.8728Z" fill="#262626"/>
<path d="M34.9221 47.3574H22.2654C21.6832 47.3574 21.2106 46.8849 21.2106 46.3027C21.2106 45.7204 21.6832 45.2479 22.2654 45.2479H34.9221C35.5043 45.2479 35.9769 45.7204 35.9769 46.3027C35.9769 46.8849 35.5064 47.3574 34.9221 47.3574Z" fill="#262626"/>
<path d="M34.9221 52.842H22.2654C21.6832 52.842 21.2106 52.3695 21.2106 51.7873C21.2106 51.2051 21.6832 50.7325 22.2654 50.7325H34.9221C35.5043 50.7325 35.9769 51.2051 35.9769 51.7873C35.9769 52.3695 35.5064 52.842 34.9221 52.842Z" fill="#262626"/>
<path d="M42.3052 36.3881H35.7659C35.1837 36.3881 34.7112 35.9156 34.7112 35.3334C34.7112 34.7512 35.1837 34.2787 35.7659 34.2787H42.3052C42.8875 34.2787 43.36 34.7512 43.36 35.3334C43.36 35.9156 42.8896 36.3881 42.3052 36.3881Z" fill="#262626"/>
<path d="M45.4694 30.9035H35.7659C35.1837 30.9035 34.7112 30.431 34.7112 29.8488C34.7112 29.2666 35.1837 28.7941 35.7659 28.7941H45.4694C46.0516 28.7941 46.5242 29.2666 46.5242 29.8488C46.5242 30.431 46.0538 30.9035 45.4694 30.9035Z" fill="#262626"/>
<path d="M47.157 25.208H35.7659C35.1837 25.208 34.7112 24.7355 34.7112 24.1532C34.7112 23.571 35.1837 23.0985 35.7659 23.0985H47.157C47.7392 23.0985 48.2117 23.571 48.2117 24.1532C48.2117 24.7355 47.7413 25.208 47.157 25.208Z" fill="#262626"/>
<path d="M47.157 19.9344H35.7659C35.1837 19.9344 34.7112 19.4619 34.7112 18.8797C34.7112 18.2975 35.1837 17.825 35.7659 17.825H47.157C47.7392 17.825 48.2117 18.2975 48.2117 18.8797C48.2117 19.4619 47.7413 19.9344 47.157 19.9344Z" fill="#262626"/>
<path d="M40.6177 41.8728H35.7659C35.1837 41.8728 34.7112 41.4002 34.7112 40.818C34.7112 40.2358 35.1837 39.7633 35.7659 39.7633H40.6177C41.1999 39.7633 41.6724 40.2358 41.6724 40.818C41.6724 41.4002 41.202 41.8728 40.6177 41.8728Z" fill="#262626"/>
<path d="M40.6177 47.3574H35.7659C35.1837 47.3574 34.7112 46.8849 34.7112 46.3027C34.7112 45.7204 35.1837 45.2479 35.7659 45.2479H40.6177C41.1999 45.2479 41.6724 45.7204 41.6724 46.3027C41.6724 46.8849 41.202 47.3574 40.6177 47.3574Z" fill="#262626"/>
<path d="M40.6177 52.842H35.7659C35.1837 52.842 34.7112 52.3695 34.7112 51.7873C34.7112 51.2051 35.1837 50.7325 35.7659 50.7325H40.6177C41.1999 50.7325 41.6724 51.2051 41.6724 51.7873C41.6724 52.3695 41.202 52.842 40.6177 52.842Z" fill="#262626"/>
<path d="M21.2106 58.9594H7.60462C6.7313 58.9594 6.02252 58.2507 6.02252 57.3773V46.4081C6.02252 45.5348 6.7313 44.826 7.60462 44.826H21.2106C22.084 44.826 22.7927 45.5348 22.7927 46.4081C22.7927 47.2815 22.084 47.9902 21.2106 47.9902H9.18671V55.7952H21.2106C22.084 55.7952 22.7927 56.504 22.7927 57.3773C22.7927 58.2507 22.0861 58.9594 21.2106 58.9594Z" fill="#262626"/>
<path d="M20.7887 52.842H8.13194C7.54973 52.842 7.07721 52.3695 7.07721 51.7873C7.07721 51.2051 7.54973 50.7325 8.13194 50.7325H20.7887C21.3709 50.7325 21.8434 51.2051 21.8434 51.7873C21.8434 52.3695 21.373 52.842 20.7887 52.842Z" fill="#262626"/>
<path d="M68.646 61.841C61.1575 61.841 55.5843 60.9149 51.61 59.0101C46.5199 56.5716 43.9379 52.4982 43.9379 46.9018C43.9379 41.1134 46.6486 33.7873 51.0131 27.7795C56.0905 20.7909 62.3535 16.9432 68.646 16.9432C74.9386 16.9432 81.2015 20.7909 86.279 27.7795C90.6435 33.7852 93.3541 41.1134 93.3541 46.9018C93.3541 52.4982 90.7722 56.5716 85.682 59.0101C81.7057 60.9149 76.1346 61.841 68.646 61.841ZM68.646 20.1074C65.6042 20.1074 59.5986 21.3457 53.5718 29.6401C49.6398 35.0508 47.1 41.8264 47.1 46.9018C47.1 51.2958 48.9669 54.2364 52.9749 56.156C56.5145 57.852 61.6405 58.6768 68.6439 58.6768C75.6473 58.6768 80.7733 57.852 84.313 56.156C88.321 54.2364 90.1879 51.2958 90.1879 46.9018C90.1879 41.8264 87.6481 35.0508 83.716 29.6401C81.1319 26.0793 75.7338 20.1074 68.646 20.1074Z" fill="#262626"/>
<path d="M72.8924 15.9265H64.0327C63.1593 15.9265 62.4506 15.2177 62.4506 14.3444C62.4506 13.4711 63.1593 12.7623 64.0327 12.7623H72.8924C73.7657 12.7623 74.4745 13.4711 74.4745 14.3444C74.4745 15.2177 73.7678 15.9265 72.8924 15.9265Z" fill="#262626"/>
<path d="M74.1391 12.1253C73.8775 12.1253 73.6117 12.0599 73.367 11.9228C72.6055 11.4966 72.3334 10.5326 72.7595 9.769L75.2508 5.31804C74.3859 5.87072 73.2953 5.97619 72.3228 5.59649L71.2386 5.17249C69.5468 4.51012 67.6673 4.47636 65.9459 5.07545L64.2288 5.67243C63.345 5.98041 62.3556 5.8897 61.5498 5.43195L64.271 9.66564C64.7435 10.3997 64.5305 11.3785 63.7964 11.8531C63.0623 12.3257 62.0835 12.1126 61.6089 11.3785L58.6852 6.83263C57.9131 5.63235 58.0734 4.14518 59.0817 3.12842C60.1555 2.04627 61.8114 1.86274 63.1066 2.68121C63.1193 2.68965 63.1572 2.69598 63.1868 2.68543L64.9039 2.08846C67.3361 1.24256 69.9919 1.29319 72.3861 2.22768L73.4704 2.65168C73.502 2.66434 73.5421 2.6559 73.5526 2.64957L73.5822 2.63059C74.8268 1.79102 76.4721 1.91337 77.5796 2.93224C78.6196 3.88993 78.8579 5.3539 78.1724 6.57739L75.5166 11.3216C75.2318 11.8342 74.6939 12.1253 74.1391 12.1253Z" fill="#262626"/>
<path d="M13.5111 4.21892C12.6378 4.21892 11.929 3.51014 11.929 2.63683V1.5821C11.929 0.708779 12.6378 0 13.5111 0C14.3844 0 15.0932 0.708779 15.0932 1.5821V2.63683C15.0932 3.51014 14.3865 4.21892 13.5111 4.21892Z" fill="#262626"/>
<path d="M13.5111 13.7115C12.6378 13.7115 11.929 13.0027 11.929 12.1294V11.2856C11.929 10.4123 12.6378 9.70349 13.5111 9.70349C14.3844 9.70349 15.0932 10.4123 15.0932 11.2856V12.1294C15.0932 13.0027 14.3865 13.7115 13.5111 13.7115Z" fill="#262626"/>
<path d="M9.18669 8.54334H8.13196C7.25864 8.54334 6.54987 7.83456 6.54987 6.96125C6.54987 6.08793 7.25864 5.37915 8.13196 5.37915H9.18669C10.06 5.37915 10.7688 6.08793 10.7688 6.96125C10.7688 7.83456 10.0621 8.54334 9.18669 8.54334Z" fill="#262626"/>
<path d="M18.6793 8.54334H17.8355C16.9622 8.54334 16.2534 7.83456 16.2534 6.96125C16.2534 6.08793 16.9622 5.37915 17.8355 5.37915H18.6793C19.5526 5.37915 20.2614 6.08793 20.2614 6.96125C20.2614 7.83456 19.5547 8.54334 18.6793 8.54334Z" fill="#262626"/>
<path d="M91.983 13.9224C91.1097 13.9224 90.4009 13.2136 90.4009 12.3403V11.2856C90.4009 10.4123 91.1097 9.70349 91.983 9.70349C92.8564 9.70349 93.5651 10.4123 93.5651 11.2856V12.3403C93.5651 13.2136 92.8585 13.9224 91.983 13.9224Z" fill="#262626"/>
<path d="M91.983 23.4151C91.1097 23.4151 90.4009 22.7063 90.4009 21.833V20.9892C90.4009 20.1159 91.1097 19.4071 91.983 19.4071C92.8564 19.4071 93.5651 20.1159 93.5651 20.9892V21.833C93.5651 22.7063 92.8585 23.4151 91.983 23.4151Z" fill="#262626"/>
<path d="M87.6586 18.2468H86.6039C85.7306 18.2468 85.0218 17.5381 85.0218 16.6647C85.0218 15.7914 85.7306 15.0826 86.6039 15.0826H87.6586C88.5319 15.0826 89.2407 15.7914 89.2407 16.6647C89.2407 17.5381 88.534 18.2468 87.6586 18.2468Z" fill="#262626"/>
<path d="M97.1512 18.2468H96.3074C95.4341 18.2468 94.7253 17.5381 94.7253 16.6647C94.7253 15.7914 95.4341 15.0826 96.3074 15.0826H97.1512C98.0245 15.0826 98.7333 15.7914 98.7333 16.6647C98.7333 17.5381 98.0266 18.2468 97.1512 18.2468Z" fill="#262626"/>
<path d="M3.19795 18.6455C4.2919 18.6455 5.17873 17.7587 5.17873 16.6647C5.17873 15.5708 4.2919 14.684 3.19795 14.684C2.10399 14.684 1.21716 15.5708 1.21716 16.6647C1.21716 17.7587 2.10399 18.6455 3.19795 18.6455Z" fill="#262626"/>
<path d="M12.3801 31.0974C13.1537 30.3239 13.1537 29.0697 12.3801 28.2962C11.6066 27.5226 10.3524 27.5226 9.5789 28.2962C8.80536 29.0697 8.80536 30.3239 9.5789 31.0974C10.3524 31.8709 11.6066 31.8709 12.3801 31.0974Z" fill="#262626"/>
</svg>
