<svg width="90" height="74" viewBox="0 0 90 74" fill="none" xmlns="http://www.w3.org/2000/svg">
<path d="M45 59.7656C44.0297 59.7656 43.2422 60.5531 43.2422 61.5234C43.2422 62.4938 44.0297 63.2812 45 63.2812C45.9703 63.2812 46.7578 62.4938 46.7578 61.5234C46.7578 60.5531 45.9703 59.7656 45 59.7656Z" fill="white"/>
<path d="M82.4567 2.70176C78.1311 0.95959 72.5071 0 66.6211 0C60.7351 0 55.1111 0.95959 50.7855 2.70176C48.2293 3.73131 46.2776 4.98955 45 6.40143C43.7224 4.98955 41.7707 3.73148 39.2145 2.70193C34.8889 0.95959 29.2649 0 23.3789 0C17.4929 0 11.8689 0.95959 7.5433 2.70176C2.67891 4.66102 0 7.44715 0 10.5469V52.7344C0 55.8341 2.67891 58.6202 7.5433 60.5795C11.5664 62.1998 16.7129 63.142 22.1484 63.2661V63.2812C22.1484 69.294 31.9725 73.8281 45 73.8281C58.0275 73.8281 67.8516 69.294 67.8516 63.2812V63.2661C73.2871 63.142 78.4336 62.1998 82.4567 60.5795C87.3211 58.6202 90 55.8341 90 52.7344V10.5469C90 7.44715 87.3211 4.66102 82.4567 2.70176ZM86.4844 42.1875C86.4844 43.6881 84.4378 45.4445 81.1433 46.7715C77.5775 48.2077 72.7903 49.0765 67.8516 49.2013V42.1875C67.8516 42.1824 67.8512 42.1773 67.8512 42.1724C73.2869 42.0485 78.4334 41.1063 82.4569 39.4857C84.0359 38.8498 85.3829 38.1262 86.4846 37.3335L86.4844 42.1875ZM43.2422 21.0938C43.2422 22.5944 41.1956 24.3508 37.9011 25.6778C34.0397 27.2331 28.7466 28.125 23.3789 28.125C18.0112 28.125 12.7181 27.2331 8.85674 25.6778C5.56225 24.3508 3.51562 22.5944 3.51562 21.0938V16.2397C4.61725 17.0325 5.96426 17.756 7.5433 18.392C11.8689 20.1342 17.4929 21.0938 23.3789 21.0938C29.2649 21.0938 34.8889 20.1342 39.2145 18.392C40.7936 17.756 42.1406 17.0325 43.2422 16.2397V21.0938ZM7.5433 28.9389C11.8689 30.681 17.4929 31.6406 23.3789 31.6406C29.2649 31.6406 34.8889 30.681 39.2145 28.9389C40.7936 28.3029 42.1406 27.5794 43.2422 26.7866V31.6717C38.6947 31.8257 34.3336 32.5721 30.8062 33.8143C27.2682 35.0604 24.7224 36.7221 23.3379 38.6713C17.9844 38.6668 12.7083 37.7759 8.85674 36.2246C5.56225 34.8977 3.51562 33.1413 3.51562 31.6406V26.7866C4.61725 27.5794 5.96426 28.3029 7.5433 28.9389ZM3.51562 37.3335C4.61725 38.1262 5.96426 38.8498 7.5433 39.4857C11.5666 41.1061 16.7133 42.0483 22.149 42.1724C22.149 42.1775 22.1486 42.1826 22.1486 42.1875V49.2013C17.2097 49.0765 12.4226 48.2077 8.85691 46.7715C5.56225 45.4445 3.51562 43.6881 3.51562 42.1875V37.3335ZM25.85 41.3239C27.1528 38.2922 34.6718 35.1562 45 35.1562C55.3282 35.1562 62.8472 38.2922 64.1486 41.3204C64.2748 41.6159 64.3359 41.8994 64.3359 42.1875C64.3359 43.733 62.4306 45.4496 59.2392 46.7794C55.4641 48.3525 50.4072 49.2188 45 49.2188C39.5928 49.2188 34.5359 48.3525 30.7608 46.7794C27.5694 45.4496 25.6641 43.733 25.6641 42.1875C25.6641 41.8994 25.7254 41.6159 25.85 41.3239ZM86.4844 31.6406C86.4844 33.1413 84.4378 34.8977 81.1433 36.2246C77.2919 37.7759 72.016 38.6668 66.6626 38.6713C65.2792 36.7232 62.733 35.0608 59.1938 33.8143C55.6664 32.5719 51.3053 31.8257 46.7578 31.6717V26.7866C47.8594 27.5794 49.2064 28.3029 50.7855 28.9389C55.1111 30.681 60.7351 31.6406 66.6211 31.6406C72.5071 31.6406 78.1311 30.681 82.4567 28.9389C84.0357 28.3029 85.3828 27.5794 86.4844 26.7866V31.6406ZM86.4844 21.0938C86.4844 22.5944 84.4378 24.3508 81.1433 25.6778C77.2819 27.2331 71.9887 28.125 66.6211 28.125C61.2534 28.125 55.9603 27.2331 52.0989 25.6778C48.8044 24.3508 46.7578 22.5944 46.7578 21.0938V16.2397C47.8594 17.0325 49.2064 17.756 50.7855 18.392C55.1111 20.1342 60.7351 21.0938 66.6211 21.0938C72.5071 21.0938 78.1311 20.1342 82.4567 18.392C84.0357 17.756 85.3828 17.0325 86.4844 16.2397V21.0938ZM52.0989 5.96285C55.9603 4.40754 61.2534 3.51562 66.6211 3.51562C71.9887 3.51562 77.2819 4.40754 81.1433 5.96285C84.4378 7.28982 86.4844 9.04623 86.4844 10.5469C86.4844 12.0475 84.4378 13.8039 81.1433 15.1309C77.2819 16.6862 71.9887 17.5781 66.6211 17.5781C61.2534 17.5781 55.9603 16.6862 52.0989 15.1309C48.8044 13.8039 46.7578 12.0475 46.7578 10.5469C46.7578 9.04623 48.8044 7.28982 52.0989 5.96285ZM8.85674 5.96285C12.7181 4.40754 18.0112 3.51562 23.3789 3.51562C28.7466 3.51562 34.0397 4.40754 37.9011 5.96285C41.1956 7.28982 43.2422 9.04623 43.2422 10.5469C43.2422 12.0475 41.1956 13.8039 37.9011 15.1309C34.0397 16.6862 28.7466 17.5781 23.3789 17.5781C18.0112 17.5781 12.7181 16.6862 8.85674 15.1309C5.56225 13.8039 3.51562 12.0475 3.51562 10.5469C3.51562 9.04623 5.56225 7.28982 8.85674 5.96285ZM8.85674 57.3184C5.56225 55.9914 3.51562 54.235 3.51562 52.7344V47.8803C4.61725 48.6731 5.96426 49.3966 7.5433 50.0326C11.5664 51.653 16.7129 52.5952 22.1484 52.7193V59.7484C17.2095 59.6234 12.4225 58.7547 8.85674 57.3184ZM59.2392 67.8732C55.4641 69.4463 50.4072 70.3125 45 70.3125C39.5928 70.3125 34.5359 69.4463 30.7608 67.8732C27.5694 66.5434 25.6641 64.8267 25.6641 63.2812V58.5297C26.0622 58.8178 26.5022 59.1042 26.9902 59.3865C29.7199 60.966 33.4339 62.1345 37.7311 62.7652C37.8178 62.7778 37.9035 62.784 37.9886 62.784C38.8464 62.784 39.5972 62.1552 39.7255 61.2812C39.8665 60.3207 39.202 59.4278 38.2417 59.2868C30.0723 58.0874 25.6641 55.0158 25.6641 52.7344V47.9672C29.6427 50.8785 36.6657 52.7344 45 52.7344C53.3343 52.7344 60.3573 50.8785 64.3359 47.9672V52.7344C64.3359 55.0158 59.9277 58.0874 51.7583 59.2868C50.7978 59.4278 50.1333 60.3207 50.2745 61.2812C50.4028 62.1554 51.1536 62.784 52.0114 62.784C52.0963 62.784 52.1824 62.7778 52.2689 62.7652C56.5659 62.1345 60.28 60.9662 63.0098 59.3865C63.4976 59.1042 63.9378 58.8178 64.3359 58.5297V63.2812C64.3359 64.8267 62.4306 66.5434 59.2392 67.8732ZM81.1433 57.3184C77.5775 58.7545 72.7903 59.6234 67.8516 59.7482V52.7191C73.2871 52.595 78.4336 51.6528 82.4567 50.0324C84.0357 49.3965 85.3828 48.673 86.4844 47.8802V52.7344C86.4844 54.235 84.4378 55.9914 81.1433 57.3184Z" fill="white"/>
</svg>
