<svg width="100" height="100" viewBox="0 0 100 100" fill="none" xmlns="http://www.w3.org/2000/svg">
<circle opacity="0.2" cx="50" cy="50" r="40" fill="#35973F"/>
<path d="M67.6996 64.2548C67.1322 64.2548 66.5876 63.9436 66.3152 63.4016L64.6111 60.0113C64.3738 59.5393 64.3945 58.9787 64.6668 58.5232C64.9391 58.0698 65.424 57.7854 65.9521 57.771C67.1529 57.738 67.6707 57.5299 67.8564 57.4248C65.0897 52.7773 65.065 51.3882 65.2754 48.4781C65.3291 47.7238 65.391 46.8706 65.3992 45.7638C65.3992 45.6093 65.4116 45.4732 65.4219 45.364C65.426 45.3166 65.4322 45.2692 65.4322 45.2218C65.3641 41.8315 63.5837 38.536 60.4229 35.9392C57.3551 33.4228 53.4784 31.978 49.7834 31.978C42.319 31.978 36.2451 38.0455 36.2451 45.5021C36.2451 46.3553 35.5519 47.0478 34.6977 47.0478C33.8436 47.0478 33.1504 46.3553 33.1504 45.5021C33.1504 36.339 40.6127 28.8866 49.7834 28.8866C58.4753 28.8866 68.3371 35.8465 68.5269 45.16C68.531 45.3496 68.5166 45.5103 68.5042 45.6402C68.5001 45.6876 68.4939 45.735 68.4939 45.7824C68.4856 46.9901 68.4176 47.9381 68.3619 48.6986C68.1865 51.1326 68.1329 51.8684 70.6189 56.0151C70.6354 56.0439 70.6519 56.0707 70.6664 56.0996C71.015 56.7735 71.2049 57.9256 70.5942 58.9561C70.1485 59.7104 69.4037 60.238 68.3412 60.543L69.0778 62.0104C69.4615 62.773 69.1541 63.7025 68.3887 64.0858C68.17 64.2012 67.9327 64.2548 67.6996 64.2548Z" fill="#262626"/>
<path d="M61.9723 75.8701C53.3133 75.8701 49.4862 71.3401 49.3273 71.1464C49.2097 71.0021 49.1169 70.8393 49.0571 70.6642L43.9797 55.7799C43.8188 55.3079 43.8951 54.7865 44.186 54.3825C44.4769 53.9765 44.9453 53.7375 45.4445 53.7375C48.533 53.7375 50.8871 52.9234 52.4406 51.3179C54.6853 48.9993 54.6007 45.6915 54.6007 45.6585C54.6007 45.642 54.5986 45.6173 54.5986 45.5987C54.5986 40.5555 50.4909 36.4522 45.4425 36.4522C40.394 36.4522 36.2863 40.5555 36.2863 45.5987C36.2863 46.452 35.5931 47.1444 34.7389 47.1444C33.8848 47.1444 33.1916 46.452 33.1916 45.5987C33.1916 38.8511 38.6878 33.3607 45.4425 33.3607C52.1889 33.3607 57.6789 38.8367 57.6933 45.5719C57.7078 46.0624 57.7284 50.2709 54.6956 53.4324C52.9358 55.2688 50.5425 56.3652 47.5654 56.7094L51.8794 69.3534C52.1848 69.6563 52.9275 70.32 54.1386 70.9754C55.657 71.7977 58.2463 72.7787 61.9723 72.7787C62.0899 72.7787 62.1456 72.754 62.2281 72.6653C62.8078 72.045 63.008 70.0603 62.9275 68.867C62.8966 68.4053 63.074 67.9519 63.4144 67.6366L63.9653 67.1214L61.2646 66.3299C60.4435 66.0888 59.9752 65.2315 60.2145 64.4112C60.4559 63.593 61.3141 63.1231 62.1353 63.3622L67.4354 64.9141C67.9677 65.0707 68.3762 65.4994 68.5062 66.0393C68.6341 66.5793 68.465 67.1461 68.0585 67.5253L66.0408 69.4131C66.0449 70.7528 65.8571 73.3166 64.4893 74.7758C63.8188 75.4909 62.9502 75.8701 61.9723 75.8701Z" fill="#262626"/>
<path d="M45.5953 50.7574C42.5646 50.7574 40.0991 48.2946 40.0991 45.267C40.0991 42.2395 42.5646 39.7766 45.5953 39.7766C48.626 39.7766 51.0915 42.2395 51.0915 45.267C51.0894 48.2946 48.624 50.7574 45.5953 50.7574ZM45.5953 42.8701C44.2708 42.8701 43.1938 43.9459 43.1938 45.2691C43.1938 46.5922 44.2708 47.668 45.5953 47.668C46.9198 47.668 47.9968 46.5922 47.9968 45.2691C47.9968 43.9459 46.9178 42.8701 45.5953 42.8701Z" fill="#262626"/>
<path d="M46.0945 70.6991C45.7891 70.6991 45.4797 70.6084 45.2115 70.4208L39.8968 66.7194C39.641 66.5401 39.4429 66.2886 39.3336 65.996L33.8147 51.3343C33.5135 50.5346 33.9179 49.6443 34.7184 49.3434C35.5189 49.0445 36.4101 49.4464 36.7114 50.2461L42.061 64.4585L46.9816 67.8859C47.6831 68.3743 47.8543 69.3368 47.3654 70.0375C47.0641 70.4682 46.5834 70.6991 46.0945 70.6991Z" fill="#262626"/>
<path d="M40.6994 85.0517C40.3879 85.0517 40.0743 84.959 39.802 84.7632C38.3103 83.6997 37.4191 82.1931 37.2891 80.5196C37.124 78.3824 38.1803 76.1813 40.4354 73.9781C41.046 73.3805 42.026 73.3908 42.6243 74.0008C43.2226 74.6109 43.2123 75.5898 42.6016 76.1875C41.0564 77.7002 40.2868 79.1141 40.3776 80.2806C40.456 81.2863 41.1781 81.9438 41.6031 82.2467C42.2984 82.7434 42.4593 83.708 41.9641 84.4025C41.6567 84.8271 41.1822 85.0517 40.6994 85.0517Z" fill="#262626"/>
<path d="M26.3895 100C26.3111 100 26.2306 99.994 26.1502 99.9816C25.3063 99.8518 24.7266 99.0604 24.8586 98.2174L26.6164 86.9007C27.159 82.5541 29.0282 78.562 32.0198 75.3593L38.1597 68.7828C38.7435 68.1583 39.7215 68.1232 40.3466 68.7065C40.9717 69.2898 41.0047 70.2667 40.4229 70.8911L34.283 77.4677C31.733 80.1984 30.1444 83.599 29.6843 87.3046C29.6823 87.3211 29.6802 87.3356 29.6781 87.352L27.9162 98.6915C27.7965 99.454 27.1384 100 26.3895 100Z" fill="#262626"/>
<path d="M40.6993 85.052C40.3672 85.052 40.035 84.9469 39.7523 84.7284C39.0777 84.2049 38.9539 83.2342 39.4759 82.5603L49.4841 69.6545C50.0082 68.9785 50.9799 68.8569 51.6546 69.3783C52.3292 69.9018 52.453 70.8725 51.931 71.5465L41.9228 84.4522C41.6174 84.8459 41.1615 85.052 40.6993 85.052Z" fill="#262626"/>
<path d="M65.3704 99.9998C64.5163 99.9998 63.8231 99.3073 63.8231 98.4541V97.0856C63.8231 95.1648 63.0865 93.347 61.7496 91.9662L52.7049 82.628C52.4263 82.3394 52.2695 81.954 52.2695 81.5542V76.4018C52.2695 75.5486 52.9627 74.8561 53.8169 74.8561C54.671 74.8561 55.3642 75.5486 55.3642 76.4018V80.9297L63.9737 89.8187C65.8718 91.7787 66.9178 94.361 66.9178 97.0877V98.4562C66.9178 99.3074 66.2246 99.9998 65.3704 99.9998Z" fill="#262626"/>
<path d="M66.7114 50.4339H55.9831C55.1289 50.4339 54.4357 49.7414 54.4357 48.8881C54.4357 48.0349 55.1289 47.3424 55.9831 47.3424H66.7114C67.5655 47.3424 68.2587 48.0349 68.2587 48.8881C68.2587 49.7414 67.5655 50.4339 66.7114 50.4339Z" fill="#262626"/>
<path d="M53.2721 95.7109C52.418 95.7109 51.7248 95.0185 51.7248 94.1652C51.7248 89.1777 47.6625 85.1217 42.6718 85.1217C37.6811 85.1217 33.6187 89.1798 33.6187 94.1652C33.6187 95.0185 32.9255 95.7109 32.0714 95.7109C31.2173 95.7109 30.524 95.0185 30.524 94.1652C30.524 87.4733 35.9728 82.0303 42.6718 82.0303C49.3708 82.0303 54.8195 87.4733 54.8195 94.1652C54.8195 95.0185 54.1263 95.7109 53.2721 95.7109Z" fill="#262626"/>
<path d="M76.9961 64.411C76.699 64.411 76.3978 64.3245 76.1317 64.1452C75.424 63.667 75.2362 62.7066 75.7149 61.9997C79.0613 57.0513 80.8315 51.2641 80.8315 45.2667C80.8315 42.639 80.491 40.0319 79.8185 37.5175C79.5977 36.6931 80.0887 35.8461 80.914 35.6256C81.7392 35.405 82.5872 35.8955 82.8079 36.7199C83.5507 39.494 83.9262 42.369 83.9262 45.2667C83.9262 51.8845 81.9744 58.2673 78.2794 63.7288C77.9802 64.174 77.4933 64.411 76.9961 64.411Z" fill="#262626"/>
<path d="M76.6619 28.728C76.175 28.728 75.6963 28.4992 75.3951 28.0705C71.7743 22.9284 66.7403 19.1136 60.8335 17.0341C60.0268 16.7497 59.6039 15.8676 59.8886 15.0618C60.1733 14.2559 61.0563 13.8334 61.863 14.1178C68.3784 16.4117 73.9344 20.6222 77.9266 26.2919C78.4176 26.9906 78.2505 27.9551 77.5511 28.4456C77.2788 28.6353 76.9693 28.728 76.6619 28.728Z" fill="#262626"/>
<path d="M27.3696 67.7786C26.9445 67.7786 26.5216 67.6055 26.2142 67.2634C20.7985 61.2083 17.8152 53.3972 17.8152 45.2688C17.8152 32.2785 25.4838 20.4486 37.351 15.1293C38.1288 14.7789 39.0469 15.1272 39.3955 15.9062C39.7463 16.6853 39.3976 17.6003 38.6177 17.9487C27.8606 22.7713 20.9099 33.4945 20.9099 45.2688C20.9099 52.6367 23.6126 59.7161 28.5228 65.2024C29.0923 65.8392 29.0366 66.8161 28.3991 67.385C28.104 67.6488 27.7368 67.7786 27.3696 67.7786Z" fill="#262626"/>
<path d="M12.2055 29.5419C10.2847 29.5419 8.7229 27.9818 8.7229 26.063C8.7229 24.1443 10.2847 22.5841 12.2055 22.5841C14.1262 22.5841 15.688 24.1443 15.688 26.063C15.688 27.9818 14.1262 29.5419 12.2055 29.5419ZM12.2055 25.6735C11.9909 25.6735 11.8176 25.8466 11.8176 26.061C11.8176 26.2753 11.9909 26.4484 12.2055 26.4484C12.42 26.4484 12.5933 26.2753 12.5933 26.061C12.5933 25.8487 12.42 25.6735 12.2055 25.6735Z" fill="#262626"/>
<path d="M82.1767 19.2615C80.2559 19.2615 78.6941 17.7014 78.6941 15.7826C78.6941 13.8639 80.2559 12.3037 82.1767 12.3037C84.0974 12.3037 85.6592 13.8639 85.6592 15.7826C85.6592 17.7014 84.0974 19.2615 82.1767 19.2615ZM82.1767 15.3931C81.9621 15.3931 81.7888 15.5662 81.7888 15.7806C81.7888 15.9949 81.9621 16.168 82.1767 16.168C82.3912 16.168 82.5645 15.9949 82.5645 15.7806C82.5645 15.5683 82.3912 15.3931 82.1767 15.3931Z" fill="#262626"/>
<path d="M21.9476 34.3111C21.6422 34.3111 21.3328 34.2204 21.0625 34.0329L4.44603 22.4338C4.03134 22.1453 3.78583 21.6712 3.78583 21.1663V9.21271C3.78583 8.35948 4.47904 7.66699 5.33318 7.66699C6.18731 7.66699 6.88052 8.35948 6.88052 9.21271V20.3625L22.8347 31.5C23.5362 31.9884 23.7054 32.9529 23.2164 33.6516C22.9172 34.0824 22.4365 34.3111 21.9476 34.3111Z" fill="#262626"/>
<path d="M10.2703 61.8393C8.34951 61.8393 6.78772 60.2791 6.78772 58.3604C6.78772 56.4416 8.34951 54.8815 10.2703 54.8815C12.1911 54.8815 13.7529 56.4416 13.7529 58.3604C13.7529 60.2791 12.1911 61.8393 10.2703 61.8393ZM10.2703 57.9729C10.0557 57.9729 9.88242 58.146 9.88242 58.3604C9.88242 58.5747 10.0557 58.7478 10.2703 58.7478C10.4849 58.7478 10.6582 58.5747 10.6582 58.3604C10.6582 58.146 10.4849 57.9729 10.2703 57.9729Z" fill="#262626"/>
<path d="M94.6669 78.1541C93.8127 78.1541 93.1195 77.4616 93.1195 76.6084V62.0064L80.9574 54.5746C80.2291 54.1294 79.998 53.1773 80.4436 52.4498C80.8893 51.7222 81.8424 51.4914 82.5707 51.9366L95.4736 59.8198C95.9336 60.1 96.2142 60.6009 96.2142 61.1388V76.6084C96.2142 77.4616 95.521 78.1541 94.6669 78.1541Z" fill="#262626"/>
<path d="M92.0054 34.3131C91.3328 34.3131 90.7139 33.872 90.52 33.194C88.0958 24.7667 82.8987 17.1762 75.8841 11.8218C68.6404 6.29221 59.9815 3.36977 50.8418 3.36977C46.0553 3.36977 41.3658 4.17972 36.9033 5.77903C36.1007 6.06757 35.2136 5.64919 34.9247 4.84542C34.6359 4.04164 35.0547 3.15749 35.8593 2.86895C40.6582 1.15011 45.7005 0.27832 50.8439 0.27832C60.6706 0.27832 69.9794 3.42129 77.7657 9.36717C85.3023 15.1214 90.8893 23.2807 93.495 32.3407C93.7302 33.161 93.2557 34.0183 92.4345 34.2533C92.2901 34.2925 92.1478 34.3131 92.0054 34.3131Z" fill="#262626"/>
<path d="M8.01524 46.1513C7.16111 46.1513 6.4679 45.4588 6.4679 44.6055C6.4679 38.1135 7.84194 31.8544 10.5508 26.0074C13.5836 19.4639 18.2319 13.689 23.9963 9.30743C24.675 8.79013 25.6468 8.92203 26.1646 9.60215C26.6825 10.2823 26.5504 11.2509 25.8696 11.7682C20.5054 15.8448 16.1791 21.2177 13.3588 27.3058C10.8397 32.7447 9.56053 38.5649 9.56053 44.6055C9.56259 45.4588 8.86938 46.1513 8.01524 46.1513Z" fill="#262626"/>
<path d="M16.3214 71.4742C15.8469 71.4742 15.3765 71.2557 15.0732 70.8435C12.3705 67.1729 10.26 63.1334 8.80339 58.8343C8.529 58.0264 8.96225 57.1484 9.77306 56.8743C10.5818 56.6002 11.4607 57.033 11.7351 57.8429C13.0906 61.8392 15.0526 65.5983 17.5676 69.0113C18.0751 69.6997 17.9266 70.6663 17.2375 71.1733C16.961 71.3773 16.6412 71.4742 16.3214 71.4742Z" fill="#262626"/>
<path d="M69.0055 84.9054C68.4237 84.9054 67.8667 84.5757 67.6047 84.0151C67.2416 83.2422 67.5758 82.321 68.3495 81.9603C76.0119 78.3701 82.3107 72.6015 86.5669 65.2768C86.996 64.539 87.943 64.2876 88.6816 64.7162C89.4202 65.1449 89.6719 66.0909 89.2428 66.8287C84.6688 74.6995 77.8976 80.8989 69.6616 84.757C69.4491 84.858 69.2263 84.9054 69.0055 84.9054Z" fill="#262626"/>
<path d="M94.6668 86.169C91.7268 86.169 89.3336 83.7783 89.3336 80.8414C89.3336 77.9045 91.7268 75.5138 94.6668 75.5138C97.6067 75.5138 99.9999 77.9045 99.9999 80.8414C99.9999 83.7783 97.6067 86.169 94.6668 86.169ZM94.6668 78.6052C93.433 78.6052 92.4283 79.6089 92.4283 80.8414C92.4283 82.0738 93.433 83.0775 94.6668 83.0775C95.9005 83.0775 96.9053 82.0738 96.9053 80.8414C96.9053 79.6089 95.9005 78.6052 94.6668 78.6052Z" fill="#262626"/>
<path d="M5.3332 10.6552C2.39323 10.6552 0 8.26446 0 5.32759C0 2.39072 2.39323 0 5.3332 0C8.27316 0 10.6664 2.39072 10.6664 5.32759C10.6664 8.26446 8.27316 10.6552 5.3332 10.6552ZM5.3332 3.09144C4.09944 3.09144 3.0947 4.09513 3.0947 5.32759C3.0947 6.56005 4.09944 7.56374 5.3332 7.56374C6.56695 7.56374 7.57169 6.56005 7.57169 5.32759C7.57169 4.09513 6.56695 3.09144 5.3332 3.09144Z" fill="#262626"/>
</svg>
