<svg width="90" height="90" viewBox="0 0 90 90" fill="none" xmlns="http://www.w3.org/2000/svg">
<path d="M88.9277 36.071L77.9968 21.4965C77.1557 20.3748 75.8043 19.6875 74.3788 19.6875H15.6195C14.2018 19.6875 12.8449 20.3715 12.0013 21.4965L1.07078 36.0708C-0.410895 38.0463 -0.385758 40.8773 1.33938 42.8327L41.6079 88.4704C43.4052 90.507 46.5882 90.5126 48.3904 88.4704L88.6589 42.8327C90.4004 40.8588 90.3959 38.0284 88.9277 36.071ZM86.8178 37.9689H64.7306L75.9236 23.4196C87.4429 38.7788 86.7042 37.7807 86.8178 37.9689ZM45.4855 86.8312C45.3363 87.3062 44.6624 87.3063 44.5129 86.8314L30.04 40.7815H59.9583L45.4855 86.8312ZM49.8385 22.5L59.3578 37.9689H30.6407L40.16 22.5H49.8385ZM53.1409 22.5H73.0824L62.0034 36.9014L53.1409 22.5ZM27.9951 36.9014L16.916 22.5H36.8576L27.9951 36.9014ZM14.0749 23.4196L25.2679 37.9689H3.18071C3.29426 37.7807 2.55966 38.7732 14.0749 23.4196ZM3.29655 40.7815H27.0918L40.2655 82.698C1.76196 39.0604 3.41274 40.9414 3.29655 40.7815ZM49.7326 82.698L62.9064 40.7815H86.7016C86.5863 40.9406 88.9548 38.2463 49.7326 82.698Z" fill="white"/>
<path d="M44.9991 12.6563C45.7757 12.6563 46.4054 12.0266 46.4054 11.25V1.40625C46.4054 0.629649 45.7757 0 44.9991 0C44.2225 0 43.5929 0.629649 43.5929 1.40625V11.25C43.5929 12.0266 44.2225 12.6563 44.9991 12.6563Z" fill="white"/>
<path d="M32.6509 14.9408C33.1336 15.5443 34.0182 15.648 34.6274 15.1605C35.2339 14.6754 35.3323 13.7903 34.8471 13.184L29.2221 6.15279C28.737 5.54616 27.8519 5.44825 27.2457 5.93306C26.6392 6.41822 26.5408 7.30328 27.0259 7.90955L32.6509 14.9408Z" fill="white"/>
<path d="M55.3709 15.1605C55.981 15.6487 56.8654 15.5436 57.3474 14.9408L62.9724 7.90955C63.4575 7.30328 63.3591 6.41822 62.7527 5.93306C62.1466 5.44825 61.2615 5.54616 60.7762 6.15279L55.1512 13.184C54.666 13.7903 54.7645 14.6754 55.3709 15.1605Z" fill="white"/>
</svg>
