<svg width="15" height="15" viewBox="0 0 15 15" fill="none" xmlns="http://www.w3.org/2000/svg">
<path d="M13.7891 0C14.1276 0 14.4141 0.117188 14.6484 0.351562C14.8828 0.559896 15 0.833333 15 1.17188V13.7109C15 14.0495 14.8828 14.349 14.6484 14.6094C14.4141 14.8698 14.1276 15 13.7891 15H1.28906C0.950521 15 0.651042 14.8698 0.390625 14.6094C0.130208 14.349 0 14.0495 0 13.7109V1.17188C0 0.833333 0.117188 0.559896 0.351562 0.351562C0.611979 0.117188 0.924479 0 1.28906 0H13.7891ZM4.64844 12.5V5.82031H2.5V12.5H4.64844ZM2.8125 4.49219C3.02083 4.70052 3.29427 4.80469 3.63281 4.80469C3.97135 4.80469 4.24479 4.70052 4.45312 4.49219C4.6875 4.25781 4.80469 3.98438 4.80469 3.67188C4.80469 3.33333 4.70052 3.0599 4.49219 2.85156C4.28385 2.61719 4.01042 2.5 3.67188 2.5C3.33333 2.5 3.04688 2.61719 2.8125 2.85156C2.60417 3.0599 2.5 3.33333 2.5 3.67188C2.5 3.98438 2.60417 4.25781 2.8125 4.49219ZM12.5 12.5V8.59375C12.5 7.63021 12.2656 6.90104 11.7969 6.40625C11.3542 5.91146 10.7682 5.66406 10.0391 5.66406C9.25781 5.66406 8.60677 6.02865 8.08594 6.75781V5.82031H5.9375V12.5H8.08594V8.71094C8.08594 8.45052 8.11198 8.26823 8.16406 8.16406C8.3724 7.64323 8.73698 7.38281 9.25781 7.38281C9.98698 7.38281 10.3516 7.86458 10.3516 8.82812V12.5H12.5Z" fill="white"/>
</svg>
