<svg xmlns="http://www.w3.org/2000/svg" width="24" height="24" fill="none"><path fill="#0b5da7" fill-rule="evenodd" d="M11.808.911a.35.35 0 0 1 .35-.349h3.881a.35.35 0 0 1 .351.35v1.543a.35.35 0 0 1-.35.35h-.74v1.147a8.6 8.6 0 0 1 4.632 2.188l.717-.71-.352-.35a.347.347 0 0 1 0-.494.35.35 0 0 1 .495 0l1.203 1.193a.347.347 0 0 1 0 .493.35.35 0 0 1-.495 0l-.354-.35-.718.712a8.47 8.47 0 0 1 2.26 5.758v.007c0 5.77-4.715 11.039-10.578 11.039-5.832 0-10.797-4.764-10.797-10.491a.35.35 0 0 1 .35-.35h2.593a.35.35 0 0 1 .35.328c.27 4.522 4.053 8.108 8.682 8.108 4.8 0 8.694-3.868 8.698-8.628V12.4c0-4.32-3.53-7.832-7.887-7.832S6.212 8.07 6.212 12.389a.35.35 0 0 1-.35.349.35.35 0 0 1-.352-.349c0-2.24.872-4.278 2.297-5.799l-.674-.668-.354.35a.35.35 0 0 1-.496 0 .347.347 0 0 1 0-.493l1.204-1.193a.35.35 0 0 1 .496 0 .347.347 0 0 1-.001.494l-.352.35.675.67A8.6 8.6 0 0 1 12.9 3.952V2.804h-.74a.35.35 0 0 1-.351-.349zM13.6 2.804v1.08a9 9 0 0 1 .996 0v-1.08zm4.972 17.31a9.4 9.4 0 0 1-4.935 1.61v.885c1.867-.322 3.565-1.221 4.935-2.494m-5.636 2.588v-.978a9.5 9.5 0 0 1-2.423-.406l-.446 1.211q.995.209 2.042.21.417 0 .827-.037m-3.555-.341.47-1.273a9.4 9.4 0 0 1-2.265-1.268l-1.072 1.225c.874.577 1.84 1.026 2.867 1.316m-3.44-1.723 1.103-1.262a9.4 9.4 0 0 1-1.695-1.974l-1.652.881a10.3 10.3 0 0 0 2.243 2.355m-2.62-2.946 1.673-.893a9.2 9.2 0 0 1-1.063-3.504H2.02a9.4 9.4 0 0 0 1.3 4.397M12.509 1.26v.847h3.18V1.26zm3.328 5.383c.15.071.228.236.19.396l-.979 4.062h2.28a.347.347 0 0 1 .278.562l-4.944 6.37a.35.35 0 0 1-.429.102.35.35 0 0 1-.19-.395l1.007-4.24h-2.18a.347.347 0 0 1-.278-.562l4.816-6.194a.35.35 0 0 1 .43-.1m-4.252 6.159h1.909a.352.352 0 0 1 .341.43l-.736 3.096 3.514-4.53h-2.01a.35.35 0 0 1-.34-.43l.7-2.911z" clip-rule="evenodd"></path></svg>