<svg width="39" height="41" viewBox="0 0 39 41" fill="none" xmlns="http://www.w3.org/2000/svg">
<path d="M21.3418 40.0018C20.2585 40.8444 18.7415 40.8444 17.6582 40.0018L1.18834 27.192C0.0150188 26.2794 0.0150197 24.506 1.18834 23.5934C2.01134 22.9533 3.16375 22.9532 3.98686 23.5932L17.6353 34.2045C18.7187 35.0468 20.2354 35.0467 21.3185 34.2042L34.9791 23.5793C35.8086 22.9342 36.9702 22.9347 37.7991 23.5805C38.9792 24.4999 38.9784 26.2845 37.7976 27.2029L21.3418 40.0018ZM21.3417 30.2151C20.2585 31.0584 18.7411 31.0589 17.6574 30.2164L2.61042 18.5177L1.91497 17.9758C0.372582 16.7741 0.373571 14.4417 1.91698 13.2413L17.6582 0.998141C18.7415 0.15555 20.2585 0.15555 21.3418 0.998141L37.0737 13.2341C38.62 14.4367 38.6175 16.7746 37.0687 17.9741L36.3667 18.5177L21.3417 30.2151Z" fill="#7483DD"/>
<path d="M21.3418 40.0018C20.2585 40.8444 18.7415 40.8444 17.6582 40.0018L1.18834 27.192C0.0150188 26.2794 0.0150197 24.506 1.18834 23.5934C2.01134 22.9533 3.16375 22.9532 3.98686 23.5932L17.6353 34.2045C18.7187 35.0468 20.2354 35.0467 21.3185 34.2042L34.9791 23.5793C35.8086 22.9342 36.9702 22.9347 37.7991 23.5805C38.9792 24.4999 38.9784 26.2845 37.7976 27.2029L21.3418 40.0018ZM21.3417 30.2151C20.2585 31.0584 18.7411 31.0589 17.6574 30.2164L2.61042 18.5177L1.91497 17.9758C0.372582 16.7741 0.373571 14.4417 1.91698 13.2413L17.6582 0.998141C18.7415 0.15555 20.2585 0.15555 21.3418 0.998141L37.0737 13.2341C38.62 14.4367 38.6175 16.7746 37.0687 17.9741L36.3667 18.5177L21.3417 30.2151Z" fill="url(#paint0_linear)"/>
<defs>
<linearGradient id="paint0_linear" x1="19.5" y1="-0.434387" x2="19.5" y2="41.4344" gradientUnits="userSpaceOnUse">
<stop stop-color="#7483DD"/>
<stop offset="1" stop-color="white" stop-opacity="0"/>
</linearGradient>
</defs>
</svg>
