<svg width="13" height="20" viewBox="0 0 13 20" fill="none" xmlns="http://www.w3.org/2000/svg">
<path d="M1.80469 1.92969C3.00781 0.726562 4.46875 0.125 6.1875 0.125C7.90625 0.125 9.36719 0.726562 10.5703 1.92969C11.7734 3.13281 12.375 4.59375 12.375 6.3125C12.375 7.74479 11.8594 9.54948 10.8281 11.7266C9.79688 13.9036 8.76562 15.7227 7.73438 17.1836L6.1875 19.375C5.72917 18.7448 5.15625 17.9427 4.46875 16.9688C3.78125 15.9661 2.86458 14.3047 1.71875 11.9844C0.572917 9.63542 0 7.74479 0 6.3125C0 4.59375 0.601562 3.13281 1.80469 1.92969ZM4.72656 7.77344C5.1276 8.14583 5.61458 8.33203 6.1875 8.33203C6.76042 8.33203 7.23307 8.14583 7.60547 7.77344C8.00651 7.3724 8.20703 6.88542 8.20703 6.3125C8.20703 5.73958 8.00651 5.26693 7.60547 4.89453C7.23307 4.49349 6.76042 4.29297 6.1875 4.29297C5.61458 4.29297 5.1276 4.49349 4.72656 4.89453C4.35417 5.26693 4.16797 5.73958 4.16797 6.3125C4.16797 6.88542 4.35417 7.3724 4.72656 7.77344Z" fill="#35973F"/>
</svg>
