<svg width="16" height="16" viewBox="0 0 16 16" fill="none" xmlns="http://www.w3.org/2000/svg">
<path d="M14.4375 11.1875C15.2969 12.0469 15.2969 12.9922 14.4375 14.0234C14.0938 14.4245 13.75 14.7253 13.4062 14.9258C13.0911 15.1263 12.819 15.2409 12.5898 15.2695C12.3893 15.2982 12.0885 15.3125 11.6875 15.3125C10.5703 15.3125 9.23828 14.7396 7.69141 13.5938C6.45964 12.7057 5.34245 11.7461 4.33984 10.7148C3.05078 9.36849 1.91927 7.83594 0.945312 6.11719C0.0859375 4.51302 -0.171875 3.19531 0.171875 2.16406C0.34375 1.61979 0.744792 1.14714 1.375 0.746094L1.41797 0.703125C1.93359 0.359375 2.39193 0.1875 2.79297 0.1875C3.33724 0.1875 3.82422 0.445312 4.25391 0.960938L4.29688 1.00391C4.95573 1.86328 5.41406 2.53646 5.67188 3.02344C6.10156 3.91146 6.08724 4.67057 5.62891 5.30078C5.28516 5.75911 5.11328 6.08854 5.11328 6.28906C5.11328 6.375 5.29948 6.63281 5.67188 7.0625L5.71484 7.10547C6.40234 7.87891 6.77474 8.29427 6.83203 8.35156C6.86068 8.35156 6.88932 8.36589 6.91797 8.39453C6.94661 8.42318 6.97526 8.45182 7.00391 8.48047L7.08984 8.56641C7.66276 9.13932 8.07812 9.54036 8.33594 9.76953L8.37891 9.8125C8.63672 10.0417 8.80859 10.1562 8.89453 10.1562C9.03776 10.1562 9.45312 9.94141 10.1406 9.51172C10.3411 9.36849 10.5846 9.29688 10.8711 9.29688C11.3867 9.29688 12.0026 9.51172 12.7188 9.94141C13.4635 10.3711 14.0365 10.7865 14.4375 11.1875Z" fill="#35973F"/>
</svg>
