<svg xmlns="http://www.w3.org/2000/svg" width="24" height="24" fill="none"><path fill="#000" d="M2.188 15.108a.736.736 0 0 0-.013.968l2.38 2.713A.6.6 0 0 0 5 19a.59.59 0 0 0 .443-.21l2.382-2.714a.736.736 0 0 0-.013-.968.578.578 0 0 0-.875.015l-1.318 1.502V5.685c0-.379-.277-.685-.62-.685-.341 0-.618.306-.618.684v10.94l-1.318-1.501a.578.578 0 0 0-.875-.015M21.249 5H10.75a.75.75 0 1 0 0 1.5H21.25a.75.75 0 1 0 0-1.5M19 9.916c0-.415-.313-.75-.7-.75h-7.6c-.387 0-.7.335-.7.75s.313.75.7.75h7.6c.387 0 .7-.335.7-.75M17 14.084c0-.415-.322-.75-.72-.75h-5.56c-.398 0-.72.335-.72.75s.322.75.72.75h5.56c.398 0 .72-.335.72-.75M10.756 17.5a.753.753 0 0 0-.756.75c0 .415.338.75.756.75h3.488a.753.753 0 0 0 .756-.75.753.753 0 0 0-.756-.75z"></path></svg>