<svg width="19" height="15" viewBox="0 0 19 15" fill="none" xmlns="http://www.w3.org/2000/svg">
<path d="M18.7188 1.79688C18.25 2.52604 17.625 3.17708 16.8438 3.75V4.21875C16.8438 6.95312 15.8542 9.4401 13.875 11.6797C11.9219 13.8932 9.31771 15 6.0625 15C3.97917 15 2.05208 14.4271 0.28125 13.2812C0.697917 13.3333 0.997396 13.3594 1.17969 13.3594C2.92448 13.3594 4.48698 12.8125 5.86719 11.7188C5.0599 11.6927 4.33073 11.4453 3.67969 10.9766C3.02865 10.4818 2.58594 9.85677 2.35156 9.10156C2.66406 9.15365 2.89844 9.17969 3.05469 9.17969C3.3151 9.17969 3.65365 9.1276 4.07031 9.02344C3.21094 8.84115 2.48177 8.41146 1.88281 7.73438C1.3099 7.03125 1.02344 6.22396 1.02344 5.3125V5.27344C1.59635 5.58594 2.16927 5.74219 2.74219 5.74219C1.6224 5.01302 1.0625 3.95833 1.0625 2.57812C1.0625 1.92708 1.23177 1.30208 1.57031 0.703125C3.57552 3.17708 6.16667 4.49219 9.34375 4.64844C9.29167 4.46615 9.26562 4.17969 9.26562 3.78906C9.26562 2.72135 9.63021 1.82292 10.3594 1.09375C11.0885 0.364583 11.987 0 13.0547 0C14.1224 0 15.0339 0.403646 15.7891 1.21094C16.5703 1.08073 17.3776 0.768229 18.2109 0.273438C17.9505 1.1849 17.3906 1.88802 16.5312 2.38281C17.3385 2.30469 18.0677 2.10938 18.7188 1.79688Z" fill="white"/>
</svg>
