<svg width="154" height="28" viewBox="0 0 154 28" fill="none" xmlns="http://www.w3.org/2000/svg">
<path d="M8.6 22.27C7.06 22.27 5.6 22.07 4.22 21.67C2.86 21.25 1.75 20.69 0.89 19.99C0.43 19.65 0.2 19.17 0.2 18.55C0.2 18.13 0.32 17.77 0.56 17.47C0.82 17.15 1.12 16.99 1.46 16.99C1.82 16.99 2.23 17.13 2.69 17.41C3.55 18.03 4.45 18.48 5.39 18.76C6.33 19.04 7.37 19.18 8.51 19.18C9.97 19.18 11.09 18.93 11.87 18.43C12.65 17.91 13.04 17.16 13.04 16.18C13.04 15.42 12.67 14.84 11.93 14.44C11.21 14.02 10 13.62 8.3 13.24C6.54 12.86 5.11 12.42 4.01 11.92C2.91 11.42 2.08 10.78 1.52 10C0.96 9.22 0.68 8.23 0.68 7.03C0.68 5.79 1.03 4.68 1.73 3.7C2.43 2.72 3.4 1.96 4.64 1.42C5.9 0.859999 7.31 0.579999 8.87 0.579999C11.73 0.579999 14.06 1.34 15.86 2.86C16.12 3.08 16.3 3.3 16.4 3.52C16.52 3.72 16.58 3.98 16.58 4.3C16.58 4.72 16.45 5.09 16.19 5.41C15.95 5.71 15.66 5.86 15.32 5.86C15.12 5.86 14.93 5.83 14.75 5.77C14.59 5.71 14.37 5.6 14.09 5.44C13.27 4.84 12.47 4.4 11.69 4.12C10.93 3.82 9.99 3.67 8.87 3.67C7.51 3.67 6.43 3.95 5.63 4.51C4.85 5.05 4.46 5.81 4.46 6.79C4.46 7.61 4.81 8.24 5.51 8.68C6.21 9.12 7.4 9.53 9.08 9.91C10.86 10.31 12.3 10.76 13.4 11.26C14.52 11.74 15.37 12.36 15.95 13.12C16.55 13.88 16.85 14.83 16.85 15.97C16.85 17.21 16.5 18.31 15.8 19.27C15.12 20.21 14.15 20.95 12.89 21.49C11.65 22.01 10.22 22.27 8.6 22.27ZM28.6609 6.97C32.1009 6.97 33.8209 8.98 33.8209 13V20.38C33.8209 20.94 33.6509 21.38 33.3109 21.7C32.9909 22.02 32.5409 22.18 31.9609 22.18C31.3809 22.18 30.9209 22.02 30.5809 21.7C30.2409 21.38 30.0709 20.94 30.0709 20.38V13C30.0709 11.94 29.8509 11.17 29.4109 10.69C28.9909 10.19 28.3209 9.94 27.4009 9.94C26.3209 9.94 25.4509 10.28 24.7909 10.96C24.1509 11.64 23.8309 12.55 23.8309 13.69V20.38C23.8309 20.94 23.6609 21.38 23.3209 21.7C22.9809 22.02 22.5209 22.18 21.9409 22.18C21.3609 22.18 20.9009 22.02 20.5609 21.7C20.2409 21.38 20.0809 20.94 20.0809 20.38V2.44C20.0809 1.92 20.2509 1.5 20.5909 1.18C20.9509 0.859999 21.4109 0.699999 21.9709 0.699999C22.5309 0.699999 22.9809 0.849999 23.3209 1.15C23.6609 1.45 23.8309 1.86 23.8309 2.38V9.37C24.3309 8.59 24.9909 8 25.8109 7.6C26.6509 7.18 27.6009 6.97 28.6609 6.97ZM44.3197 22.24C42.8197 22.24 41.4997 21.93 40.3597 21.31C39.2397 20.69 38.3697 19.8 37.7497 18.64C37.1297 17.48 36.8197 16.13 36.8197 14.59C36.8197 13.05 37.1297 11.71 37.7497 10.57C38.3697 9.41 39.2397 8.52 40.3597 7.9C41.4997 7.28 42.8197 6.97 44.3197 6.97C45.8197 6.97 47.1297 7.28 48.2497 7.9C49.3897 8.52 50.2597 9.41 50.8597 10.57C51.4797 11.71 51.7897 13.05 51.7897 14.59C51.7897 16.13 51.4797 17.48 50.8597 18.64C50.2597 19.8 49.3897 20.69 48.2497 21.31C47.1297 21.93 45.8197 22.24 44.3197 22.24ZM44.2897 19.33C45.5097 19.33 46.4397 18.93 47.0797 18.13C47.7197 17.33 48.0397 16.15 48.0397 14.59C48.0397 13.05 47.7197 11.88 47.0797 11.08C46.4397 10.26 45.5197 9.85 44.3197 9.85C43.1197 9.85 42.1897 10.26 41.5297 11.08C40.8897 11.88 40.5697 13.05 40.5697 14.59C40.5697 16.15 40.8897 17.33 41.5297 18.13C42.1697 18.93 43.0897 19.33 44.2897 19.33ZM63.3155 6.97C64.5755 6.97 65.6955 7.29 66.6755 7.93C67.6755 8.57 68.4455 9.48 68.9855 10.66C69.5455 11.82 69.8255 13.16 69.8255 14.68C69.8255 16.2 69.5455 17.53 68.9855 18.67C68.4455 19.81 67.6855 20.69 66.7055 21.31C65.7255 21.93 64.5955 22.24 63.3155 22.24C62.2755 22.24 61.3455 22.02 60.5255 21.58C59.7055 21.14 59.0755 20.53 58.6355 19.75V25.87C58.6355 26.39 58.4655 26.8 58.1255 27.1C57.7855 27.4 57.3355 27.55 56.7755 27.55C56.2155 27.55 55.7555 27.39 55.3955 27.07C55.0555 26.75 54.8855 26.33 54.8855 25.81V8.8C54.8855 8.26 55.0455 7.83 55.3655 7.51C55.7055 7.19 56.1555 7.03 56.7155 7.03C57.2755 7.03 57.7255 7.19 58.0655 7.51C58.4055 7.83 58.5755 8.26 58.5755 8.8V9.55C59.0155 8.73 59.6455 8.1 60.4655 7.66C61.3055 7.2 62.2555 6.97 63.3155 6.97ZM62.3255 19.33C63.5055 19.33 64.4255 18.93 65.0855 18.13C65.7455 17.31 66.0755 16.16 66.0755 14.68C66.0755 13.16 65.7455 11.98 65.0855 11.14C64.4255 10.3 63.5055 9.88 62.3255 9.88C61.1255 9.88 60.1955 10.29 59.5355 11.11C58.8955 11.93 58.5755 13.1 58.5755 14.62C58.5755 16.12 58.8955 17.28 59.5355 18.1C60.1955 18.92 61.1255 19.33 62.3255 19.33ZM79.5931 22.24C78.0931 22.24 76.7731 21.93 75.6331 21.31C74.5131 20.69 73.6431 19.8 73.0231 18.64C72.4031 17.48 72.0931 16.13 72.0931 14.59C72.0931 13.05 72.4031 11.71 73.0231 10.57C73.6431 9.41 74.5131 8.52 75.6331 7.9C76.7731 7.28 78.0931 6.97 79.5931 6.97C81.0931 6.97 82.4031 7.28 83.5231 7.9C84.6631 8.52 85.5331 9.41 86.1331 10.57C86.7531 11.71 87.0631 13.05 87.0631 14.59C87.0631 16.13 86.7531 17.48 86.1331 18.64C85.5331 19.8 84.6631 20.69 83.5231 21.31C82.4031 21.93 81.0931 22.24 79.5931 22.24ZM79.5631 19.33C80.7831 19.33 81.7131 18.93 82.3531 18.13C82.9931 17.33 83.3131 16.15 83.3131 14.59C83.3131 13.05 82.9931 11.88 82.3531 11.08C81.7131 10.26 80.7931 9.85 79.5931 9.85C78.3931 9.85 77.4631 10.26 76.8031 11.08C76.1631 11.88 75.8431 13.05 75.8431 14.59C75.8431 16.15 76.1631 17.33 76.8031 18.13C77.4431 18.93 78.3631 19.33 79.5631 19.33ZM98.679 6.97C100.439 6.97 101.749 7.47 102.609 8.47C103.469 9.47 103.899 10.98 103.899 13V20.38C103.899 20.94 103.729 21.38 103.389 21.7C103.069 22.02 102.619 22.18 102.039 22.18C101.459 22.18 100.999 22.02 100.659 21.7C100.319 21.38 100.149 20.94 100.149 20.38V13.21C100.149 12.07 99.929 11.24 99.489 10.72C99.069 10.2 98.399 9.94 97.479 9.94C96.399 9.94 95.529 10.28 94.869 10.96C94.229 11.64 93.909 12.55 93.909 13.69V20.38C93.909 20.94 93.739 21.38 93.399 21.7C93.059 22.02 92.599 22.18 92.019 22.18C91.439 22.18 90.979 22.02 90.639 21.7C90.319 21.38 90.159 20.94 90.159 20.38V8.77C90.159 8.25 90.329 7.83 90.669 7.51C91.009 7.19 91.469 7.03 92.049 7.03C92.569 7.03 92.989 7.19 93.309 7.51C93.649 7.81 93.819 8.21 93.819 8.71V9.52C94.319 8.7 94.989 8.07 95.829 7.63C96.669 7.19 97.619 6.97 98.679 6.97ZM109.568 22.18C109.028 22.18 108.578 22.03 108.218 21.73C107.878 21.41 107.708 20.96 107.708 20.38V2.47C107.708 1.89 107.878 1.45 108.218 1.15C108.578 0.849999 109.028 0.699999 109.568 0.699999C110.108 0.699999 110.558 0.849999 110.918 1.15C111.278 1.45 111.458 1.89 111.458 2.47V20.38C111.458 20.96 111.278 21.41 110.918 21.73C110.558 22.03 110.108 22.18 109.568 22.18ZM117.185 22.18C116.645 22.18 116.195 22.03 115.835 21.73C115.495 21.41 115.325 20.96 115.325 20.38V8.8C115.325 8.22 115.495 7.78 115.835 7.48C116.195 7.18 116.645 7.03 117.185 7.03C117.725 7.03 118.175 7.18 118.535 7.48C118.895 7.78 119.075 8.22 119.075 8.8V20.38C119.075 20.96 118.895 21.41 118.535 21.73C118.175 22.03 117.725 22.18 117.185 22.18ZM117.185 4.36C116.505 4.36 115.965 4.18 115.565 3.82C115.165 3.44 114.965 2.95 114.965 2.35C114.965 1.75 115.165 1.27 115.565 0.91C115.965 0.55 116.505 0.37 117.185 0.37C117.845 0.37 118.375 0.55 118.775 0.91C119.195 1.27 119.405 1.75 119.405 2.35C119.405 2.95 119.205 3.44 118.805 3.82C118.405 4.18 117.865 4.36 117.185 4.36ZM131.462 6.97C133.222 6.97 134.532 7.47 135.392 8.47C136.252 9.47 136.682 10.98 136.682 13V20.38C136.682 20.94 136.512 21.38 136.172 21.7C135.852 22.02 135.402 22.18 134.822 22.18C134.242 22.18 133.782 22.02 133.442 21.7C133.102 21.38 132.932 20.94 132.932 20.38V13.21C132.932 12.07 132.712 11.24 132.272 10.72C131.852 10.2 131.182 9.94 130.262 9.94C129.182 9.94 128.312 10.28 127.652 10.96C127.012 11.64 126.692 12.55 126.692 13.69V20.38C126.692 20.94 126.522 21.38 126.182 21.7C125.842 22.02 125.382 22.18 124.802 22.18C124.222 22.18 123.762 22.02 123.422 21.7C123.102 21.38 122.942 20.94 122.942 20.38V8.77C122.942 8.25 123.112 7.83 123.452 7.51C123.792 7.19 124.252 7.03 124.832 7.03C125.352 7.03 125.772 7.19 126.092 7.51C126.432 7.81 126.602 8.21 126.602 8.71V9.52C127.102 8.7 127.772 8.07 128.612 7.63C129.452 7.19 130.402 6.97 131.462 6.97ZM152.101 17.98C152.441 17.98 152.711 18.11 152.911 18.37C153.131 18.63 153.241 18.98 153.241 19.42C153.241 20.04 152.871 20.56 152.131 20.98C151.451 21.36 150.681 21.67 149.821 21.91C148.961 22.13 148.141 22.24 147.361 22.24C145.001 22.24 143.131 21.56 141.751 20.2C140.371 18.84 139.681 16.98 139.681 14.62C139.681 13.12 139.981 11.79 140.581 10.63C141.181 9.47 142.021 8.57 143.101 7.93C144.201 7.29 145.441 6.97 146.821 6.97C148.141 6.97 149.291 7.26 150.271 7.84C151.251 8.42 152.011 9.24 152.551 10.3C153.091 11.36 153.361 12.61 153.361 14.05C153.361 14.91 152.981 15.34 152.221 15.34H143.371C143.491 16.72 143.881 17.74 144.541 18.4C145.201 19.04 146.161 19.36 147.421 19.36C148.061 19.36 148.621 19.28 149.101 19.12C149.601 18.96 150.161 18.74 150.781 18.46C151.381 18.14 151.821 17.98 152.101 17.98ZM146.911 9.61C145.891 9.61 145.071 9.93 144.451 10.57C143.851 11.21 143.491 12.13 143.371 13.33H150.151C150.111 12.11 149.811 11.19 149.251 10.57C148.691 9.93 147.911 9.61 146.911 9.61Z" fill="white"/>
</svg>
